G04 (created by PCBNEW (2013-07-07 BZR 4022)-stable) date 1/14/2014 13:09:40*
%MOIN*%
G04 Gerber Fmt 3.4, Leading zero omitted, Abs format*
%FSLAX34Y34*%
G01*
G70*
G90*
G04 APERTURE LIST*
%ADD10C,0.00590551*%
%ADD11O,0.0177165X0.137795*%
%ADD12R,0.0177165X0.137795*%
%ADD13R,0.0590551X0.0590551*%
%ADD14C,0.0590551*%
%ADD15C,0.02*%
%ADD16C,0.01*%
%ADD17C,0.005*%
G04 APERTURE END LIST*
G54D10*
G54D11*
X57000Y-35050D03*
G54D12*
X57275Y-35050D03*
X57551Y-35050D03*
X57826Y-35050D03*
X58102Y-35050D03*
X58377Y-35050D03*
X58653Y-35050D03*
X58929Y-35050D03*
X59204Y-35050D03*
X59480Y-35050D03*
X59755Y-35050D03*
X60031Y-35050D03*
X60307Y-35050D03*
X60582Y-35050D03*
X60858Y-35050D03*
X61133Y-35050D03*
X61409Y-35050D03*
X61685Y-35050D03*
X61960Y-35050D03*
X62236Y-35050D03*
X62511Y-35050D03*
X62787Y-35050D03*
X63062Y-35050D03*
X63338Y-35050D03*
X63614Y-35050D03*
X63889Y-35050D03*
X64165Y-35050D03*
X64440Y-35050D03*
X64716Y-35050D03*
X64992Y-35050D03*
G54D13*
X57500Y-37750D03*
G54D14*
X57500Y-36750D03*
X58500Y-37750D03*
X58500Y-36750D03*
X59500Y-37750D03*
X59500Y-36750D03*
X60500Y-37750D03*
X60500Y-36750D03*
X61500Y-37750D03*
X61500Y-36750D03*
X62500Y-37750D03*
X62500Y-36750D03*
X63500Y-37750D03*
X63500Y-36750D03*
X64500Y-37750D03*
X64500Y-36750D03*
G54D10*
G36*
X58146Y-32878D02*
X58047Y-33271D01*
X57752Y-33271D01*
X57653Y-32878D01*
X58146Y-32878D01*
X58146Y-32878D01*
G37*
G36*
X58047Y-32378D02*
X58146Y-32771D01*
X57653Y-32771D01*
X57752Y-32378D01*
X58047Y-32378D01*
X58047Y-32378D01*
G37*
G36*
X61296Y-32878D02*
X61197Y-33271D01*
X60902Y-33271D01*
X60803Y-32878D01*
X61296Y-32878D01*
X61296Y-32878D01*
G37*
G36*
X61197Y-32378D02*
X61296Y-32771D01*
X60803Y-32771D01*
X60902Y-32378D01*
X61197Y-32378D01*
X61197Y-32378D01*
G37*
G36*
X59096Y-32878D02*
X58997Y-33271D01*
X58702Y-33271D01*
X58603Y-32878D01*
X59096Y-32878D01*
X59096Y-32878D01*
G37*
G36*
X58997Y-32378D02*
X59096Y-32771D01*
X58603Y-32771D01*
X58702Y-32378D01*
X58997Y-32378D01*
X58997Y-32378D01*
G37*
G36*
X57421Y-32878D02*
X57322Y-33271D01*
X57027Y-33271D01*
X56928Y-32878D01*
X57421Y-32878D01*
X57421Y-32878D01*
G37*
G36*
X57322Y-32378D02*
X57421Y-32771D01*
X56928Y-32771D01*
X57027Y-32378D01*
X57322Y-32378D01*
X57322Y-32378D01*
G37*
G36*
X59821Y-32878D02*
X59722Y-33271D01*
X59427Y-33271D01*
X59328Y-32878D01*
X59821Y-32878D01*
X59821Y-32878D01*
G37*
G36*
X59722Y-32378D02*
X59821Y-32771D01*
X59328Y-32771D01*
X59427Y-32378D01*
X59722Y-32378D01*
X59722Y-32378D01*
G37*
G36*
X60546Y-32878D02*
X60447Y-33271D01*
X60152Y-33271D01*
X60053Y-32878D01*
X60546Y-32878D01*
X60546Y-32878D01*
G37*
G36*
X60447Y-32378D02*
X60546Y-32771D01*
X60053Y-32771D01*
X60152Y-32378D01*
X60447Y-32378D01*
X60447Y-32378D01*
G37*
G54D15*
X59300Y-33875D03*
X61675Y-32575D03*
X58375Y-32125D03*
X58375Y-33950D03*
X61950Y-33975D03*
X62450Y-33975D03*
X58850Y-33825D03*
X57275Y-36125D03*
X56925Y-33975D03*
X57900Y-33975D03*
X57875Y-36125D03*
X63725Y-34000D03*
X64125Y-34000D03*
X64500Y-34000D03*
X61450Y-33975D03*
X60475Y-33750D03*
X61000Y-33725D03*
G54D16*
X61675Y-32575D02*
X61050Y-32575D01*
X59300Y-33875D02*
X59204Y-33970D01*
X59204Y-33970D02*
X59204Y-35050D01*
X59229Y-33945D02*
X59300Y-33875D01*
X58375Y-35047D02*
X58375Y-33950D01*
X58375Y-35047D02*
X58377Y-35050D01*
X58375Y-32125D02*
X58375Y-32575D01*
X58375Y-33875D02*
X58375Y-35047D01*
X58375Y-35047D02*
X58377Y-35050D01*
X57925Y-32575D02*
X58375Y-32575D01*
X58375Y-32575D02*
X58675Y-32575D01*
X57500Y-37750D02*
X58000Y-37250D01*
X58375Y-35052D02*
X58377Y-35050D01*
X58375Y-36200D02*
X58375Y-35052D01*
X58275Y-36200D02*
X58375Y-36200D01*
X58000Y-36475D02*
X58275Y-36200D01*
X58000Y-37250D02*
X58000Y-36475D01*
X58150Y-33475D02*
X57925Y-33250D01*
X59400Y-33475D02*
X58150Y-33475D01*
X59480Y-35050D02*
X59480Y-34169D01*
X59650Y-33725D02*
X59525Y-33600D01*
X59650Y-34000D02*
X59650Y-33725D01*
X59480Y-34169D02*
X59650Y-34000D01*
X59525Y-33600D02*
X59400Y-33475D01*
X57925Y-33250D02*
X57925Y-33075D01*
X57175Y-33075D02*
X57550Y-33075D01*
X57550Y-33075D02*
X57925Y-33075D01*
X59575Y-33075D02*
X59875Y-33375D01*
X59875Y-34075D02*
X59875Y-33600D01*
X59755Y-34194D02*
X59755Y-35050D01*
X59755Y-34194D02*
X59800Y-34150D01*
X59800Y-34150D02*
X59875Y-34075D01*
X59875Y-33375D02*
X59875Y-33600D01*
X59755Y-33255D02*
X59575Y-33075D01*
X58825Y-33075D02*
X59575Y-33075D01*
X60125Y-34125D02*
X60125Y-34150D01*
X60125Y-34150D02*
X60031Y-34243D01*
X60125Y-34125D02*
X60125Y-33250D01*
X60031Y-35050D02*
X60031Y-34243D01*
X60125Y-33250D02*
X60300Y-33075D01*
X60300Y-33075D02*
X61050Y-33075D01*
X61685Y-35050D02*
X61685Y-36064D01*
X61000Y-37250D02*
X60500Y-37750D01*
X61000Y-36425D02*
X61000Y-37250D01*
X61225Y-36200D02*
X61000Y-36425D01*
X61550Y-36200D02*
X61225Y-36200D01*
X61685Y-36064D02*
X61550Y-36200D01*
X61950Y-35039D02*
X61950Y-33975D01*
X61950Y-35039D02*
X61960Y-35050D01*
X62236Y-34188D02*
X62450Y-33975D01*
X62236Y-35050D02*
X62236Y-34188D01*
X62100Y-36000D02*
X61500Y-36600D01*
X62511Y-35050D02*
X62511Y-35938D01*
X62511Y-35938D02*
X62450Y-36000D01*
X62100Y-36000D02*
X62450Y-36000D01*
X61500Y-36600D02*
X61500Y-36750D01*
X62787Y-35762D02*
X62787Y-36012D01*
X62500Y-37750D02*
X62000Y-37250D01*
X62787Y-35762D02*
X62787Y-35000D01*
X62250Y-36250D02*
X62550Y-36250D01*
X62000Y-36500D02*
X62250Y-36250D01*
X62000Y-37250D02*
X62000Y-36500D01*
X62787Y-36012D02*
X62550Y-36250D01*
X63062Y-35837D02*
X63062Y-36087D01*
X63062Y-36087D02*
X62500Y-36650D01*
X62500Y-36750D02*
X62500Y-36650D01*
X63062Y-35837D02*
X63062Y-35000D01*
X63350Y-35900D02*
X63350Y-36150D01*
X63000Y-37250D02*
X63000Y-36500D01*
X63000Y-36500D02*
X63350Y-36150D01*
X63350Y-35900D02*
X63350Y-35011D01*
X63338Y-35000D02*
X63350Y-35011D01*
X63000Y-37250D02*
X63500Y-37750D01*
X63614Y-36635D02*
X63614Y-36385D01*
X63614Y-36385D02*
X63614Y-35000D01*
X63614Y-36635D02*
X63500Y-36750D01*
X63500Y-36750D02*
X63614Y-36635D01*
X60850Y-35975D02*
X60858Y-35966D01*
X60858Y-35050D02*
X60858Y-35866D01*
X60175Y-35975D02*
X60850Y-35975D01*
X58700Y-36750D02*
X58500Y-36750D01*
X59925Y-36225D02*
X60150Y-35999D01*
X59225Y-36225D02*
X59925Y-36225D01*
X58700Y-36750D02*
X59225Y-36225D01*
X60150Y-35999D02*
X60175Y-35975D01*
X60858Y-35966D02*
X60858Y-35866D01*
X61409Y-35050D02*
X61409Y-35965D01*
X59700Y-36750D02*
X59500Y-36750D01*
X60250Y-36200D02*
X59700Y-36750D01*
X60925Y-36200D02*
X60250Y-36200D01*
X61150Y-35975D02*
X60925Y-36200D01*
X61400Y-35975D02*
X61150Y-35975D01*
X61409Y-35965D02*
X61400Y-35975D01*
X57175Y-32575D02*
X57175Y-32100D01*
X57175Y-32575D02*
X56700Y-32575D01*
X58929Y-35050D02*
X58929Y-33904D01*
X58929Y-33904D02*
X58850Y-33825D01*
X60300Y-32575D02*
X60300Y-32525D01*
X60300Y-32525D02*
X60600Y-32225D01*
X60300Y-32525D02*
X59975Y-32200D01*
X59575Y-32575D02*
X59575Y-32525D01*
X59575Y-32525D02*
X59900Y-32200D01*
X59575Y-32525D02*
X59150Y-32100D01*
X59575Y-32575D02*
X60300Y-32575D01*
X57275Y-36125D02*
X57275Y-35050D01*
X57275Y-35050D02*
X57275Y-35050D01*
X57550Y-35048D02*
X57550Y-34200D01*
X57325Y-33975D02*
X57550Y-34200D01*
X56925Y-33975D02*
X57325Y-33975D01*
X57550Y-35048D02*
X57551Y-35050D01*
X57900Y-33975D02*
X57826Y-34048D01*
X57826Y-34248D02*
X57826Y-34048D01*
X57826Y-34223D02*
X57826Y-34248D01*
X57826Y-34248D02*
X57826Y-35050D01*
X58102Y-35897D02*
X57875Y-36125D01*
X58102Y-35897D02*
X58102Y-35050D01*
X63889Y-35050D02*
X63889Y-34164D01*
X63889Y-34164D02*
X63725Y-34000D01*
X64165Y-34040D02*
X64125Y-34000D01*
X64165Y-35000D02*
X64165Y-34040D01*
X64440Y-35000D02*
X64440Y-34059D01*
X64440Y-34059D02*
X64500Y-34000D01*
X61450Y-33975D02*
X61133Y-34291D01*
X61133Y-35050D02*
X61133Y-34291D01*
X60307Y-35050D02*
X60307Y-34242D01*
X60475Y-34075D02*
X60475Y-33750D01*
X60307Y-34242D02*
X60475Y-34075D01*
X60300Y-35042D02*
X60307Y-35050D01*
X61000Y-33725D02*
X60582Y-34317D01*
X60582Y-34317D02*
X60582Y-35050D01*
G54D10*
G36*
X65541Y-37894D02*
X65184Y-38252D01*
X65184Y-35718D01*
X65184Y-34381D01*
X65184Y-34340D01*
X65168Y-34302D01*
X65139Y-34273D01*
X65101Y-34257D01*
X65032Y-34257D01*
X65006Y-34283D01*
X65006Y-35035D01*
X65158Y-35035D01*
X65184Y-35009D01*
X65184Y-34381D01*
X65184Y-35718D01*
X65184Y-35090D01*
X65158Y-35064D01*
X65006Y-35064D01*
X65006Y-35816D01*
X65032Y-35842D01*
X65101Y-35842D01*
X65139Y-35826D01*
X65168Y-35797D01*
X65184Y-35759D01*
X65184Y-35718D01*
X65184Y-38252D01*
X64977Y-38458D01*
X64977Y-35816D01*
X64977Y-35064D01*
X64977Y-35035D01*
X64977Y-34283D01*
X64951Y-34257D01*
X64882Y-34257D01*
X64854Y-34269D01*
X64825Y-34257D01*
X64756Y-34257D01*
X64730Y-34283D01*
X64730Y-35035D01*
X64825Y-35035D01*
X64882Y-35035D01*
X64977Y-35035D01*
X64977Y-35064D01*
X64882Y-35064D01*
X64825Y-35064D01*
X64730Y-35064D01*
X64730Y-35816D01*
X64756Y-35842D01*
X64825Y-35842D01*
X64854Y-35830D01*
X64882Y-35842D01*
X64951Y-35842D01*
X64977Y-35816D01*
X64977Y-38458D01*
X64919Y-38516D01*
X64899Y-38516D01*
X64899Y-37672D01*
X64899Y-36672D01*
X64839Y-36525D01*
X64837Y-36522D01*
X64779Y-36491D01*
X64758Y-36511D01*
X64758Y-36470D01*
X64727Y-36412D01*
X64725Y-36411D01*
X64725Y-33955D01*
X64690Y-33872D01*
X64627Y-33809D01*
X64544Y-33775D01*
X64455Y-33774D01*
X64372Y-33809D01*
X64312Y-33869D01*
X64252Y-33809D01*
X64169Y-33775D01*
X64080Y-33774D01*
X63997Y-33809D01*
X63934Y-33872D01*
X63925Y-33894D01*
X63915Y-33872D01*
X63852Y-33809D01*
X63769Y-33775D01*
X63680Y-33774D01*
X63597Y-33809D01*
X63534Y-33872D01*
X63500Y-33955D01*
X63499Y-34044D01*
X63534Y-34127D01*
X63597Y-34190D01*
X63680Y-34224D01*
X63702Y-34224D01*
X63713Y-34236D01*
X63678Y-34236D01*
X63500Y-34236D01*
X63476Y-34246D01*
X63452Y-34236D01*
X63402Y-34236D01*
X63225Y-34236D01*
X63200Y-34246D01*
X63176Y-34236D01*
X63126Y-34236D01*
X62949Y-34236D01*
X62925Y-34246D01*
X62900Y-34236D01*
X62851Y-34236D01*
X62674Y-34236D01*
X62649Y-34246D01*
X62625Y-34236D01*
X62575Y-34236D01*
X62436Y-34236D01*
X62472Y-34200D01*
X62494Y-34200D01*
X62577Y-34165D01*
X62640Y-34102D01*
X62674Y-34019D01*
X62675Y-33930D01*
X62640Y-33847D01*
X62577Y-33784D01*
X62494Y-33750D01*
X62405Y-33749D01*
X62322Y-33784D01*
X62259Y-33847D01*
X62225Y-33930D01*
X62225Y-33952D01*
X62174Y-34002D01*
X62175Y-33930D01*
X62140Y-33847D01*
X62077Y-33784D01*
X61994Y-33750D01*
X61905Y-33749D01*
X61822Y-33784D01*
X61759Y-33847D01*
X61725Y-33930D01*
X61724Y-34019D01*
X61759Y-34102D01*
X61775Y-34118D01*
X61775Y-34236D01*
X61748Y-34236D01*
X61571Y-34236D01*
X61547Y-34246D01*
X61523Y-34236D01*
X61473Y-34236D01*
X61436Y-34236D01*
X61472Y-34200D01*
X61494Y-34200D01*
X61577Y-34165D01*
X61640Y-34102D01*
X61674Y-34019D01*
X61675Y-33930D01*
X61640Y-33847D01*
X61577Y-33784D01*
X61494Y-33750D01*
X61405Y-33749D01*
X61322Y-33784D01*
X61259Y-33847D01*
X61225Y-33930D01*
X61225Y-33952D01*
X61010Y-34167D01*
X60972Y-34224D01*
X60969Y-34236D01*
X60922Y-34236D01*
X60854Y-34236D01*
X61060Y-33943D01*
X61127Y-33915D01*
X61190Y-33852D01*
X61224Y-33769D01*
X61225Y-33680D01*
X61190Y-33597D01*
X61127Y-33534D01*
X61044Y-33500D01*
X60955Y-33499D01*
X60872Y-33534D01*
X60809Y-33597D01*
X60775Y-33680D01*
X60774Y-33741D01*
X60650Y-33918D01*
X60650Y-33893D01*
X60665Y-33877D01*
X60699Y-33794D01*
X60700Y-33705D01*
X60665Y-33622D01*
X60602Y-33559D01*
X60519Y-33525D01*
X60430Y-33524D01*
X60347Y-33559D01*
X60300Y-33606D01*
X60300Y-33396D01*
X60570Y-33396D01*
X60616Y-33377D01*
X60651Y-33342D01*
X60671Y-33296D01*
X60671Y-33250D01*
X60678Y-33250D01*
X60678Y-33296D01*
X60697Y-33342D01*
X60733Y-33377D01*
X60778Y-33396D01*
X60828Y-33396D01*
X61320Y-33396D01*
X61366Y-33377D01*
X61401Y-33342D01*
X61421Y-33296D01*
X61421Y-33247D01*
X61421Y-32853D01*
X61409Y-32824D01*
X61421Y-32796D01*
X61421Y-32750D01*
X61531Y-32750D01*
X61547Y-32765D01*
X61630Y-32799D01*
X61719Y-32800D01*
X61802Y-32765D01*
X61865Y-32702D01*
X61899Y-32619D01*
X61900Y-32530D01*
X61865Y-32447D01*
X61802Y-32384D01*
X61719Y-32350D01*
X61630Y-32349D01*
X61547Y-32384D01*
X61531Y-32400D01*
X61421Y-32400D01*
X61421Y-32353D01*
X61402Y-32307D01*
X61366Y-32272D01*
X61321Y-32253D01*
X61271Y-32253D01*
X60779Y-32253D01*
X60733Y-32272D01*
X60698Y-32307D01*
X60678Y-32353D01*
X60678Y-32402D01*
X60678Y-32796D01*
X60690Y-32825D01*
X60678Y-32853D01*
X60678Y-32900D01*
X60671Y-32900D01*
X60671Y-32853D01*
X60652Y-32807D01*
X60646Y-32801D01*
X60649Y-32792D01*
X60649Y-32751D01*
X60649Y-32357D01*
X60634Y-32319D01*
X60604Y-32290D01*
X60566Y-32274D01*
X60525Y-32274D01*
X60033Y-32274D01*
X59995Y-32290D01*
X59966Y-32319D01*
X59950Y-32357D01*
X59950Y-32398D01*
X59950Y-32792D01*
X59953Y-32801D01*
X59948Y-32807D01*
X59937Y-32832D01*
X59927Y-32807D01*
X59921Y-32801D01*
X59924Y-32792D01*
X59924Y-32751D01*
X59924Y-32357D01*
X59909Y-32319D01*
X59879Y-32290D01*
X59841Y-32274D01*
X59800Y-32274D01*
X59308Y-32274D01*
X59270Y-32290D01*
X59241Y-32319D01*
X59225Y-32357D01*
X59225Y-32398D01*
X59225Y-32792D01*
X59228Y-32801D01*
X59223Y-32807D01*
X59212Y-32832D01*
X59209Y-32824D01*
X59221Y-32796D01*
X59221Y-32747D01*
X59221Y-32353D01*
X59202Y-32307D01*
X59166Y-32272D01*
X59121Y-32253D01*
X59071Y-32253D01*
X58579Y-32253D01*
X58555Y-32263D01*
X58565Y-32252D01*
X58599Y-32169D01*
X58600Y-32080D01*
X58565Y-31997D01*
X58502Y-31934D01*
X58419Y-31900D01*
X58330Y-31899D01*
X58247Y-31934D01*
X58184Y-31997D01*
X58150Y-32080D01*
X58149Y-32169D01*
X58184Y-32252D01*
X58194Y-32263D01*
X58171Y-32253D01*
X58121Y-32253D01*
X57629Y-32253D01*
X57583Y-32272D01*
X57548Y-32307D01*
X57528Y-32353D01*
X57528Y-32402D01*
X57528Y-32796D01*
X57540Y-32825D01*
X57537Y-32832D01*
X57527Y-32807D01*
X57521Y-32801D01*
X57524Y-32792D01*
X57524Y-32751D01*
X57524Y-32357D01*
X57509Y-32319D01*
X57479Y-32290D01*
X57441Y-32274D01*
X57400Y-32274D01*
X56908Y-32274D01*
X56870Y-32290D01*
X56841Y-32319D01*
X56825Y-32357D01*
X56825Y-32398D01*
X56825Y-32792D01*
X56828Y-32801D01*
X56823Y-32807D01*
X56803Y-32853D01*
X56803Y-32902D01*
X56803Y-33296D01*
X56822Y-33342D01*
X56858Y-33377D01*
X56903Y-33396D01*
X56953Y-33396D01*
X57445Y-33396D01*
X57491Y-33377D01*
X57526Y-33342D01*
X57537Y-33317D01*
X57547Y-33342D01*
X57583Y-33377D01*
X57628Y-33396D01*
X57678Y-33396D01*
X57824Y-33396D01*
X58026Y-33598D01*
X58083Y-33636D01*
X58083Y-33636D01*
X58150Y-33650D01*
X59255Y-33650D01*
X59172Y-33684D01*
X59109Y-33747D01*
X59075Y-33830D01*
X59075Y-33855D01*
X59075Y-33855D01*
X59043Y-33903D01*
X59029Y-33970D01*
X59029Y-34257D01*
X58969Y-34257D01*
X58943Y-34283D01*
X58943Y-35035D01*
X58951Y-35035D01*
X58951Y-35064D01*
X58943Y-35064D01*
X58943Y-35816D01*
X58969Y-35842D01*
X59038Y-35842D01*
X59041Y-35841D01*
X59045Y-35844D01*
X59091Y-35863D01*
X59140Y-35863D01*
X59318Y-35863D01*
X59342Y-35853D01*
X59366Y-35863D01*
X59416Y-35863D01*
X59593Y-35863D01*
X59618Y-35853D01*
X59642Y-35863D01*
X59692Y-35863D01*
X59869Y-35863D01*
X59893Y-35853D01*
X59917Y-35863D01*
X59967Y-35863D01*
X60038Y-35863D01*
X60026Y-35876D01*
X60026Y-35876D01*
X60026Y-35876D01*
X59852Y-36050D01*
X59225Y-36050D01*
X59158Y-36063D01*
X59101Y-36101D01*
X59101Y-36101D01*
X59101Y-36101D01*
X58773Y-36429D01*
X58738Y-36393D01*
X58583Y-36329D01*
X58489Y-36329D01*
X58498Y-36323D01*
X58536Y-36266D01*
X58550Y-36200D01*
X58550Y-35863D01*
X58589Y-35863D01*
X58766Y-35863D01*
X58812Y-35845D01*
X58816Y-35841D01*
X58820Y-35842D01*
X58888Y-35842D01*
X58914Y-35816D01*
X58914Y-35064D01*
X58906Y-35064D01*
X58906Y-35035D01*
X58914Y-35035D01*
X58914Y-34283D01*
X58888Y-34257D01*
X58820Y-34257D01*
X58816Y-34258D01*
X58813Y-34255D01*
X58767Y-34236D01*
X58717Y-34236D01*
X58550Y-34236D01*
X58550Y-34093D01*
X58565Y-34077D01*
X58599Y-33994D01*
X58600Y-33905D01*
X58565Y-33822D01*
X58507Y-33764D01*
X58498Y-33751D01*
X58441Y-33713D01*
X58375Y-33700D01*
X58308Y-33713D01*
X58251Y-33751D01*
X58242Y-33764D01*
X58184Y-33822D01*
X58150Y-33905D01*
X58149Y-33994D01*
X58184Y-34077D01*
X58200Y-34093D01*
X58200Y-34236D01*
X58166Y-34236D01*
X58001Y-34236D01*
X58001Y-34223D01*
X58001Y-34176D01*
X58027Y-34165D01*
X58090Y-34102D01*
X58124Y-34019D01*
X58125Y-33930D01*
X58090Y-33847D01*
X58027Y-33784D01*
X57944Y-33750D01*
X57855Y-33749D01*
X57772Y-33784D01*
X57709Y-33847D01*
X57675Y-33930D01*
X57675Y-33966D01*
X57665Y-33981D01*
X57651Y-34048D01*
X57651Y-34054D01*
X57448Y-33851D01*
X57391Y-33813D01*
X57325Y-33800D01*
X57068Y-33800D01*
X57052Y-33784D01*
X56969Y-33750D01*
X56880Y-33749D01*
X56797Y-33784D01*
X56734Y-33847D01*
X56700Y-33930D01*
X56699Y-34019D01*
X56734Y-34102D01*
X56797Y-34165D01*
X56880Y-34199D01*
X56969Y-34200D01*
X57052Y-34165D01*
X57068Y-34150D01*
X57252Y-34150D01*
X57338Y-34236D01*
X57162Y-34236D01*
X57116Y-34254D01*
X57088Y-34282D01*
X57060Y-34266D01*
X57044Y-34262D01*
X57014Y-34283D01*
X57014Y-35035D01*
X57022Y-35035D01*
X57022Y-35064D01*
X57014Y-35064D01*
X57014Y-35816D01*
X57044Y-35837D01*
X57060Y-35833D01*
X57088Y-35817D01*
X57100Y-35828D01*
X57100Y-35981D01*
X57084Y-35997D01*
X57050Y-36080D01*
X57049Y-36169D01*
X57084Y-36252D01*
X57147Y-36315D01*
X57230Y-36349D01*
X57319Y-36350D01*
X57402Y-36315D01*
X57465Y-36252D01*
X57499Y-36169D01*
X57500Y-36080D01*
X57465Y-35997D01*
X57450Y-35981D01*
X57450Y-35863D01*
X57487Y-35863D01*
X57664Y-35863D01*
X57688Y-35853D01*
X57713Y-35863D01*
X57762Y-35863D01*
X57888Y-35863D01*
X57852Y-35899D01*
X57830Y-35899D01*
X57747Y-35934D01*
X57684Y-35997D01*
X57650Y-36080D01*
X57649Y-36169D01*
X57684Y-36252D01*
X57747Y-36315D01*
X57830Y-36349D01*
X57877Y-36350D01*
X57876Y-36351D01*
X57838Y-36408D01*
X57825Y-36475D01*
X57825Y-36480D01*
X57738Y-36393D01*
X57583Y-36329D01*
X57416Y-36329D01*
X57262Y-36393D01*
X57143Y-36511D01*
X57079Y-36666D01*
X57079Y-36833D01*
X57143Y-36987D01*
X57261Y-37106D01*
X57416Y-37170D01*
X57583Y-37170D01*
X57737Y-37106D01*
X57825Y-37019D01*
X57825Y-37177D01*
X57672Y-37329D01*
X57179Y-37329D01*
X57134Y-37348D01*
X57098Y-37383D01*
X57079Y-37429D01*
X57079Y-37479D01*
X57079Y-38070D01*
X57098Y-38115D01*
X57133Y-38151D01*
X57179Y-38170D01*
X57229Y-38170D01*
X57820Y-38170D01*
X57865Y-38151D01*
X57901Y-38116D01*
X57920Y-38070D01*
X57920Y-38020D01*
X57920Y-37577D01*
X58123Y-37373D01*
X58161Y-37316D01*
X58161Y-37316D01*
X58175Y-37250D01*
X58175Y-37019D01*
X58261Y-37106D01*
X58416Y-37170D01*
X58583Y-37170D01*
X58737Y-37106D01*
X58856Y-36988D01*
X58920Y-36833D01*
X58920Y-36777D01*
X59114Y-36583D01*
X59079Y-36666D01*
X59079Y-36833D01*
X59143Y-36987D01*
X59261Y-37106D01*
X59416Y-37170D01*
X59583Y-37170D01*
X59737Y-37106D01*
X59856Y-36988D01*
X59920Y-36833D01*
X59920Y-36777D01*
X60114Y-36583D01*
X60079Y-36666D01*
X60079Y-36833D01*
X60143Y-36987D01*
X60261Y-37106D01*
X60416Y-37170D01*
X60583Y-37170D01*
X60737Y-37106D01*
X60825Y-37019D01*
X60825Y-37177D01*
X60646Y-37355D01*
X60583Y-37329D01*
X60416Y-37329D01*
X60262Y-37393D01*
X60143Y-37511D01*
X60079Y-37666D01*
X60079Y-37833D01*
X60143Y-37987D01*
X60261Y-38106D01*
X60416Y-38170D01*
X60583Y-38170D01*
X60737Y-38106D01*
X60856Y-37988D01*
X60920Y-37833D01*
X60920Y-37666D01*
X60894Y-37603D01*
X61123Y-37373D01*
X61161Y-37316D01*
X61161Y-37316D01*
X61175Y-37250D01*
X61175Y-37019D01*
X61261Y-37106D01*
X61416Y-37170D01*
X61583Y-37170D01*
X61737Y-37106D01*
X61825Y-37019D01*
X61825Y-37250D01*
X61838Y-37316D01*
X61876Y-37373D01*
X62105Y-37603D01*
X62079Y-37666D01*
X62079Y-37833D01*
X62143Y-37987D01*
X62261Y-38106D01*
X62416Y-38170D01*
X62583Y-38170D01*
X62737Y-38106D01*
X62856Y-37988D01*
X62920Y-37833D01*
X62920Y-37666D01*
X62856Y-37512D01*
X62738Y-37393D01*
X62583Y-37329D01*
X62416Y-37329D01*
X62353Y-37355D01*
X62175Y-37177D01*
X62175Y-37019D01*
X62261Y-37106D01*
X62416Y-37170D01*
X62583Y-37170D01*
X62737Y-37106D01*
X62825Y-37019D01*
X62825Y-37250D01*
X62838Y-37316D01*
X62876Y-37373D01*
X63105Y-37603D01*
X63079Y-37666D01*
X63079Y-37833D01*
X63143Y-37987D01*
X63261Y-38106D01*
X63416Y-38170D01*
X63583Y-38170D01*
X63737Y-38106D01*
X63856Y-37988D01*
X63920Y-37833D01*
X63920Y-37666D01*
X63856Y-37512D01*
X63738Y-37393D01*
X63583Y-37329D01*
X63416Y-37329D01*
X63353Y-37355D01*
X63175Y-37177D01*
X63175Y-37019D01*
X63261Y-37106D01*
X63416Y-37170D01*
X63583Y-37170D01*
X63737Y-37106D01*
X63856Y-36988D01*
X63920Y-36833D01*
X63920Y-36666D01*
X63856Y-36512D01*
X63789Y-36444D01*
X63789Y-36385D01*
X63789Y-35863D01*
X63825Y-35863D01*
X64003Y-35863D01*
X64027Y-35853D01*
X64051Y-35863D01*
X64101Y-35863D01*
X64278Y-35863D01*
X64303Y-35853D01*
X64327Y-35863D01*
X64377Y-35863D01*
X64554Y-35863D01*
X64600Y-35845D01*
X64603Y-35841D01*
X64607Y-35842D01*
X64676Y-35842D01*
X64702Y-35816D01*
X64702Y-35064D01*
X64694Y-35064D01*
X64694Y-35035D01*
X64702Y-35035D01*
X64702Y-34283D01*
X64676Y-34257D01*
X64615Y-34257D01*
X64615Y-34195D01*
X64627Y-34190D01*
X64690Y-34127D01*
X64724Y-34044D01*
X64725Y-33955D01*
X64725Y-36411D01*
X64580Y-36351D01*
X64422Y-36350D01*
X64275Y-36410D01*
X64272Y-36412D01*
X64241Y-36470D01*
X64500Y-36729D01*
X64758Y-36470D01*
X64758Y-36511D01*
X64520Y-36750D01*
X64779Y-37008D01*
X64837Y-36977D01*
X64898Y-36830D01*
X64899Y-36672D01*
X64899Y-37672D01*
X64839Y-37525D01*
X64837Y-37522D01*
X64779Y-37491D01*
X64758Y-37511D01*
X64758Y-37470D01*
X64758Y-37029D01*
X64500Y-36770D01*
X64479Y-36790D01*
X64479Y-36750D01*
X64220Y-36491D01*
X64162Y-36522D01*
X64101Y-36669D01*
X64100Y-36827D01*
X64160Y-36974D01*
X64162Y-36977D01*
X64220Y-37008D01*
X64479Y-36750D01*
X64479Y-36790D01*
X64241Y-37029D01*
X64272Y-37087D01*
X64419Y-37148D01*
X64577Y-37149D01*
X64724Y-37089D01*
X64727Y-37087D01*
X64758Y-37029D01*
X64758Y-37470D01*
X64727Y-37412D01*
X64580Y-37351D01*
X64422Y-37350D01*
X64275Y-37410D01*
X64272Y-37412D01*
X64241Y-37470D01*
X64500Y-37729D01*
X64758Y-37470D01*
X64758Y-37511D01*
X64520Y-37750D01*
X64779Y-38008D01*
X64837Y-37977D01*
X64898Y-37830D01*
X64899Y-37672D01*
X64899Y-38516D01*
X64758Y-38516D01*
X64758Y-38029D01*
X64500Y-37770D01*
X64479Y-37790D01*
X64479Y-37750D01*
X64220Y-37491D01*
X64162Y-37522D01*
X64101Y-37669D01*
X64100Y-37827D01*
X64160Y-37974D01*
X64162Y-37977D01*
X64220Y-38008D01*
X64479Y-37750D01*
X64479Y-37790D01*
X64241Y-38029D01*
X64272Y-38087D01*
X64419Y-38148D01*
X64577Y-38149D01*
X64724Y-38089D01*
X64727Y-38087D01*
X64758Y-38029D01*
X64758Y-38516D01*
X61920Y-38516D01*
X61920Y-37666D01*
X61856Y-37512D01*
X61738Y-37393D01*
X61583Y-37329D01*
X61416Y-37329D01*
X61262Y-37393D01*
X61143Y-37511D01*
X61079Y-37666D01*
X61079Y-37833D01*
X61143Y-37987D01*
X61261Y-38106D01*
X61416Y-38170D01*
X61583Y-38170D01*
X61737Y-38106D01*
X61856Y-37988D01*
X61920Y-37833D01*
X61920Y-37666D01*
X61920Y-38516D01*
X59920Y-38516D01*
X59920Y-37666D01*
X59856Y-37512D01*
X59738Y-37393D01*
X59583Y-37329D01*
X59416Y-37329D01*
X59262Y-37393D01*
X59143Y-37511D01*
X59079Y-37666D01*
X59079Y-37833D01*
X59143Y-37987D01*
X59261Y-38106D01*
X59416Y-38170D01*
X59583Y-38170D01*
X59737Y-38106D01*
X59856Y-37988D01*
X59920Y-37833D01*
X59920Y-37666D01*
X59920Y-38516D01*
X58920Y-38516D01*
X58920Y-37666D01*
X58856Y-37512D01*
X58738Y-37393D01*
X58583Y-37329D01*
X58416Y-37329D01*
X58262Y-37393D01*
X58143Y-37511D01*
X58079Y-37666D01*
X58079Y-37833D01*
X58143Y-37987D01*
X58261Y-38106D01*
X58416Y-38170D01*
X58583Y-38170D01*
X58737Y-38106D01*
X58856Y-37988D01*
X58920Y-37833D01*
X58920Y-37666D01*
X58920Y-38516D01*
X57055Y-38516D01*
X56985Y-38447D01*
X56985Y-35816D01*
X56985Y-35064D01*
X56985Y-35035D01*
X56985Y-34283D01*
X56955Y-34262D01*
X56939Y-34266D01*
X56874Y-34303D01*
X56827Y-34362D01*
X56807Y-34435D01*
X56807Y-35035D01*
X56985Y-35035D01*
X56985Y-35064D01*
X56807Y-35064D01*
X56807Y-35664D01*
X56827Y-35737D01*
X56874Y-35796D01*
X56939Y-35833D01*
X56955Y-35837D01*
X56985Y-35816D01*
X56985Y-38447D01*
X56433Y-37894D01*
X56433Y-32480D01*
X57030Y-31883D01*
X64919Y-31883D01*
X65541Y-32505D01*
X65541Y-37894D01*
X65541Y-37894D01*
G37*
G54D17*
X65541Y-37894D02*
X65184Y-38252D01*
X65184Y-35718D01*
X65184Y-34381D01*
X65184Y-34340D01*
X65168Y-34302D01*
X65139Y-34273D01*
X65101Y-34257D01*
X65032Y-34257D01*
X65006Y-34283D01*
X65006Y-35035D01*
X65158Y-35035D01*
X65184Y-35009D01*
X65184Y-34381D01*
X65184Y-35718D01*
X65184Y-35090D01*
X65158Y-35064D01*
X65006Y-35064D01*
X65006Y-35816D01*
X65032Y-35842D01*
X65101Y-35842D01*
X65139Y-35826D01*
X65168Y-35797D01*
X65184Y-35759D01*
X65184Y-35718D01*
X65184Y-38252D01*
X64977Y-38458D01*
X64977Y-35816D01*
X64977Y-35064D01*
X64977Y-35035D01*
X64977Y-34283D01*
X64951Y-34257D01*
X64882Y-34257D01*
X64854Y-34269D01*
X64825Y-34257D01*
X64756Y-34257D01*
X64730Y-34283D01*
X64730Y-35035D01*
X64825Y-35035D01*
X64882Y-35035D01*
X64977Y-35035D01*
X64977Y-35064D01*
X64882Y-35064D01*
X64825Y-35064D01*
X64730Y-35064D01*
X64730Y-35816D01*
X64756Y-35842D01*
X64825Y-35842D01*
X64854Y-35830D01*
X64882Y-35842D01*
X64951Y-35842D01*
X64977Y-35816D01*
X64977Y-38458D01*
X64919Y-38516D01*
X64899Y-38516D01*
X64899Y-37672D01*
X64899Y-36672D01*
X64839Y-36525D01*
X64837Y-36522D01*
X64779Y-36491D01*
X64758Y-36511D01*
X64758Y-36470D01*
X64727Y-36412D01*
X64725Y-36411D01*
X64725Y-33955D01*
X64690Y-33872D01*
X64627Y-33809D01*
X64544Y-33775D01*
X64455Y-33774D01*
X64372Y-33809D01*
X64312Y-33869D01*
X64252Y-33809D01*
X64169Y-33775D01*
X64080Y-33774D01*
X63997Y-33809D01*
X63934Y-33872D01*
X63925Y-33894D01*
X63915Y-33872D01*
X63852Y-33809D01*
X63769Y-33775D01*
X63680Y-33774D01*
X63597Y-33809D01*
X63534Y-33872D01*
X63500Y-33955D01*
X63499Y-34044D01*
X63534Y-34127D01*
X63597Y-34190D01*
X63680Y-34224D01*
X63702Y-34224D01*
X63713Y-34236D01*
X63678Y-34236D01*
X63500Y-34236D01*
X63476Y-34246D01*
X63452Y-34236D01*
X63402Y-34236D01*
X63225Y-34236D01*
X63200Y-34246D01*
X63176Y-34236D01*
X63126Y-34236D01*
X62949Y-34236D01*
X62925Y-34246D01*
X62900Y-34236D01*
X62851Y-34236D01*
X62674Y-34236D01*
X62649Y-34246D01*
X62625Y-34236D01*
X62575Y-34236D01*
X62436Y-34236D01*
X62472Y-34200D01*
X62494Y-34200D01*
X62577Y-34165D01*
X62640Y-34102D01*
X62674Y-34019D01*
X62675Y-33930D01*
X62640Y-33847D01*
X62577Y-33784D01*
X62494Y-33750D01*
X62405Y-33749D01*
X62322Y-33784D01*
X62259Y-33847D01*
X62225Y-33930D01*
X62225Y-33952D01*
X62174Y-34002D01*
X62175Y-33930D01*
X62140Y-33847D01*
X62077Y-33784D01*
X61994Y-33750D01*
X61905Y-33749D01*
X61822Y-33784D01*
X61759Y-33847D01*
X61725Y-33930D01*
X61724Y-34019D01*
X61759Y-34102D01*
X61775Y-34118D01*
X61775Y-34236D01*
X61748Y-34236D01*
X61571Y-34236D01*
X61547Y-34246D01*
X61523Y-34236D01*
X61473Y-34236D01*
X61436Y-34236D01*
X61472Y-34200D01*
X61494Y-34200D01*
X61577Y-34165D01*
X61640Y-34102D01*
X61674Y-34019D01*
X61675Y-33930D01*
X61640Y-33847D01*
X61577Y-33784D01*
X61494Y-33750D01*
X61405Y-33749D01*
X61322Y-33784D01*
X61259Y-33847D01*
X61225Y-33930D01*
X61225Y-33952D01*
X61010Y-34167D01*
X60972Y-34224D01*
X60969Y-34236D01*
X60922Y-34236D01*
X60854Y-34236D01*
X61060Y-33943D01*
X61127Y-33915D01*
X61190Y-33852D01*
X61224Y-33769D01*
X61225Y-33680D01*
X61190Y-33597D01*
X61127Y-33534D01*
X61044Y-33500D01*
X60955Y-33499D01*
X60872Y-33534D01*
X60809Y-33597D01*
X60775Y-33680D01*
X60774Y-33741D01*
X60650Y-33918D01*
X60650Y-33893D01*
X60665Y-33877D01*
X60699Y-33794D01*
X60700Y-33705D01*
X60665Y-33622D01*
X60602Y-33559D01*
X60519Y-33525D01*
X60430Y-33524D01*
X60347Y-33559D01*
X60300Y-33606D01*
X60300Y-33396D01*
X60570Y-33396D01*
X60616Y-33377D01*
X60651Y-33342D01*
X60671Y-33296D01*
X60671Y-33250D01*
X60678Y-33250D01*
X60678Y-33296D01*
X60697Y-33342D01*
X60733Y-33377D01*
X60778Y-33396D01*
X60828Y-33396D01*
X61320Y-33396D01*
X61366Y-33377D01*
X61401Y-33342D01*
X61421Y-33296D01*
X61421Y-33247D01*
X61421Y-32853D01*
X61409Y-32824D01*
X61421Y-32796D01*
X61421Y-32750D01*
X61531Y-32750D01*
X61547Y-32765D01*
X61630Y-32799D01*
X61719Y-32800D01*
X61802Y-32765D01*
X61865Y-32702D01*
X61899Y-32619D01*
X61900Y-32530D01*
X61865Y-32447D01*
X61802Y-32384D01*
X61719Y-32350D01*
X61630Y-32349D01*
X61547Y-32384D01*
X61531Y-32400D01*
X61421Y-32400D01*
X61421Y-32353D01*
X61402Y-32307D01*
X61366Y-32272D01*
X61321Y-32253D01*
X61271Y-32253D01*
X60779Y-32253D01*
X60733Y-32272D01*
X60698Y-32307D01*
X60678Y-32353D01*
X60678Y-32402D01*
X60678Y-32796D01*
X60690Y-32825D01*
X60678Y-32853D01*
X60678Y-32900D01*
X60671Y-32900D01*
X60671Y-32853D01*
X60652Y-32807D01*
X60646Y-32801D01*
X60649Y-32792D01*
X60649Y-32751D01*
X60649Y-32357D01*
X60634Y-32319D01*
X60604Y-32290D01*
X60566Y-32274D01*
X60525Y-32274D01*
X60033Y-32274D01*
X59995Y-32290D01*
X59966Y-32319D01*
X59950Y-32357D01*
X59950Y-32398D01*
X59950Y-32792D01*
X59953Y-32801D01*
X59948Y-32807D01*
X59937Y-32832D01*
X59927Y-32807D01*
X59921Y-32801D01*
X59924Y-32792D01*
X59924Y-32751D01*
X59924Y-32357D01*
X59909Y-32319D01*
X59879Y-32290D01*
X59841Y-32274D01*
X59800Y-32274D01*
X59308Y-32274D01*
X59270Y-32290D01*
X59241Y-32319D01*
X59225Y-32357D01*
X59225Y-32398D01*
X59225Y-32792D01*
X59228Y-32801D01*
X59223Y-32807D01*
X59212Y-32832D01*
X59209Y-32824D01*
X59221Y-32796D01*
X59221Y-32747D01*
X59221Y-32353D01*
X59202Y-32307D01*
X59166Y-32272D01*
X59121Y-32253D01*
X59071Y-32253D01*
X58579Y-32253D01*
X58555Y-32263D01*
X58565Y-32252D01*
X58599Y-32169D01*
X58600Y-32080D01*
X58565Y-31997D01*
X58502Y-31934D01*
X58419Y-31900D01*
X58330Y-31899D01*
X58247Y-31934D01*
X58184Y-31997D01*
X58150Y-32080D01*
X58149Y-32169D01*
X58184Y-32252D01*
X58194Y-32263D01*
X58171Y-32253D01*
X58121Y-32253D01*
X57629Y-32253D01*
X57583Y-32272D01*
X57548Y-32307D01*
X57528Y-32353D01*
X57528Y-32402D01*
X57528Y-32796D01*
X57540Y-32825D01*
X57537Y-32832D01*
X57527Y-32807D01*
X57521Y-32801D01*
X57524Y-32792D01*
X57524Y-32751D01*
X57524Y-32357D01*
X57509Y-32319D01*
X57479Y-32290D01*
X57441Y-32274D01*
X57400Y-32274D01*
X56908Y-32274D01*
X56870Y-32290D01*
X56841Y-32319D01*
X56825Y-32357D01*
X56825Y-32398D01*
X56825Y-32792D01*
X56828Y-32801D01*
X56823Y-32807D01*
X56803Y-32853D01*
X56803Y-32902D01*
X56803Y-33296D01*
X56822Y-33342D01*
X56858Y-33377D01*
X56903Y-33396D01*
X56953Y-33396D01*
X57445Y-33396D01*
X57491Y-33377D01*
X57526Y-33342D01*
X57537Y-33317D01*
X57547Y-33342D01*
X57583Y-33377D01*
X57628Y-33396D01*
X57678Y-33396D01*
X57824Y-33396D01*
X58026Y-33598D01*
X58083Y-33636D01*
X58083Y-33636D01*
X58150Y-33650D01*
X59255Y-33650D01*
X59172Y-33684D01*
X59109Y-33747D01*
X59075Y-33830D01*
X59075Y-33855D01*
X59075Y-33855D01*
X59043Y-33903D01*
X59029Y-33970D01*
X59029Y-34257D01*
X58969Y-34257D01*
X58943Y-34283D01*
X58943Y-35035D01*
X58951Y-35035D01*
X58951Y-35064D01*
X58943Y-35064D01*
X58943Y-35816D01*
X58969Y-35842D01*
X59038Y-35842D01*
X59041Y-35841D01*
X59045Y-35844D01*
X59091Y-35863D01*
X59140Y-35863D01*
X59318Y-35863D01*
X59342Y-35853D01*
X59366Y-35863D01*
X59416Y-35863D01*
X59593Y-35863D01*
X59618Y-35853D01*
X59642Y-35863D01*
X59692Y-35863D01*
X59869Y-35863D01*
X59893Y-35853D01*
X59917Y-35863D01*
X59967Y-35863D01*
X60038Y-35863D01*
X60026Y-35876D01*
X60026Y-35876D01*
X60026Y-35876D01*
X59852Y-36050D01*
X59225Y-36050D01*
X59158Y-36063D01*
X59101Y-36101D01*
X59101Y-36101D01*
X59101Y-36101D01*
X58773Y-36429D01*
X58738Y-36393D01*
X58583Y-36329D01*
X58489Y-36329D01*
X58498Y-36323D01*
X58536Y-36266D01*
X58550Y-36200D01*
X58550Y-35863D01*
X58589Y-35863D01*
X58766Y-35863D01*
X58812Y-35845D01*
X58816Y-35841D01*
X58820Y-35842D01*
X58888Y-35842D01*
X58914Y-35816D01*
X58914Y-35064D01*
X58906Y-35064D01*
X58906Y-35035D01*
X58914Y-35035D01*
X58914Y-34283D01*
X58888Y-34257D01*
X58820Y-34257D01*
X58816Y-34258D01*
X58813Y-34255D01*
X58767Y-34236D01*
X58717Y-34236D01*
X58550Y-34236D01*
X58550Y-34093D01*
X58565Y-34077D01*
X58599Y-33994D01*
X58600Y-33905D01*
X58565Y-33822D01*
X58507Y-33764D01*
X58498Y-33751D01*
X58441Y-33713D01*
X58375Y-33700D01*
X58308Y-33713D01*
X58251Y-33751D01*
X58242Y-33764D01*
X58184Y-33822D01*
X58150Y-33905D01*
X58149Y-33994D01*
X58184Y-34077D01*
X58200Y-34093D01*
X58200Y-34236D01*
X58166Y-34236D01*
X58001Y-34236D01*
X58001Y-34223D01*
X58001Y-34176D01*
X58027Y-34165D01*
X58090Y-34102D01*
X58124Y-34019D01*
X58125Y-33930D01*
X58090Y-33847D01*
X58027Y-33784D01*
X57944Y-33750D01*
X57855Y-33749D01*
X57772Y-33784D01*
X57709Y-33847D01*
X57675Y-33930D01*
X57675Y-33966D01*
X57665Y-33981D01*
X57651Y-34048D01*
X57651Y-34054D01*
X57448Y-33851D01*
X57391Y-33813D01*
X57325Y-33800D01*
X57068Y-33800D01*
X57052Y-33784D01*
X56969Y-33750D01*
X56880Y-33749D01*
X56797Y-33784D01*
X56734Y-33847D01*
X56700Y-33930D01*
X56699Y-34019D01*
X56734Y-34102D01*
X56797Y-34165D01*
X56880Y-34199D01*
X56969Y-34200D01*
X57052Y-34165D01*
X57068Y-34150D01*
X57252Y-34150D01*
X57338Y-34236D01*
X57162Y-34236D01*
X57116Y-34254D01*
X57088Y-34282D01*
X57060Y-34266D01*
X57044Y-34262D01*
X57014Y-34283D01*
X57014Y-35035D01*
X57022Y-35035D01*
X57022Y-35064D01*
X57014Y-35064D01*
X57014Y-35816D01*
X57044Y-35837D01*
X57060Y-35833D01*
X57088Y-35817D01*
X57100Y-35828D01*
X57100Y-35981D01*
X57084Y-35997D01*
X57050Y-36080D01*
X57049Y-36169D01*
X57084Y-36252D01*
X57147Y-36315D01*
X57230Y-36349D01*
X57319Y-36350D01*
X57402Y-36315D01*
X57465Y-36252D01*
X57499Y-36169D01*
X57500Y-36080D01*
X57465Y-35997D01*
X57450Y-35981D01*
X57450Y-35863D01*
X57487Y-35863D01*
X57664Y-35863D01*
X57688Y-35853D01*
X57713Y-35863D01*
X57762Y-35863D01*
X57888Y-35863D01*
X57852Y-35899D01*
X57830Y-35899D01*
X57747Y-35934D01*
X57684Y-35997D01*
X57650Y-36080D01*
X57649Y-36169D01*
X57684Y-36252D01*
X57747Y-36315D01*
X57830Y-36349D01*
X57877Y-36350D01*
X57876Y-36351D01*
X57838Y-36408D01*
X57825Y-36475D01*
X57825Y-36480D01*
X57738Y-36393D01*
X57583Y-36329D01*
X57416Y-36329D01*
X57262Y-36393D01*
X57143Y-36511D01*
X57079Y-36666D01*
X57079Y-36833D01*
X57143Y-36987D01*
X57261Y-37106D01*
X57416Y-37170D01*
X57583Y-37170D01*
X57737Y-37106D01*
X57825Y-37019D01*
X57825Y-37177D01*
X57672Y-37329D01*
X57179Y-37329D01*
X57134Y-37348D01*
X57098Y-37383D01*
X57079Y-37429D01*
X57079Y-37479D01*
X57079Y-38070D01*
X57098Y-38115D01*
X57133Y-38151D01*
X57179Y-38170D01*
X57229Y-38170D01*
X57820Y-38170D01*
X57865Y-38151D01*
X57901Y-38116D01*
X57920Y-38070D01*
X57920Y-38020D01*
X57920Y-37577D01*
X58123Y-37373D01*
X58161Y-37316D01*
X58161Y-37316D01*
X58175Y-37250D01*
X58175Y-37019D01*
X58261Y-37106D01*
X58416Y-37170D01*
X58583Y-37170D01*
X58737Y-37106D01*
X58856Y-36988D01*
X58920Y-36833D01*
X58920Y-36777D01*
X59114Y-36583D01*
X59079Y-36666D01*
X59079Y-36833D01*
X59143Y-36987D01*
X59261Y-37106D01*
X59416Y-37170D01*
X59583Y-37170D01*
X59737Y-37106D01*
X59856Y-36988D01*
X59920Y-36833D01*
X59920Y-36777D01*
X60114Y-36583D01*
X60079Y-36666D01*
X60079Y-36833D01*
X60143Y-36987D01*
X60261Y-37106D01*
X60416Y-37170D01*
X60583Y-37170D01*
X60737Y-37106D01*
X60825Y-37019D01*
X60825Y-37177D01*
X60646Y-37355D01*
X60583Y-37329D01*
X60416Y-37329D01*
X60262Y-37393D01*
X60143Y-37511D01*
X60079Y-37666D01*
X60079Y-37833D01*
X60143Y-37987D01*
X60261Y-38106D01*
X60416Y-38170D01*
X60583Y-38170D01*
X60737Y-38106D01*
X60856Y-37988D01*
X60920Y-37833D01*
X60920Y-37666D01*
X60894Y-37603D01*
X61123Y-37373D01*
X61161Y-37316D01*
X61161Y-37316D01*
X61175Y-37250D01*
X61175Y-37019D01*
X61261Y-37106D01*
X61416Y-37170D01*
X61583Y-37170D01*
X61737Y-37106D01*
X61825Y-37019D01*
X61825Y-37250D01*
X61838Y-37316D01*
X61876Y-37373D01*
X62105Y-37603D01*
X62079Y-37666D01*
X62079Y-37833D01*
X62143Y-37987D01*
X62261Y-38106D01*
X62416Y-38170D01*
X62583Y-38170D01*
X62737Y-38106D01*
X62856Y-37988D01*
X62920Y-37833D01*
X62920Y-37666D01*
X62856Y-37512D01*
X62738Y-37393D01*
X62583Y-37329D01*
X62416Y-37329D01*
X62353Y-37355D01*
X62175Y-37177D01*
X62175Y-37019D01*
X62261Y-37106D01*
X62416Y-37170D01*
X62583Y-37170D01*
X62737Y-37106D01*
X62825Y-37019D01*
X62825Y-37250D01*
X62838Y-37316D01*
X62876Y-37373D01*
X63105Y-37603D01*
X63079Y-37666D01*
X63079Y-37833D01*
X63143Y-37987D01*
X63261Y-38106D01*
X63416Y-38170D01*
X63583Y-38170D01*
X63737Y-38106D01*
X63856Y-37988D01*
X63920Y-37833D01*
X63920Y-37666D01*
X63856Y-37512D01*
X63738Y-37393D01*
X63583Y-37329D01*
X63416Y-37329D01*
X63353Y-37355D01*
X63175Y-37177D01*
X63175Y-37019D01*
X63261Y-37106D01*
X63416Y-37170D01*
X63583Y-37170D01*
X63737Y-37106D01*
X63856Y-36988D01*
X63920Y-36833D01*
X63920Y-36666D01*
X63856Y-36512D01*
X63789Y-36444D01*
X63789Y-36385D01*
X63789Y-35863D01*
X63825Y-35863D01*
X64003Y-35863D01*
X64027Y-35853D01*
X64051Y-35863D01*
X64101Y-35863D01*
X64278Y-35863D01*
X64303Y-35853D01*
X64327Y-35863D01*
X64377Y-35863D01*
X64554Y-35863D01*
X64600Y-35845D01*
X64603Y-35841D01*
X64607Y-35842D01*
X64676Y-35842D01*
X64702Y-35816D01*
X64702Y-35064D01*
X64694Y-35064D01*
X64694Y-35035D01*
X64702Y-35035D01*
X64702Y-34283D01*
X64676Y-34257D01*
X64615Y-34257D01*
X64615Y-34195D01*
X64627Y-34190D01*
X64690Y-34127D01*
X64724Y-34044D01*
X64725Y-33955D01*
X64725Y-36411D01*
X64580Y-36351D01*
X64422Y-36350D01*
X64275Y-36410D01*
X64272Y-36412D01*
X64241Y-36470D01*
X64500Y-36729D01*
X64758Y-36470D01*
X64758Y-36511D01*
X64520Y-36750D01*
X64779Y-37008D01*
X64837Y-36977D01*
X64898Y-36830D01*
X64899Y-36672D01*
X64899Y-37672D01*
X64839Y-37525D01*
X64837Y-37522D01*
X64779Y-37491D01*
X64758Y-37511D01*
X64758Y-37470D01*
X64758Y-37029D01*
X64500Y-36770D01*
X64479Y-36790D01*
X64479Y-36750D01*
X64220Y-36491D01*
X64162Y-36522D01*
X64101Y-36669D01*
X64100Y-36827D01*
X64160Y-36974D01*
X64162Y-36977D01*
X64220Y-37008D01*
X64479Y-36750D01*
X64479Y-36790D01*
X64241Y-37029D01*
X64272Y-37087D01*
X64419Y-37148D01*
X64577Y-37149D01*
X64724Y-37089D01*
X64727Y-37087D01*
X64758Y-37029D01*
X64758Y-37470D01*
X64727Y-37412D01*
X64580Y-37351D01*
X64422Y-37350D01*
X64275Y-37410D01*
X64272Y-37412D01*
X64241Y-37470D01*
X64500Y-37729D01*
X64758Y-37470D01*
X64758Y-37511D01*
X64520Y-37750D01*
X64779Y-38008D01*
X64837Y-37977D01*
X64898Y-37830D01*
X64899Y-37672D01*
X64899Y-38516D01*
X64758Y-38516D01*
X64758Y-38029D01*
X64500Y-37770D01*
X64479Y-37790D01*
X64479Y-37750D01*
X64220Y-37491D01*
X64162Y-37522D01*
X64101Y-37669D01*
X64100Y-37827D01*
X64160Y-37974D01*
X64162Y-37977D01*
X64220Y-38008D01*
X64479Y-37750D01*
X64479Y-37790D01*
X64241Y-38029D01*
X64272Y-38087D01*
X64419Y-38148D01*
X64577Y-38149D01*
X64724Y-38089D01*
X64727Y-38087D01*
X64758Y-38029D01*
X64758Y-38516D01*
X61920Y-38516D01*
X61920Y-37666D01*
X61856Y-37512D01*
X61738Y-37393D01*
X61583Y-37329D01*
X61416Y-37329D01*
X61262Y-37393D01*
X61143Y-37511D01*
X61079Y-37666D01*
X61079Y-37833D01*
X61143Y-37987D01*
X61261Y-38106D01*
X61416Y-38170D01*
X61583Y-38170D01*
X61737Y-38106D01*
X61856Y-37988D01*
X61920Y-37833D01*
X61920Y-37666D01*
X61920Y-38516D01*
X59920Y-38516D01*
X59920Y-37666D01*
X59856Y-37512D01*
X59738Y-37393D01*
X59583Y-37329D01*
X59416Y-37329D01*
X59262Y-37393D01*
X59143Y-37511D01*
X59079Y-37666D01*
X59079Y-37833D01*
X59143Y-37987D01*
X59261Y-38106D01*
X59416Y-38170D01*
X59583Y-38170D01*
X59737Y-38106D01*
X59856Y-37988D01*
X59920Y-37833D01*
X59920Y-37666D01*
X59920Y-38516D01*
X58920Y-38516D01*
X58920Y-37666D01*
X58856Y-37512D01*
X58738Y-37393D01*
X58583Y-37329D01*
X58416Y-37329D01*
X58262Y-37393D01*
X58143Y-37511D01*
X58079Y-37666D01*
X58079Y-37833D01*
X58143Y-37987D01*
X58261Y-38106D01*
X58416Y-38170D01*
X58583Y-38170D01*
X58737Y-38106D01*
X58856Y-37988D01*
X58920Y-37833D01*
X58920Y-37666D01*
X58920Y-38516D01*
X57055Y-38516D01*
X56985Y-38447D01*
X56985Y-35816D01*
X56985Y-35064D01*
X56985Y-35035D01*
X56985Y-34283D01*
X56955Y-34262D01*
X56939Y-34266D01*
X56874Y-34303D01*
X56827Y-34362D01*
X56807Y-34435D01*
X56807Y-35035D01*
X56985Y-35035D01*
X56985Y-35064D01*
X56807Y-35064D01*
X56807Y-35664D01*
X56827Y-35737D01*
X56874Y-35796D01*
X56939Y-35833D01*
X56955Y-35837D01*
X56985Y-35816D01*
X56985Y-38447D01*
X56433Y-37894D01*
X56433Y-32480D01*
X57030Y-31883D01*
X64919Y-31883D01*
X65541Y-32505D01*
X65541Y-37894D01*
M02*
