G04 (created by PCBNEW (2013-07-07 BZR 4022)-stable) date 11/13/2013 3:28:28 PM*
%MOIN*%
G04 Gerber Fmt 3.4, Leading zero omitted, Abs format*
%FSLAX34Y34*%
G01*
G70*
G90*
G04 APERTURE LIST*
%ADD10C,0.00590551*%
%ADD11C,0.00511811*%
G04 APERTURE END LIST*
G54D10*
G54D11*
X57815Y-31952D02*
X57829Y-31938D01*
X57857Y-31924D01*
X57928Y-31924D01*
X57956Y-31938D01*
X57970Y-31952D01*
X57984Y-31980D01*
X57984Y-32008D01*
X57970Y-32050D01*
X57801Y-32219D01*
X57984Y-32219D01*
X61106Y-31924D02*
X61050Y-31924D01*
X61021Y-31938D01*
X61007Y-31952D01*
X60979Y-31994D01*
X60965Y-32050D01*
X60965Y-32163D01*
X60979Y-32191D01*
X60993Y-32205D01*
X61021Y-32219D01*
X61078Y-32219D01*
X61106Y-32205D01*
X61120Y-32191D01*
X61134Y-32163D01*
X61134Y-32092D01*
X61120Y-32064D01*
X61106Y-32050D01*
X61078Y-32036D01*
X61021Y-32036D01*
X60993Y-32050D01*
X60979Y-32064D01*
X60965Y-32092D01*
X58751Y-31949D02*
X58934Y-31949D01*
X58835Y-32061D01*
X58878Y-32061D01*
X58906Y-32075D01*
X58920Y-32089D01*
X58934Y-32117D01*
X58934Y-32188D01*
X58920Y-32216D01*
X58906Y-32230D01*
X58878Y-32244D01*
X58793Y-32244D01*
X58765Y-32230D01*
X58751Y-32216D01*
X57259Y-33744D02*
X57090Y-33744D01*
X57175Y-33744D02*
X57175Y-33449D01*
X57146Y-33491D01*
X57118Y-33519D01*
X57090Y-33533D01*
X59631Y-32022D02*
X59631Y-32219D01*
X59560Y-31910D02*
X59490Y-32121D01*
X59673Y-32121D01*
X60370Y-31924D02*
X60229Y-31924D01*
X60215Y-32064D01*
X60229Y-32050D01*
X60257Y-32036D01*
X60328Y-32036D01*
X60356Y-32050D01*
X60370Y-32064D01*
X60384Y-32092D01*
X60384Y-32163D01*
X60370Y-32191D01*
X60356Y-32205D01*
X60328Y-32219D01*
X60257Y-32219D01*
X60229Y-32205D01*
X60215Y-32191D01*
M02*
