G04 (created by PCBNEW (2013-07-07 BZR 4022)-stable) date 5/27/2014 6:11:07 PM*
%MOIN*%
G04 Gerber Fmt 3.4, Leading zero omitted, Abs format*
%FSLAX34Y34*%
G01*
G70*
G90*
G04 APERTURE LIST*
%ADD10C,0.00590551*%
%ADD11C,0.005*%
%ADD12C,0.0028*%
%ADD13C,0.00472441*%
G04 APERTURE END LIST*
G54D10*
G54D11*
X83440Y-55490D02*
X82540Y-55490D01*
X82540Y-55490D02*
X82540Y-55990D01*
X82540Y-55990D02*
X83440Y-55990D01*
X83440Y-55990D02*
X83440Y-55490D01*
X81650Y-55000D02*
X81650Y-55900D01*
X81650Y-55900D02*
X82150Y-55900D01*
X82150Y-55900D02*
X82150Y-55000D01*
X82150Y-55000D02*
X81650Y-55000D01*
X74800Y-58750D02*
X74800Y-59450D01*
X74800Y-59450D02*
X76000Y-59450D01*
X76000Y-59450D02*
X76000Y-58750D01*
X76000Y-58750D02*
X74800Y-58750D01*
G54D12*
X77450Y-55800D02*
X77650Y-55800D01*
X77650Y-55800D02*
X77650Y-56100D01*
X77650Y-56100D02*
X77450Y-56100D01*
X77250Y-55800D02*
X77050Y-55800D01*
X77050Y-55800D02*
X77050Y-56100D01*
X77050Y-56100D02*
X77250Y-56100D01*
X75000Y-55800D02*
X75200Y-55800D01*
X75200Y-55800D02*
X75200Y-56100D01*
X75200Y-56100D02*
X75000Y-56100D01*
X74800Y-55800D02*
X74600Y-55800D01*
X74600Y-55800D02*
X74600Y-56100D01*
X74600Y-56100D02*
X74800Y-56100D01*
X80850Y-56050D02*
X80650Y-56050D01*
X80650Y-56050D02*
X80650Y-55750D01*
X80650Y-55750D02*
X80850Y-55750D01*
X81050Y-56050D02*
X81250Y-56050D01*
X81250Y-56050D02*
X81250Y-55750D01*
X81250Y-55750D02*
X81050Y-55750D01*
X77400Y-58750D02*
X77200Y-58750D01*
X77200Y-58750D02*
X77200Y-58450D01*
X77200Y-58450D02*
X77400Y-58450D01*
X77600Y-58750D02*
X77800Y-58750D01*
X77800Y-58750D02*
X77800Y-58450D01*
X77800Y-58450D02*
X77600Y-58450D01*
X75800Y-55800D02*
X76000Y-55800D01*
X76000Y-55800D02*
X76000Y-56100D01*
X76000Y-56100D02*
X75800Y-56100D01*
X75600Y-55800D02*
X75400Y-55800D01*
X75400Y-55800D02*
X75400Y-56100D01*
X75400Y-56100D02*
X75600Y-56100D01*
X76400Y-56100D02*
X76200Y-56100D01*
X76200Y-56100D02*
X76200Y-55800D01*
X76200Y-55800D02*
X76400Y-55800D01*
X76600Y-56100D02*
X76800Y-56100D01*
X76800Y-56100D02*
X76800Y-55800D01*
X76800Y-55800D02*
X76600Y-55800D01*
X76400Y-58750D02*
X76200Y-58750D01*
X76200Y-58750D02*
X76200Y-58450D01*
X76200Y-58450D02*
X76400Y-58450D01*
X76600Y-58750D02*
X76800Y-58750D01*
X76800Y-58750D02*
X76800Y-58450D01*
X76800Y-58450D02*
X76600Y-58450D01*
X74400Y-59450D02*
X74600Y-59450D01*
X74600Y-59450D02*
X74600Y-59750D01*
X74600Y-59750D02*
X74400Y-59750D01*
X74200Y-59450D02*
X74000Y-59450D01*
X74000Y-59450D02*
X74000Y-59750D01*
X74000Y-59750D02*
X74200Y-59750D01*
X78275Y-58525D02*
X78275Y-58725D01*
X78275Y-58725D02*
X77975Y-58725D01*
X77975Y-58725D02*
X77975Y-58525D01*
X78275Y-58325D02*
X78275Y-58125D01*
X78275Y-58125D02*
X77975Y-58125D01*
X77975Y-58125D02*
X77975Y-58325D01*
G54D13*
X83479Y-55374D02*
X83493Y-55388D01*
X83535Y-55402D01*
X83563Y-55402D01*
X83605Y-55388D01*
X83633Y-55360D01*
X83647Y-55332D01*
X83661Y-55276D01*
X83661Y-55234D01*
X83647Y-55177D01*
X83633Y-55149D01*
X83605Y-55121D01*
X83563Y-55107D01*
X83535Y-55107D01*
X83493Y-55121D01*
X83479Y-55135D01*
X83197Y-55402D02*
X83366Y-55402D01*
X83282Y-55402D02*
X83282Y-55107D01*
X83310Y-55149D01*
X83338Y-55177D01*
X83366Y-55191D01*
X82916Y-55402D02*
X83085Y-55402D01*
X83000Y-55402D02*
X83000Y-55107D01*
X83029Y-55149D01*
X83057Y-55177D01*
X83085Y-55191D01*
X81534Y-55001D02*
X81548Y-54987D01*
X81562Y-54945D01*
X81562Y-54917D01*
X81548Y-54875D01*
X81520Y-54846D01*
X81492Y-54832D01*
X81436Y-54818D01*
X81394Y-54818D01*
X81337Y-54832D01*
X81309Y-54846D01*
X81281Y-54875D01*
X81267Y-54917D01*
X81267Y-54945D01*
X81281Y-54987D01*
X81295Y-55001D01*
X81267Y-55254D02*
X81267Y-55198D01*
X81281Y-55170D01*
X81295Y-55156D01*
X81337Y-55128D01*
X81394Y-55114D01*
X81506Y-55114D01*
X81534Y-55128D01*
X81548Y-55142D01*
X81562Y-55170D01*
X81562Y-55226D01*
X81548Y-55254D01*
X81534Y-55268D01*
X81506Y-55282D01*
X81436Y-55282D01*
X81408Y-55268D01*
X81394Y-55254D01*
X81380Y-55226D01*
X81380Y-55170D01*
X81394Y-55142D01*
X81408Y-55128D01*
X81436Y-55114D01*
G54D11*
X76151Y-59409D02*
X76353Y-59409D01*
X76377Y-59421D01*
X76389Y-59433D01*
X76401Y-59457D01*
X76401Y-59504D01*
X76389Y-59528D01*
X76377Y-59540D01*
X76353Y-59552D01*
X76151Y-59552D01*
X76151Y-59647D02*
X76151Y-59802D01*
X76246Y-59719D01*
X76246Y-59754D01*
X76258Y-59778D01*
X76270Y-59790D01*
X76294Y-59802D01*
X76353Y-59802D01*
X76377Y-59790D01*
X76389Y-59778D01*
X76401Y-59754D01*
X76401Y-59683D01*
X76389Y-59659D01*
X76377Y-59647D01*
G54D13*
X77539Y-55641D02*
X77553Y-55655D01*
X77596Y-55669D01*
X77624Y-55669D01*
X77666Y-55655D01*
X77694Y-55627D01*
X77708Y-55599D01*
X77722Y-55542D01*
X77722Y-55500D01*
X77708Y-55444D01*
X77694Y-55416D01*
X77666Y-55388D01*
X77624Y-55374D01*
X77596Y-55374D01*
X77553Y-55388D01*
X77539Y-55402D01*
X77258Y-55669D02*
X77427Y-55669D01*
X77342Y-55669D02*
X77342Y-55374D01*
X77371Y-55416D01*
X77399Y-55444D01*
X77427Y-55458D01*
X77075Y-55374D02*
X77047Y-55374D01*
X77019Y-55388D01*
X77005Y-55402D01*
X76991Y-55430D01*
X76977Y-55486D01*
X76977Y-55557D01*
X76991Y-55613D01*
X77005Y-55641D01*
X77019Y-55655D01*
X77047Y-55669D01*
X77075Y-55669D01*
X77103Y-55655D01*
X77117Y-55641D01*
X77132Y-55613D01*
X77146Y-55557D01*
X77146Y-55486D01*
X77132Y-55430D01*
X77117Y-55402D01*
X77103Y-55388D01*
X77075Y-55374D01*
X74949Y-55641D02*
X74963Y-55655D01*
X75005Y-55669D01*
X75033Y-55669D01*
X75075Y-55655D01*
X75103Y-55627D01*
X75117Y-55599D01*
X75132Y-55542D01*
X75132Y-55500D01*
X75117Y-55444D01*
X75103Y-55416D01*
X75075Y-55388D01*
X75033Y-55374D01*
X75005Y-55374D01*
X74963Y-55388D01*
X74949Y-55402D01*
X74850Y-55374D02*
X74653Y-55374D01*
X74780Y-55669D01*
X80299Y-56019D02*
X80397Y-55878D01*
X80467Y-56019D02*
X80467Y-55724D01*
X80355Y-55724D01*
X80327Y-55738D01*
X80313Y-55752D01*
X80299Y-55780D01*
X80299Y-55822D01*
X80313Y-55850D01*
X80327Y-55864D01*
X80355Y-55878D01*
X80467Y-55878D01*
X80200Y-55724D02*
X80003Y-55724D01*
X80130Y-56019D01*
X77424Y-58319D02*
X77522Y-58178D01*
X77592Y-58319D02*
X77592Y-58024D01*
X77480Y-58024D01*
X77452Y-58038D01*
X77438Y-58052D01*
X77424Y-58080D01*
X77424Y-58122D01*
X77438Y-58150D01*
X77452Y-58164D01*
X77480Y-58178D01*
X77592Y-58178D01*
X77157Y-58024D02*
X77297Y-58024D01*
X77311Y-58164D01*
X77297Y-58150D01*
X77269Y-58136D01*
X77199Y-58136D01*
X77171Y-58150D01*
X77157Y-58164D01*
X77142Y-58192D01*
X77142Y-58263D01*
X77157Y-58291D01*
X77171Y-58305D01*
X77199Y-58319D01*
X77269Y-58319D01*
X77297Y-58305D01*
X77311Y-58291D01*
X75749Y-55641D02*
X75763Y-55655D01*
X75805Y-55669D01*
X75833Y-55669D01*
X75875Y-55655D01*
X75903Y-55627D01*
X75917Y-55599D01*
X75932Y-55542D01*
X75932Y-55500D01*
X75917Y-55444D01*
X75903Y-55416D01*
X75875Y-55388D01*
X75833Y-55374D01*
X75805Y-55374D01*
X75763Y-55388D01*
X75749Y-55402D01*
X75580Y-55500D02*
X75608Y-55486D01*
X75622Y-55472D01*
X75636Y-55444D01*
X75636Y-55430D01*
X75622Y-55402D01*
X75608Y-55388D01*
X75580Y-55374D01*
X75524Y-55374D01*
X75496Y-55388D01*
X75482Y-55402D01*
X75467Y-55430D01*
X75467Y-55444D01*
X75482Y-55472D01*
X75496Y-55486D01*
X75524Y-55500D01*
X75580Y-55500D01*
X75608Y-55514D01*
X75622Y-55528D01*
X75636Y-55557D01*
X75636Y-55613D01*
X75622Y-55641D01*
X75608Y-55655D01*
X75580Y-55669D01*
X75524Y-55669D01*
X75496Y-55655D01*
X75482Y-55641D01*
X75467Y-55613D01*
X75467Y-55557D01*
X75482Y-55528D01*
X75496Y-55514D01*
X75524Y-55500D01*
X76549Y-55641D02*
X76563Y-55655D01*
X76605Y-55669D01*
X76633Y-55669D01*
X76675Y-55655D01*
X76703Y-55627D01*
X76717Y-55599D01*
X76732Y-55542D01*
X76732Y-55500D01*
X76717Y-55444D01*
X76703Y-55416D01*
X76675Y-55388D01*
X76633Y-55374D01*
X76605Y-55374D01*
X76563Y-55388D01*
X76549Y-55402D01*
X76408Y-55669D02*
X76352Y-55669D01*
X76324Y-55655D01*
X76310Y-55641D01*
X76282Y-55599D01*
X76267Y-55542D01*
X76267Y-55430D01*
X76282Y-55402D01*
X76296Y-55388D01*
X76324Y-55374D01*
X76380Y-55374D01*
X76408Y-55388D01*
X76422Y-55402D01*
X76436Y-55430D01*
X76436Y-55500D01*
X76422Y-55528D01*
X76408Y-55542D01*
X76380Y-55557D01*
X76324Y-55557D01*
X76296Y-55542D01*
X76282Y-55528D01*
X76267Y-55500D01*
X76549Y-59131D02*
X76563Y-59145D01*
X76605Y-59159D01*
X76633Y-59159D01*
X76675Y-59145D01*
X76703Y-59117D01*
X76717Y-59089D01*
X76732Y-59032D01*
X76732Y-58990D01*
X76717Y-58934D01*
X76703Y-58906D01*
X76675Y-58878D01*
X76633Y-58864D01*
X76605Y-58864D01*
X76563Y-58878D01*
X76549Y-58892D01*
X76282Y-58864D02*
X76422Y-58864D01*
X76436Y-59004D01*
X76422Y-58990D01*
X76394Y-58976D01*
X76324Y-58976D01*
X76296Y-58990D01*
X76282Y-59004D01*
X76267Y-59032D01*
X76267Y-59103D01*
X76282Y-59131D01*
X76296Y-59145D01*
X76324Y-59159D01*
X76394Y-59159D01*
X76422Y-59145D01*
X76436Y-59131D01*
X74349Y-60091D02*
X74363Y-60105D01*
X74405Y-60119D01*
X74433Y-60119D01*
X74475Y-60105D01*
X74503Y-60077D01*
X74517Y-60049D01*
X74532Y-59992D01*
X74532Y-59950D01*
X74517Y-59894D01*
X74503Y-59866D01*
X74475Y-59838D01*
X74433Y-59824D01*
X74405Y-59824D01*
X74363Y-59838D01*
X74349Y-59852D01*
X74096Y-59922D02*
X74096Y-60119D01*
X74166Y-59810D02*
X74236Y-60021D01*
X74053Y-60021D01*
X78694Y-58150D02*
X78553Y-58052D01*
X78694Y-57982D02*
X78399Y-57982D01*
X78399Y-58094D01*
X78413Y-58122D01*
X78427Y-58136D01*
X78455Y-58150D01*
X78497Y-58150D01*
X78525Y-58136D01*
X78539Y-58122D01*
X78553Y-58094D01*
X78553Y-57982D01*
X78399Y-58403D02*
X78399Y-58347D01*
X78413Y-58319D01*
X78427Y-58305D01*
X78469Y-58277D01*
X78525Y-58263D01*
X78638Y-58263D01*
X78666Y-58277D01*
X78680Y-58291D01*
X78694Y-58319D01*
X78694Y-58375D01*
X78680Y-58403D01*
X78666Y-58417D01*
X78638Y-58432D01*
X78567Y-58432D01*
X78539Y-58417D01*
X78525Y-58403D01*
X78511Y-58375D01*
X78511Y-58319D01*
X78525Y-58291D01*
X78539Y-58277D01*
X78567Y-58263D01*
G54D10*
X78695Y-60947D02*
X78695Y-61265D01*
X78676Y-61303D01*
X78657Y-61322D01*
X78620Y-61340D01*
X78545Y-61340D01*
X78507Y-61322D01*
X78489Y-61303D01*
X78470Y-61265D01*
X78470Y-60947D01*
X78301Y-60984D02*
X78282Y-60965D01*
X78245Y-60947D01*
X78151Y-60947D01*
X78114Y-60965D01*
X78095Y-60984D01*
X78076Y-61022D01*
X78076Y-61059D01*
X78095Y-61115D01*
X78320Y-61340D01*
X78076Y-61340D01*
G54D13*
X77690Y-60369D02*
X77859Y-60369D01*
X77775Y-60369D02*
X77775Y-60074D01*
X77803Y-60116D01*
X77831Y-60144D01*
X77859Y-60158D01*
M02*
