M48
;DRILL file {Pcbnew (2013-07-07 BZR 4022)-stable} date 5/22/2014 8:04:05 PM
;FORMAT={-:-/ absolute / inch / decimal}
FMAT,2
INCH,TZ
T1C0.013
T2C0.025
T3C0.035
T4C0.036
T5C0.040
T6C0.047
T7C0.087
T8C0.091
%
G90
G05
M72
T1
X7.31Y-6.1
X7.31Y-6.255
X7.415Y-6.16
X7.425Y-6.255
X7.475Y-6.
X7.475Y-6.16
X7.485Y-5.63
X7.525Y-5.63
X7.54Y-5.86
X7.555Y-5.63
X7.585Y-5.63
X7.608Y-5.821
X7.655Y-6.015
X7.69Y-5.63
X7.715Y-6.185
X7.715Y-6.26
X7.729Y-5.976
X7.747Y-5.953
X7.749Y-5.999
X7.765Y-5.82
X7.8Y-5.82
X7.83Y-5.625
X7.895Y-5.81
X7.915Y-5.84
X7.965Y-5.823
X7.985Y-6.02
X8.02Y-5.82
X8.094Y-5.93
X8.1235Y-5.9335
X8.138Y-6.019
X8.155Y-5.63
X8.19Y-5.615
X8.235Y-5.61
X8.305Y-6.065
T2
X7.61Y-6.01
T3
X7.8805Y-5.9656
T4
X8.55Y-5.7422
X8.55Y-5.8406
X8.55Y-5.9194
X8.55Y-6.0178
T5
X8.08Y-6.15
X8.18Y-6.15
X8.28Y-6.15
T6
X7.09Y-5.7914
X7.09Y-5.9686
T7
X7.09Y-5.6595
X7.09Y-6.1005
T8
X8.6567Y-5.6213
X8.6567Y-6.1387
T0
M30
