G04 (created by PCBNEW (2013-07-07 BZR 4022)-stable) date 11/27/2013 8:36:12*
%MOIN*%
G04 Gerber Fmt 3.4, Leading zero omitted, Abs format*
%FSLAX34Y34*%
G01*
G70*
G90*
G04 APERTURE LIST*
%ADD10C,0.00590551*%
%ADD11O,0.0334646X0.153543*%
%ADD12R,0.0334646X0.153543*%
%ADD13R,0.0748031X0.0748031*%
%ADD14C,0.0748031*%
G04 APERTURE END LIST*
G54D10*
G54D11*
X57000Y-35050D03*
G54D12*
X57275Y-35050D03*
X57551Y-35050D03*
X57826Y-35050D03*
X58102Y-35050D03*
X58377Y-35050D03*
X58653Y-35050D03*
X58929Y-35050D03*
X59204Y-35050D03*
X59480Y-35050D03*
X59755Y-35050D03*
X60031Y-35050D03*
X60307Y-35050D03*
X60582Y-35050D03*
X60858Y-35050D03*
X61133Y-35050D03*
X61409Y-35050D03*
X61685Y-35050D03*
X61960Y-35050D03*
X62236Y-35050D03*
X62511Y-35050D03*
X62787Y-35050D03*
X63062Y-35050D03*
X63338Y-35050D03*
X63614Y-35050D03*
X63889Y-35050D03*
X64165Y-35050D03*
X64440Y-35050D03*
X64716Y-35050D03*
X64992Y-35050D03*
G54D13*
X57500Y-37750D03*
G54D14*
X57500Y-36750D03*
X58500Y-37750D03*
X58500Y-36750D03*
X59500Y-37750D03*
X59500Y-36750D03*
X60500Y-37750D03*
X60500Y-36750D03*
X61500Y-37750D03*
X61500Y-36750D03*
X62500Y-37750D03*
X62500Y-36750D03*
X63500Y-37750D03*
X63500Y-36750D03*
X64500Y-37750D03*
X64500Y-36750D03*
G54D10*
G36*
X58224Y-32799D02*
X58126Y-33350D01*
X57673Y-33350D01*
X57575Y-32799D01*
X58224Y-32799D01*
X58224Y-32799D01*
G37*
G36*
X58126Y-32299D02*
X58224Y-32850D01*
X57575Y-32850D01*
X57673Y-32299D01*
X58126Y-32299D01*
X58126Y-32299D01*
G37*
G36*
X61374Y-32799D02*
X61276Y-33350D01*
X60823Y-33350D01*
X60725Y-32799D01*
X61374Y-32799D01*
X61374Y-32799D01*
G37*
G36*
X61276Y-32299D02*
X61374Y-32850D01*
X60725Y-32850D01*
X60823Y-32299D01*
X61276Y-32299D01*
X61276Y-32299D01*
G37*
G36*
X59174Y-32799D02*
X59076Y-33350D01*
X58623Y-33350D01*
X58525Y-32799D01*
X59174Y-32799D01*
X59174Y-32799D01*
G37*
G36*
X59076Y-32299D02*
X59174Y-32850D01*
X58525Y-32850D01*
X58623Y-32299D01*
X59076Y-32299D01*
X59076Y-32299D01*
G37*
G36*
X57499Y-32799D02*
X57401Y-33350D01*
X56948Y-33350D01*
X56850Y-32799D01*
X57499Y-32799D01*
X57499Y-32799D01*
G37*
G36*
X57401Y-32299D02*
X57499Y-32850D01*
X56850Y-32850D01*
X56948Y-32299D01*
X57401Y-32299D01*
X57401Y-32299D01*
G37*
G36*
X59899Y-32799D02*
X59801Y-33350D01*
X59348Y-33350D01*
X59250Y-32799D01*
X59899Y-32799D01*
X59899Y-32799D01*
G37*
G36*
X59801Y-32299D02*
X59899Y-32850D01*
X59250Y-32850D01*
X59348Y-32299D01*
X59801Y-32299D01*
X59801Y-32299D01*
G37*
G36*
X60624Y-32799D02*
X60526Y-33350D01*
X60073Y-33350D01*
X59975Y-32799D01*
X60624Y-32799D01*
X60624Y-32799D01*
G37*
G36*
X60526Y-32299D02*
X60624Y-32850D01*
X59975Y-32850D01*
X60073Y-32299D01*
X60526Y-32299D01*
X60526Y-32299D01*
G37*
M02*
