G04 (created by PCBNEW (2013-07-07 BZR 4022)-stable) date 5/22/2014 8:04:03 PM*
%MOIN*%
G04 Gerber Fmt 3.4, Leading zero omitted, Abs format*
%FSLAX34Y34*%
G01*
G70*
G90*
G04 APERTURE LIST*
%ADD10C,0.00590551*%
%ADD11R,0.025X0.045*%
%ADD12R,0.045X0.025*%
%ADD13C,0.0688976*%
%ADD14R,0.02X0.03*%
%ADD15R,0.0157X0.0236*%
%ADD16R,0.0236X0.0157*%
%ADD17R,0.00984252X0.0590551*%
%ADD18R,0.0590551X0.00984252*%
%ADD19R,0.0472441X0.0472441*%
%ADD20C,0.0531496*%
%ADD21C,0.11811*%
%ADD22C,0.0669291*%
%ADD23C,0.0984252*%
%ADD24C,0.02*%
%ADD25C,0.035*%
%ADD26C,0.01*%
%ADD27C,0.019685*%
G04 APERTURE END LIST*
G54D10*
G54D11*
X83290Y-55740D03*
X82690Y-55740D03*
G54D12*
X81900Y-55150D03*
X81900Y-55750D03*
G54D13*
X80800Y-61500D03*
X81800Y-61500D03*
X82800Y-61500D03*
G54D14*
X75775Y-59600D03*
X75025Y-59600D03*
X75775Y-58600D03*
X75400Y-59600D03*
X75025Y-58600D03*
G54D15*
X77527Y-55950D03*
X77173Y-55950D03*
X75077Y-55950D03*
X74723Y-55950D03*
X80773Y-55900D03*
X81127Y-55900D03*
X77023Y-60400D03*
X77377Y-60400D03*
X75877Y-55950D03*
X75523Y-55950D03*
X76323Y-55950D03*
X76677Y-55950D03*
X76323Y-58600D03*
X76677Y-58600D03*
X74477Y-59600D03*
X74123Y-59600D03*
G54D16*
X77800Y-60823D03*
X77800Y-61177D03*
G54D17*
X78903Y-60384D03*
X79100Y-60384D03*
X78706Y-60384D03*
X78509Y-60384D03*
G54D18*
X79533Y-59754D03*
X79533Y-59951D03*
X79533Y-59558D03*
X79533Y-59361D03*
X78076Y-59754D03*
X78076Y-59951D03*
X78076Y-59558D03*
X78076Y-59361D03*
G54D17*
X78509Y-58928D03*
X78706Y-58928D03*
X78903Y-58928D03*
X79100Y-58928D03*
G54D19*
X78804Y-59656D03*
G54D20*
X85500Y-59193D03*
X85500Y-58406D03*
X85500Y-60177D03*
X85500Y-57422D03*
G54D21*
X86566Y-61386D03*
X86566Y-56213D03*
G54D22*
X70900Y-57914D03*
X70900Y-59685D03*
G54D23*
X70900Y-56595D03*
X70900Y-61004D03*
G54D24*
X83050Y-60650D03*
X73100Y-62550D03*
X76080Y-58210D03*
X75400Y-58600D03*
X74250Y-62550D03*
X74750Y-60000D03*
X76900Y-56300D03*
X74750Y-61600D03*
X74150Y-61600D03*
X73100Y-61000D03*
X78950Y-58100D03*
X76550Y-60150D03*
X77150Y-62600D03*
X77150Y-61850D03*
X75850Y-56300D03*
X75250Y-56300D03*
X75550Y-56300D03*
X81550Y-56300D03*
X74850Y-56300D03*
X82350Y-56100D03*
X81900Y-56150D03*
X81235Y-59335D03*
X77490Y-59990D03*
X79150Y-58400D03*
X79650Y-58230D03*
X77290Y-59760D03*
X77470Y-59530D03*
X78000Y-58200D03*
X79850Y-60200D03*
X80200Y-58200D03*
X78300Y-56250D03*
X81380Y-60190D03*
X80940Y-59300D03*
X77650Y-58200D03*
G54D25*
X76100Y-60100D03*
G54D26*
X79920Y-58950D02*
X79920Y-58280D01*
X79920Y-58280D02*
X79920Y-58080D01*
X79920Y-58080D02*
X79290Y-57450D01*
X79290Y-57450D02*
X76840Y-57450D01*
X76840Y-57450D02*
X76080Y-58210D01*
X80550Y-58950D02*
X80850Y-58950D01*
X80550Y-58950D02*
X79920Y-58950D01*
X79920Y-58950D02*
X79275Y-58950D01*
X79100Y-59125D02*
X79275Y-58950D01*
X81350Y-58950D02*
X83050Y-60650D01*
X80850Y-58950D02*
X81350Y-58950D01*
X74250Y-62550D02*
X73100Y-62550D01*
G54D27*
X76080Y-58590D02*
X76090Y-58600D01*
X76080Y-58210D02*
X76080Y-58590D01*
G54D26*
X74450Y-60850D02*
X74450Y-60300D01*
X74250Y-62550D02*
X74450Y-62350D01*
X74450Y-62350D02*
X74450Y-60850D01*
X74450Y-60300D02*
X74750Y-60000D01*
X75400Y-58600D02*
X75775Y-58600D01*
G54D27*
X75775Y-58600D02*
X76090Y-58600D01*
X76090Y-58600D02*
X76323Y-58600D01*
G54D26*
X76900Y-55950D02*
X76900Y-56300D01*
X76677Y-55950D02*
X76900Y-55950D01*
X76900Y-55950D02*
X77173Y-55950D01*
X78706Y-60187D02*
X78706Y-60843D01*
X74750Y-61600D02*
X77950Y-61600D01*
X78706Y-60843D02*
X77950Y-61600D01*
X74050Y-61600D02*
X74150Y-61600D01*
X74050Y-61600D02*
X73700Y-61600D01*
X73700Y-61600D02*
X73100Y-61000D01*
X78950Y-58100D02*
X78903Y-58146D01*
X78903Y-58146D02*
X78903Y-59125D01*
X78706Y-59125D02*
X78706Y-58256D01*
X78706Y-58256D02*
X78200Y-57750D01*
X78200Y-57750D02*
X77700Y-57750D01*
X77700Y-57750D02*
X77000Y-58450D01*
X77000Y-58450D02*
X77000Y-59700D01*
X77000Y-59700D02*
X76550Y-60150D01*
X77150Y-61850D02*
X77150Y-62600D01*
X75877Y-55950D02*
X75877Y-56273D01*
X75877Y-56273D02*
X75850Y-56300D01*
X75077Y-55950D02*
X75077Y-56127D01*
X75077Y-56127D02*
X75250Y-56300D01*
X75523Y-56273D02*
X75523Y-55950D01*
X75550Y-56300D02*
X75523Y-56273D01*
X81127Y-55900D02*
X81150Y-55900D01*
X81150Y-55900D02*
X81550Y-56300D01*
X74723Y-56173D02*
X74723Y-55950D01*
X74850Y-56300D02*
X74723Y-56173D01*
X82690Y-55740D02*
X82690Y-55760D01*
X82690Y-55760D02*
X82350Y-56100D01*
X81900Y-56150D02*
X81900Y-55750D01*
X79336Y-59558D02*
X81011Y-59558D01*
X81011Y-59558D02*
X81235Y-59335D01*
X81036Y-59533D02*
X81235Y-59335D01*
X78273Y-59951D02*
X77528Y-59951D01*
X77528Y-59951D02*
X77490Y-59990D01*
X78273Y-59754D02*
X77295Y-59754D01*
X79150Y-58400D02*
X79320Y-58230D01*
X79320Y-58230D02*
X79650Y-58230D01*
X77295Y-59754D02*
X77290Y-59760D01*
X78273Y-59558D02*
X77498Y-59558D01*
X77498Y-59558D02*
X77470Y-59530D01*
X78000Y-58200D02*
X78000Y-59087D01*
X78000Y-59087D02*
X78273Y-59361D01*
X79336Y-59951D02*
X79601Y-59951D01*
X80200Y-58200D02*
X80200Y-57800D01*
X80200Y-57800D02*
X78650Y-56250D01*
X78650Y-56250D02*
X78300Y-56250D01*
X79601Y-59951D02*
X79850Y-60200D01*
X79250Y-60850D02*
X79100Y-60700D01*
X81150Y-60850D02*
X79250Y-60850D01*
X81800Y-61500D02*
X81150Y-60850D01*
X79100Y-60700D02*
X79100Y-60187D01*
X78903Y-60187D02*
X78903Y-61003D01*
X79400Y-61500D02*
X80800Y-61500D01*
X79400Y-61500D02*
X78903Y-61003D01*
X81380Y-60190D02*
X80944Y-59754D01*
X80944Y-59754D02*
X79336Y-59754D01*
X81075Y-59885D02*
X81380Y-60190D01*
X80940Y-59300D02*
X80878Y-59361D01*
X80878Y-59361D02*
X79336Y-59361D01*
X80903Y-59336D02*
X80940Y-59300D01*
X78509Y-59125D02*
X78509Y-58359D01*
X77900Y-57950D02*
X77650Y-58200D01*
X78100Y-57950D02*
X77900Y-57950D01*
X78509Y-58359D02*
X78100Y-57950D01*
X75025Y-59600D02*
X75025Y-59875D01*
X75550Y-60000D02*
X75775Y-59775D01*
X75150Y-60000D02*
X75550Y-60000D01*
X75025Y-59875D02*
X75150Y-60000D01*
X76400Y-60400D02*
X77023Y-60400D01*
X76100Y-60100D02*
X76400Y-60400D01*
G54D27*
X75775Y-59600D02*
X75775Y-59775D01*
X75775Y-59775D02*
X76100Y-60100D01*
G54D26*
X74477Y-59600D02*
X75025Y-59600D01*
X77800Y-60823D02*
X78377Y-60823D01*
X78509Y-60690D02*
X78509Y-60187D01*
X78377Y-60823D02*
X78509Y-60690D01*
X77377Y-60400D02*
X77800Y-60823D01*
G54D10*
G36*
X78244Y-61023D02*
X78040Y-61226D01*
X78030Y-61216D01*
X77850Y-61216D01*
X77850Y-61234D01*
X77750Y-61234D01*
X77750Y-61216D01*
X77569Y-61216D01*
X77532Y-61253D01*
X77531Y-61285D01*
X77554Y-61340D01*
X77596Y-61382D01*
X77638Y-61400D01*
X74903Y-61400D01*
X74891Y-61388D01*
X74799Y-61350D01*
X74700Y-61349D01*
X74650Y-61370D01*
X74650Y-60850D01*
X74650Y-60382D01*
X74782Y-60250D01*
X74799Y-60250D01*
X74891Y-60212D01*
X74961Y-60141D01*
X74975Y-60108D01*
X75008Y-60141D01*
X75008Y-60141D01*
X75051Y-60170D01*
X75073Y-60184D01*
X75073Y-60184D01*
X75149Y-60199D01*
X75150Y-60200D01*
X75550Y-60200D01*
X75626Y-60184D01*
X75691Y-60141D01*
X75740Y-60092D01*
X75774Y-60126D01*
X75774Y-60164D01*
X75824Y-60283D01*
X75915Y-60375D01*
X76035Y-60424D01*
X76142Y-60425D01*
X76258Y-60541D01*
X76258Y-60541D01*
X76301Y-60570D01*
X76323Y-60584D01*
X76323Y-60584D01*
X76399Y-60599D01*
X76400Y-60600D01*
X76816Y-60600D01*
X76817Y-60602D01*
X76859Y-60645D01*
X76914Y-60667D01*
X76974Y-60668D01*
X77131Y-60668D01*
X77186Y-60645D01*
X77199Y-60631D01*
X77213Y-60645D01*
X77268Y-60667D01*
X77328Y-60668D01*
X77362Y-60668D01*
X77531Y-60837D01*
X77531Y-60931D01*
X77554Y-60986D01*
X77568Y-61000D01*
X77554Y-61013D01*
X77531Y-61068D01*
X77532Y-61100D01*
X77569Y-61137D01*
X77750Y-61137D01*
X77750Y-61119D01*
X77850Y-61119D01*
X77850Y-61137D01*
X78030Y-61137D01*
X78068Y-61100D01*
X78068Y-61068D01*
X78049Y-61023D01*
X78244Y-61023D01*
X78244Y-61023D01*
G37*
G54D26*
X78244Y-61023D02*
X78040Y-61226D01*
X78030Y-61216D01*
X77850Y-61216D01*
X77850Y-61234D01*
X77750Y-61234D01*
X77750Y-61216D01*
X77569Y-61216D01*
X77532Y-61253D01*
X77531Y-61285D01*
X77554Y-61340D01*
X77596Y-61382D01*
X77638Y-61400D01*
X74903Y-61400D01*
X74891Y-61388D01*
X74799Y-61350D01*
X74700Y-61349D01*
X74650Y-61370D01*
X74650Y-60850D01*
X74650Y-60382D01*
X74782Y-60250D01*
X74799Y-60250D01*
X74891Y-60212D01*
X74961Y-60141D01*
X74975Y-60108D01*
X75008Y-60141D01*
X75008Y-60141D01*
X75051Y-60170D01*
X75073Y-60184D01*
X75073Y-60184D01*
X75149Y-60199D01*
X75150Y-60200D01*
X75550Y-60200D01*
X75626Y-60184D01*
X75691Y-60141D01*
X75740Y-60092D01*
X75774Y-60126D01*
X75774Y-60164D01*
X75824Y-60283D01*
X75915Y-60375D01*
X76035Y-60424D01*
X76142Y-60425D01*
X76258Y-60541D01*
X76258Y-60541D01*
X76301Y-60570D01*
X76323Y-60584D01*
X76323Y-60584D01*
X76399Y-60599D01*
X76400Y-60600D01*
X76816Y-60600D01*
X76817Y-60602D01*
X76859Y-60645D01*
X76914Y-60667D01*
X76974Y-60668D01*
X77131Y-60668D01*
X77186Y-60645D01*
X77199Y-60631D01*
X77213Y-60645D01*
X77268Y-60667D01*
X77328Y-60668D01*
X77362Y-60668D01*
X77531Y-60837D01*
X77531Y-60931D01*
X77554Y-60986D01*
X77568Y-61000D01*
X77554Y-61013D01*
X77531Y-61068D01*
X77532Y-61100D01*
X77569Y-61137D01*
X77750Y-61137D01*
X77750Y-61119D01*
X77850Y-61119D01*
X77850Y-61137D01*
X78030Y-61137D01*
X78068Y-61100D01*
X78068Y-61068D01*
X78049Y-61023D01*
X78244Y-61023D01*
G54D10*
G36*
X79555Y-57998D02*
X79508Y-58017D01*
X79496Y-58030D01*
X79320Y-58030D01*
X79256Y-58042D01*
X79243Y-58045D01*
X79178Y-58088D01*
X79117Y-58149D01*
X79100Y-58149D01*
X79008Y-58187D01*
X78938Y-58258D01*
X78906Y-58334D01*
X78906Y-58256D01*
X78891Y-58179D01*
X78891Y-58179D01*
X78876Y-58158D01*
X78847Y-58114D01*
X78847Y-58114D01*
X78382Y-57650D01*
X79207Y-57650D01*
X79555Y-57998D01*
X79555Y-57998D01*
G37*
G54D26*
X79555Y-57998D02*
X79508Y-58017D01*
X79496Y-58030D01*
X79320Y-58030D01*
X79256Y-58042D01*
X79243Y-58045D01*
X79178Y-58088D01*
X79117Y-58149D01*
X79100Y-58149D01*
X79008Y-58187D01*
X78938Y-58258D01*
X78906Y-58334D01*
X78906Y-58256D01*
X78891Y-58179D01*
X78891Y-58179D01*
X78876Y-58158D01*
X78847Y-58114D01*
X78847Y-58114D01*
X78382Y-57650D01*
X79207Y-57650D01*
X79555Y-57998D01*
G54D10*
G36*
X87420Y-62483D02*
X87385Y-62659D01*
X87311Y-62770D01*
X87311Y-61513D01*
X87311Y-56340D01*
X87303Y-56046D01*
X87205Y-55810D01*
X87108Y-55742D01*
X87037Y-55813D01*
X87037Y-55671D01*
X86969Y-55574D01*
X86694Y-55469D01*
X86399Y-55477D01*
X86164Y-55574D01*
X86096Y-55671D01*
X86566Y-56142D01*
X87037Y-55671D01*
X87037Y-55813D01*
X86637Y-56213D01*
X87108Y-56684D01*
X87205Y-56615D01*
X87311Y-56340D01*
X87311Y-61513D01*
X87303Y-61219D01*
X87205Y-60984D01*
X87108Y-60915D01*
X87037Y-60986D01*
X87037Y-60845D01*
X87037Y-56754D01*
X86566Y-56284D01*
X86496Y-56354D01*
X86496Y-56213D01*
X86025Y-55742D01*
X85928Y-55810D01*
X85822Y-56086D01*
X85830Y-56380D01*
X85928Y-56615D01*
X86025Y-56684D01*
X86496Y-56213D01*
X86496Y-56354D01*
X86096Y-56754D01*
X86164Y-56852D01*
X86439Y-56957D01*
X86734Y-56949D01*
X86969Y-56852D01*
X87037Y-56754D01*
X87037Y-60845D01*
X86969Y-60747D01*
X86694Y-60642D01*
X86399Y-60650D01*
X86164Y-60747D01*
X86096Y-60845D01*
X86566Y-61315D01*
X87037Y-60845D01*
X87037Y-60986D01*
X86637Y-61386D01*
X87108Y-61857D01*
X87205Y-61789D01*
X87311Y-61513D01*
X87311Y-62770D01*
X87294Y-62795D01*
X87160Y-62884D01*
X87037Y-62909D01*
X87037Y-61928D01*
X86566Y-61457D01*
X86496Y-61528D01*
X86496Y-61386D01*
X86025Y-60915D01*
X85928Y-60984D01*
X85920Y-61002D01*
X85920Y-57471D01*
X85907Y-57306D01*
X85869Y-57215D01*
X85806Y-57186D01*
X85735Y-57257D01*
X85735Y-57115D01*
X85706Y-57052D01*
X85549Y-57001D01*
X85384Y-57014D01*
X85293Y-57052D01*
X85264Y-57115D01*
X85500Y-57351D01*
X85735Y-57115D01*
X85735Y-57257D01*
X85570Y-57422D01*
X85806Y-57657D01*
X85869Y-57629D01*
X85920Y-57471D01*
X85920Y-61002D01*
X85915Y-61016D01*
X85915Y-60095D01*
X85915Y-59111D01*
X85852Y-58958D01*
X85735Y-58841D01*
X85635Y-58799D01*
X85735Y-58758D01*
X85852Y-58642D01*
X85915Y-58489D01*
X85915Y-58323D01*
X85852Y-58171D01*
X85735Y-58054D01*
X85735Y-58053D01*
X85735Y-57728D01*
X85500Y-57492D01*
X85429Y-57563D01*
X85429Y-57422D01*
X85193Y-57186D01*
X85130Y-57215D01*
X85079Y-57372D01*
X85092Y-57537D01*
X85130Y-57629D01*
X85193Y-57657D01*
X85429Y-57422D01*
X85429Y-57563D01*
X85264Y-57728D01*
X85293Y-57791D01*
X85450Y-57843D01*
X85615Y-57829D01*
X85706Y-57791D01*
X85735Y-57728D01*
X85735Y-58053D01*
X85583Y-57990D01*
X85417Y-57990D01*
X85264Y-58053D01*
X85147Y-58170D01*
X85084Y-58323D01*
X85084Y-58488D01*
X85147Y-58641D01*
X85264Y-58758D01*
X85364Y-58800D01*
X85264Y-58841D01*
X85147Y-58957D01*
X85084Y-59110D01*
X85084Y-59276D01*
X85147Y-59428D01*
X85264Y-59545D01*
X85416Y-59609D01*
X85582Y-59609D01*
X85735Y-59546D01*
X85852Y-59429D01*
X85915Y-59276D01*
X85915Y-59111D01*
X85915Y-60095D01*
X85852Y-59942D01*
X85735Y-59825D01*
X85583Y-59762D01*
X85417Y-59762D01*
X85264Y-59825D01*
X85147Y-59942D01*
X85084Y-60094D01*
X85084Y-60260D01*
X85147Y-60413D01*
X85264Y-60530D01*
X85416Y-60593D01*
X85582Y-60593D01*
X85735Y-60530D01*
X85852Y-60413D01*
X85915Y-60261D01*
X85915Y-60095D01*
X85915Y-61016D01*
X85822Y-61259D01*
X85830Y-61553D01*
X85928Y-61789D01*
X86025Y-61857D01*
X86496Y-61386D01*
X86496Y-61528D01*
X86096Y-61928D01*
X86164Y-62025D01*
X86439Y-62130D01*
X86734Y-62122D01*
X86969Y-62025D01*
X87037Y-61928D01*
X87037Y-62909D01*
X86982Y-62920D01*
X83565Y-62920D01*
X83565Y-55935D01*
X83565Y-55544D01*
X83564Y-55485D01*
X83542Y-55429D01*
X83499Y-55387D01*
X83444Y-55364D01*
X83377Y-55365D01*
X83340Y-55402D01*
X83340Y-55690D01*
X83527Y-55690D01*
X83565Y-55652D01*
X83565Y-55544D01*
X83565Y-55935D01*
X83565Y-55827D01*
X83527Y-55790D01*
X83340Y-55790D01*
X83340Y-56077D01*
X83377Y-56115D01*
X83444Y-56115D01*
X83499Y-56092D01*
X83542Y-56050D01*
X83564Y-55994D01*
X83565Y-55935D01*
X83565Y-62920D01*
X83300Y-62920D01*
X83300Y-60600D01*
X83262Y-60508D01*
X83240Y-60486D01*
X83240Y-56077D01*
X83240Y-55790D01*
X83240Y-55690D01*
X83240Y-55402D01*
X83202Y-55365D01*
X83135Y-55364D01*
X83080Y-55387D01*
X83037Y-55429D01*
X83015Y-55485D01*
X83014Y-55544D01*
X83015Y-55652D01*
X83052Y-55690D01*
X83240Y-55690D01*
X83240Y-55790D01*
X83052Y-55790D01*
X83015Y-55827D01*
X83014Y-55935D01*
X83015Y-55994D01*
X83037Y-56050D01*
X83080Y-56092D01*
X83135Y-56115D01*
X83202Y-56115D01*
X83240Y-56077D01*
X83240Y-60486D01*
X83191Y-60438D01*
X83099Y-60400D01*
X83082Y-60400D01*
X82965Y-60282D01*
X82965Y-55935D01*
X82965Y-55485D01*
X82942Y-55430D01*
X82900Y-55387D01*
X82844Y-55365D01*
X82785Y-55364D01*
X82535Y-55364D01*
X82480Y-55387D01*
X82437Y-55429D01*
X82415Y-55485D01*
X82414Y-55544D01*
X82414Y-55752D01*
X82317Y-55849D01*
X82300Y-55849D01*
X82275Y-55860D01*
X82275Y-55845D01*
X82275Y-55595D01*
X82275Y-55304D01*
X82275Y-54995D01*
X82252Y-54940D01*
X82210Y-54897D01*
X82154Y-54875D01*
X82095Y-54874D01*
X81987Y-54875D01*
X81950Y-54912D01*
X81950Y-55100D01*
X82237Y-55100D01*
X82275Y-55062D01*
X82275Y-54995D01*
X82275Y-55304D01*
X82275Y-55237D01*
X82237Y-55200D01*
X81950Y-55200D01*
X81950Y-55387D01*
X81987Y-55425D01*
X82095Y-55425D01*
X82154Y-55424D01*
X82210Y-55402D01*
X82252Y-55359D01*
X82275Y-55304D01*
X82275Y-55595D01*
X82252Y-55540D01*
X82210Y-55497D01*
X82154Y-55475D01*
X82095Y-55474D01*
X81850Y-55474D01*
X81850Y-55387D01*
X81850Y-55200D01*
X81850Y-55100D01*
X81850Y-54912D01*
X81812Y-54875D01*
X81704Y-54874D01*
X81645Y-54875D01*
X81589Y-54897D01*
X81547Y-54940D01*
X81524Y-54995D01*
X81525Y-55062D01*
X81562Y-55100D01*
X81850Y-55100D01*
X81850Y-55200D01*
X81562Y-55200D01*
X81525Y-55237D01*
X81524Y-55304D01*
X81547Y-55359D01*
X81589Y-55402D01*
X81645Y-55424D01*
X81704Y-55425D01*
X81812Y-55425D01*
X81850Y-55387D01*
X81850Y-55474D01*
X81645Y-55474D01*
X81590Y-55497D01*
X81547Y-55539D01*
X81525Y-55595D01*
X81524Y-55654D01*
X81524Y-55904D01*
X81547Y-55959D01*
X81589Y-56002D01*
X81645Y-56024D01*
X81681Y-56025D01*
X81660Y-56075D01*
X81599Y-56050D01*
X81582Y-56050D01*
X81355Y-55822D01*
X81355Y-55752D01*
X81332Y-55697D01*
X81290Y-55654D01*
X81235Y-55632D01*
X81175Y-55631D01*
X81018Y-55631D01*
X80963Y-55654D01*
X80950Y-55668D01*
X80936Y-55654D01*
X80881Y-55631D01*
X80849Y-55632D01*
X80812Y-55669D01*
X80812Y-55850D01*
X80830Y-55850D01*
X80830Y-55950D01*
X80812Y-55950D01*
X80812Y-56130D01*
X80849Y-56168D01*
X80881Y-56168D01*
X80936Y-56145D01*
X80949Y-56131D01*
X80963Y-56145D01*
X81018Y-56167D01*
X81078Y-56168D01*
X81135Y-56168D01*
X81299Y-56332D01*
X81299Y-56349D01*
X81337Y-56441D01*
X81408Y-56511D01*
X81500Y-56549D01*
X81599Y-56550D01*
X81691Y-56512D01*
X81761Y-56441D01*
X81789Y-56374D01*
X81850Y-56399D01*
X81949Y-56400D01*
X82041Y-56362D01*
X82111Y-56291D01*
X82135Y-56235D01*
X82137Y-56241D01*
X82208Y-56311D01*
X82300Y-56349D01*
X82399Y-56350D01*
X82491Y-56312D01*
X82561Y-56241D01*
X82599Y-56149D01*
X82599Y-56132D01*
X82617Y-56115D01*
X82844Y-56115D01*
X82899Y-56092D01*
X82942Y-56050D01*
X82964Y-55994D01*
X82965Y-55935D01*
X82965Y-60282D01*
X81491Y-58808D01*
X81426Y-58765D01*
X81350Y-58750D01*
X80850Y-58750D01*
X80733Y-58750D01*
X80733Y-56130D01*
X80733Y-55950D01*
X80733Y-55850D01*
X80733Y-55669D01*
X80696Y-55632D01*
X80664Y-55631D01*
X80609Y-55654D01*
X80567Y-55696D01*
X80544Y-55752D01*
X80544Y-55811D01*
X80544Y-55812D01*
X80582Y-55850D01*
X80733Y-55850D01*
X80733Y-55950D01*
X80582Y-55950D01*
X80544Y-55987D01*
X80544Y-55988D01*
X80544Y-56047D01*
X80567Y-56103D01*
X80609Y-56145D01*
X80664Y-56168D01*
X80696Y-56168D01*
X80733Y-56130D01*
X80733Y-58750D01*
X80550Y-58750D01*
X80120Y-58750D01*
X80120Y-58437D01*
X80150Y-58449D01*
X80249Y-58450D01*
X80341Y-58412D01*
X80411Y-58341D01*
X80449Y-58249D01*
X80450Y-58150D01*
X80412Y-58058D01*
X80400Y-58046D01*
X80400Y-57800D01*
X80399Y-57799D01*
X80384Y-57723D01*
X80384Y-57723D01*
X80370Y-57701D01*
X80341Y-57658D01*
X80341Y-57658D01*
X78791Y-56108D01*
X78726Y-56065D01*
X78650Y-56050D01*
X78453Y-56050D01*
X78441Y-56038D01*
X78349Y-56000D01*
X78250Y-55999D01*
X78158Y-56037D01*
X78088Y-56108D01*
X78050Y-56200D01*
X78049Y-56299D01*
X78087Y-56391D01*
X78158Y-56461D01*
X78250Y-56499D01*
X78349Y-56500D01*
X78441Y-56462D01*
X78453Y-56450D01*
X78567Y-56450D01*
X79414Y-57297D01*
X79366Y-57265D01*
X79290Y-57250D01*
X77755Y-57250D01*
X77755Y-56038D01*
X77755Y-55861D01*
X77755Y-55802D01*
X77732Y-55746D01*
X77690Y-55704D01*
X77635Y-55681D01*
X77603Y-55682D01*
X77566Y-55719D01*
X77566Y-55900D01*
X77718Y-55900D01*
X77755Y-55862D01*
X77755Y-55861D01*
X77755Y-56038D01*
X77755Y-56037D01*
X77718Y-56000D01*
X77566Y-56000D01*
X77566Y-56180D01*
X77603Y-56218D01*
X77635Y-56218D01*
X77690Y-56195D01*
X77732Y-56153D01*
X77755Y-56097D01*
X77755Y-56038D01*
X77755Y-57250D01*
X77487Y-57250D01*
X77487Y-56180D01*
X77487Y-56000D01*
X77469Y-56000D01*
X77469Y-55900D01*
X77487Y-55900D01*
X77487Y-55719D01*
X77450Y-55682D01*
X77418Y-55681D01*
X77363Y-55704D01*
X77350Y-55718D01*
X77336Y-55704D01*
X77281Y-55682D01*
X77221Y-55681D01*
X77064Y-55681D01*
X77009Y-55704D01*
X76967Y-55746D01*
X76966Y-55750D01*
X76900Y-55750D01*
X76883Y-55750D01*
X76882Y-55747D01*
X76840Y-55704D01*
X76785Y-55682D01*
X76725Y-55681D01*
X76568Y-55681D01*
X76513Y-55704D01*
X76500Y-55718D01*
X76486Y-55704D01*
X76431Y-55681D01*
X76399Y-55682D01*
X76362Y-55719D01*
X76362Y-55900D01*
X76380Y-55900D01*
X76380Y-56000D01*
X76362Y-56000D01*
X76362Y-56180D01*
X76399Y-56218D01*
X76431Y-56218D01*
X76486Y-56195D01*
X76499Y-56181D01*
X76513Y-56195D01*
X76568Y-56217D01*
X76628Y-56218D01*
X76663Y-56218D01*
X76650Y-56250D01*
X76649Y-56349D01*
X76687Y-56441D01*
X76758Y-56511D01*
X76850Y-56549D01*
X76949Y-56550D01*
X77041Y-56512D01*
X77111Y-56441D01*
X77149Y-56349D01*
X77150Y-56250D01*
X77136Y-56218D01*
X77281Y-56218D01*
X77336Y-56195D01*
X77350Y-56181D01*
X77363Y-56195D01*
X77418Y-56218D01*
X77450Y-56218D01*
X77487Y-56180D01*
X77487Y-57250D01*
X76840Y-57250D01*
X76763Y-57265D01*
X76741Y-57279D01*
X76698Y-57308D01*
X76283Y-57723D01*
X76283Y-56180D01*
X76283Y-56000D01*
X76265Y-56000D01*
X76265Y-55900D01*
X76283Y-55900D01*
X76283Y-55719D01*
X76246Y-55682D01*
X76214Y-55681D01*
X76159Y-55704D01*
X76117Y-55746D01*
X76099Y-55788D01*
X76082Y-55747D01*
X76040Y-55704D01*
X75985Y-55682D01*
X75925Y-55681D01*
X75768Y-55681D01*
X75713Y-55704D01*
X75700Y-55718D01*
X75686Y-55704D01*
X75631Y-55682D01*
X75571Y-55681D01*
X75414Y-55681D01*
X75359Y-55704D01*
X75317Y-55746D01*
X75299Y-55788D01*
X75282Y-55747D01*
X75240Y-55704D01*
X75185Y-55682D01*
X75125Y-55681D01*
X74968Y-55681D01*
X74913Y-55704D01*
X74900Y-55718D01*
X74886Y-55704D01*
X74831Y-55682D01*
X74771Y-55681D01*
X74614Y-55681D01*
X74559Y-55704D01*
X74517Y-55746D01*
X74494Y-55802D01*
X74494Y-55861D01*
X74494Y-56097D01*
X74517Y-56152D01*
X74523Y-56158D01*
X74523Y-56173D01*
X74538Y-56249D01*
X74581Y-56314D01*
X74599Y-56332D01*
X74599Y-56349D01*
X74637Y-56441D01*
X74708Y-56511D01*
X74800Y-56549D01*
X74899Y-56550D01*
X74991Y-56512D01*
X75050Y-56453D01*
X75108Y-56511D01*
X75200Y-56549D01*
X75299Y-56550D01*
X75391Y-56512D01*
X75399Y-56503D01*
X75408Y-56511D01*
X75500Y-56549D01*
X75599Y-56550D01*
X75691Y-56512D01*
X75699Y-56503D01*
X75708Y-56511D01*
X75800Y-56549D01*
X75899Y-56550D01*
X75991Y-56512D01*
X76061Y-56441D01*
X76099Y-56349D01*
X76100Y-56250D01*
X76077Y-56194D01*
X76077Y-56158D01*
X76082Y-56153D01*
X76100Y-56111D01*
X76117Y-56153D01*
X76159Y-56195D01*
X76214Y-56218D01*
X76246Y-56218D01*
X76283Y-56180D01*
X76283Y-57723D01*
X76047Y-57959D01*
X76030Y-57959D01*
X75938Y-57997D01*
X75868Y-58068D01*
X75830Y-58160D01*
X75829Y-58259D01*
X75831Y-58263D01*
X75831Y-58299D01*
X75645Y-58299D01*
X75590Y-58322D01*
X75547Y-58364D01*
X75538Y-58386D01*
X75449Y-58350D01*
X75350Y-58349D01*
X75261Y-58386D01*
X75252Y-58365D01*
X75210Y-58322D01*
X75154Y-58300D01*
X75095Y-58299D01*
X74895Y-58299D01*
X74840Y-58322D01*
X74797Y-58364D01*
X74775Y-58420D01*
X74774Y-58479D01*
X74774Y-58779D01*
X74797Y-58834D01*
X74839Y-58877D01*
X74895Y-58899D01*
X74954Y-58900D01*
X75154Y-58900D01*
X75209Y-58877D01*
X75252Y-58835D01*
X75261Y-58813D01*
X75350Y-58849D01*
X75449Y-58850D01*
X75538Y-58813D01*
X75547Y-58834D01*
X75589Y-58877D01*
X75645Y-58899D01*
X75704Y-58900D01*
X75904Y-58900D01*
X75959Y-58877D01*
X75988Y-58848D01*
X76090Y-58848D01*
X76167Y-58848D01*
X76214Y-58867D01*
X76274Y-58868D01*
X76431Y-58868D01*
X76486Y-58845D01*
X76500Y-58831D01*
X76513Y-58845D01*
X76568Y-58868D01*
X76600Y-58868D01*
X76637Y-58830D01*
X76637Y-58650D01*
X76619Y-58650D01*
X76619Y-58550D01*
X76637Y-58550D01*
X76637Y-58369D01*
X76600Y-58332D01*
X76568Y-58331D01*
X76513Y-58354D01*
X76500Y-58368D01*
X76486Y-58354D01*
X76431Y-58332D01*
X76371Y-58331D01*
X76328Y-58331D01*
X76328Y-58263D01*
X76329Y-58259D01*
X76329Y-58242D01*
X76922Y-57650D01*
X77517Y-57650D01*
X76858Y-58308D01*
X76830Y-58350D01*
X76785Y-58331D01*
X76753Y-58332D01*
X76716Y-58369D01*
X76716Y-58550D01*
X76734Y-58550D01*
X76734Y-58650D01*
X76716Y-58650D01*
X76716Y-58830D01*
X76753Y-58868D01*
X76785Y-58868D01*
X76800Y-58861D01*
X76800Y-59617D01*
X76517Y-59899D01*
X76500Y-59899D01*
X76408Y-59937D01*
X76391Y-59954D01*
X76375Y-59916D01*
X76284Y-59824D01*
X76164Y-59775D01*
X76126Y-59775D01*
X76025Y-59673D01*
X76025Y-59420D01*
X76002Y-59365D01*
X75960Y-59322D01*
X75904Y-59300D01*
X75845Y-59299D01*
X75645Y-59299D01*
X75590Y-59322D01*
X75587Y-59325D01*
X75584Y-59322D01*
X75529Y-59299D01*
X75487Y-59300D01*
X75450Y-59337D01*
X75450Y-59550D01*
X75457Y-59550D01*
X75457Y-59650D01*
X75450Y-59650D01*
X75450Y-59657D01*
X75350Y-59657D01*
X75350Y-59650D01*
X75342Y-59650D01*
X75342Y-59550D01*
X75350Y-59550D01*
X75350Y-59337D01*
X75312Y-59300D01*
X75270Y-59299D01*
X75215Y-59322D01*
X75212Y-59325D01*
X75210Y-59322D01*
X75154Y-59300D01*
X75095Y-59299D01*
X74895Y-59299D01*
X74840Y-59322D01*
X74797Y-59364D01*
X74783Y-59400D01*
X74683Y-59400D01*
X74682Y-59397D01*
X74640Y-59354D01*
X74585Y-59332D01*
X74525Y-59331D01*
X74368Y-59331D01*
X74313Y-59354D01*
X74300Y-59368D01*
X74286Y-59354D01*
X74231Y-59331D01*
X74199Y-59332D01*
X74162Y-59369D01*
X74162Y-59550D01*
X74180Y-59550D01*
X74180Y-59650D01*
X74162Y-59650D01*
X74162Y-59830D01*
X74199Y-59868D01*
X74231Y-59868D01*
X74286Y-59845D01*
X74299Y-59831D01*
X74313Y-59845D01*
X74368Y-59867D01*
X74428Y-59868D01*
X74534Y-59868D01*
X74500Y-59950D01*
X74500Y-59967D01*
X74308Y-60158D01*
X74265Y-60223D01*
X74250Y-60300D01*
X74250Y-60850D01*
X74250Y-61370D01*
X74199Y-61350D01*
X74100Y-61349D01*
X74083Y-61356D01*
X74083Y-59830D01*
X74083Y-59650D01*
X74083Y-59550D01*
X74083Y-59369D01*
X74046Y-59332D01*
X74014Y-59331D01*
X73959Y-59354D01*
X73917Y-59396D01*
X73894Y-59452D01*
X73894Y-59511D01*
X73894Y-59512D01*
X73932Y-59550D01*
X74083Y-59550D01*
X74083Y-59650D01*
X73932Y-59650D01*
X73894Y-59687D01*
X73894Y-59688D01*
X73894Y-59747D01*
X73917Y-59803D01*
X73959Y-59845D01*
X74014Y-59868D01*
X74046Y-59868D01*
X74083Y-59830D01*
X74083Y-61356D01*
X74008Y-61387D01*
X73996Y-61400D01*
X73782Y-61400D01*
X73350Y-60967D01*
X73350Y-60950D01*
X73312Y-60858D01*
X73241Y-60788D01*
X73149Y-60750D01*
X73050Y-60749D01*
X72958Y-60787D01*
X72888Y-60858D01*
X72850Y-60950D01*
X72849Y-61049D01*
X72887Y-61141D01*
X72958Y-61211D01*
X73050Y-61249D01*
X73067Y-61249D01*
X73558Y-61741D01*
X73558Y-61741D01*
X73601Y-61770D01*
X73623Y-61784D01*
X73623Y-61784D01*
X73700Y-61800D01*
X73996Y-61800D01*
X74008Y-61811D01*
X74100Y-61849D01*
X74199Y-61850D01*
X74250Y-61829D01*
X74250Y-62267D01*
X74217Y-62299D01*
X74200Y-62299D01*
X74108Y-62337D01*
X74096Y-62350D01*
X73253Y-62350D01*
X73241Y-62338D01*
X73149Y-62300D01*
X73050Y-62299D01*
X72958Y-62337D01*
X72888Y-62408D01*
X72850Y-62500D01*
X72849Y-62599D01*
X72887Y-62691D01*
X72958Y-62761D01*
X73050Y-62799D01*
X73149Y-62800D01*
X73241Y-62762D01*
X73253Y-62750D01*
X74096Y-62750D01*
X74108Y-62761D01*
X74200Y-62799D01*
X74299Y-62800D01*
X74391Y-62762D01*
X74461Y-62691D01*
X74499Y-62599D01*
X74499Y-62582D01*
X74591Y-62491D01*
X74591Y-62491D01*
X74620Y-62448D01*
X74634Y-62426D01*
X74634Y-62426D01*
X74649Y-62350D01*
X74650Y-62350D01*
X74650Y-61829D01*
X74700Y-61849D01*
X74799Y-61850D01*
X74891Y-61812D01*
X74903Y-61800D01*
X76900Y-61800D01*
X76900Y-61800D01*
X76899Y-61899D01*
X76937Y-61991D01*
X76950Y-62003D01*
X76950Y-62446D01*
X76938Y-62458D01*
X76900Y-62550D01*
X76899Y-62649D01*
X76937Y-62741D01*
X77008Y-62811D01*
X77100Y-62849D01*
X77199Y-62850D01*
X77291Y-62812D01*
X77361Y-62741D01*
X77399Y-62649D01*
X77400Y-62550D01*
X77362Y-62458D01*
X77350Y-62446D01*
X77350Y-62003D01*
X77361Y-61991D01*
X77399Y-61899D01*
X77400Y-61800D01*
X77399Y-61800D01*
X77950Y-61800D01*
X78026Y-61784D01*
X78091Y-61741D01*
X78732Y-61100D01*
X78761Y-61144D01*
X79258Y-61641D01*
X79258Y-61641D01*
X79301Y-61670D01*
X79323Y-61684D01*
X79323Y-61684D01*
X79400Y-61700D01*
X80347Y-61700D01*
X80380Y-61779D01*
X80519Y-61918D01*
X80701Y-61994D01*
X80897Y-61994D01*
X81079Y-61919D01*
X81218Y-61780D01*
X81294Y-61598D01*
X81294Y-61402D01*
X81219Y-61220D01*
X81080Y-61081D01*
X81005Y-61050D01*
X81067Y-61050D01*
X81338Y-61321D01*
X81305Y-61401D01*
X81305Y-61597D01*
X81380Y-61779D01*
X81519Y-61918D01*
X81701Y-61994D01*
X81897Y-61994D01*
X82079Y-61919D01*
X82218Y-61780D01*
X82294Y-61598D01*
X82294Y-61402D01*
X82219Y-61220D01*
X82080Y-61081D01*
X81898Y-61005D01*
X81702Y-61005D01*
X81621Y-61038D01*
X81291Y-60708D01*
X81226Y-60665D01*
X81150Y-60650D01*
X79332Y-60650D01*
X79300Y-60617D01*
X79300Y-60187D01*
X79299Y-60184D01*
X79299Y-60151D01*
X79332Y-60151D01*
X79336Y-60151D01*
X79518Y-60151D01*
X79599Y-60232D01*
X79599Y-60249D01*
X79637Y-60341D01*
X79708Y-60411D01*
X79800Y-60449D01*
X79899Y-60450D01*
X79991Y-60412D01*
X80061Y-60341D01*
X80099Y-60249D01*
X80100Y-60150D01*
X80062Y-60058D01*
X79991Y-59988D01*
X79978Y-59982D01*
X79978Y-59971D01*
X79978Y-59954D01*
X80862Y-59954D01*
X80933Y-60026D01*
X81129Y-60222D01*
X81129Y-60239D01*
X81167Y-60331D01*
X81238Y-60401D01*
X81330Y-60439D01*
X81429Y-60440D01*
X81521Y-60402D01*
X81591Y-60331D01*
X81629Y-60239D01*
X81630Y-60140D01*
X81592Y-60048D01*
X81521Y-59978D01*
X81429Y-59940D01*
X81412Y-59940D01*
X81216Y-59743D01*
X81162Y-59689D01*
X81178Y-59674D01*
X81267Y-59585D01*
X81284Y-59585D01*
X81376Y-59547D01*
X81446Y-59476D01*
X81484Y-59384D01*
X81484Y-59367D01*
X82799Y-60682D01*
X82799Y-60699D01*
X82837Y-60791D01*
X82908Y-60861D01*
X83000Y-60899D01*
X83099Y-60900D01*
X83191Y-60862D01*
X83261Y-60791D01*
X83299Y-60699D01*
X83300Y-60600D01*
X83300Y-62920D01*
X83299Y-62920D01*
X83299Y-61568D01*
X83287Y-61372D01*
X83235Y-61245D01*
X83163Y-61207D01*
X83092Y-61277D01*
X83092Y-61136D01*
X83054Y-61064D01*
X82868Y-61000D01*
X82672Y-61012D01*
X82545Y-61064D01*
X82507Y-61136D01*
X82800Y-61429D01*
X83092Y-61136D01*
X83092Y-61277D01*
X82870Y-61500D01*
X83163Y-61792D01*
X83235Y-61754D01*
X83299Y-61568D01*
X83299Y-62920D01*
X83092Y-62920D01*
X83092Y-61863D01*
X82800Y-61570D01*
X82729Y-61641D01*
X82729Y-61500D01*
X82436Y-61207D01*
X82364Y-61245D01*
X82300Y-61431D01*
X82312Y-61627D01*
X82364Y-61754D01*
X82436Y-61792D01*
X82729Y-61500D01*
X82729Y-61641D01*
X82507Y-61863D01*
X82545Y-61935D01*
X82731Y-61999D01*
X82927Y-61987D01*
X83054Y-61935D01*
X83092Y-61863D01*
X83092Y-62920D01*
X71546Y-62920D01*
X71546Y-61108D01*
X71546Y-56699D01*
X71536Y-56443D01*
X71457Y-56252D01*
X71370Y-56195D01*
X71299Y-56266D01*
X71299Y-56124D01*
X71243Y-56037D01*
X71003Y-55948D01*
X70748Y-55958D01*
X70556Y-56037D01*
X70500Y-56124D01*
X70900Y-56524D01*
X71299Y-56124D01*
X71299Y-56266D01*
X70970Y-56595D01*
X71370Y-56994D01*
X71457Y-56938D01*
X71546Y-56699D01*
X71546Y-61108D01*
X71536Y-60853D01*
X71457Y-60661D01*
X71389Y-60617D01*
X71389Y-59751D01*
X71389Y-57980D01*
X71377Y-57787D01*
X71327Y-57665D01*
X71299Y-57651D01*
X71299Y-57065D01*
X70900Y-56665D01*
X70829Y-56736D01*
X70829Y-56595D01*
X70429Y-56195D01*
X70342Y-56252D01*
X70253Y-56491D01*
X70263Y-56746D01*
X70342Y-56938D01*
X70429Y-56994D01*
X70829Y-56595D01*
X70829Y-56736D01*
X70500Y-57065D01*
X70556Y-57152D01*
X70796Y-57241D01*
X71051Y-57232D01*
X71243Y-57152D01*
X71299Y-57065D01*
X71299Y-57651D01*
X71256Y-57628D01*
X71185Y-57699D01*
X71185Y-57557D01*
X71148Y-57487D01*
X70966Y-57424D01*
X70773Y-57436D01*
X70651Y-57487D01*
X70614Y-57557D01*
X70900Y-57843D01*
X71185Y-57557D01*
X71185Y-57699D01*
X70970Y-57914D01*
X71256Y-58199D01*
X71327Y-58162D01*
X71389Y-57980D01*
X71389Y-59751D01*
X71377Y-59559D01*
X71327Y-59437D01*
X71256Y-59400D01*
X71185Y-59470D01*
X71185Y-59329D01*
X71185Y-58270D01*
X70900Y-57984D01*
X70829Y-58055D01*
X70829Y-57914D01*
X70543Y-57628D01*
X70472Y-57665D01*
X70410Y-57848D01*
X70422Y-58040D01*
X70472Y-58162D01*
X70543Y-58199D01*
X70829Y-57914D01*
X70829Y-58055D01*
X70614Y-58270D01*
X70651Y-58341D01*
X70833Y-58403D01*
X71026Y-58391D01*
X71148Y-58341D01*
X71185Y-58270D01*
X71185Y-59329D01*
X71148Y-59258D01*
X70966Y-59196D01*
X70773Y-59208D01*
X70651Y-59258D01*
X70614Y-59329D01*
X70900Y-59615D01*
X71185Y-59329D01*
X71185Y-59470D01*
X70970Y-59685D01*
X71256Y-59971D01*
X71327Y-59934D01*
X71389Y-59751D01*
X71389Y-60617D01*
X71370Y-60605D01*
X71299Y-60675D01*
X71299Y-60534D01*
X71243Y-60447D01*
X71185Y-60425D01*
X71185Y-60042D01*
X70900Y-59756D01*
X70829Y-59827D01*
X70829Y-59685D01*
X70543Y-59400D01*
X70472Y-59437D01*
X70410Y-59619D01*
X70422Y-59812D01*
X70472Y-59934D01*
X70543Y-59971D01*
X70829Y-59685D01*
X70829Y-59827D01*
X70614Y-60042D01*
X70651Y-60112D01*
X70833Y-60175D01*
X71026Y-60163D01*
X71148Y-60112D01*
X71185Y-60042D01*
X71185Y-60425D01*
X71003Y-60358D01*
X70748Y-60367D01*
X70556Y-60447D01*
X70500Y-60534D01*
X70900Y-60934D01*
X71299Y-60534D01*
X71299Y-60675D01*
X70970Y-61004D01*
X71370Y-61404D01*
X71457Y-61347D01*
X71546Y-61108D01*
X71546Y-62920D01*
X71299Y-62920D01*
X71299Y-61475D01*
X70900Y-61075D01*
X70829Y-61146D01*
X70829Y-61004D01*
X70429Y-60605D01*
X70342Y-60661D01*
X70253Y-60900D01*
X70263Y-61156D01*
X70342Y-61347D01*
X70429Y-61404D01*
X70829Y-61004D01*
X70829Y-61146D01*
X70500Y-61475D01*
X70556Y-61562D01*
X70796Y-61651D01*
X71051Y-61641D01*
X71243Y-61562D01*
X71299Y-61475D01*
X71299Y-62920D01*
X70438Y-62920D01*
X70256Y-62891D01*
X70117Y-62807D01*
X70021Y-62675D01*
X69979Y-62501D01*
X69979Y-62500D01*
X69979Y-55138D01*
X70008Y-54956D01*
X70092Y-54817D01*
X70224Y-54721D01*
X70398Y-54679D01*
X70400Y-54679D01*
X86982Y-54679D01*
X87160Y-54715D01*
X87294Y-54804D01*
X87385Y-54940D01*
X87420Y-55116D01*
X87420Y-62483D01*
X87420Y-62483D01*
G37*
G54D26*
X87420Y-62483D02*
X87385Y-62659D01*
X87311Y-62770D01*
X87311Y-61513D01*
X87311Y-56340D01*
X87303Y-56046D01*
X87205Y-55810D01*
X87108Y-55742D01*
X87037Y-55813D01*
X87037Y-55671D01*
X86969Y-55574D01*
X86694Y-55469D01*
X86399Y-55477D01*
X86164Y-55574D01*
X86096Y-55671D01*
X86566Y-56142D01*
X87037Y-55671D01*
X87037Y-55813D01*
X86637Y-56213D01*
X87108Y-56684D01*
X87205Y-56615D01*
X87311Y-56340D01*
X87311Y-61513D01*
X87303Y-61219D01*
X87205Y-60984D01*
X87108Y-60915D01*
X87037Y-60986D01*
X87037Y-60845D01*
X87037Y-56754D01*
X86566Y-56284D01*
X86496Y-56354D01*
X86496Y-56213D01*
X86025Y-55742D01*
X85928Y-55810D01*
X85822Y-56086D01*
X85830Y-56380D01*
X85928Y-56615D01*
X86025Y-56684D01*
X86496Y-56213D01*
X86496Y-56354D01*
X86096Y-56754D01*
X86164Y-56852D01*
X86439Y-56957D01*
X86734Y-56949D01*
X86969Y-56852D01*
X87037Y-56754D01*
X87037Y-60845D01*
X86969Y-60747D01*
X86694Y-60642D01*
X86399Y-60650D01*
X86164Y-60747D01*
X86096Y-60845D01*
X86566Y-61315D01*
X87037Y-60845D01*
X87037Y-60986D01*
X86637Y-61386D01*
X87108Y-61857D01*
X87205Y-61789D01*
X87311Y-61513D01*
X87311Y-62770D01*
X87294Y-62795D01*
X87160Y-62884D01*
X87037Y-62909D01*
X87037Y-61928D01*
X86566Y-61457D01*
X86496Y-61528D01*
X86496Y-61386D01*
X86025Y-60915D01*
X85928Y-60984D01*
X85920Y-61002D01*
X85920Y-57471D01*
X85907Y-57306D01*
X85869Y-57215D01*
X85806Y-57186D01*
X85735Y-57257D01*
X85735Y-57115D01*
X85706Y-57052D01*
X85549Y-57001D01*
X85384Y-57014D01*
X85293Y-57052D01*
X85264Y-57115D01*
X85500Y-57351D01*
X85735Y-57115D01*
X85735Y-57257D01*
X85570Y-57422D01*
X85806Y-57657D01*
X85869Y-57629D01*
X85920Y-57471D01*
X85920Y-61002D01*
X85915Y-61016D01*
X85915Y-60095D01*
X85915Y-59111D01*
X85852Y-58958D01*
X85735Y-58841D01*
X85635Y-58799D01*
X85735Y-58758D01*
X85852Y-58642D01*
X85915Y-58489D01*
X85915Y-58323D01*
X85852Y-58171D01*
X85735Y-58054D01*
X85735Y-58053D01*
X85735Y-57728D01*
X85500Y-57492D01*
X85429Y-57563D01*
X85429Y-57422D01*
X85193Y-57186D01*
X85130Y-57215D01*
X85079Y-57372D01*
X85092Y-57537D01*
X85130Y-57629D01*
X85193Y-57657D01*
X85429Y-57422D01*
X85429Y-57563D01*
X85264Y-57728D01*
X85293Y-57791D01*
X85450Y-57843D01*
X85615Y-57829D01*
X85706Y-57791D01*
X85735Y-57728D01*
X85735Y-58053D01*
X85583Y-57990D01*
X85417Y-57990D01*
X85264Y-58053D01*
X85147Y-58170D01*
X85084Y-58323D01*
X85084Y-58488D01*
X85147Y-58641D01*
X85264Y-58758D01*
X85364Y-58800D01*
X85264Y-58841D01*
X85147Y-58957D01*
X85084Y-59110D01*
X85084Y-59276D01*
X85147Y-59428D01*
X85264Y-59545D01*
X85416Y-59609D01*
X85582Y-59609D01*
X85735Y-59546D01*
X85852Y-59429D01*
X85915Y-59276D01*
X85915Y-59111D01*
X85915Y-60095D01*
X85852Y-59942D01*
X85735Y-59825D01*
X85583Y-59762D01*
X85417Y-59762D01*
X85264Y-59825D01*
X85147Y-59942D01*
X85084Y-60094D01*
X85084Y-60260D01*
X85147Y-60413D01*
X85264Y-60530D01*
X85416Y-60593D01*
X85582Y-60593D01*
X85735Y-60530D01*
X85852Y-60413D01*
X85915Y-60261D01*
X85915Y-60095D01*
X85915Y-61016D01*
X85822Y-61259D01*
X85830Y-61553D01*
X85928Y-61789D01*
X86025Y-61857D01*
X86496Y-61386D01*
X86496Y-61528D01*
X86096Y-61928D01*
X86164Y-62025D01*
X86439Y-62130D01*
X86734Y-62122D01*
X86969Y-62025D01*
X87037Y-61928D01*
X87037Y-62909D01*
X86982Y-62920D01*
X83565Y-62920D01*
X83565Y-55935D01*
X83565Y-55544D01*
X83564Y-55485D01*
X83542Y-55429D01*
X83499Y-55387D01*
X83444Y-55364D01*
X83377Y-55365D01*
X83340Y-55402D01*
X83340Y-55690D01*
X83527Y-55690D01*
X83565Y-55652D01*
X83565Y-55544D01*
X83565Y-55935D01*
X83565Y-55827D01*
X83527Y-55790D01*
X83340Y-55790D01*
X83340Y-56077D01*
X83377Y-56115D01*
X83444Y-56115D01*
X83499Y-56092D01*
X83542Y-56050D01*
X83564Y-55994D01*
X83565Y-55935D01*
X83565Y-62920D01*
X83300Y-62920D01*
X83300Y-60600D01*
X83262Y-60508D01*
X83240Y-60486D01*
X83240Y-56077D01*
X83240Y-55790D01*
X83240Y-55690D01*
X83240Y-55402D01*
X83202Y-55365D01*
X83135Y-55364D01*
X83080Y-55387D01*
X83037Y-55429D01*
X83015Y-55485D01*
X83014Y-55544D01*
X83015Y-55652D01*
X83052Y-55690D01*
X83240Y-55690D01*
X83240Y-55790D01*
X83052Y-55790D01*
X83015Y-55827D01*
X83014Y-55935D01*
X83015Y-55994D01*
X83037Y-56050D01*
X83080Y-56092D01*
X83135Y-56115D01*
X83202Y-56115D01*
X83240Y-56077D01*
X83240Y-60486D01*
X83191Y-60438D01*
X83099Y-60400D01*
X83082Y-60400D01*
X82965Y-60282D01*
X82965Y-55935D01*
X82965Y-55485D01*
X82942Y-55430D01*
X82900Y-55387D01*
X82844Y-55365D01*
X82785Y-55364D01*
X82535Y-55364D01*
X82480Y-55387D01*
X82437Y-55429D01*
X82415Y-55485D01*
X82414Y-55544D01*
X82414Y-55752D01*
X82317Y-55849D01*
X82300Y-55849D01*
X82275Y-55860D01*
X82275Y-55845D01*
X82275Y-55595D01*
X82275Y-55304D01*
X82275Y-54995D01*
X82252Y-54940D01*
X82210Y-54897D01*
X82154Y-54875D01*
X82095Y-54874D01*
X81987Y-54875D01*
X81950Y-54912D01*
X81950Y-55100D01*
X82237Y-55100D01*
X82275Y-55062D01*
X82275Y-54995D01*
X82275Y-55304D01*
X82275Y-55237D01*
X82237Y-55200D01*
X81950Y-55200D01*
X81950Y-55387D01*
X81987Y-55425D01*
X82095Y-55425D01*
X82154Y-55424D01*
X82210Y-55402D01*
X82252Y-55359D01*
X82275Y-55304D01*
X82275Y-55595D01*
X82252Y-55540D01*
X82210Y-55497D01*
X82154Y-55475D01*
X82095Y-55474D01*
X81850Y-55474D01*
X81850Y-55387D01*
X81850Y-55200D01*
X81850Y-55100D01*
X81850Y-54912D01*
X81812Y-54875D01*
X81704Y-54874D01*
X81645Y-54875D01*
X81589Y-54897D01*
X81547Y-54940D01*
X81524Y-54995D01*
X81525Y-55062D01*
X81562Y-55100D01*
X81850Y-55100D01*
X81850Y-55200D01*
X81562Y-55200D01*
X81525Y-55237D01*
X81524Y-55304D01*
X81547Y-55359D01*
X81589Y-55402D01*
X81645Y-55424D01*
X81704Y-55425D01*
X81812Y-55425D01*
X81850Y-55387D01*
X81850Y-55474D01*
X81645Y-55474D01*
X81590Y-55497D01*
X81547Y-55539D01*
X81525Y-55595D01*
X81524Y-55654D01*
X81524Y-55904D01*
X81547Y-55959D01*
X81589Y-56002D01*
X81645Y-56024D01*
X81681Y-56025D01*
X81660Y-56075D01*
X81599Y-56050D01*
X81582Y-56050D01*
X81355Y-55822D01*
X81355Y-55752D01*
X81332Y-55697D01*
X81290Y-55654D01*
X81235Y-55632D01*
X81175Y-55631D01*
X81018Y-55631D01*
X80963Y-55654D01*
X80950Y-55668D01*
X80936Y-55654D01*
X80881Y-55631D01*
X80849Y-55632D01*
X80812Y-55669D01*
X80812Y-55850D01*
X80830Y-55850D01*
X80830Y-55950D01*
X80812Y-55950D01*
X80812Y-56130D01*
X80849Y-56168D01*
X80881Y-56168D01*
X80936Y-56145D01*
X80949Y-56131D01*
X80963Y-56145D01*
X81018Y-56167D01*
X81078Y-56168D01*
X81135Y-56168D01*
X81299Y-56332D01*
X81299Y-56349D01*
X81337Y-56441D01*
X81408Y-56511D01*
X81500Y-56549D01*
X81599Y-56550D01*
X81691Y-56512D01*
X81761Y-56441D01*
X81789Y-56374D01*
X81850Y-56399D01*
X81949Y-56400D01*
X82041Y-56362D01*
X82111Y-56291D01*
X82135Y-56235D01*
X82137Y-56241D01*
X82208Y-56311D01*
X82300Y-56349D01*
X82399Y-56350D01*
X82491Y-56312D01*
X82561Y-56241D01*
X82599Y-56149D01*
X82599Y-56132D01*
X82617Y-56115D01*
X82844Y-56115D01*
X82899Y-56092D01*
X82942Y-56050D01*
X82964Y-55994D01*
X82965Y-55935D01*
X82965Y-60282D01*
X81491Y-58808D01*
X81426Y-58765D01*
X81350Y-58750D01*
X80850Y-58750D01*
X80733Y-58750D01*
X80733Y-56130D01*
X80733Y-55950D01*
X80733Y-55850D01*
X80733Y-55669D01*
X80696Y-55632D01*
X80664Y-55631D01*
X80609Y-55654D01*
X80567Y-55696D01*
X80544Y-55752D01*
X80544Y-55811D01*
X80544Y-55812D01*
X80582Y-55850D01*
X80733Y-55850D01*
X80733Y-55950D01*
X80582Y-55950D01*
X80544Y-55987D01*
X80544Y-55988D01*
X80544Y-56047D01*
X80567Y-56103D01*
X80609Y-56145D01*
X80664Y-56168D01*
X80696Y-56168D01*
X80733Y-56130D01*
X80733Y-58750D01*
X80550Y-58750D01*
X80120Y-58750D01*
X80120Y-58437D01*
X80150Y-58449D01*
X80249Y-58450D01*
X80341Y-58412D01*
X80411Y-58341D01*
X80449Y-58249D01*
X80450Y-58150D01*
X80412Y-58058D01*
X80400Y-58046D01*
X80400Y-57800D01*
X80399Y-57799D01*
X80384Y-57723D01*
X80384Y-57723D01*
X80370Y-57701D01*
X80341Y-57658D01*
X80341Y-57658D01*
X78791Y-56108D01*
X78726Y-56065D01*
X78650Y-56050D01*
X78453Y-56050D01*
X78441Y-56038D01*
X78349Y-56000D01*
X78250Y-55999D01*
X78158Y-56037D01*
X78088Y-56108D01*
X78050Y-56200D01*
X78049Y-56299D01*
X78087Y-56391D01*
X78158Y-56461D01*
X78250Y-56499D01*
X78349Y-56500D01*
X78441Y-56462D01*
X78453Y-56450D01*
X78567Y-56450D01*
X79414Y-57297D01*
X79366Y-57265D01*
X79290Y-57250D01*
X77755Y-57250D01*
X77755Y-56038D01*
X77755Y-55861D01*
X77755Y-55802D01*
X77732Y-55746D01*
X77690Y-55704D01*
X77635Y-55681D01*
X77603Y-55682D01*
X77566Y-55719D01*
X77566Y-55900D01*
X77718Y-55900D01*
X77755Y-55862D01*
X77755Y-55861D01*
X77755Y-56038D01*
X77755Y-56037D01*
X77718Y-56000D01*
X77566Y-56000D01*
X77566Y-56180D01*
X77603Y-56218D01*
X77635Y-56218D01*
X77690Y-56195D01*
X77732Y-56153D01*
X77755Y-56097D01*
X77755Y-56038D01*
X77755Y-57250D01*
X77487Y-57250D01*
X77487Y-56180D01*
X77487Y-56000D01*
X77469Y-56000D01*
X77469Y-55900D01*
X77487Y-55900D01*
X77487Y-55719D01*
X77450Y-55682D01*
X77418Y-55681D01*
X77363Y-55704D01*
X77350Y-55718D01*
X77336Y-55704D01*
X77281Y-55682D01*
X77221Y-55681D01*
X77064Y-55681D01*
X77009Y-55704D01*
X76967Y-55746D01*
X76966Y-55750D01*
X76900Y-55750D01*
X76883Y-55750D01*
X76882Y-55747D01*
X76840Y-55704D01*
X76785Y-55682D01*
X76725Y-55681D01*
X76568Y-55681D01*
X76513Y-55704D01*
X76500Y-55718D01*
X76486Y-55704D01*
X76431Y-55681D01*
X76399Y-55682D01*
X76362Y-55719D01*
X76362Y-55900D01*
X76380Y-55900D01*
X76380Y-56000D01*
X76362Y-56000D01*
X76362Y-56180D01*
X76399Y-56218D01*
X76431Y-56218D01*
X76486Y-56195D01*
X76499Y-56181D01*
X76513Y-56195D01*
X76568Y-56217D01*
X76628Y-56218D01*
X76663Y-56218D01*
X76650Y-56250D01*
X76649Y-56349D01*
X76687Y-56441D01*
X76758Y-56511D01*
X76850Y-56549D01*
X76949Y-56550D01*
X77041Y-56512D01*
X77111Y-56441D01*
X77149Y-56349D01*
X77150Y-56250D01*
X77136Y-56218D01*
X77281Y-56218D01*
X77336Y-56195D01*
X77350Y-56181D01*
X77363Y-56195D01*
X77418Y-56218D01*
X77450Y-56218D01*
X77487Y-56180D01*
X77487Y-57250D01*
X76840Y-57250D01*
X76763Y-57265D01*
X76741Y-57279D01*
X76698Y-57308D01*
X76283Y-57723D01*
X76283Y-56180D01*
X76283Y-56000D01*
X76265Y-56000D01*
X76265Y-55900D01*
X76283Y-55900D01*
X76283Y-55719D01*
X76246Y-55682D01*
X76214Y-55681D01*
X76159Y-55704D01*
X76117Y-55746D01*
X76099Y-55788D01*
X76082Y-55747D01*
X76040Y-55704D01*
X75985Y-55682D01*
X75925Y-55681D01*
X75768Y-55681D01*
X75713Y-55704D01*
X75700Y-55718D01*
X75686Y-55704D01*
X75631Y-55682D01*
X75571Y-55681D01*
X75414Y-55681D01*
X75359Y-55704D01*
X75317Y-55746D01*
X75299Y-55788D01*
X75282Y-55747D01*
X75240Y-55704D01*
X75185Y-55682D01*
X75125Y-55681D01*
X74968Y-55681D01*
X74913Y-55704D01*
X74900Y-55718D01*
X74886Y-55704D01*
X74831Y-55682D01*
X74771Y-55681D01*
X74614Y-55681D01*
X74559Y-55704D01*
X74517Y-55746D01*
X74494Y-55802D01*
X74494Y-55861D01*
X74494Y-56097D01*
X74517Y-56152D01*
X74523Y-56158D01*
X74523Y-56173D01*
X74538Y-56249D01*
X74581Y-56314D01*
X74599Y-56332D01*
X74599Y-56349D01*
X74637Y-56441D01*
X74708Y-56511D01*
X74800Y-56549D01*
X74899Y-56550D01*
X74991Y-56512D01*
X75050Y-56453D01*
X75108Y-56511D01*
X75200Y-56549D01*
X75299Y-56550D01*
X75391Y-56512D01*
X75399Y-56503D01*
X75408Y-56511D01*
X75500Y-56549D01*
X75599Y-56550D01*
X75691Y-56512D01*
X75699Y-56503D01*
X75708Y-56511D01*
X75800Y-56549D01*
X75899Y-56550D01*
X75991Y-56512D01*
X76061Y-56441D01*
X76099Y-56349D01*
X76100Y-56250D01*
X76077Y-56194D01*
X76077Y-56158D01*
X76082Y-56153D01*
X76100Y-56111D01*
X76117Y-56153D01*
X76159Y-56195D01*
X76214Y-56218D01*
X76246Y-56218D01*
X76283Y-56180D01*
X76283Y-57723D01*
X76047Y-57959D01*
X76030Y-57959D01*
X75938Y-57997D01*
X75868Y-58068D01*
X75830Y-58160D01*
X75829Y-58259D01*
X75831Y-58263D01*
X75831Y-58299D01*
X75645Y-58299D01*
X75590Y-58322D01*
X75547Y-58364D01*
X75538Y-58386D01*
X75449Y-58350D01*
X75350Y-58349D01*
X75261Y-58386D01*
X75252Y-58365D01*
X75210Y-58322D01*
X75154Y-58300D01*
X75095Y-58299D01*
X74895Y-58299D01*
X74840Y-58322D01*
X74797Y-58364D01*
X74775Y-58420D01*
X74774Y-58479D01*
X74774Y-58779D01*
X74797Y-58834D01*
X74839Y-58877D01*
X74895Y-58899D01*
X74954Y-58900D01*
X75154Y-58900D01*
X75209Y-58877D01*
X75252Y-58835D01*
X75261Y-58813D01*
X75350Y-58849D01*
X75449Y-58850D01*
X75538Y-58813D01*
X75547Y-58834D01*
X75589Y-58877D01*
X75645Y-58899D01*
X75704Y-58900D01*
X75904Y-58900D01*
X75959Y-58877D01*
X75988Y-58848D01*
X76090Y-58848D01*
X76167Y-58848D01*
X76214Y-58867D01*
X76274Y-58868D01*
X76431Y-58868D01*
X76486Y-58845D01*
X76500Y-58831D01*
X76513Y-58845D01*
X76568Y-58868D01*
X76600Y-58868D01*
X76637Y-58830D01*
X76637Y-58650D01*
X76619Y-58650D01*
X76619Y-58550D01*
X76637Y-58550D01*
X76637Y-58369D01*
X76600Y-58332D01*
X76568Y-58331D01*
X76513Y-58354D01*
X76500Y-58368D01*
X76486Y-58354D01*
X76431Y-58332D01*
X76371Y-58331D01*
X76328Y-58331D01*
X76328Y-58263D01*
X76329Y-58259D01*
X76329Y-58242D01*
X76922Y-57650D01*
X77517Y-57650D01*
X76858Y-58308D01*
X76830Y-58350D01*
X76785Y-58331D01*
X76753Y-58332D01*
X76716Y-58369D01*
X76716Y-58550D01*
X76734Y-58550D01*
X76734Y-58650D01*
X76716Y-58650D01*
X76716Y-58830D01*
X76753Y-58868D01*
X76785Y-58868D01*
X76800Y-58861D01*
X76800Y-59617D01*
X76517Y-59899D01*
X76500Y-59899D01*
X76408Y-59937D01*
X76391Y-59954D01*
X76375Y-59916D01*
X76284Y-59824D01*
X76164Y-59775D01*
X76126Y-59775D01*
X76025Y-59673D01*
X76025Y-59420D01*
X76002Y-59365D01*
X75960Y-59322D01*
X75904Y-59300D01*
X75845Y-59299D01*
X75645Y-59299D01*
X75590Y-59322D01*
X75587Y-59325D01*
X75584Y-59322D01*
X75529Y-59299D01*
X75487Y-59300D01*
X75450Y-59337D01*
X75450Y-59550D01*
X75457Y-59550D01*
X75457Y-59650D01*
X75450Y-59650D01*
X75450Y-59657D01*
X75350Y-59657D01*
X75350Y-59650D01*
X75342Y-59650D01*
X75342Y-59550D01*
X75350Y-59550D01*
X75350Y-59337D01*
X75312Y-59300D01*
X75270Y-59299D01*
X75215Y-59322D01*
X75212Y-59325D01*
X75210Y-59322D01*
X75154Y-59300D01*
X75095Y-59299D01*
X74895Y-59299D01*
X74840Y-59322D01*
X74797Y-59364D01*
X74783Y-59400D01*
X74683Y-59400D01*
X74682Y-59397D01*
X74640Y-59354D01*
X74585Y-59332D01*
X74525Y-59331D01*
X74368Y-59331D01*
X74313Y-59354D01*
X74300Y-59368D01*
X74286Y-59354D01*
X74231Y-59331D01*
X74199Y-59332D01*
X74162Y-59369D01*
X74162Y-59550D01*
X74180Y-59550D01*
X74180Y-59650D01*
X74162Y-59650D01*
X74162Y-59830D01*
X74199Y-59868D01*
X74231Y-59868D01*
X74286Y-59845D01*
X74299Y-59831D01*
X74313Y-59845D01*
X74368Y-59867D01*
X74428Y-59868D01*
X74534Y-59868D01*
X74500Y-59950D01*
X74500Y-59967D01*
X74308Y-60158D01*
X74265Y-60223D01*
X74250Y-60300D01*
X74250Y-60850D01*
X74250Y-61370D01*
X74199Y-61350D01*
X74100Y-61349D01*
X74083Y-61356D01*
X74083Y-59830D01*
X74083Y-59650D01*
X74083Y-59550D01*
X74083Y-59369D01*
X74046Y-59332D01*
X74014Y-59331D01*
X73959Y-59354D01*
X73917Y-59396D01*
X73894Y-59452D01*
X73894Y-59511D01*
X73894Y-59512D01*
X73932Y-59550D01*
X74083Y-59550D01*
X74083Y-59650D01*
X73932Y-59650D01*
X73894Y-59687D01*
X73894Y-59688D01*
X73894Y-59747D01*
X73917Y-59803D01*
X73959Y-59845D01*
X74014Y-59868D01*
X74046Y-59868D01*
X74083Y-59830D01*
X74083Y-61356D01*
X74008Y-61387D01*
X73996Y-61400D01*
X73782Y-61400D01*
X73350Y-60967D01*
X73350Y-60950D01*
X73312Y-60858D01*
X73241Y-60788D01*
X73149Y-60750D01*
X73050Y-60749D01*
X72958Y-60787D01*
X72888Y-60858D01*
X72850Y-60950D01*
X72849Y-61049D01*
X72887Y-61141D01*
X72958Y-61211D01*
X73050Y-61249D01*
X73067Y-61249D01*
X73558Y-61741D01*
X73558Y-61741D01*
X73601Y-61770D01*
X73623Y-61784D01*
X73623Y-61784D01*
X73700Y-61800D01*
X73996Y-61800D01*
X74008Y-61811D01*
X74100Y-61849D01*
X74199Y-61850D01*
X74250Y-61829D01*
X74250Y-62267D01*
X74217Y-62299D01*
X74200Y-62299D01*
X74108Y-62337D01*
X74096Y-62350D01*
X73253Y-62350D01*
X73241Y-62338D01*
X73149Y-62300D01*
X73050Y-62299D01*
X72958Y-62337D01*
X72888Y-62408D01*
X72850Y-62500D01*
X72849Y-62599D01*
X72887Y-62691D01*
X72958Y-62761D01*
X73050Y-62799D01*
X73149Y-62800D01*
X73241Y-62762D01*
X73253Y-62750D01*
X74096Y-62750D01*
X74108Y-62761D01*
X74200Y-62799D01*
X74299Y-62800D01*
X74391Y-62762D01*
X74461Y-62691D01*
X74499Y-62599D01*
X74499Y-62582D01*
X74591Y-62491D01*
X74591Y-62491D01*
X74620Y-62448D01*
X74634Y-62426D01*
X74634Y-62426D01*
X74649Y-62350D01*
X74650Y-62350D01*
X74650Y-61829D01*
X74700Y-61849D01*
X74799Y-61850D01*
X74891Y-61812D01*
X74903Y-61800D01*
X76900Y-61800D01*
X76900Y-61800D01*
X76899Y-61899D01*
X76937Y-61991D01*
X76950Y-62003D01*
X76950Y-62446D01*
X76938Y-62458D01*
X76900Y-62550D01*
X76899Y-62649D01*
X76937Y-62741D01*
X77008Y-62811D01*
X77100Y-62849D01*
X77199Y-62850D01*
X77291Y-62812D01*
X77361Y-62741D01*
X77399Y-62649D01*
X77400Y-62550D01*
X77362Y-62458D01*
X77350Y-62446D01*
X77350Y-62003D01*
X77361Y-61991D01*
X77399Y-61899D01*
X77400Y-61800D01*
X77399Y-61800D01*
X77950Y-61800D01*
X78026Y-61784D01*
X78091Y-61741D01*
X78732Y-61100D01*
X78761Y-61144D01*
X79258Y-61641D01*
X79258Y-61641D01*
X79301Y-61670D01*
X79323Y-61684D01*
X79323Y-61684D01*
X79400Y-61700D01*
X80347Y-61700D01*
X80380Y-61779D01*
X80519Y-61918D01*
X80701Y-61994D01*
X80897Y-61994D01*
X81079Y-61919D01*
X81218Y-61780D01*
X81294Y-61598D01*
X81294Y-61402D01*
X81219Y-61220D01*
X81080Y-61081D01*
X81005Y-61050D01*
X81067Y-61050D01*
X81338Y-61321D01*
X81305Y-61401D01*
X81305Y-61597D01*
X81380Y-61779D01*
X81519Y-61918D01*
X81701Y-61994D01*
X81897Y-61994D01*
X82079Y-61919D01*
X82218Y-61780D01*
X82294Y-61598D01*
X82294Y-61402D01*
X82219Y-61220D01*
X82080Y-61081D01*
X81898Y-61005D01*
X81702Y-61005D01*
X81621Y-61038D01*
X81291Y-60708D01*
X81226Y-60665D01*
X81150Y-60650D01*
X79332Y-60650D01*
X79300Y-60617D01*
X79300Y-60187D01*
X79299Y-60184D01*
X79299Y-60151D01*
X79332Y-60151D01*
X79336Y-60151D01*
X79518Y-60151D01*
X79599Y-60232D01*
X79599Y-60249D01*
X79637Y-60341D01*
X79708Y-60411D01*
X79800Y-60449D01*
X79899Y-60450D01*
X79991Y-60412D01*
X80061Y-60341D01*
X80099Y-60249D01*
X80100Y-60150D01*
X80062Y-60058D01*
X79991Y-59988D01*
X79978Y-59982D01*
X79978Y-59971D01*
X79978Y-59954D01*
X80862Y-59954D01*
X80933Y-60026D01*
X81129Y-60222D01*
X81129Y-60239D01*
X81167Y-60331D01*
X81238Y-60401D01*
X81330Y-60439D01*
X81429Y-60440D01*
X81521Y-60402D01*
X81591Y-60331D01*
X81629Y-60239D01*
X81630Y-60140D01*
X81592Y-60048D01*
X81521Y-59978D01*
X81429Y-59940D01*
X81412Y-59940D01*
X81216Y-59743D01*
X81162Y-59689D01*
X81178Y-59674D01*
X81267Y-59585D01*
X81284Y-59585D01*
X81376Y-59547D01*
X81446Y-59476D01*
X81484Y-59384D01*
X81484Y-59367D01*
X82799Y-60682D01*
X82799Y-60699D01*
X82837Y-60791D01*
X82908Y-60861D01*
X83000Y-60899D01*
X83099Y-60900D01*
X83191Y-60862D01*
X83261Y-60791D01*
X83299Y-60699D01*
X83300Y-60600D01*
X83300Y-62920D01*
X83299Y-62920D01*
X83299Y-61568D01*
X83287Y-61372D01*
X83235Y-61245D01*
X83163Y-61207D01*
X83092Y-61277D01*
X83092Y-61136D01*
X83054Y-61064D01*
X82868Y-61000D01*
X82672Y-61012D01*
X82545Y-61064D01*
X82507Y-61136D01*
X82800Y-61429D01*
X83092Y-61136D01*
X83092Y-61277D01*
X82870Y-61500D01*
X83163Y-61792D01*
X83235Y-61754D01*
X83299Y-61568D01*
X83299Y-62920D01*
X83092Y-62920D01*
X83092Y-61863D01*
X82800Y-61570D01*
X82729Y-61641D01*
X82729Y-61500D01*
X82436Y-61207D01*
X82364Y-61245D01*
X82300Y-61431D01*
X82312Y-61627D01*
X82364Y-61754D01*
X82436Y-61792D01*
X82729Y-61500D01*
X82729Y-61641D01*
X82507Y-61863D01*
X82545Y-61935D01*
X82731Y-61999D01*
X82927Y-61987D01*
X83054Y-61935D01*
X83092Y-61863D01*
X83092Y-62920D01*
X71546Y-62920D01*
X71546Y-61108D01*
X71546Y-56699D01*
X71536Y-56443D01*
X71457Y-56252D01*
X71370Y-56195D01*
X71299Y-56266D01*
X71299Y-56124D01*
X71243Y-56037D01*
X71003Y-55948D01*
X70748Y-55958D01*
X70556Y-56037D01*
X70500Y-56124D01*
X70900Y-56524D01*
X71299Y-56124D01*
X71299Y-56266D01*
X70970Y-56595D01*
X71370Y-56994D01*
X71457Y-56938D01*
X71546Y-56699D01*
X71546Y-61108D01*
X71536Y-60853D01*
X71457Y-60661D01*
X71389Y-60617D01*
X71389Y-59751D01*
X71389Y-57980D01*
X71377Y-57787D01*
X71327Y-57665D01*
X71299Y-57651D01*
X71299Y-57065D01*
X70900Y-56665D01*
X70829Y-56736D01*
X70829Y-56595D01*
X70429Y-56195D01*
X70342Y-56252D01*
X70253Y-56491D01*
X70263Y-56746D01*
X70342Y-56938D01*
X70429Y-56994D01*
X70829Y-56595D01*
X70829Y-56736D01*
X70500Y-57065D01*
X70556Y-57152D01*
X70796Y-57241D01*
X71051Y-57232D01*
X71243Y-57152D01*
X71299Y-57065D01*
X71299Y-57651D01*
X71256Y-57628D01*
X71185Y-57699D01*
X71185Y-57557D01*
X71148Y-57487D01*
X70966Y-57424D01*
X70773Y-57436D01*
X70651Y-57487D01*
X70614Y-57557D01*
X70900Y-57843D01*
X71185Y-57557D01*
X71185Y-57699D01*
X70970Y-57914D01*
X71256Y-58199D01*
X71327Y-58162D01*
X71389Y-57980D01*
X71389Y-59751D01*
X71377Y-59559D01*
X71327Y-59437D01*
X71256Y-59400D01*
X71185Y-59470D01*
X71185Y-59329D01*
X71185Y-58270D01*
X70900Y-57984D01*
X70829Y-58055D01*
X70829Y-57914D01*
X70543Y-57628D01*
X70472Y-57665D01*
X70410Y-57848D01*
X70422Y-58040D01*
X70472Y-58162D01*
X70543Y-58199D01*
X70829Y-57914D01*
X70829Y-58055D01*
X70614Y-58270D01*
X70651Y-58341D01*
X70833Y-58403D01*
X71026Y-58391D01*
X71148Y-58341D01*
X71185Y-58270D01*
X71185Y-59329D01*
X71148Y-59258D01*
X70966Y-59196D01*
X70773Y-59208D01*
X70651Y-59258D01*
X70614Y-59329D01*
X70900Y-59615D01*
X71185Y-59329D01*
X71185Y-59470D01*
X70970Y-59685D01*
X71256Y-59971D01*
X71327Y-59934D01*
X71389Y-59751D01*
X71389Y-60617D01*
X71370Y-60605D01*
X71299Y-60675D01*
X71299Y-60534D01*
X71243Y-60447D01*
X71185Y-60425D01*
X71185Y-60042D01*
X70900Y-59756D01*
X70829Y-59827D01*
X70829Y-59685D01*
X70543Y-59400D01*
X70472Y-59437D01*
X70410Y-59619D01*
X70422Y-59812D01*
X70472Y-59934D01*
X70543Y-59971D01*
X70829Y-59685D01*
X70829Y-59827D01*
X70614Y-60042D01*
X70651Y-60112D01*
X70833Y-60175D01*
X71026Y-60163D01*
X71148Y-60112D01*
X71185Y-60042D01*
X71185Y-60425D01*
X71003Y-60358D01*
X70748Y-60367D01*
X70556Y-60447D01*
X70500Y-60534D01*
X70900Y-60934D01*
X71299Y-60534D01*
X71299Y-60675D01*
X70970Y-61004D01*
X71370Y-61404D01*
X71457Y-61347D01*
X71546Y-61108D01*
X71546Y-62920D01*
X71299Y-62920D01*
X71299Y-61475D01*
X70900Y-61075D01*
X70829Y-61146D01*
X70829Y-61004D01*
X70429Y-60605D01*
X70342Y-60661D01*
X70253Y-60900D01*
X70263Y-61156D01*
X70342Y-61347D01*
X70429Y-61404D01*
X70829Y-61004D01*
X70829Y-61146D01*
X70500Y-61475D01*
X70556Y-61562D01*
X70796Y-61651D01*
X71051Y-61641D01*
X71243Y-61562D01*
X71299Y-61475D01*
X71299Y-62920D01*
X70438Y-62920D01*
X70256Y-62891D01*
X70117Y-62807D01*
X70021Y-62675D01*
X69979Y-62501D01*
X69979Y-62500D01*
X69979Y-55138D01*
X70008Y-54956D01*
X70092Y-54817D01*
X70224Y-54721D01*
X70398Y-54679D01*
X70400Y-54679D01*
X86982Y-54679D01*
X87160Y-54715D01*
X87294Y-54804D01*
X87385Y-54940D01*
X87420Y-55116D01*
X87420Y-62483D01*
M02*
