M48
;DRILL file {Pcbnew (2013-07-07 BZR 4022)-stable} date 11/13/2013 3:28:30 PM
;FORMAT={-:-/ absolute / inch / decimal}
FMAT,2
INCH,TZ
T1C0.013
T2C0.047
%
G90
G05
M72
T1
X5.6925Y-3.3975
X5.7275Y-3.6125
X5.7875Y-3.6125
X5.79Y-3.3975
X5.8375Y-3.2125
X5.8375Y-3.395
X5.885Y-3.3825
X5.93Y-3.3875
X6.0475Y-3.375
X6.1Y-3.3725
X6.145Y-3.3975
X6.1675Y-3.2575
X6.195Y-3.3975
X6.245Y-3.3975
X6.4125Y-3.4
X6.45Y-3.4
T2
X5.75Y-3.675
X5.75Y-3.775
X5.85Y-3.675
X5.85Y-3.775
X5.95Y-3.675
X5.95Y-3.775
X6.05Y-3.675
X6.05Y-3.775
X6.15Y-3.675
X6.15Y-3.775
X6.25Y-3.675
X6.25Y-3.775
X6.35Y-3.675
X6.35Y-3.775
X6.45Y-3.675
X6.45Y-3.775
T0
M30
