G04 (created by PCBNEW (2013-07-07 BZR 4022)-stable) date 11/13/2013 3:28:28 PM*
%MOIN*%
G04 Gerber Fmt 3.4, Leading zero omitted, Abs format*
%FSLAX34Y34*%
G01*
G70*
G90*
G04 APERTURE LIST*
%ADD10C,0.00590551*%
%ADD11R,0.045X0.025*%
%ADD12R,0.0590551X0.0590551*%
%ADD13C,0.0590551*%
%ADD14C,0.02*%
%ADD15C,0.01*%
%ADD16C,0.005*%
G04 APERTURE END LIST*
G54D10*
G54D11*
X57400Y-34475D03*
X57400Y-35075D03*
X58050Y-35075D03*
X58050Y-34475D03*
X58925Y-34475D03*
X58925Y-35075D03*
X59600Y-34475D03*
X59600Y-35075D03*
X64000Y-35075D03*
X64000Y-34475D03*
X64650Y-35075D03*
X64650Y-34475D03*
G54D10*
G36*
X61952Y-35496D02*
X61853Y-35103D01*
X62346Y-35103D01*
X62247Y-35496D01*
X61952Y-35496D01*
X61952Y-35496D01*
G37*
G36*
X61853Y-34996D02*
X61952Y-34603D01*
X62247Y-34603D01*
X62346Y-34996D01*
X61853Y-34996D01*
X61853Y-34996D01*
G37*
G54D12*
X57500Y-37750D03*
G54D13*
X57500Y-36750D03*
X58500Y-37750D03*
X58500Y-36750D03*
X59500Y-37750D03*
X59500Y-36750D03*
X60500Y-37750D03*
X60500Y-36750D03*
X61500Y-37750D03*
X61500Y-36750D03*
X62500Y-37750D03*
X62500Y-36750D03*
X63500Y-37750D03*
X63500Y-36750D03*
X64500Y-37750D03*
X64500Y-36750D03*
G54D14*
X59300Y-33875D03*
X61675Y-32575D03*
X58375Y-32125D03*
X58375Y-33950D03*
X61950Y-33975D03*
X62450Y-33975D03*
X58850Y-33825D03*
X57275Y-36125D03*
X56925Y-33975D03*
X57900Y-33975D03*
X57875Y-36125D03*
X64125Y-34000D03*
X64500Y-34000D03*
X61450Y-33975D03*
X60475Y-33750D03*
X61000Y-33725D03*
G54D15*
X59275Y-32575D02*
X61675Y-32575D01*
X59300Y-33875D02*
X59300Y-32600D01*
X59300Y-32600D02*
X59275Y-32575D01*
X58375Y-33950D02*
X58375Y-32125D01*
X58375Y-33950D02*
X58500Y-34075D01*
X58500Y-34075D02*
X58500Y-34825D01*
X58500Y-34825D02*
X58750Y-35075D01*
X58750Y-35075D02*
X58925Y-35075D01*
X59600Y-35075D02*
X58925Y-35075D01*
X59275Y-32575D02*
X58825Y-32575D01*
X58825Y-32575D02*
X58375Y-32125D01*
X61950Y-33975D02*
X61950Y-34650D01*
X62100Y-34800D02*
X61950Y-34650D01*
X60500Y-36750D02*
X60825Y-36425D01*
X61825Y-34800D02*
X62100Y-34800D01*
X61675Y-34950D02*
X61825Y-34800D01*
X61675Y-36075D02*
X61675Y-34950D01*
X61550Y-36200D02*
X61675Y-36075D01*
X61225Y-36200D02*
X61550Y-36200D01*
X61000Y-36425D02*
X61225Y-36200D01*
X60825Y-36425D02*
X61000Y-36425D01*
X62550Y-34075D02*
X62450Y-33975D01*
X62550Y-35300D02*
X62100Y-35300D01*
X62550Y-35300D02*
X62550Y-34075D01*
X62000Y-35400D02*
X62000Y-37250D01*
X62000Y-35400D02*
X62100Y-35300D01*
X61500Y-37750D02*
X62000Y-37250D01*
X58850Y-33825D02*
X58925Y-33900D01*
X58925Y-33900D02*
X58925Y-34475D01*
X58925Y-34475D02*
X59600Y-34475D01*
X58850Y-33825D02*
X58825Y-33850D01*
X57275Y-35200D02*
X57275Y-36125D01*
X57275Y-35200D02*
X57400Y-35075D01*
X57400Y-34475D02*
X57400Y-34450D01*
X57400Y-34450D02*
X56925Y-33975D01*
X57900Y-34325D02*
X57900Y-33975D01*
X57900Y-34325D02*
X58050Y-34475D01*
X57875Y-36125D02*
X58050Y-35950D01*
X58050Y-35075D02*
X58050Y-35950D01*
X64125Y-34350D02*
X64000Y-34475D01*
X64125Y-34000D02*
X64125Y-34350D01*
X64500Y-34000D02*
X64500Y-34325D01*
X64500Y-34325D02*
X64650Y-34475D01*
X61125Y-34300D02*
X61125Y-36000D01*
X60000Y-37250D02*
X60000Y-36450D01*
X60000Y-36450D02*
X60250Y-36200D01*
X60250Y-36200D02*
X60925Y-36200D01*
X60925Y-36200D02*
X61125Y-36000D01*
X60000Y-37250D02*
X59500Y-37750D01*
X61450Y-33975D02*
X61125Y-34300D01*
X60475Y-34075D02*
X60475Y-33750D01*
X57725Y-36750D02*
X57500Y-36750D01*
X60300Y-35550D02*
X60300Y-34250D01*
X59850Y-36000D02*
X60300Y-35550D01*
X59150Y-36000D02*
X59850Y-36000D01*
X58950Y-36200D02*
X59150Y-36000D01*
X58275Y-36200D02*
X58950Y-36200D01*
X57725Y-36750D02*
X58275Y-36200D01*
X60300Y-34250D02*
X60475Y-34075D01*
X60575Y-34325D02*
X60575Y-35999D01*
X60575Y-35975D02*
X60575Y-35999D01*
X61000Y-33725D02*
X60575Y-34325D01*
X58500Y-37750D02*
X58975Y-37275D01*
X60175Y-35975D02*
X60575Y-35975D01*
X60575Y-35975D02*
X60575Y-35975D01*
X59925Y-36225D02*
X60175Y-35975D01*
X59225Y-36225D02*
X59925Y-36225D01*
X58975Y-36475D02*
X59225Y-36225D01*
X58975Y-37275D02*
X58975Y-36475D01*
G54D10*
G36*
X65541Y-37894D02*
X65000Y-38436D01*
X65000Y-34575D01*
X65000Y-34325D01*
X64981Y-34279D01*
X64945Y-34244D01*
X64899Y-34225D01*
X64850Y-34224D01*
X64675Y-34224D01*
X64675Y-34143D01*
X64690Y-34127D01*
X64724Y-34044D01*
X64725Y-33955D01*
X64690Y-33872D01*
X64627Y-33809D01*
X64544Y-33775D01*
X64455Y-33774D01*
X64372Y-33809D01*
X64312Y-33869D01*
X64252Y-33809D01*
X64169Y-33775D01*
X64080Y-33774D01*
X63997Y-33809D01*
X63934Y-33872D01*
X63900Y-33955D01*
X63899Y-34044D01*
X63934Y-34127D01*
X63950Y-34143D01*
X63950Y-34224D01*
X63750Y-34224D01*
X63704Y-34243D01*
X63669Y-34279D01*
X63650Y-34325D01*
X63649Y-34374D01*
X63649Y-34624D01*
X63668Y-34670D01*
X63704Y-34705D01*
X63750Y-34724D01*
X63799Y-34725D01*
X64249Y-34725D01*
X64295Y-34706D01*
X64325Y-34676D01*
X64354Y-34705D01*
X64400Y-34724D01*
X64449Y-34725D01*
X64899Y-34725D01*
X64945Y-34706D01*
X64980Y-34670D01*
X64999Y-34624D01*
X65000Y-34575D01*
X65000Y-38436D01*
X64978Y-38457D01*
X64978Y-35220D01*
X64978Y-34929D01*
X64962Y-34891D01*
X64933Y-34862D01*
X64895Y-34846D01*
X64854Y-34846D01*
X64690Y-34846D01*
X64664Y-34872D01*
X64664Y-35060D01*
X64952Y-35060D01*
X64978Y-35034D01*
X64978Y-34929D01*
X64978Y-35220D01*
X64978Y-35115D01*
X64952Y-35089D01*
X64664Y-35089D01*
X64664Y-35277D01*
X64690Y-35303D01*
X64854Y-35303D01*
X64895Y-35303D01*
X64933Y-35287D01*
X64962Y-35258D01*
X64978Y-35220D01*
X64978Y-38457D01*
X64919Y-38516D01*
X64899Y-38516D01*
X64899Y-37672D01*
X64899Y-36672D01*
X64839Y-36525D01*
X64837Y-36522D01*
X64779Y-36491D01*
X64758Y-36511D01*
X64758Y-36470D01*
X64727Y-36412D01*
X64635Y-36374D01*
X64635Y-35277D01*
X64635Y-35089D01*
X64635Y-35060D01*
X64635Y-34872D01*
X64609Y-34846D01*
X64445Y-34846D01*
X64404Y-34846D01*
X64366Y-34862D01*
X64337Y-34891D01*
X64325Y-34920D01*
X64312Y-34891D01*
X64283Y-34862D01*
X64245Y-34846D01*
X64204Y-34846D01*
X64040Y-34846D01*
X64014Y-34872D01*
X64014Y-35060D01*
X64302Y-35060D01*
X64325Y-35038D01*
X64347Y-35060D01*
X64635Y-35060D01*
X64635Y-35089D01*
X64347Y-35089D01*
X64325Y-35111D01*
X64302Y-35089D01*
X64014Y-35089D01*
X64014Y-35277D01*
X64040Y-35303D01*
X64204Y-35303D01*
X64245Y-35303D01*
X64283Y-35287D01*
X64312Y-35258D01*
X64325Y-35229D01*
X64337Y-35258D01*
X64366Y-35287D01*
X64404Y-35303D01*
X64445Y-35303D01*
X64609Y-35303D01*
X64635Y-35277D01*
X64635Y-36374D01*
X64580Y-36351D01*
X64422Y-36350D01*
X64275Y-36410D01*
X64272Y-36412D01*
X64241Y-36470D01*
X64500Y-36729D01*
X64758Y-36470D01*
X64758Y-36511D01*
X64520Y-36750D01*
X64779Y-37008D01*
X64837Y-36977D01*
X64898Y-36830D01*
X64899Y-36672D01*
X64899Y-37672D01*
X64839Y-37525D01*
X64837Y-37522D01*
X64779Y-37491D01*
X64758Y-37511D01*
X64758Y-37470D01*
X64758Y-37029D01*
X64500Y-36770D01*
X64479Y-36790D01*
X64479Y-36750D01*
X64220Y-36491D01*
X64162Y-36522D01*
X64101Y-36669D01*
X64100Y-36827D01*
X64160Y-36974D01*
X64162Y-36977D01*
X64220Y-37008D01*
X64479Y-36750D01*
X64479Y-36790D01*
X64241Y-37029D01*
X64272Y-37087D01*
X64419Y-37148D01*
X64577Y-37149D01*
X64724Y-37089D01*
X64727Y-37087D01*
X64758Y-37029D01*
X64758Y-37470D01*
X64727Y-37412D01*
X64580Y-37351D01*
X64422Y-37350D01*
X64275Y-37410D01*
X64272Y-37412D01*
X64241Y-37470D01*
X64500Y-37729D01*
X64758Y-37470D01*
X64758Y-37511D01*
X64520Y-37750D01*
X64779Y-38008D01*
X64837Y-37977D01*
X64898Y-37830D01*
X64899Y-37672D01*
X64899Y-38516D01*
X64758Y-38516D01*
X64758Y-38029D01*
X64500Y-37770D01*
X64479Y-37790D01*
X64479Y-37750D01*
X64220Y-37491D01*
X64162Y-37522D01*
X64101Y-37669D01*
X64100Y-37827D01*
X64160Y-37974D01*
X64162Y-37977D01*
X64220Y-38008D01*
X64479Y-37750D01*
X64479Y-37790D01*
X64241Y-38029D01*
X64272Y-38087D01*
X64419Y-38148D01*
X64577Y-38149D01*
X64724Y-38089D01*
X64727Y-38087D01*
X64758Y-38029D01*
X64758Y-38516D01*
X63985Y-38516D01*
X63985Y-35277D01*
X63985Y-35089D01*
X63985Y-35060D01*
X63985Y-34872D01*
X63959Y-34846D01*
X63795Y-34846D01*
X63754Y-34846D01*
X63716Y-34862D01*
X63687Y-34891D01*
X63671Y-34929D01*
X63671Y-35034D01*
X63697Y-35060D01*
X63985Y-35060D01*
X63985Y-35089D01*
X63697Y-35089D01*
X63671Y-35115D01*
X63671Y-35220D01*
X63687Y-35258D01*
X63716Y-35287D01*
X63754Y-35303D01*
X63795Y-35303D01*
X63959Y-35303D01*
X63985Y-35277D01*
X63985Y-38516D01*
X63920Y-38516D01*
X63920Y-37666D01*
X63920Y-36666D01*
X63856Y-36512D01*
X63738Y-36393D01*
X63583Y-36329D01*
X63416Y-36329D01*
X63262Y-36393D01*
X63143Y-36511D01*
X63079Y-36666D01*
X63079Y-36833D01*
X63143Y-36987D01*
X63261Y-37106D01*
X63416Y-37170D01*
X63583Y-37170D01*
X63737Y-37106D01*
X63856Y-36988D01*
X63920Y-36833D01*
X63920Y-36666D01*
X63920Y-37666D01*
X63856Y-37512D01*
X63738Y-37393D01*
X63583Y-37329D01*
X63416Y-37329D01*
X63262Y-37393D01*
X63143Y-37511D01*
X63079Y-37666D01*
X63079Y-37833D01*
X63143Y-37987D01*
X63261Y-38106D01*
X63416Y-38170D01*
X63583Y-38170D01*
X63737Y-38106D01*
X63856Y-37988D01*
X63920Y-37833D01*
X63920Y-37666D01*
X63920Y-38516D01*
X62920Y-38516D01*
X62920Y-37666D01*
X62920Y-36666D01*
X62856Y-36512D01*
X62738Y-36393D01*
X62583Y-36329D01*
X62416Y-36329D01*
X62262Y-36393D01*
X62175Y-36480D01*
X62175Y-35621D01*
X62370Y-35621D01*
X62416Y-35602D01*
X62451Y-35567D01*
X62471Y-35521D01*
X62471Y-35475D01*
X62550Y-35475D01*
X62616Y-35461D01*
X62673Y-35423D01*
X62711Y-35366D01*
X62725Y-35300D01*
X62725Y-34075D01*
X62711Y-34008D01*
X62711Y-34008D01*
X62675Y-33953D01*
X62675Y-33930D01*
X62640Y-33847D01*
X62577Y-33784D01*
X62494Y-33750D01*
X62405Y-33749D01*
X62322Y-33784D01*
X62259Y-33847D01*
X62225Y-33930D01*
X62224Y-34019D01*
X62259Y-34102D01*
X62322Y-34165D01*
X62375Y-34187D01*
X62375Y-34479D01*
X62371Y-34478D01*
X62321Y-34478D01*
X62125Y-34478D01*
X62125Y-34118D01*
X62140Y-34102D01*
X62174Y-34019D01*
X62175Y-33930D01*
X62140Y-33847D01*
X62077Y-33784D01*
X61994Y-33750D01*
X61905Y-33749D01*
X61822Y-33784D01*
X61759Y-33847D01*
X61725Y-33930D01*
X61724Y-34019D01*
X61759Y-34102D01*
X61775Y-34118D01*
X61775Y-34505D01*
X61748Y-34532D01*
X61728Y-34578D01*
X61728Y-34627D01*
X61728Y-34657D01*
X61701Y-34676D01*
X61551Y-34826D01*
X61513Y-34883D01*
X61500Y-34950D01*
X61500Y-36002D01*
X61477Y-36025D01*
X61295Y-36025D01*
X61300Y-36000D01*
X61300Y-34372D01*
X61472Y-34200D01*
X61494Y-34200D01*
X61577Y-34165D01*
X61640Y-34102D01*
X61674Y-34019D01*
X61675Y-33930D01*
X61640Y-33847D01*
X61577Y-33784D01*
X61494Y-33750D01*
X61405Y-33749D01*
X61322Y-33784D01*
X61259Y-33847D01*
X61225Y-33930D01*
X61225Y-33952D01*
X61001Y-34176D01*
X60963Y-34233D01*
X60950Y-34300D01*
X60950Y-35927D01*
X60852Y-36025D01*
X60745Y-36025D01*
X60750Y-35999D01*
X60750Y-35975D01*
X60750Y-34380D01*
X61059Y-33943D01*
X61127Y-33915D01*
X61190Y-33852D01*
X61224Y-33769D01*
X61225Y-33680D01*
X61190Y-33597D01*
X61127Y-33534D01*
X61044Y-33500D01*
X60955Y-33499D01*
X60872Y-33534D01*
X60809Y-33597D01*
X60775Y-33680D01*
X60774Y-33739D01*
X60650Y-33916D01*
X60650Y-33893D01*
X60665Y-33877D01*
X60699Y-33794D01*
X60700Y-33705D01*
X60665Y-33622D01*
X60602Y-33559D01*
X60519Y-33525D01*
X60430Y-33524D01*
X60347Y-33559D01*
X60284Y-33622D01*
X60250Y-33705D01*
X60249Y-33794D01*
X60284Y-33877D01*
X60300Y-33893D01*
X60300Y-34002D01*
X60176Y-34126D01*
X60138Y-34183D01*
X60125Y-34250D01*
X60125Y-35477D01*
X59777Y-35825D01*
X59150Y-35825D01*
X59083Y-35838D01*
X59026Y-35876D01*
X58877Y-36025D01*
X58275Y-36025D01*
X58208Y-36038D01*
X58188Y-36051D01*
X58211Y-36016D01*
X58224Y-35950D01*
X58225Y-35950D01*
X58225Y-35325D01*
X58299Y-35325D01*
X58345Y-35306D01*
X58380Y-35270D01*
X58399Y-35224D01*
X58400Y-35175D01*
X58400Y-34972D01*
X58574Y-35147D01*
X58574Y-35224D01*
X58593Y-35270D01*
X58629Y-35305D01*
X58675Y-35324D01*
X58724Y-35325D01*
X59174Y-35325D01*
X59220Y-35306D01*
X59255Y-35270D01*
X59262Y-35255D01*
X59268Y-35270D01*
X59304Y-35305D01*
X59350Y-35324D01*
X59399Y-35325D01*
X59849Y-35325D01*
X59895Y-35306D01*
X59930Y-35270D01*
X59949Y-35224D01*
X59950Y-35175D01*
X59950Y-34925D01*
X59931Y-34879D01*
X59928Y-34877D01*
X59928Y-34620D01*
X59928Y-34329D01*
X59912Y-34291D01*
X59883Y-34262D01*
X59845Y-34246D01*
X59804Y-34246D01*
X59640Y-34246D01*
X59614Y-34272D01*
X59614Y-34460D01*
X59902Y-34460D01*
X59928Y-34434D01*
X59928Y-34329D01*
X59928Y-34620D01*
X59928Y-34515D01*
X59902Y-34489D01*
X59614Y-34489D01*
X59614Y-34677D01*
X59640Y-34703D01*
X59804Y-34703D01*
X59845Y-34703D01*
X59883Y-34687D01*
X59912Y-34658D01*
X59928Y-34620D01*
X59928Y-34877D01*
X59895Y-34844D01*
X59849Y-34825D01*
X59800Y-34824D01*
X59585Y-34824D01*
X59585Y-34677D01*
X59585Y-34489D01*
X59585Y-34460D01*
X59585Y-34272D01*
X59559Y-34246D01*
X59395Y-34246D01*
X59354Y-34246D01*
X59316Y-34262D01*
X59287Y-34291D01*
X59271Y-34329D01*
X59271Y-34434D01*
X59297Y-34460D01*
X59585Y-34460D01*
X59585Y-34489D01*
X59297Y-34489D01*
X59271Y-34515D01*
X59271Y-34620D01*
X59287Y-34658D01*
X59316Y-34687D01*
X59354Y-34703D01*
X59395Y-34703D01*
X59559Y-34703D01*
X59585Y-34677D01*
X59585Y-34824D01*
X59350Y-34824D01*
X59304Y-34843D01*
X59269Y-34879D01*
X59262Y-34894D01*
X59256Y-34879D01*
X59253Y-34877D01*
X59253Y-34620D01*
X59253Y-34329D01*
X59237Y-34291D01*
X59208Y-34262D01*
X59170Y-34246D01*
X59129Y-34246D01*
X58965Y-34246D01*
X58939Y-34272D01*
X58939Y-34460D01*
X59227Y-34460D01*
X59253Y-34434D01*
X59253Y-34329D01*
X59253Y-34620D01*
X59253Y-34515D01*
X59227Y-34489D01*
X58939Y-34489D01*
X58939Y-34677D01*
X58965Y-34703D01*
X59129Y-34703D01*
X59170Y-34703D01*
X59208Y-34687D01*
X59237Y-34658D01*
X59253Y-34620D01*
X59253Y-34877D01*
X59220Y-34844D01*
X59174Y-34825D01*
X59125Y-34824D01*
X58747Y-34824D01*
X58675Y-34752D01*
X58675Y-34701D01*
X58679Y-34703D01*
X58720Y-34703D01*
X58884Y-34703D01*
X58910Y-34677D01*
X58910Y-34489D01*
X58902Y-34489D01*
X58902Y-34460D01*
X58910Y-34460D01*
X58910Y-34272D01*
X58884Y-34246D01*
X58720Y-34246D01*
X58679Y-34246D01*
X58675Y-34248D01*
X58675Y-34075D01*
X58674Y-34074D01*
X58661Y-34008D01*
X58623Y-33951D01*
X58623Y-33951D01*
X58600Y-33927D01*
X58600Y-33905D01*
X58565Y-33822D01*
X58550Y-33806D01*
X58550Y-32547D01*
X58701Y-32698D01*
X58758Y-32736D01*
X58758Y-32736D01*
X58825Y-32750D01*
X59125Y-32750D01*
X59125Y-33731D01*
X59109Y-33747D01*
X59075Y-33830D01*
X59074Y-33919D01*
X59109Y-34002D01*
X59172Y-34065D01*
X59255Y-34099D01*
X59344Y-34100D01*
X59427Y-34065D01*
X59490Y-34002D01*
X59524Y-33919D01*
X59525Y-33830D01*
X59490Y-33747D01*
X59475Y-33731D01*
X59475Y-32750D01*
X61531Y-32750D01*
X61547Y-32765D01*
X61630Y-32799D01*
X61719Y-32800D01*
X61802Y-32765D01*
X61865Y-32702D01*
X61899Y-32619D01*
X61900Y-32530D01*
X61865Y-32447D01*
X61802Y-32384D01*
X61719Y-32350D01*
X61630Y-32349D01*
X61547Y-32384D01*
X61531Y-32400D01*
X59275Y-32400D01*
X58897Y-32400D01*
X58600Y-32102D01*
X58600Y-32080D01*
X58565Y-31997D01*
X58502Y-31934D01*
X58419Y-31900D01*
X58330Y-31899D01*
X58247Y-31934D01*
X58184Y-31997D01*
X58150Y-32080D01*
X58149Y-32169D01*
X58184Y-32252D01*
X58200Y-32268D01*
X58200Y-33806D01*
X58184Y-33822D01*
X58150Y-33905D01*
X58149Y-33994D01*
X58184Y-34077D01*
X58247Y-34140D01*
X58325Y-34172D01*
X58325Y-34235D01*
X58299Y-34225D01*
X58250Y-34224D01*
X58075Y-34224D01*
X58075Y-34118D01*
X58090Y-34102D01*
X58124Y-34019D01*
X58125Y-33930D01*
X58090Y-33847D01*
X58027Y-33784D01*
X57944Y-33750D01*
X57855Y-33749D01*
X57772Y-33784D01*
X57709Y-33847D01*
X57675Y-33930D01*
X57674Y-34019D01*
X57709Y-34102D01*
X57725Y-34118D01*
X57725Y-34273D01*
X57724Y-34273D01*
X57695Y-34244D01*
X57649Y-34225D01*
X57600Y-34224D01*
X57422Y-34224D01*
X57150Y-33952D01*
X57150Y-33930D01*
X57115Y-33847D01*
X57052Y-33784D01*
X56969Y-33750D01*
X56880Y-33749D01*
X56797Y-33784D01*
X56734Y-33847D01*
X56700Y-33930D01*
X56699Y-34019D01*
X56734Y-34102D01*
X56797Y-34165D01*
X56880Y-34199D01*
X56902Y-34199D01*
X57050Y-34347D01*
X57049Y-34374D01*
X57049Y-34624D01*
X57068Y-34670D01*
X57104Y-34705D01*
X57150Y-34724D01*
X57199Y-34725D01*
X57649Y-34725D01*
X57695Y-34706D01*
X57725Y-34676D01*
X57754Y-34705D01*
X57800Y-34724D01*
X57849Y-34725D01*
X58299Y-34725D01*
X58325Y-34714D01*
X58325Y-34825D01*
X58327Y-34836D01*
X58299Y-34825D01*
X58250Y-34824D01*
X57800Y-34824D01*
X57754Y-34843D01*
X57724Y-34873D01*
X57695Y-34844D01*
X57649Y-34825D01*
X57600Y-34824D01*
X57150Y-34824D01*
X57104Y-34843D01*
X57069Y-34879D01*
X57050Y-34925D01*
X57049Y-34974D01*
X57049Y-35224D01*
X57068Y-35270D01*
X57100Y-35301D01*
X57100Y-35981D01*
X57084Y-35997D01*
X57050Y-36080D01*
X57049Y-36169D01*
X57084Y-36252D01*
X57147Y-36315D01*
X57230Y-36349D01*
X57319Y-36350D01*
X57402Y-36315D01*
X57465Y-36252D01*
X57499Y-36169D01*
X57500Y-36080D01*
X57465Y-35997D01*
X57450Y-35981D01*
X57450Y-35325D01*
X57649Y-35325D01*
X57695Y-35306D01*
X57725Y-35276D01*
X57754Y-35305D01*
X57800Y-35324D01*
X57849Y-35325D01*
X57875Y-35325D01*
X57875Y-35877D01*
X57852Y-35899D01*
X57830Y-35899D01*
X57747Y-35934D01*
X57684Y-35997D01*
X57650Y-36080D01*
X57649Y-36169D01*
X57684Y-36252D01*
X57747Y-36315D01*
X57830Y-36349D01*
X57877Y-36350D01*
X57785Y-36441D01*
X57738Y-36393D01*
X57583Y-36329D01*
X57416Y-36329D01*
X57262Y-36393D01*
X57143Y-36511D01*
X57079Y-36666D01*
X57079Y-36833D01*
X57143Y-36987D01*
X57261Y-37106D01*
X57416Y-37170D01*
X57583Y-37170D01*
X57737Y-37106D01*
X57856Y-36988D01*
X57920Y-36833D01*
X57920Y-36802D01*
X58096Y-36626D01*
X58079Y-36666D01*
X58079Y-36833D01*
X58143Y-36987D01*
X58261Y-37106D01*
X58416Y-37170D01*
X58583Y-37170D01*
X58737Y-37106D01*
X58800Y-37044D01*
X58800Y-37202D01*
X58646Y-37355D01*
X58583Y-37329D01*
X58416Y-37329D01*
X58262Y-37393D01*
X58143Y-37511D01*
X58079Y-37666D01*
X58079Y-37833D01*
X58143Y-37987D01*
X58261Y-38106D01*
X58416Y-38170D01*
X58583Y-38170D01*
X58737Y-38106D01*
X58856Y-37988D01*
X58920Y-37833D01*
X58920Y-37666D01*
X58894Y-37603D01*
X59098Y-37398D01*
X59098Y-37398D01*
X59098Y-37398D01*
X59136Y-37341D01*
X59150Y-37275D01*
X59150Y-36994D01*
X59261Y-37106D01*
X59416Y-37170D01*
X59583Y-37170D01*
X59737Y-37106D01*
X59825Y-37019D01*
X59825Y-37177D01*
X59646Y-37355D01*
X59583Y-37329D01*
X59416Y-37329D01*
X59262Y-37393D01*
X59143Y-37511D01*
X59079Y-37666D01*
X59079Y-37833D01*
X59143Y-37987D01*
X59261Y-38106D01*
X59416Y-38170D01*
X59583Y-38170D01*
X59737Y-38106D01*
X59856Y-37988D01*
X59920Y-37833D01*
X59920Y-37666D01*
X59894Y-37603D01*
X60123Y-37373D01*
X60161Y-37316D01*
X60161Y-37316D01*
X60175Y-37250D01*
X60175Y-37019D01*
X60261Y-37106D01*
X60416Y-37170D01*
X60583Y-37170D01*
X60737Y-37106D01*
X60856Y-36988D01*
X60920Y-36833D01*
X60920Y-36666D01*
X60894Y-36603D01*
X60897Y-36600D01*
X61000Y-36600D01*
X61066Y-36586D01*
X61066Y-36586D01*
X61123Y-36548D01*
X61131Y-36540D01*
X61079Y-36666D01*
X61079Y-36833D01*
X61143Y-36987D01*
X61261Y-37106D01*
X61416Y-37170D01*
X61583Y-37170D01*
X61737Y-37106D01*
X61825Y-37019D01*
X61825Y-37177D01*
X61646Y-37355D01*
X61583Y-37329D01*
X61416Y-37329D01*
X61262Y-37393D01*
X61143Y-37511D01*
X61079Y-37666D01*
X61079Y-37833D01*
X61143Y-37987D01*
X61261Y-38106D01*
X61416Y-38170D01*
X61583Y-38170D01*
X61737Y-38106D01*
X61856Y-37988D01*
X61920Y-37833D01*
X61920Y-37666D01*
X61894Y-37603D01*
X62123Y-37373D01*
X62161Y-37316D01*
X62161Y-37316D01*
X62175Y-37250D01*
X62175Y-37019D01*
X62261Y-37106D01*
X62416Y-37170D01*
X62583Y-37170D01*
X62737Y-37106D01*
X62856Y-36988D01*
X62920Y-36833D01*
X62920Y-36666D01*
X62920Y-37666D01*
X62856Y-37512D01*
X62738Y-37393D01*
X62583Y-37329D01*
X62416Y-37329D01*
X62262Y-37393D01*
X62143Y-37511D01*
X62079Y-37666D01*
X62079Y-37833D01*
X62143Y-37987D01*
X62261Y-38106D01*
X62416Y-38170D01*
X62583Y-38170D01*
X62737Y-38106D01*
X62856Y-37988D01*
X62920Y-37833D01*
X62920Y-37666D01*
X62920Y-38516D01*
X60920Y-38516D01*
X60920Y-37666D01*
X60856Y-37512D01*
X60738Y-37393D01*
X60583Y-37329D01*
X60416Y-37329D01*
X60262Y-37393D01*
X60143Y-37511D01*
X60079Y-37666D01*
X60079Y-37833D01*
X60143Y-37987D01*
X60261Y-38106D01*
X60416Y-38170D01*
X60583Y-38170D01*
X60737Y-38106D01*
X60856Y-37988D01*
X60920Y-37833D01*
X60920Y-37666D01*
X60920Y-38516D01*
X57920Y-38516D01*
X57920Y-38020D01*
X57920Y-37429D01*
X57901Y-37384D01*
X57866Y-37348D01*
X57820Y-37329D01*
X57770Y-37329D01*
X57179Y-37329D01*
X57134Y-37348D01*
X57098Y-37383D01*
X57079Y-37429D01*
X57079Y-37479D01*
X57079Y-38070D01*
X57098Y-38115D01*
X57133Y-38151D01*
X57179Y-38170D01*
X57229Y-38170D01*
X57820Y-38170D01*
X57865Y-38151D01*
X57901Y-38116D01*
X57920Y-38070D01*
X57920Y-38020D01*
X57920Y-38516D01*
X57055Y-38516D01*
X56433Y-37894D01*
X56433Y-32480D01*
X57030Y-31883D01*
X64919Y-31883D01*
X65541Y-32505D01*
X65541Y-37894D01*
X65541Y-37894D01*
G37*
G54D16*
X65541Y-37894D02*
X65000Y-38436D01*
X65000Y-34575D01*
X65000Y-34325D01*
X64981Y-34279D01*
X64945Y-34244D01*
X64899Y-34225D01*
X64850Y-34224D01*
X64675Y-34224D01*
X64675Y-34143D01*
X64690Y-34127D01*
X64724Y-34044D01*
X64725Y-33955D01*
X64690Y-33872D01*
X64627Y-33809D01*
X64544Y-33775D01*
X64455Y-33774D01*
X64372Y-33809D01*
X64312Y-33869D01*
X64252Y-33809D01*
X64169Y-33775D01*
X64080Y-33774D01*
X63997Y-33809D01*
X63934Y-33872D01*
X63900Y-33955D01*
X63899Y-34044D01*
X63934Y-34127D01*
X63950Y-34143D01*
X63950Y-34224D01*
X63750Y-34224D01*
X63704Y-34243D01*
X63669Y-34279D01*
X63650Y-34325D01*
X63649Y-34374D01*
X63649Y-34624D01*
X63668Y-34670D01*
X63704Y-34705D01*
X63750Y-34724D01*
X63799Y-34725D01*
X64249Y-34725D01*
X64295Y-34706D01*
X64325Y-34676D01*
X64354Y-34705D01*
X64400Y-34724D01*
X64449Y-34725D01*
X64899Y-34725D01*
X64945Y-34706D01*
X64980Y-34670D01*
X64999Y-34624D01*
X65000Y-34575D01*
X65000Y-38436D01*
X64978Y-38457D01*
X64978Y-35220D01*
X64978Y-34929D01*
X64962Y-34891D01*
X64933Y-34862D01*
X64895Y-34846D01*
X64854Y-34846D01*
X64690Y-34846D01*
X64664Y-34872D01*
X64664Y-35060D01*
X64952Y-35060D01*
X64978Y-35034D01*
X64978Y-34929D01*
X64978Y-35220D01*
X64978Y-35115D01*
X64952Y-35089D01*
X64664Y-35089D01*
X64664Y-35277D01*
X64690Y-35303D01*
X64854Y-35303D01*
X64895Y-35303D01*
X64933Y-35287D01*
X64962Y-35258D01*
X64978Y-35220D01*
X64978Y-38457D01*
X64919Y-38516D01*
X64899Y-38516D01*
X64899Y-37672D01*
X64899Y-36672D01*
X64839Y-36525D01*
X64837Y-36522D01*
X64779Y-36491D01*
X64758Y-36511D01*
X64758Y-36470D01*
X64727Y-36412D01*
X64635Y-36374D01*
X64635Y-35277D01*
X64635Y-35089D01*
X64635Y-35060D01*
X64635Y-34872D01*
X64609Y-34846D01*
X64445Y-34846D01*
X64404Y-34846D01*
X64366Y-34862D01*
X64337Y-34891D01*
X64325Y-34920D01*
X64312Y-34891D01*
X64283Y-34862D01*
X64245Y-34846D01*
X64204Y-34846D01*
X64040Y-34846D01*
X64014Y-34872D01*
X64014Y-35060D01*
X64302Y-35060D01*
X64325Y-35038D01*
X64347Y-35060D01*
X64635Y-35060D01*
X64635Y-35089D01*
X64347Y-35089D01*
X64325Y-35111D01*
X64302Y-35089D01*
X64014Y-35089D01*
X64014Y-35277D01*
X64040Y-35303D01*
X64204Y-35303D01*
X64245Y-35303D01*
X64283Y-35287D01*
X64312Y-35258D01*
X64325Y-35229D01*
X64337Y-35258D01*
X64366Y-35287D01*
X64404Y-35303D01*
X64445Y-35303D01*
X64609Y-35303D01*
X64635Y-35277D01*
X64635Y-36374D01*
X64580Y-36351D01*
X64422Y-36350D01*
X64275Y-36410D01*
X64272Y-36412D01*
X64241Y-36470D01*
X64500Y-36729D01*
X64758Y-36470D01*
X64758Y-36511D01*
X64520Y-36750D01*
X64779Y-37008D01*
X64837Y-36977D01*
X64898Y-36830D01*
X64899Y-36672D01*
X64899Y-37672D01*
X64839Y-37525D01*
X64837Y-37522D01*
X64779Y-37491D01*
X64758Y-37511D01*
X64758Y-37470D01*
X64758Y-37029D01*
X64500Y-36770D01*
X64479Y-36790D01*
X64479Y-36750D01*
X64220Y-36491D01*
X64162Y-36522D01*
X64101Y-36669D01*
X64100Y-36827D01*
X64160Y-36974D01*
X64162Y-36977D01*
X64220Y-37008D01*
X64479Y-36750D01*
X64479Y-36790D01*
X64241Y-37029D01*
X64272Y-37087D01*
X64419Y-37148D01*
X64577Y-37149D01*
X64724Y-37089D01*
X64727Y-37087D01*
X64758Y-37029D01*
X64758Y-37470D01*
X64727Y-37412D01*
X64580Y-37351D01*
X64422Y-37350D01*
X64275Y-37410D01*
X64272Y-37412D01*
X64241Y-37470D01*
X64500Y-37729D01*
X64758Y-37470D01*
X64758Y-37511D01*
X64520Y-37750D01*
X64779Y-38008D01*
X64837Y-37977D01*
X64898Y-37830D01*
X64899Y-37672D01*
X64899Y-38516D01*
X64758Y-38516D01*
X64758Y-38029D01*
X64500Y-37770D01*
X64479Y-37790D01*
X64479Y-37750D01*
X64220Y-37491D01*
X64162Y-37522D01*
X64101Y-37669D01*
X64100Y-37827D01*
X64160Y-37974D01*
X64162Y-37977D01*
X64220Y-38008D01*
X64479Y-37750D01*
X64479Y-37790D01*
X64241Y-38029D01*
X64272Y-38087D01*
X64419Y-38148D01*
X64577Y-38149D01*
X64724Y-38089D01*
X64727Y-38087D01*
X64758Y-38029D01*
X64758Y-38516D01*
X63985Y-38516D01*
X63985Y-35277D01*
X63985Y-35089D01*
X63985Y-35060D01*
X63985Y-34872D01*
X63959Y-34846D01*
X63795Y-34846D01*
X63754Y-34846D01*
X63716Y-34862D01*
X63687Y-34891D01*
X63671Y-34929D01*
X63671Y-35034D01*
X63697Y-35060D01*
X63985Y-35060D01*
X63985Y-35089D01*
X63697Y-35089D01*
X63671Y-35115D01*
X63671Y-35220D01*
X63687Y-35258D01*
X63716Y-35287D01*
X63754Y-35303D01*
X63795Y-35303D01*
X63959Y-35303D01*
X63985Y-35277D01*
X63985Y-38516D01*
X63920Y-38516D01*
X63920Y-37666D01*
X63920Y-36666D01*
X63856Y-36512D01*
X63738Y-36393D01*
X63583Y-36329D01*
X63416Y-36329D01*
X63262Y-36393D01*
X63143Y-36511D01*
X63079Y-36666D01*
X63079Y-36833D01*
X63143Y-36987D01*
X63261Y-37106D01*
X63416Y-37170D01*
X63583Y-37170D01*
X63737Y-37106D01*
X63856Y-36988D01*
X63920Y-36833D01*
X63920Y-36666D01*
X63920Y-37666D01*
X63856Y-37512D01*
X63738Y-37393D01*
X63583Y-37329D01*
X63416Y-37329D01*
X63262Y-37393D01*
X63143Y-37511D01*
X63079Y-37666D01*
X63079Y-37833D01*
X63143Y-37987D01*
X63261Y-38106D01*
X63416Y-38170D01*
X63583Y-38170D01*
X63737Y-38106D01*
X63856Y-37988D01*
X63920Y-37833D01*
X63920Y-37666D01*
X63920Y-38516D01*
X62920Y-38516D01*
X62920Y-37666D01*
X62920Y-36666D01*
X62856Y-36512D01*
X62738Y-36393D01*
X62583Y-36329D01*
X62416Y-36329D01*
X62262Y-36393D01*
X62175Y-36480D01*
X62175Y-35621D01*
X62370Y-35621D01*
X62416Y-35602D01*
X62451Y-35567D01*
X62471Y-35521D01*
X62471Y-35475D01*
X62550Y-35475D01*
X62616Y-35461D01*
X62673Y-35423D01*
X62711Y-35366D01*
X62725Y-35300D01*
X62725Y-34075D01*
X62711Y-34008D01*
X62711Y-34008D01*
X62675Y-33953D01*
X62675Y-33930D01*
X62640Y-33847D01*
X62577Y-33784D01*
X62494Y-33750D01*
X62405Y-33749D01*
X62322Y-33784D01*
X62259Y-33847D01*
X62225Y-33930D01*
X62224Y-34019D01*
X62259Y-34102D01*
X62322Y-34165D01*
X62375Y-34187D01*
X62375Y-34479D01*
X62371Y-34478D01*
X62321Y-34478D01*
X62125Y-34478D01*
X62125Y-34118D01*
X62140Y-34102D01*
X62174Y-34019D01*
X62175Y-33930D01*
X62140Y-33847D01*
X62077Y-33784D01*
X61994Y-33750D01*
X61905Y-33749D01*
X61822Y-33784D01*
X61759Y-33847D01*
X61725Y-33930D01*
X61724Y-34019D01*
X61759Y-34102D01*
X61775Y-34118D01*
X61775Y-34505D01*
X61748Y-34532D01*
X61728Y-34578D01*
X61728Y-34627D01*
X61728Y-34657D01*
X61701Y-34676D01*
X61551Y-34826D01*
X61513Y-34883D01*
X61500Y-34950D01*
X61500Y-36002D01*
X61477Y-36025D01*
X61295Y-36025D01*
X61300Y-36000D01*
X61300Y-34372D01*
X61472Y-34200D01*
X61494Y-34200D01*
X61577Y-34165D01*
X61640Y-34102D01*
X61674Y-34019D01*
X61675Y-33930D01*
X61640Y-33847D01*
X61577Y-33784D01*
X61494Y-33750D01*
X61405Y-33749D01*
X61322Y-33784D01*
X61259Y-33847D01*
X61225Y-33930D01*
X61225Y-33952D01*
X61001Y-34176D01*
X60963Y-34233D01*
X60950Y-34300D01*
X60950Y-35927D01*
X60852Y-36025D01*
X60745Y-36025D01*
X60750Y-35999D01*
X60750Y-35975D01*
X60750Y-34380D01*
X61059Y-33943D01*
X61127Y-33915D01*
X61190Y-33852D01*
X61224Y-33769D01*
X61225Y-33680D01*
X61190Y-33597D01*
X61127Y-33534D01*
X61044Y-33500D01*
X60955Y-33499D01*
X60872Y-33534D01*
X60809Y-33597D01*
X60775Y-33680D01*
X60774Y-33739D01*
X60650Y-33916D01*
X60650Y-33893D01*
X60665Y-33877D01*
X60699Y-33794D01*
X60700Y-33705D01*
X60665Y-33622D01*
X60602Y-33559D01*
X60519Y-33525D01*
X60430Y-33524D01*
X60347Y-33559D01*
X60284Y-33622D01*
X60250Y-33705D01*
X60249Y-33794D01*
X60284Y-33877D01*
X60300Y-33893D01*
X60300Y-34002D01*
X60176Y-34126D01*
X60138Y-34183D01*
X60125Y-34250D01*
X60125Y-35477D01*
X59777Y-35825D01*
X59150Y-35825D01*
X59083Y-35838D01*
X59026Y-35876D01*
X58877Y-36025D01*
X58275Y-36025D01*
X58208Y-36038D01*
X58188Y-36051D01*
X58211Y-36016D01*
X58224Y-35950D01*
X58225Y-35950D01*
X58225Y-35325D01*
X58299Y-35325D01*
X58345Y-35306D01*
X58380Y-35270D01*
X58399Y-35224D01*
X58400Y-35175D01*
X58400Y-34972D01*
X58574Y-35147D01*
X58574Y-35224D01*
X58593Y-35270D01*
X58629Y-35305D01*
X58675Y-35324D01*
X58724Y-35325D01*
X59174Y-35325D01*
X59220Y-35306D01*
X59255Y-35270D01*
X59262Y-35255D01*
X59268Y-35270D01*
X59304Y-35305D01*
X59350Y-35324D01*
X59399Y-35325D01*
X59849Y-35325D01*
X59895Y-35306D01*
X59930Y-35270D01*
X59949Y-35224D01*
X59950Y-35175D01*
X59950Y-34925D01*
X59931Y-34879D01*
X59928Y-34877D01*
X59928Y-34620D01*
X59928Y-34329D01*
X59912Y-34291D01*
X59883Y-34262D01*
X59845Y-34246D01*
X59804Y-34246D01*
X59640Y-34246D01*
X59614Y-34272D01*
X59614Y-34460D01*
X59902Y-34460D01*
X59928Y-34434D01*
X59928Y-34329D01*
X59928Y-34620D01*
X59928Y-34515D01*
X59902Y-34489D01*
X59614Y-34489D01*
X59614Y-34677D01*
X59640Y-34703D01*
X59804Y-34703D01*
X59845Y-34703D01*
X59883Y-34687D01*
X59912Y-34658D01*
X59928Y-34620D01*
X59928Y-34877D01*
X59895Y-34844D01*
X59849Y-34825D01*
X59800Y-34824D01*
X59585Y-34824D01*
X59585Y-34677D01*
X59585Y-34489D01*
X59585Y-34460D01*
X59585Y-34272D01*
X59559Y-34246D01*
X59395Y-34246D01*
X59354Y-34246D01*
X59316Y-34262D01*
X59287Y-34291D01*
X59271Y-34329D01*
X59271Y-34434D01*
X59297Y-34460D01*
X59585Y-34460D01*
X59585Y-34489D01*
X59297Y-34489D01*
X59271Y-34515D01*
X59271Y-34620D01*
X59287Y-34658D01*
X59316Y-34687D01*
X59354Y-34703D01*
X59395Y-34703D01*
X59559Y-34703D01*
X59585Y-34677D01*
X59585Y-34824D01*
X59350Y-34824D01*
X59304Y-34843D01*
X59269Y-34879D01*
X59262Y-34894D01*
X59256Y-34879D01*
X59253Y-34877D01*
X59253Y-34620D01*
X59253Y-34329D01*
X59237Y-34291D01*
X59208Y-34262D01*
X59170Y-34246D01*
X59129Y-34246D01*
X58965Y-34246D01*
X58939Y-34272D01*
X58939Y-34460D01*
X59227Y-34460D01*
X59253Y-34434D01*
X59253Y-34329D01*
X59253Y-34620D01*
X59253Y-34515D01*
X59227Y-34489D01*
X58939Y-34489D01*
X58939Y-34677D01*
X58965Y-34703D01*
X59129Y-34703D01*
X59170Y-34703D01*
X59208Y-34687D01*
X59237Y-34658D01*
X59253Y-34620D01*
X59253Y-34877D01*
X59220Y-34844D01*
X59174Y-34825D01*
X59125Y-34824D01*
X58747Y-34824D01*
X58675Y-34752D01*
X58675Y-34701D01*
X58679Y-34703D01*
X58720Y-34703D01*
X58884Y-34703D01*
X58910Y-34677D01*
X58910Y-34489D01*
X58902Y-34489D01*
X58902Y-34460D01*
X58910Y-34460D01*
X58910Y-34272D01*
X58884Y-34246D01*
X58720Y-34246D01*
X58679Y-34246D01*
X58675Y-34248D01*
X58675Y-34075D01*
X58674Y-34074D01*
X58661Y-34008D01*
X58623Y-33951D01*
X58623Y-33951D01*
X58600Y-33927D01*
X58600Y-33905D01*
X58565Y-33822D01*
X58550Y-33806D01*
X58550Y-32547D01*
X58701Y-32698D01*
X58758Y-32736D01*
X58758Y-32736D01*
X58825Y-32750D01*
X59125Y-32750D01*
X59125Y-33731D01*
X59109Y-33747D01*
X59075Y-33830D01*
X59074Y-33919D01*
X59109Y-34002D01*
X59172Y-34065D01*
X59255Y-34099D01*
X59344Y-34100D01*
X59427Y-34065D01*
X59490Y-34002D01*
X59524Y-33919D01*
X59525Y-33830D01*
X59490Y-33747D01*
X59475Y-33731D01*
X59475Y-32750D01*
X61531Y-32750D01*
X61547Y-32765D01*
X61630Y-32799D01*
X61719Y-32800D01*
X61802Y-32765D01*
X61865Y-32702D01*
X61899Y-32619D01*
X61900Y-32530D01*
X61865Y-32447D01*
X61802Y-32384D01*
X61719Y-32350D01*
X61630Y-32349D01*
X61547Y-32384D01*
X61531Y-32400D01*
X59275Y-32400D01*
X58897Y-32400D01*
X58600Y-32102D01*
X58600Y-32080D01*
X58565Y-31997D01*
X58502Y-31934D01*
X58419Y-31900D01*
X58330Y-31899D01*
X58247Y-31934D01*
X58184Y-31997D01*
X58150Y-32080D01*
X58149Y-32169D01*
X58184Y-32252D01*
X58200Y-32268D01*
X58200Y-33806D01*
X58184Y-33822D01*
X58150Y-33905D01*
X58149Y-33994D01*
X58184Y-34077D01*
X58247Y-34140D01*
X58325Y-34172D01*
X58325Y-34235D01*
X58299Y-34225D01*
X58250Y-34224D01*
X58075Y-34224D01*
X58075Y-34118D01*
X58090Y-34102D01*
X58124Y-34019D01*
X58125Y-33930D01*
X58090Y-33847D01*
X58027Y-33784D01*
X57944Y-33750D01*
X57855Y-33749D01*
X57772Y-33784D01*
X57709Y-33847D01*
X57675Y-33930D01*
X57674Y-34019D01*
X57709Y-34102D01*
X57725Y-34118D01*
X57725Y-34273D01*
X57724Y-34273D01*
X57695Y-34244D01*
X57649Y-34225D01*
X57600Y-34224D01*
X57422Y-34224D01*
X57150Y-33952D01*
X57150Y-33930D01*
X57115Y-33847D01*
X57052Y-33784D01*
X56969Y-33750D01*
X56880Y-33749D01*
X56797Y-33784D01*
X56734Y-33847D01*
X56700Y-33930D01*
X56699Y-34019D01*
X56734Y-34102D01*
X56797Y-34165D01*
X56880Y-34199D01*
X56902Y-34199D01*
X57050Y-34347D01*
X57049Y-34374D01*
X57049Y-34624D01*
X57068Y-34670D01*
X57104Y-34705D01*
X57150Y-34724D01*
X57199Y-34725D01*
X57649Y-34725D01*
X57695Y-34706D01*
X57725Y-34676D01*
X57754Y-34705D01*
X57800Y-34724D01*
X57849Y-34725D01*
X58299Y-34725D01*
X58325Y-34714D01*
X58325Y-34825D01*
X58327Y-34836D01*
X58299Y-34825D01*
X58250Y-34824D01*
X57800Y-34824D01*
X57754Y-34843D01*
X57724Y-34873D01*
X57695Y-34844D01*
X57649Y-34825D01*
X57600Y-34824D01*
X57150Y-34824D01*
X57104Y-34843D01*
X57069Y-34879D01*
X57050Y-34925D01*
X57049Y-34974D01*
X57049Y-35224D01*
X57068Y-35270D01*
X57100Y-35301D01*
X57100Y-35981D01*
X57084Y-35997D01*
X57050Y-36080D01*
X57049Y-36169D01*
X57084Y-36252D01*
X57147Y-36315D01*
X57230Y-36349D01*
X57319Y-36350D01*
X57402Y-36315D01*
X57465Y-36252D01*
X57499Y-36169D01*
X57500Y-36080D01*
X57465Y-35997D01*
X57450Y-35981D01*
X57450Y-35325D01*
X57649Y-35325D01*
X57695Y-35306D01*
X57725Y-35276D01*
X57754Y-35305D01*
X57800Y-35324D01*
X57849Y-35325D01*
X57875Y-35325D01*
X57875Y-35877D01*
X57852Y-35899D01*
X57830Y-35899D01*
X57747Y-35934D01*
X57684Y-35997D01*
X57650Y-36080D01*
X57649Y-36169D01*
X57684Y-36252D01*
X57747Y-36315D01*
X57830Y-36349D01*
X57877Y-36350D01*
X57785Y-36441D01*
X57738Y-36393D01*
X57583Y-36329D01*
X57416Y-36329D01*
X57262Y-36393D01*
X57143Y-36511D01*
X57079Y-36666D01*
X57079Y-36833D01*
X57143Y-36987D01*
X57261Y-37106D01*
X57416Y-37170D01*
X57583Y-37170D01*
X57737Y-37106D01*
X57856Y-36988D01*
X57920Y-36833D01*
X57920Y-36802D01*
X58096Y-36626D01*
X58079Y-36666D01*
X58079Y-36833D01*
X58143Y-36987D01*
X58261Y-37106D01*
X58416Y-37170D01*
X58583Y-37170D01*
X58737Y-37106D01*
X58800Y-37044D01*
X58800Y-37202D01*
X58646Y-37355D01*
X58583Y-37329D01*
X58416Y-37329D01*
X58262Y-37393D01*
X58143Y-37511D01*
X58079Y-37666D01*
X58079Y-37833D01*
X58143Y-37987D01*
X58261Y-38106D01*
X58416Y-38170D01*
X58583Y-38170D01*
X58737Y-38106D01*
X58856Y-37988D01*
X58920Y-37833D01*
X58920Y-37666D01*
X58894Y-37603D01*
X59098Y-37398D01*
X59098Y-37398D01*
X59098Y-37398D01*
X59136Y-37341D01*
X59150Y-37275D01*
X59150Y-36994D01*
X59261Y-37106D01*
X59416Y-37170D01*
X59583Y-37170D01*
X59737Y-37106D01*
X59825Y-37019D01*
X59825Y-37177D01*
X59646Y-37355D01*
X59583Y-37329D01*
X59416Y-37329D01*
X59262Y-37393D01*
X59143Y-37511D01*
X59079Y-37666D01*
X59079Y-37833D01*
X59143Y-37987D01*
X59261Y-38106D01*
X59416Y-38170D01*
X59583Y-38170D01*
X59737Y-38106D01*
X59856Y-37988D01*
X59920Y-37833D01*
X59920Y-37666D01*
X59894Y-37603D01*
X60123Y-37373D01*
X60161Y-37316D01*
X60161Y-37316D01*
X60175Y-37250D01*
X60175Y-37019D01*
X60261Y-37106D01*
X60416Y-37170D01*
X60583Y-37170D01*
X60737Y-37106D01*
X60856Y-36988D01*
X60920Y-36833D01*
X60920Y-36666D01*
X60894Y-36603D01*
X60897Y-36600D01*
X61000Y-36600D01*
X61066Y-36586D01*
X61066Y-36586D01*
X61123Y-36548D01*
X61131Y-36540D01*
X61079Y-36666D01*
X61079Y-36833D01*
X61143Y-36987D01*
X61261Y-37106D01*
X61416Y-37170D01*
X61583Y-37170D01*
X61737Y-37106D01*
X61825Y-37019D01*
X61825Y-37177D01*
X61646Y-37355D01*
X61583Y-37329D01*
X61416Y-37329D01*
X61262Y-37393D01*
X61143Y-37511D01*
X61079Y-37666D01*
X61079Y-37833D01*
X61143Y-37987D01*
X61261Y-38106D01*
X61416Y-38170D01*
X61583Y-38170D01*
X61737Y-38106D01*
X61856Y-37988D01*
X61920Y-37833D01*
X61920Y-37666D01*
X61894Y-37603D01*
X62123Y-37373D01*
X62161Y-37316D01*
X62161Y-37316D01*
X62175Y-37250D01*
X62175Y-37019D01*
X62261Y-37106D01*
X62416Y-37170D01*
X62583Y-37170D01*
X62737Y-37106D01*
X62856Y-36988D01*
X62920Y-36833D01*
X62920Y-36666D01*
X62920Y-37666D01*
X62856Y-37512D01*
X62738Y-37393D01*
X62583Y-37329D01*
X62416Y-37329D01*
X62262Y-37393D01*
X62143Y-37511D01*
X62079Y-37666D01*
X62079Y-37833D01*
X62143Y-37987D01*
X62261Y-38106D01*
X62416Y-38170D01*
X62583Y-38170D01*
X62737Y-38106D01*
X62856Y-37988D01*
X62920Y-37833D01*
X62920Y-37666D01*
X62920Y-38516D01*
X60920Y-38516D01*
X60920Y-37666D01*
X60856Y-37512D01*
X60738Y-37393D01*
X60583Y-37329D01*
X60416Y-37329D01*
X60262Y-37393D01*
X60143Y-37511D01*
X60079Y-37666D01*
X60079Y-37833D01*
X60143Y-37987D01*
X60261Y-38106D01*
X60416Y-38170D01*
X60583Y-38170D01*
X60737Y-38106D01*
X60856Y-37988D01*
X60920Y-37833D01*
X60920Y-37666D01*
X60920Y-38516D01*
X57920Y-38516D01*
X57920Y-38020D01*
X57920Y-37429D01*
X57901Y-37384D01*
X57866Y-37348D01*
X57820Y-37329D01*
X57770Y-37329D01*
X57179Y-37329D01*
X57134Y-37348D01*
X57098Y-37383D01*
X57079Y-37429D01*
X57079Y-37479D01*
X57079Y-38070D01*
X57098Y-38115D01*
X57133Y-38151D01*
X57179Y-38170D01*
X57229Y-38170D01*
X57820Y-38170D01*
X57865Y-38151D01*
X57901Y-38116D01*
X57920Y-38070D01*
X57920Y-38020D01*
X57920Y-38516D01*
X57055Y-38516D01*
X56433Y-37894D01*
X56433Y-32480D01*
X57030Y-31883D01*
X64919Y-31883D01*
X65541Y-32505D01*
X65541Y-37894D01*
M02*
