M48
;DRILL file {Pcbnew (2013-07-07 BZR 4022)-stable} date 6/25/2014 3:03:05 PM
;FORMAT={-:-/ absolute / inch / decimal}
FMAT,2
INCH,TZ
T1C0.013
T2C0.025
T3C0.035
T4C0.036
T5C0.040
T6C0.047
T7C0.087
T8C0.091
%
G90
G05
M72
T1
X7.345Y-6.23
X7.485Y-5.63
X7.525Y-5.63
X7.555Y-5.63
X7.585Y-5.63
X7.608Y-5.821
X7.63Y-5.905
X7.655Y-6.015
X7.69Y-5.63
X7.715Y-6.185
X7.715Y-6.26
X7.72Y-5.995
X7.74Y-5.97
X7.76Y-5.905
X7.785Y-6.09
X7.815Y-5.89
X7.83Y-5.625
X7.85Y-5.835
X7.88Y-5.835
X7.935Y-5.85
X7.935Y-6.02
X7.94Y-6.09
X7.95Y-5.91
X7.965Y-5.815
X7.975Y-6.02
X7.98Y-5.905
X8.005Y-5.975
X8.065Y-5.985
X8.12Y-5.87
X8.125Y-6.065
X8.155Y-5.63
X8.19Y-5.615
X8.235Y-5.61
X8.37Y-6.18
T2
X7.61Y-6.01
T3
X7.8801Y-5.9635
T4
X8.55Y-5.7422
X8.55Y-5.8406
X8.55Y-5.9194
X8.55Y-6.0178
T5
X8.08Y-6.15
X8.18Y-6.15
X8.28Y-6.15
T6
X7.09Y-5.7914
X7.09Y-5.9686
T7
X7.09Y-5.6595
X7.09Y-6.1005
T8
X8.6567Y-5.6213
X8.6567Y-6.1387
T0
M30
