G04 (created by PCBNEW (2013-07-07 BZR 4022)-stable) date 10/2/2014 10:21:40 AM*
%MOIN*%
G04 Gerber Fmt 3.4, Leading zero omitted, Abs format*
%FSLAX34Y34*%
G01*
G70*
G90*
G04 APERTURE LIST*
%ADD10C,0.00590551*%
%ADD11C,0.00472441*%
%ADD12R,0.040748X0.060748*%
%ADD13R,0.0787402X0.0708661*%
%ADD14C,0.0846457*%
%ADD15O,0.0334646X0.153543*%
%ADD16R,0.0334646X0.153543*%
%ADD17R,0.0590551X0.0846457*%
%ADD18O,0.0846457X0.0456693*%
%ADD19R,0.0846457X0.0456693*%
%ADD20R,0.031448X0.039348*%
%ADD21C,0.0688976*%
%ADD22C,0.133858*%
%ADD23C,0.0826772*%
%ADD24C,0.114173*%
%ADD25R,0.0925197X0.0559055*%
%ADD26R,0.0669291X0.0374016*%
%ADD27R,0.0629921X0.0629921*%
G04 APERTURE END LIST*
G54D10*
G54D11*
X70472Y-62439D02*
X70669Y-62439D01*
X70472Y-62566D02*
X70627Y-62566D01*
X70655Y-62552D01*
X70669Y-62524D01*
X70669Y-62482D01*
X70655Y-62453D01*
X70641Y-62439D01*
X70655Y-62313D02*
X70669Y-62285D01*
X70669Y-62228D01*
X70655Y-62200D01*
X70627Y-62186D01*
X70613Y-62186D01*
X70585Y-62200D01*
X70571Y-62228D01*
X70571Y-62271D01*
X70557Y-62299D01*
X70528Y-62313D01*
X70514Y-62313D01*
X70486Y-62299D01*
X70472Y-62271D01*
X70472Y-62228D01*
X70486Y-62200D01*
X70669Y-62060D02*
X70374Y-62060D01*
X70486Y-62060D02*
X70472Y-62032D01*
X70472Y-61975D01*
X70486Y-61947D01*
X70500Y-61933D01*
X70528Y-61919D01*
X70613Y-61919D01*
X70641Y-61933D01*
X70655Y-61947D01*
X70669Y-61975D01*
X70669Y-62032D01*
X70655Y-62060D01*
X70933Y-62559D02*
X71228Y-62559D01*
X70947Y-62559D02*
X70933Y-62531D01*
X70933Y-62474D01*
X70947Y-62446D01*
X70961Y-62432D01*
X70989Y-62418D01*
X71073Y-62418D01*
X71102Y-62432D01*
X71116Y-62446D01*
X71130Y-62474D01*
X71130Y-62531D01*
X71116Y-62559D01*
X70933Y-62320D02*
X71130Y-62264D01*
X70989Y-62207D01*
X71130Y-62151D01*
X70933Y-62095D01*
X71130Y-61982D02*
X70933Y-61982D01*
X70989Y-61982D02*
X70961Y-61968D01*
X70947Y-61954D01*
X70933Y-61926D01*
X70933Y-61898D01*
X71590Y-62643D02*
X71393Y-62643D01*
X71422Y-62643D02*
X71407Y-62629D01*
X71393Y-62601D01*
X71393Y-62559D01*
X71407Y-62531D01*
X71436Y-62517D01*
X71590Y-62517D01*
X71436Y-62517D02*
X71407Y-62503D01*
X71393Y-62474D01*
X71393Y-62432D01*
X71407Y-62404D01*
X71436Y-62390D01*
X71590Y-62390D01*
X71590Y-62207D02*
X71576Y-62235D01*
X71562Y-62250D01*
X71534Y-62264D01*
X71450Y-62264D01*
X71422Y-62250D01*
X71407Y-62235D01*
X71393Y-62207D01*
X71393Y-62165D01*
X71407Y-62137D01*
X71422Y-62123D01*
X71450Y-62109D01*
X71534Y-62109D01*
X71562Y-62123D01*
X71576Y-62137D01*
X71590Y-62165D01*
X71590Y-62207D01*
X71393Y-61982D02*
X71590Y-61982D01*
X71422Y-61982D02*
X71407Y-61968D01*
X71393Y-61940D01*
X71393Y-61898D01*
X71407Y-61870D01*
X71436Y-61856D01*
X71590Y-61856D01*
X70400Y-55072D02*
X70400Y-55311D01*
X70386Y-55339D01*
X70372Y-55353D01*
X70344Y-55367D01*
X70302Y-55367D01*
X70274Y-55353D01*
X70400Y-55255D02*
X70372Y-55269D01*
X70316Y-55269D01*
X70288Y-55255D01*
X70274Y-55241D01*
X70260Y-55213D01*
X70260Y-55128D01*
X70274Y-55100D01*
X70288Y-55086D01*
X70316Y-55072D01*
X70372Y-55072D01*
X70400Y-55086D01*
X70583Y-55269D02*
X70555Y-55255D01*
X70541Y-55241D01*
X70527Y-55213D01*
X70527Y-55128D01*
X70541Y-55100D01*
X70555Y-55086D01*
X70583Y-55072D01*
X70625Y-55072D01*
X70654Y-55086D01*
X70668Y-55100D01*
X70682Y-55128D01*
X70682Y-55213D01*
X70668Y-55241D01*
X70654Y-55255D01*
X70625Y-55269D01*
X70583Y-55269D01*
X70850Y-55269D02*
X70822Y-55255D01*
X70808Y-55241D01*
X70794Y-55213D01*
X70794Y-55128D01*
X70808Y-55100D01*
X70822Y-55086D01*
X70850Y-55072D01*
X70893Y-55072D01*
X70921Y-55086D01*
X70935Y-55100D01*
X70949Y-55128D01*
X70949Y-55213D01*
X70935Y-55241D01*
X70921Y-55255D01*
X70893Y-55269D01*
X70850Y-55269D01*
X71075Y-55241D02*
X71089Y-55255D01*
X71075Y-55269D01*
X71061Y-55255D01*
X71075Y-55241D01*
X71075Y-55269D01*
X71343Y-55072D02*
X71343Y-55311D01*
X71328Y-55339D01*
X71314Y-55353D01*
X71286Y-55367D01*
X71244Y-55367D01*
X71216Y-55353D01*
X71343Y-55255D02*
X71314Y-55269D01*
X71258Y-55269D01*
X71230Y-55255D01*
X71216Y-55241D01*
X71202Y-55213D01*
X71202Y-55128D01*
X71216Y-55100D01*
X71230Y-55086D01*
X71258Y-55072D01*
X71314Y-55072D01*
X71343Y-55086D01*
X71525Y-55269D02*
X71497Y-55255D01*
X71483Y-55227D01*
X71483Y-54974D01*
X71849Y-54960D02*
X71596Y-55339D01*
X71947Y-55269D02*
X71947Y-54974D01*
X71975Y-55157D02*
X72060Y-55269D01*
X72060Y-55072D02*
X71947Y-55185D01*
X72355Y-55269D02*
X72256Y-55128D01*
X72186Y-55269D02*
X72186Y-54974D01*
X72299Y-54974D01*
X72327Y-54988D01*
X72341Y-55002D01*
X72355Y-55030D01*
X72355Y-55072D01*
X72341Y-55100D01*
X72327Y-55114D01*
X72299Y-55128D01*
X72186Y-55128D01*
X72439Y-55072D02*
X72552Y-55072D01*
X72481Y-54974D02*
X72481Y-55227D01*
X72496Y-55255D01*
X72524Y-55269D01*
X72552Y-55269D01*
X72791Y-54974D02*
X72650Y-54974D01*
X72636Y-55114D01*
X72650Y-55100D01*
X72678Y-55086D01*
X72749Y-55086D01*
X72777Y-55100D01*
X72791Y-55114D01*
X72805Y-55142D01*
X72805Y-55213D01*
X72791Y-55241D01*
X72777Y-55255D01*
X72749Y-55269D01*
X72678Y-55269D01*
X72650Y-55255D01*
X72636Y-55241D01*
X73058Y-55072D02*
X73058Y-55367D01*
X73058Y-55255D02*
X73030Y-55269D01*
X72974Y-55269D01*
X72945Y-55255D01*
X72931Y-55241D01*
X72917Y-55213D01*
X72917Y-55128D01*
X72931Y-55100D01*
X72945Y-55086D01*
X72974Y-55072D01*
X73030Y-55072D01*
X73058Y-55086D01*
X73325Y-55072D02*
X73325Y-55269D01*
X73199Y-55072D02*
X73199Y-55227D01*
X73213Y-55255D01*
X73241Y-55269D01*
X73283Y-55269D01*
X73311Y-55255D01*
X73325Y-55241D01*
X71378Y-55533D02*
X71448Y-55730D01*
X71518Y-55533D01*
X71687Y-55434D02*
X71715Y-55434D01*
X71743Y-55448D01*
X71757Y-55462D01*
X71771Y-55491D01*
X71785Y-55547D01*
X71785Y-55617D01*
X71771Y-55673D01*
X71757Y-55702D01*
X71743Y-55716D01*
X71715Y-55730D01*
X71687Y-55730D01*
X71659Y-55716D01*
X71645Y-55702D01*
X71631Y-55673D01*
X71617Y-55617D01*
X71617Y-55547D01*
X71631Y-55491D01*
X71645Y-55462D01*
X71659Y-55448D01*
X71687Y-55434D01*
X71912Y-55702D02*
X71926Y-55716D01*
X71912Y-55730D01*
X71898Y-55716D01*
X71912Y-55702D01*
X71912Y-55730D01*
X72179Y-55533D02*
X72179Y-55730D01*
X72109Y-55420D02*
X72039Y-55631D01*
X72221Y-55631D01*
G54D12*
X77600Y-62600D03*
X78200Y-62600D03*
G54D13*
X80400Y-60600D03*
X80400Y-58828D03*
X77092Y-60600D03*
X77092Y-58828D03*
G54D14*
X81800Y-61500D03*
X80800Y-61500D03*
X82800Y-61500D03*
G54D15*
X74700Y-57200D03*
G54D16*
X74975Y-57200D03*
X75251Y-57200D03*
X75526Y-57200D03*
X75802Y-57200D03*
X76077Y-57200D03*
X76353Y-57200D03*
X76629Y-57200D03*
X76904Y-57200D03*
X77180Y-57200D03*
X77455Y-57200D03*
X77731Y-57200D03*
X78007Y-57200D03*
X78282Y-57200D03*
X78558Y-57200D03*
X78833Y-57200D03*
X79109Y-57200D03*
X79385Y-57200D03*
X79660Y-57200D03*
X79936Y-57200D03*
X80211Y-57200D03*
X80487Y-57200D03*
X80762Y-57200D03*
X81038Y-57200D03*
X81314Y-57200D03*
X81589Y-57200D03*
X81865Y-57200D03*
X82140Y-57200D03*
X82416Y-57200D03*
X82692Y-57200D03*
G54D17*
X75875Y-61058D03*
X75324Y-61058D03*
X75875Y-62141D03*
X75324Y-62141D03*
G54D18*
X83656Y-60684D03*
G54D19*
X81943Y-60684D03*
X83656Y-60184D03*
X81943Y-60184D03*
X83656Y-59684D03*
X81943Y-59684D03*
X83656Y-59184D03*
X81943Y-59184D03*
X83656Y-58684D03*
X81943Y-58684D03*
G54D20*
X78973Y-62600D03*
X79327Y-62600D03*
X81397Y-58230D03*
X81043Y-58230D03*
G54D21*
X85500Y-59193D03*
X85500Y-58406D03*
X85500Y-60177D03*
X85500Y-57422D03*
G54D22*
X86566Y-61386D03*
X86566Y-56213D03*
G54D23*
X70900Y-57914D03*
X70900Y-59685D03*
G54D24*
X70900Y-56595D03*
X70900Y-61004D03*
G54D25*
X72474Y-60177D03*
X72474Y-57422D03*
X72474Y-59193D03*
X72474Y-58406D03*
G54D26*
X73425Y-61200D03*
X73425Y-61575D03*
X73425Y-61949D03*
X74409Y-61949D03*
X74409Y-61200D03*
G54D27*
X78801Y-59645D03*
M02*
