G04 (created by PCBNEW (2013-07-07 BZR 4022)-stable) date 11/27/2013 8:36:12*
%MOIN*%
G04 Gerber Fmt 3.4, Leading zero omitted, Abs format*
%FSLAX34Y34*%
G01*
G70*
G90*
G04 APERTURE LIST*
%ADD10C,0.00590551*%
%ADD11C,0.00511811*%
G04 APERTURE END LIST*
G54D10*
G54D11*
X57801Y-31924D02*
X57801Y-32135D01*
X57787Y-32177D01*
X57759Y-32205D01*
X57717Y-32219D01*
X57689Y-32219D01*
X57928Y-31952D02*
X57942Y-31938D01*
X57970Y-31924D01*
X58040Y-31924D01*
X58068Y-31938D01*
X58082Y-31952D01*
X58096Y-31980D01*
X58096Y-32008D01*
X58082Y-32050D01*
X57914Y-32219D01*
X58096Y-32219D01*
X60951Y-31924D02*
X60951Y-32135D01*
X60937Y-32177D01*
X60909Y-32205D01*
X60867Y-32219D01*
X60839Y-32219D01*
X61218Y-31924D02*
X61162Y-31924D01*
X61134Y-31938D01*
X61120Y-31952D01*
X61092Y-31994D01*
X61078Y-32050D01*
X61078Y-32163D01*
X61092Y-32191D01*
X61106Y-32205D01*
X61134Y-32219D01*
X61190Y-32219D01*
X61218Y-32205D01*
X61232Y-32191D01*
X61246Y-32163D01*
X61246Y-32092D01*
X61232Y-32064D01*
X61218Y-32050D01*
X61190Y-32036D01*
X61134Y-32036D01*
X61106Y-32050D01*
X61092Y-32064D01*
X61078Y-32092D01*
X58751Y-31949D02*
X58751Y-32160D01*
X58737Y-32202D01*
X58709Y-32230D01*
X58667Y-32244D01*
X58639Y-32244D01*
X58864Y-31949D02*
X59046Y-31949D01*
X58948Y-32061D01*
X58990Y-32061D01*
X59018Y-32075D01*
X59032Y-32089D01*
X59046Y-32117D01*
X59046Y-32188D01*
X59032Y-32216D01*
X59018Y-32230D01*
X58990Y-32244D01*
X58906Y-32244D01*
X58878Y-32230D01*
X58864Y-32216D01*
X57076Y-33449D02*
X57076Y-33660D01*
X57062Y-33702D01*
X57034Y-33730D01*
X56992Y-33744D01*
X56964Y-33744D01*
X57371Y-33744D02*
X57203Y-33744D01*
X57287Y-33744D02*
X57287Y-33449D01*
X57259Y-33491D01*
X57231Y-33519D01*
X57203Y-33533D01*
X59476Y-31924D02*
X59476Y-32135D01*
X59462Y-32177D01*
X59434Y-32205D01*
X59392Y-32219D01*
X59364Y-32219D01*
X59743Y-32022D02*
X59743Y-32219D01*
X59673Y-31910D02*
X59603Y-32121D01*
X59785Y-32121D01*
X60201Y-31924D02*
X60201Y-32135D01*
X60187Y-32177D01*
X60159Y-32205D01*
X60117Y-32219D01*
X60089Y-32219D01*
X60482Y-31924D02*
X60342Y-31924D01*
X60328Y-32064D01*
X60342Y-32050D01*
X60370Y-32036D01*
X60440Y-32036D01*
X60468Y-32050D01*
X60482Y-32064D01*
X60496Y-32092D01*
X60496Y-32163D01*
X60482Y-32191D01*
X60468Y-32205D01*
X60440Y-32219D01*
X60370Y-32219D01*
X60342Y-32205D01*
X60328Y-32191D01*
M02*
