G04 (created by PCBNEW (2013-07-07 BZR 4022)-stable) date 11/13/2013 3:28:28 PM*
%MOIN*%
G04 Gerber Fmt 3.4, Leading zero omitted, Abs format*
%FSLAX34Y34*%
G01*
G70*
G90*
G04 APERTURE LIST*
%ADD10C,0.00590551*%
%ADD11C,0.00511811*%
%ADD12R,0.060748X0.040748*%
%ADD13R,0.0748031X0.0748031*%
%ADD14C,0.0748031*%
G04 APERTURE END LIST*
G54D10*
G54D11*
X65014Y-32322D02*
X65014Y-32561D01*
X65028Y-32589D01*
X65042Y-32603D01*
X65070Y-32617D01*
X65113Y-32617D01*
X65141Y-32603D01*
X65014Y-32505D02*
X65042Y-32519D01*
X65099Y-32519D01*
X65127Y-32505D01*
X65141Y-32491D01*
X65155Y-32463D01*
X65155Y-32378D01*
X65141Y-32350D01*
X65127Y-32336D01*
X65099Y-32322D01*
X65042Y-32322D01*
X65014Y-32336D01*
X64874Y-32519D02*
X64874Y-32322D01*
X64874Y-32224D02*
X64888Y-32238D01*
X64874Y-32252D01*
X64860Y-32238D01*
X64874Y-32224D01*
X64874Y-32252D01*
X64775Y-32322D02*
X64663Y-32322D01*
X64733Y-32224D02*
X64733Y-32477D01*
X64719Y-32505D01*
X64691Y-32519D01*
X64663Y-32519D01*
X64564Y-32491D02*
X64550Y-32505D01*
X64564Y-32519D01*
X64578Y-32505D01*
X64564Y-32491D01*
X64564Y-32519D01*
X64424Y-32519D02*
X64424Y-32322D01*
X64424Y-32224D02*
X64438Y-32238D01*
X64424Y-32252D01*
X64410Y-32238D01*
X64424Y-32224D01*
X64424Y-32252D01*
X64241Y-32519D02*
X64269Y-32505D01*
X64283Y-32491D01*
X64297Y-32463D01*
X64297Y-32378D01*
X64283Y-32350D01*
X64269Y-32336D01*
X64241Y-32322D01*
X64199Y-32322D01*
X64171Y-32336D01*
X64156Y-32350D01*
X64142Y-32378D01*
X64142Y-32463D01*
X64156Y-32491D01*
X64171Y-32505D01*
X64199Y-32519D01*
X64241Y-32519D01*
X63805Y-32210D02*
X64058Y-32589D01*
X63552Y-32519D02*
X63721Y-32519D01*
X63636Y-32519D02*
X63636Y-32224D01*
X63664Y-32266D01*
X63692Y-32294D01*
X63721Y-32308D01*
X63383Y-32350D02*
X63411Y-32336D01*
X63425Y-32322D01*
X63439Y-32294D01*
X63439Y-32280D01*
X63425Y-32252D01*
X63411Y-32238D01*
X63383Y-32224D01*
X63327Y-32224D01*
X63299Y-32238D01*
X63285Y-32252D01*
X63271Y-32280D01*
X63271Y-32294D01*
X63285Y-32322D01*
X63299Y-32336D01*
X63327Y-32350D01*
X63383Y-32350D01*
X63411Y-32364D01*
X63425Y-32378D01*
X63439Y-32407D01*
X63439Y-32463D01*
X63425Y-32491D01*
X63411Y-32505D01*
X63383Y-32519D01*
X63327Y-32519D01*
X63299Y-32505D01*
X63285Y-32491D01*
X63271Y-32463D01*
X63271Y-32407D01*
X63285Y-32378D01*
X63299Y-32364D01*
X63327Y-32350D01*
X63018Y-32322D02*
X63018Y-32519D01*
X63144Y-32322D02*
X63144Y-32477D01*
X63130Y-32505D01*
X63102Y-32519D01*
X63060Y-32519D01*
X63032Y-32505D01*
X63018Y-32491D01*
X62877Y-32322D02*
X62877Y-32617D01*
X62877Y-32336D02*
X62849Y-32322D01*
X62793Y-32322D01*
X62764Y-32336D01*
X62750Y-32350D01*
X62736Y-32378D01*
X62736Y-32463D01*
X62750Y-32491D01*
X62764Y-32505D01*
X62793Y-32519D01*
X62849Y-32519D01*
X62877Y-32505D01*
X62638Y-32322D02*
X62568Y-32519D01*
X62497Y-32322D02*
X62568Y-32519D01*
X62596Y-32589D01*
X62610Y-32603D01*
X62638Y-32617D01*
X62258Y-32322D02*
X62258Y-32561D01*
X62272Y-32589D01*
X62286Y-32603D01*
X62315Y-32617D01*
X62357Y-32617D01*
X62385Y-32603D01*
X62258Y-32505D02*
X62286Y-32519D01*
X62343Y-32519D01*
X62371Y-32505D01*
X62385Y-32491D01*
X62399Y-32463D01*
X62399Y-32378D01*
X62385Y-32350D01*
X62371Y-32336D01*
X62343Y-32322D01*
X62286Y-32322D01*
X62258Y-32336D01*
X64867Y-32984D02*
X64895Y-32970D01*
X64909Y-32955D01*
X64923Y-32927D01*
X64923Y-32843D01*
X64909Y-32815D01*
X64895Y-32801D01*
X64867Y-32787D01*
X64824Y-32787D01*
X64796Y-32801D01*
X64782Y-32815D01*
X64768Y-32843D01*
X64768Y-32927D01*
X64782Y-32955D01*
X64796Y-32970D01*
X64824Y-32984D01*
X64867Y-32984D01*
X64599Y-32984D02*
X64628Y-32970D01*
X64642Y-32941D01*
X64642Y-32688D01*
X64374Y-32970D02*
X64403Y-32984D01*
X64459Y-32984D01*
X64487Y-32970D01*
X64501Y-32941D01*
X64501Y-32829D01*
X64487Y-32801D01*
X64459Y-32787D01*
X64403Y-32787D01*
X64374Y-32801D01*
X64360Y-32829D01*
X64360Y-32857D01*
X64501Y-32885D01*
X64107Y-32984D02*
X64107Y-32688D01*
X64107Y-32970D02*
X64135Y-32984D01*
X64192Y-32984D01*
X64220Y-32970D01*
X64234Y-32955D01*
X64248Y-32927D01*
X64248Y-32843D01*
X64234Y-32815D01*
X64220Y-32801D01*
X64192Y-32787D01*
X64135Y-32787D01*
X64107Y-32801D01*
X64037Y-33012D02*
X63812Y-33012D01*
X63742Y-32984D02*
X63742Y-32688D01*
X63742Y-32801D02*
X63714Y-32787D01*
X63657Y-32787D01*
X63629Y-32801D01*
X63615Y-32815D01*
X63601Y-32843D01*
X63601Y-32927D01*
X63615Y-32955D01*
X63629Y-32970D01*
X63657Y-32984D01*
X63714Y-32984D01*
X63742Y-32970D01*
X63475Y-32984D02*
X63475Y-32787D01*
X63475Y-32843D02*
X63460Y-32815D01*
X63446Y-32801D01*
X63418Y-32787D01*
X63390Y-32787D01*
X63292Y-32984D02*
X63292Y-32688D01*
X63264Y-32871D02*
X63179Y-32984D01*
X63179Y-32787D02*
X63292Y-32899D01*
X63011Y-32984D02*
X63039Y-32970D01*
X63053Y-32955D01*
X63067Y-32927D01*
X63067Y-32843D01*
X63053Y-32815D01*
X63039Y-32801D01*
X63011Y-32787D01*
X62968Y-32787D01*
X62940Y-32801D01*
X62926Y-32815D01*
X62912Y-32843D01*
X62912Y-32927D01*
X62926Y-32955D01*
X62940Y-32970D01*
X62968Y-32984D01*
X63011Y-32984D01*
X62659Y-32787D02*
X62659Y-32984D01*
X62786Y-32787D02*
X62786Y-32941D01*
X62771Y-32970D01*
X62743Y-32984D01*
X62701Y-32984D01*
X62673Y-32970D01*
X62659Y-32955D01*
X62561Y-32787D02*
X62448Y-32787D01*
X62518Y-32688D02*
X62518Y-32941D01*
X62504Y-32970D01*
X62476Y-32984D01*
X62448Y-32984D01*
X64121Y-33251D02*
X64051Y-33448D01*
X63981Y-33251D01*
X63812Y-33153D02*
X63784Y-33153D01*
X63756Y-33167D01*
X63742Y-33181D01*
X63728Y-33209D01*
X63714Y-33265D01*
X63714Y-33336D01*
X63728Y-33392D01*
X63742Y-33420D01*
X63756Y-33434D01*
X63784Y-33448D01*
X63812Y-33448D01*
X63840Y-33434D01*
X63854Y-33420D01*
X63868Y-33392D01*
X63882Y-33336D01*
X63882Y-33265D01*
X63868Y-33209D01*
X63854Y-33181D01*
X63840Y-33167D01*
X63812Y-33153D01*
X63587Y-33420D02*
X63573Y-33434D01*
X63587Y-33448D01*
X63601Y-33434D01*
X63587Y-33420D01*
X63587Y-33448D01*
X63292Y-33448D02*
X63460Y-33448D01*
X63376Y-33448D02*
X63376Y-33153D01*
X63404Y-33195D01*
X63432Y-33223D01*
X63460Y-33237D01*
G54D12*
X57400Y-34475D03*
X57400Y-35075D03*
X58050Y-35075D03*
X58050Y-34475D03*
X58925Y-34475D03*
X58925Y-35075D03*
X59600Y-34475D03*
X59600Y-35075D03*
X64000Y-35075D03*
X64000Y-34475D03*
X64650Y-35075D03*
X64650Y-34475D03*
G54D10*
G36*
X61873Y-35575D02*
X61775Y-35024D01*
X62424Y-35024D01*
X62326Y-35575D01*
X61873Y-35575D01*
X61873Y-35575D01*
G37*
G36*
X61775Y-35075D02*
X61873Y-34524D01*
X62326Y-34524D01*
X62424Y-35075D01*
X61775Y-35075D01*
X61775Y-35075D01*
G37*
G54D13*
X57500Y-37750D03*
G54D14*
X57500Y-36750D03*
X58500Y-37750D03*
X58500Y-36750D03*
X59500Y-37750D03*
X59500Y-36750D03*
X60500Y-37750D03*
X60500Y-36750D03*
X61500Y-37750D03*
X61500Y-36750D03*
X62500Y-37750D03*
X62500Y-36750D03*
X63500Y-37750D03*
X63500Y-36750D03*
X64500Y-37750D03*
X64500Y-36750D03*
M02*
