G04 (created by PCBNEW (2013-07-07 BZR 4022)-stable) date 5/22/2014 8:04:03 PM*
%MOIN*%
G04 Gerber Fmt 3.4, Leading zero omitted, Abs format*
%FSLAX34Y34*%
G01*
G70*
G90*
G04 APERTURE LIST*
%ADD10C,0.00590551*%
%ADD11R,0.040748X0.060748*%
%ADD12R,0.060748X0.040748*%
%ADD13C,0.0846457*%
%ADD14R,0.035748X0.045748*%
%ADD15R,0.031448X0.039348*%
%ADD16R,0.039348X0.031448*%
%ADD17R,0.0255906X0.0748031*%
%ADD18R,0.0748031X0.0255906*%
%ADD19R,0.0629921X0.0629921*%
%ADD20C,0.023622*%
%ADD21C,0.0688976*%
%ADD22C,0.133858*%
%ADD23C,0.0826772*%
%ADD24C,0.114173*%
G04 APERTURE END LIST*
G54D10*
G54D11*
X83290Y-55740D03*
X82690Y-55740D03*
G54D12*
X81900Y-55150D03*
X81900Y-55750D03*
G54D13*
X80800Y-61500D03*
X81800Y-61500D03*
X82800Y-61500D03*
G54D14*
X75775Y-59600D03*
X75025Y-59600D03*
X75775Y-58600D03*
X75400Y-59600D03*
X75025Y-58600D03*
G54D15*
X77527Y-55950D03*
X77173Y-55950D03*
X75077Y-55950D03*
X74723Y-55950D03*
X80773Y-55900D03*
X81127Y-55900D03*
X77023Y-60400D03*
X77377Y-60400D03*
X75877Y-55950D03*
X75523Y-55950D03*
X76323Y-55950D03*
X76677Y-55950D03*
X76323Y-58600D03*
X76677Y-58600D03*
X74477Y-59600D03*
X74123Y-59600D03*
G54D16*
X77800Y-60823D03*
X77800Y-61177D03*
G54D17*
X78903Y-60384D03*
X79100Y-60384D03*
X78706Y-60384D03*
X78509Y-60384D03*
G54D18*
X79533Y-59754D03*
X79533Y-59951D03*
X79533Y-59558D03*
X79533Y-59361D03*
X78076Y-59754D03*
X78076Y-59951D03*
X78076Y-59558D03*
X78076Y-59361D03*
G54D17*
X78509Y-58928D03*
X78706Y-58928D03*
X78903Y-58928D03*
X79100Y-58928D03*
G54D19*
X78804Y-59656D03*
G54D20*
X79040Y-59420D03*
G54D21*
X85500Y-59193D03*
X85500Y-58406D03*
X85500Y-60177D03*
X85500Y-57422D03*
G54D22*
X86566Y-61386D03*
X86566Y-56213D03*
G54D23*
X70900Y-57914D03*
X70900Y-59685D03*
G54D24*
X70900Y-56595D03*
X70900Y-61004D03*
M02*
