G04 (created by PCBNEW (2013-07-07 BZR 4022)-stable) date 1/14/2014 13:09:40*
%MOIN*%
G04 Gerber Fmt 3.4, Leading zero omitted, Abs format*
%FSLAX34Y34*%
G01*
G70*
G90*
G04 APERTURE LIST*
%ADD10C,0.00590551*%
%ADD11C,0.005*%
%ADD12C,0.0045*%
%ADD13C,0.00511811*%
G04 APERTURE END LIST*
G54D10*
G54D11*
X57150Y-34325D02*
X57150Y-35225D01*
X57150Y-35225D02*
X57650Y-35225D01*
X57650Y-35225D02*
X57650Y-34325D01*
X57650Y-34325D02*
X57150Y-34325D01*
X58300Y-35225D02*
X58300Y-34325D01*
X58300Y-34325D02*
X57800Y-34325D01*
X57800Y-34325D02*
X57800Y-35225D01*
X57800Y-35225D02*
X58300Y-35225D01*
X58675Y-34325D02*
X58675Y-35225D01*
X58675Y-35225D02*
X59175Y-35225D01*
X59175Y-35225D02*
X59175Y-34325D01*
X59175Y-34325D02*
X58675Y-34325D01*
X59350Y-34325D02*
X59350Y-35225D01*
X59350Y-35225D02*
X59850Y-35225D01*
X59850Y-35225D02*
X59850Y-34325D01*
X59850Y-34325D02*
X59350Y-34325D01*
X64250Y-35225D02*
X64250Y-34325D01*
X64250Y-34325D02*
X63750Y-34325D01*
X63750Y-34325D02*
X63750Y-35225D01*
X63750Y-35225D02*
X64250Y-35225D01*
X64900Y-35225D02*
X64900Y-34325D01*
X64900Y-34325D02*
X64400Y-34325D01*
X64400Y-34325D02*
X64400Y-35225D01*
X64400Y-35225D02*
X64900Y-35225D01*
X61875Y-33600D02*
X62775Y-33600D01*
X62775Y-33600D02*
X62775Y-33100D01*
X62775Y-33100D02*
X61875Y-33100D01*
X61875Y-33100D02*
X61875Y-33600D01*
G54D12*
X57461Y-34745D02*
X57471Y-34736D01*
X57480Y-34710D01*
X57480Y-34693D01*
X57471Y-34667D01*
X57452Y-34650D01*
X57433Y-34642D01*
X57395Y-34633D01*
X57366Y-34633D01*
X57328Y-34642D01*
X57309Y-34650D01*
X57290Y-34667D01*
X57280Y-34693D01*
X57280Y-34710D01*
X57290Y-34736D01*
X57300Y-34745D01*
X57300Y-34813D02*
X57290Y-34822D01*
X57280Y-34839D01*
X57280Y-34882D01*
X57290Y-34899D01*
X57300Y-34907D01*
X57319Y-34916D01*
X57338Y-34916D01*
X57366Y-34907D01*
X57480Y-34805D01*
X57480Y-34916D01*
X58111Y-34745D02*
X58121Y-34736D01*
X58130Y-34710D01*
X58130Y-34693D01*
X58121Y-34667D01*
X58102Y-34650D01*
X58083Y-34642D01*
X58045Y-34633D01*
X58016Y-34633D01*
X57978Y-34642D01*
X57959Y-34650D01*
X57940Y-34667D01*
X57930Y-34693D01*
X57930Y-34710D01*
X57940Y-34736D01*
X57950Y-34745D01*
X57930Y-34805D02*
X57930Y-34916D01*
X58007Y-34856D01*
X58007Y-34882D01*
X58016Y-34899D01*
X58026Y-34907D01*
X58045Y-34916D01*
X58092Y-34916D01*
X58111Y-34907D01*
X58121Y-34899D01*
X58130Y-34882D01*
X58130Y-34830D01*
X58121Y-34813D01*
X58111Y-34805D01*
X58986Y-34745D02*
X58996Y-34736D01*
X59005Y-34710D01*
X59005Y-34693D01*
X58996Y-34667D01*
X58977Y-34650D01*
X58958Y-34642D01*
X58920Y-34633D01*
X58891Y-34633D01*
X58853Y-34642D01*
X58834Y-34650D01*
X58815Y-34667D01*
X58805Y-34693D01*
X58805Y-34710D01*
X58815Y-34736D01*
X58825Y-34745D01*
X58872Y-34899D02*
X59005Y-34899D01*
X58796Y-34856D02*
X58939Y-34813D01*
X58939Y-34925D01*
X59661Y-34745D02*
X59671Y-34736D01*
X59680Y-34710D01*
X59680Y-34693D01*
X59671Y-34667D01*
X59652Y-34650D01*
X59633Y-34642D01*
X59595Y-34633D01*
X59566Y-34633D01*
X59528Y-34642D01*
X59509Y-34650D01*
X59490Y-34667D01*
X59480Y-34693D01*
X59480Y-34710D01*
X59490Y-34736D01*
X59500Y-34745D01*
X59480Y-34907D02*
X59480Y-34822D01*
X59576Y-34813D01*
X59566Y-34822D01*
X59557Y-34839D01*
X59557Y-34882D01*
X59566Y-34899D01*
X59576Y-34907D01*
X59595Y-34916D01*
X59642Y-34916D01*
X59661Y-34907D01*
X59671Y-34899D01*
X59680Y-34882D01*
X59680Y-34839D01*
X59671Y-34822D01*
X59661Y-34813D01*
X64061Y-34745D02*
X64071Y-34736D01*
X64080Y-34710D01*
X64080Y-34693D01*
X64071Y-34667D01*
X64052Y-34650D01*
X64033Y-34642D01*
X63995Y-34633D01*
X63966Y-34633D01*
X63928Y-34642D01*
X63909Y-34650D01*
X63890Y-34667D01*
X63880Y-34693D01*
X63880Y-34710D01*
X63890Y-34736D01*
X63900Y-34745D01*
X64080Y-34916D02*
X64080Y-34813D01*
X64080Y-34865D02*
X63880Y-34865D01*
X63909Y-34847D01*
X63928Y-34830D01*
X63938Y-34813D01*
X64711Y-34745D02*
X64721Y-34736D01*
X64730Y-34710D01*
X64730Y-34693D01*
X64721Y-34667D01*
X64702Y-34650D01*
X64683Y-34642D01*
X64645Y-34633D01*
X64616Y-34633D01*
X64578Y-34642D01*
X64559Y-34650D01*
X64540Y-34667D01*
X64530Y-34693D01*
X64530Y-34710D01*
X64540Y-34736D01*
X64550Y-34745D01*
X64530Y-34899D02*
X64530Y-34865D01*
X64540Y-34847D01*
X64550Y-34839D01*
X64578Y-34822D01*
X64616Y-34813D01*
X64692Y-34813D01*
X64711Y-34822D01*
X64721Y-34830D01*
X64730Y-34847D01*
X64730Y-34882D01*
X64721Y-34899D01*
X64711Y-34907D01*
X64692Y-34916D01*
X64645Y-34916D01*
X64626Y-34907D01*
X64616Y-34899D01*
X64607Y-34882D01*
X64607Y-34847D01*
X64616Y-34830D01*
X64626Y-34822D01*
X64645Y-34813D01*
G54D13*
X62346Y-35674D02*
X62346Y-35885D01*
X62360Y-35927D01*
X62388Y-35955D01*
X62430Y-35969D01*
X62458Y-35969D01*
X62205Y-35969D02*
X62205Y-35674D01*
X62092Y-35674D01*
X62064Y-35688D01*
X62050Y-35702D01*
X62036Y-35730D01*
X62036Y-35772D01*
X62050Y-35800D01*
X62064Y-35814D01*
X62092Y-35828D01*
X62205Y-35828D01*
X61938Y-35674D02*
X61741Y-35674D01*
X61867Y-35969D01*
G54D12*
X62355Y-33430D02*
X62415Y-33335D01*
X62457Y-33430D02*
X62457Y-33230D01*
X62389Y-33230D01*
X62372Y-33240D01*
X62363Y-33250D01*
X62355Y-33269D01*
X62355Y-33297D01*
X62363Y-33316D01*
X62372Y-33326D01*
X62389Y-33335D01*
X62457Y-33335D01*
X62183Y-33430D02*
X62286Y-33430D01*
X62235Y-33430D02*
X62235Y-33230D01*
X62252Y-33259D01*
X62269Y-33278D01*
X62286Y-33288D01*
M02*
