G04 (created by PCBNEW (2013-07-07 BZR 4022)-stable) date 3/26/2014 9:49:48 PM*
%MOIN*%
G04 Gerber Fmt 3.4, Leading zero omitted, Abs format*
%FSLAX34Y34*%
G01*
G70*
G90*
G04 APERTURE LIST*
%ADD10C,0.00590551*%
%ADD11C,0.00472441*%
%ADD12R,0.0177165X0.0393701*%
%ADD13R,0.025X0.045*%
%ADD14C,0.0669291*%
%ADD15C,0.0984252*%
%ADD16R,0.0767717X0.0401575*%
%ADD17R,0.0629921X0.0551181*%
%ADD18C,0.0688976*%
%ADD19O,0.0177165X0.137795*%
%ADD20R,0.0177165X0.137795*%
%ADD21R,0.0433071X0.0688976*%
%ADD22C,0.0531496*%
%ADD23C,0.11811*%
%ADD24O,0.0688976X0.0299213*%
%ADD25R,0.0688976X0.0299213*%
%ADD26R,0.0472441X0.0472441*%
%ADD27C,0.00787402*%
%ADD28R,0.0157X0.0236*%
%ADD29R,0.0236X0.0157*%
%ADD30C,0.02*%
%ADD31C,0.035*%
%ADD32C,0.01*%
%ADD33C,0.019685*%
G04 APERTURE END LIST*
G54D10*
G54D11*
X70472Y-62439D02*
X70669Y-62439D01*
X70472Y-62566D02*
X70627Y-62566D01*
X70655Y-62552D01*
X70669Y-62524D01*
X70669Y-62482D01*
X70655Y-62453D01*
X70641Y-62439D01*
X70655Y-62313D02*
X70669Y-62285D01*
X70669Y-62228D01*
X70655Y-62200D01*
X70627Y-62186D01*
X70613Y-62186D01*
X70585Y-62200D01*
X70571Y-62228D01*
X70571Y-62271D01*
X70557Y-62299D01*
X70528Y-62313D01*
X70514Y-62313D01*
X70486Y-62299D01*
X70472Y-62271D01*
X70472Y-62228D01*
X70486Y-62200D01*
X70669Y-62060D02*
X70374Y-62060D01*
X70486Y-62060D02*
X70472Y-62032D01*
X70472Y-61975D01*
X70486Y-61947D01*
X70500Y-61933D01*
X70528Y-61919D01*
X70613Y-61919D01*
X70641Y-61933D01*
X70655Y-61947D01*
X70669Y-61975D01*
X70669Y-62032D01*
X70655Y-62060D01*
X70933Y-62559D02*
X71228Y-62559D01*
X70947Y-62559D02*
X70933Y-62531D01*
X70933Y-62474D01*
X70947Y-62446D01*
X70961Y-62432D01*
X70989Y-62418D01*
X71073Y-62418D01*
X71102Y-62432D01*
X71116Y-62446D01*
X71130Y-62474D01*
X71130Y-62531D01*
X71116Y-62559D01*
X70933Y-62320D02*
X71130Y-62264D01*
X70989Y-62207D01*
X71130Y-62151D01*
X70933Y-62095D01*
X71130Y-61982D02*
X70933Y-61982D01*
X70989Y-61982D02*
X70961Y-61968D01*
X70947Y-61954D01*
X70933Y-61926D01*
X70933Y-61898D01*
X71590Y-62643D02*
X71393Y-62643D01*
X71422Y-62643D02*
X71407Y-62629D01*
X71393Y-62601D01*
X71393Y-62559D01*
X71407Y-62531D01*
X71436Y-62517D01*
X71590Y-62517D01*
X71436Y-62517D02*
X71407Y-62503D01*
X71393Y-62474D01*
X71393Y-62432D01*
X71407Y-62404D01*
X71436Y-62390D01*
X71590Y-62390D01*
X71590Y-62207D02*
X71576Y-62235D01*
X71562Y-62250D01*
X71534Y-62264D01*
X71450Y-62264D01*
X71422Y-62250D01*
X71407Y-62235D01*
X71393Y-62207D01*
X71393Y-62165D01*
X71407Y-62137D01*
X71422Y-62123D01*
X71450Y-62109D01*
X71534Y-62109D01*
X71562Y-62123D01*
X71576Y-62137D01*
X71590Y-62165D01*
X71590Y-62207D01*
X71393Y-61982D02*
X71590Y-61982D01*
X71422Y-61982D02*
X71407Y-61968D01*
X71393Y-61940D01*
X71393Y-61898D01*
X71407Y-61870D01*
X71436Y-61856D01*
X71590Y-61856D01*
X70471Y-55072D02*
X70471Y-55311D01*
X70457Y-55339D01*
X70443Y-55353D01*
X70415Y-55367D01*
X70372Y-55367D01*
X70344Y-55353D01*
X70471Y-55255D02*
X70443Y-55269D01*
X70386Y-55269D01*
X70358Y-55255D01*
X70344Y-55241D01*
X70330Y-55213D01*
X70330Y-55128D01*
X70344Y-55100D01*
X70358Y-55086D01*
X70386Y-55072D01*
X70443Y-55072D01*
X70471Y-55086D01*
X70611Y-55269D02*
X70611Y-55072D01*
X70611Y-54974D02*
X70597Y-54988D01*
X70611Y-55002D01*
X70625Y-54988D01*
X70611Y-54974D01*
X70611Y-55002D01*
X70710Y-55072D02*
X70822Y-55072D01*
X70752Y-54974D02*
X70752Y-55227D01*
X70766Y-55255D01*
X70794Y-55269D01*
X70822Y-55269D01*
X70921Y-55241D02*
X70935Y-55255D01*
X70921Y-55269D01*
X70907Y-55255D01*
X70921Y-55241D01*
X70921Y-55269D01*
X71061Y-55269D02*
X71061Y-55072D01*
X71061Y-54974D02*
X71047Y-54988D01*
X71061Y-55002D01*
X71075Y-54988D01*
X71061Y-54974D01*
X71061Y-55002D01*
X71244Y-55269D02*
X71216Y-55255D01*
X71202Y-55241D01*
X71188Y-55213D01*
X71188Y-55128D01*
X71202Y-55100D01*
X71216Y-55086D01*
X71244Y-55072D01*
X71286Y-55072D01*
X71314Y-55086D01*
X71328Y-55100D01*
X71343Y-55128D01*
X71343Y-55213D01*
X71328Y-55241D01*
X71314Y-55255D01*
X71286Y-55269D01*
X71244Y-55269D01*
X71680Y-54960D02*
X71427Y-55339D01*
X71708Y-55297D02*
X71933Y-55297D01*
X72130Y-55255D02*
X72102Y-55269D01*
X72046Y-55269D01*
X72017Y-55255D01*
X72003Y-55241D01*
X71989Y-55213D01*
X71989Y-55128D01*
X72003Y-55100D01*
X72017Y-55086D01*
X72046Y-55072D01*
X72102Y-55072D01*
X72130Y-55086D01*
X72228Y-54974D02*
X72425Y-55269D01*
X72425Y-54974D02*
X72228Y-55269D01*
X72678Y-55269D02*
X72538Y-55269D01*
X72538Y-54974D01*
X72974Y-55297D02*
X72945Y-55283D01*
X72917Y-55255D01*
X72875Y-55213D01*
X72847Y-55199D01*
X72819Y-55199D01*
X72833Y-55269D02*
X72805Y-55255D01*
X72777Y-55227D01*
X72763Y-55171D01*
X72763Y-55072D01*
X72777Y-55016D01*
X72805Y-54988D01*
X72833Y-54974D01*
X72889Y-54974D01*
X72917Y-54988D01*
X72945Y-55016D01*
X72960Y-55072D01*
X72960Y-55171D01*
X72945Y-55227D01*
X72917Y-55255D01*
X72889Y-55269D01*
X72833Y-55269D01*
X73283Y-55297D02*
X73255Y-55283D01*
X73227Y-55255D01*
X73184Y-55213D01*
X73156Y-55199D01*
X73128Y-55199D01*
X73142Y-55269D02*
X73114Y-55255D01*
X73086Y-55227D01*
X73072Y-55171D01*
X73072Y-55072D01*
X73086Y-55016D01*
X73114Y-54988D01*
X73142Y-54974D01*
X73199Y-54974D01*
X73227Y-54988D01*
X73255Y-55016D01*
X73269Y-55072D01*
X73269Y-55171D01*
X73255Y-55227D01*
X73227Y-55255D01*
X73199Y-55269D01*
X73142Y-55269D01*
X71378Y-55533D02*
X71448Y-55730D01*
X71518Y-55533D01*
X71687Y-55434D02*
X71715Y-55434D01*
X71743Y-55448D01*
X71757Y-55462D01*
X71771Y-55491D01*
X71785Y-55547D01*
X71785Y-55617D01*
X71771Y-55673D01*
X71757Y-55702D01*
X71743Y-55716D01*
X71715Y-55730D01*
X71687Y-55730D01*
X71659Y-55716D01*
X71645Y-55702D01*
X71631Y-55673D01*
X71617Y-55617D01*
X71617Y-55547D01*
X71631Y-55491D01*
X71645Y-55462D01*
X71659Y-55448D01*
X71687Y-55434D01*
X71912Y-55702D02*
X71926Y-55716D01*
X71912Y-55730D01*
X71898Y-55716D01*
X71912Y-55702D01*
X71912Y-55730D01*
X72024Y-55434D02*
X72207Y-55434D01*
X72109Y-55547D01*
X72151Y-55547D01*
X72179Y-55561D01*
X72193Y-55575D01*
X72207Y-55603D01*
X72207Y-55673D01*
X72193Y-55702D01*
X72179Y-55716D01*
X72151Y-55730D01*
X72067Y-55730D01*
X72039Y-55716D01*
X72024Y-55702D01*
G54D12*
X74600Y-61076D03*
X74225Y-61076D03*
X73851Y-61076D03*
X73477Y-61076D03*
X73477Y-62100D03*
X73851Y-62100D03*
X74225Y-62100D03*
X74600Y-62100D03*
G54D13*
X77600Y-62600D03*
X78200Y-62600D03*
G54D14*
X70900Y-57914D03*
X70900Y-59685D03*
G54D15*
X70900Y-56595D03*
X70900Y-61004D03*
G54D16*
X72474Y-60177D03*
X72474Y-57422D03*
X72474Y-59193D03*
X72474Y-58406D03*
G54D17*
X80400Y-60600D03*
X80400Y-58828D03*
X77092Y-60600D03*
X77092Y-58828D03*
G54D18*
X80800Y-61500D03*
X81800Y-61500D03*
X82800Y-61500D03*
G54D19*
X74700Y-57200D03*
G54D20*
X74975Y-57200D03*
X75251Y-57200D03*
X75526Y-57200D03*
X75802Y-57200D03*
X76077Y-57200D03*
X76353Y-57200D03*
X76629Y-57200D03*
X76904Y-57200D03*
X77180Y-57200D03*
X77455Y-57200D03*
X77731Y-57200D03*
X78007Y-57200D03*
X78282Y-57200D03*
X78558Y-57200D03*
X78833Y-57200D03*
X79109Y-57200D03*
X79385Y-57200D03*
X79660Y-57200D03*
X79936Y-57200D03*
X80211Y-57200D03*
X80487Y-57200D03*
X80762Y-57200D03*
X81038Y-57200D03*
X81314Y-57200D03*
X81589Y-57200D03*
X81865Y-57200D03*
X82140Y-57200D03*
X82416Y-57200D03*
X82692Y-57200D03*
G54D21*
X75875Y-61058D03*
X75324Y-61058D03*
X75875Y-62141D03*
X75324Y-62141D03*
G54D22*
X85500Y-59193D03*
X85500Y-58406D03*
X85500Y-60177D03*
X85500Y-57422D03*
G54D23*
X86566Y-61386D03*
X86566Y-56213D03*
G54D24*
X83656Y-60684D03*
G54D25*
X81943Y-60684D03*
X83656Y-60184D03*
X81943Y-60184D03*
X83656Y-59684D03*
X81943Y-59684D03*
X83656Y-59184D03*
X81943Y-59184D03*
X83656Y-58684D03*
X81943Y-58684D03*
G54D26*
X78804Y-59631D03*
G54D27*
X79040Y-59395D03*
G54D28*
X78973Y-62600D03*
X79327Y-62600D03*
G54D29*
X72700Y-61777D03*
X72700Y-61423D03*
G54D28*
X72343Y-60910D03*
X72697Y-60910D03*
G54D29*
X72700Y-62223D03*
X72700Y-62577D03*
G54D28*
X73877Y-62700D03*
X73523Y-62700D03*
X81397Y-58230D03*
X81043Y-58230D03*
G54D30*
X73100Y-62550D03*
X76080Y-58210D03*
X75400Y-58600D03*
X74250Y-62550D03*
X74750Y-60000D03*
X76900Y-56300D03*
X83050Y-60650D03*
X73100Y-61000D03*
X74150Y-61600D03*
X74750Y-61600D03*
X78950Y-58100D03*
X77150Y-61850D03*
X77150Y-62600D03*
X76550Y-60150D03*
X75850Y-56300D03*
X75250Y-56300D03*
X75550Y-56300D03*
X81550Y-56300D03*
X74850Y-56300D03*
X82350Y-56100D03*
X81900Y-56150D03*
X81235Y-59335D03*
X77490Y-59990D03*
X77290Y-59760D03*
X79650Y-58230D03*
X79150Y-58400D03*
X77470Y-59530D03*
X78000Y-58200D03*
X78300Y-56250D03*
X80200Y-58200D03*
X79850Y-60200D03*
X81380Y-60190D03*
X80940Y-59300D03*
X77650Y-58200D03*
G54D31*
X76100Y-60100D03*
G54D32*
X73073Y-62577D02*
X72700Y-62577D01*
X73100Y-62550D02*
X73073Y-62577D01*
G54D33*
X76080Y-58210D02*
X76730Y-58210D01*
X76904Y-58035D02*
X76904Y-57200D01*
X76730Y-58210D02*
X76904Y-58035D01*
X76077Y-57200D02*
X76080Y-57202D01*
X76080Y-57202D02*
X76080Y-58210D01*
G54D32*
X75400Y-59350D02*
X75400Y-58600D01*
X74225Y-62525D02*
X74250Y-62550D01*
X74225Y-62100D02*
X74225Y-62525D01*
X74750Y-60000D02*
X75400Y-59350D01*
X76900Y-56300D02*
X76904Y-56304D01*
X76904Y-56304D02*
X76904Y-57200D01*
X83084Y-60684D02*
X83656Y-60684D01*
X83050Y-60650D02*
X83084Y-60684D01*
X74150Y-61600D02*
X74750Y-61600D01*
X72697Y-60910D02*
X73010Y-60910D01*
X73010Y-60910D02*
X73100Y-61000D01*
X73176Y-61076D02*
X73100Y-61000D01*
X73176Y-61076D02*
X73477Y-61076D01*
X78950Y-58100D02*
X78833Y-57983D01*
X78833Y-57983D02*
X78833Y-57200D01*
X79109Y-57940D02*
X79109Y-57200D01*
X78950Y-58100D02*
X79109Y-57940D01*
X72700Y-61777D02*
X73023Y-61777D01*
X73851Y-61548D02*
X73851Y-61076D01*
X73800Y-61600D02*
X73851Y-61548D01*
X73200Y-61600D02*
X73800Y-61600D01*
X73023Y-61777D02*
X73200Y-61600D01*
X72700Y-61777D02*
X72700Y-62223D01*
X76450Y-60750D02*
X76450Y-61150D01*
X76450Y-61150D02*
X77150Y-61850D01*
X77150Y-62600D02*
X77600Y-62600D01*
X76450Y-60250D02*
X76450Y-60750D01*
X76550Y-60150D02*
X76450Y-60250D01*
X73477Y-62100D02*
X73477Y-62654D01*
X73477Y-62654D02*
X73523Y-62700D01*
X73851Y-62100D02*
X73851Y-62674D01*
X73851Y-62674D02*
X73877Y-62700D01*
G54D33*
X83469Y-62141D02*
X84258Y-62141D01*
X75875Y-62141D02*
X82269Y-62141D01*
X83469Y-62141D02*
X82269Y-62141D01*
X85500Y-60900D02*
X85500Y-60177D01*
X84258Y-62141D02*
X85500Y-60900D01*
X74600Y-62100D02*
X75283Y-62100D01*
X75283Y-62100D02*
X75324Y-62141D01*
G54D32*
X75802Y-56347D02*
X75802Y-57200D01*
X75850Y-56300D02*
X75802Y-56347D01*
X75251Y-56301D02*
X75251Y-57200D01*
X75250Y-56300D02*
X75251Y-56301D01*
X75526Y-57200D02*
X75526Y-56323D01*
X75526Y-56323D02*
X75550Y-56300D01*
X81589Y-56339D02*
X81589Y-57200D01*
X81550Y-56300D02*
X81589Y-56339D01*
X74975Y-57200D02*
X74975Y-56425D01*
X74975Y-56425D02*
X74850Y-56300D01*
X82140Y-56309D02*
X82140Y-57200D01*
X82350Y-56100D02*
X82140Y-56309D01*
X81865Y-57200D02*
X81865Y-56184D01*
X81865Y-56184D02*
X81900Y-56150D01*
X78200Y-62600D02*
X78973Y-62600D01*
X81943Y-58684D02*
X81851Y-58684D01*
X81851Y-58684D02*
X81397Y-58230D01*
X81370Y-58690D02*
X81370Y-59200D01*
X81370Y-59200D02*
X81235Y-59335D01*
X81375Y-58684D02*
X81943Y-58684D01*
X81370Y-58690D02*
X81375Y-58684D01*
X78030Y-59550D02*
X78930Y-58650D01*
X79385Y-58184D02*
X79385Y-57200D01*
X79385Y-58464D02*
X79385Y-58184D01*
X79200Y-58650D02*
X79385Y-58464D01*
X78930Y-58650D02*
X79200Y-58650D01*
X78030Y-59860D02*
X78030Y-59550D01*
X78030Y-59550D02*
X78030Y-59540D01*
X77900Y-59990D02*
X78030Y-59860D01*
X77490Y-59990D02*
X77900Y-59990D01*
X77740Y-59420D02*
X78760Y-58400D01*
X77290Y-59760D02*
X77620Y-59760D01*
X77620Y-59760D02*
X77740Y-59760D01*
X77740Y-59760D02*
X77740Y-59560D01*
X77740Y-59560D02*
X77740Y-59420D01*
X79650Y-58230D02*
X79650Y-57210D01*
X79660Y-57200D02*
X79650Y-57210D01*
X78760Y-58400D02*
X79150Y-58400D01*
X78558Y-57200D02*
X78558Y-58191D01*
X77470Y-59280D02*
X78550Y-58200D01*
X77470Y-59530D02*
X77470Y-59280D01*
X78550Y-58200D02*
X78558Y-58191D01*
X78000Y-58190D02*
X78000Y-58200D01*
X78000Y-57207D02*
X78007Y-57200D01*
X78000Y-58190D02*
X78000Y-57207D01*
X78282Y-56267D02*
X78282Y-57200D01*
X78300Y-56250D02*
X78282Y-56267D01*
X80000Y-58200D02*
X80200Y-58200D01*
X79550Y-58650D02*
X80000Y-58200D01*
X79550Y-59900D02*
X79550Y-58650D01*
X79850Y-60200D02*
X79550Y-59900D01*
X81385Y-60184D02*
X81943Y-60184D01*
X81380Y-60190D02*
X81385Y-60184D01*
X81294Y-60684D02*
X81943Y-60684D01*
X80940Y-60330D02*
X81294Y-60684D01*
X80940Y-59300D02*
X80940Y-60330D01*
X77092Y-58757D02*
X77092Y-58828D01*
X77650Y-58200D02*
X77092Y-58757D01*
X72474Y-58406D02*
X73500Y-57381D01*
X84900Y-57806D02*
X85500Y-58406D01*
X84900Y-56550D02*
X84900Y-57806D01*
X83450Y-55100D02*
X84900Y-56550D01*
X74300Y-55100D02*
X83450Y-55100D01*
X73500Y-55900D02*
X74300Y-55100D01*
X73500Y-57381D02*
X73500Y-55900D01*
X72474Y-59193D02*
X73106Y-59193D01*
X84500Y-58193D02*
X85500Y-59193D01*
X84500Y-56750D02*
X84500Y-58193D01*
X83250Y-55500D02*
X84500Y-56750D01*
X74550Y-55500D02*
X83250Y-55500D01*
X74000Y-56050D02*
X74550Y-55500D01*
X74000Y-58300D02*
X74000Y-56050D01*
X73106Y-59193D02*
X74000Y-58300D01*
G54D33*
X76100Y-60100D02*
X75750Y-60450D01*
X75875Y-61058D02*
X75875Y-60575D01*
X75875Y-60575D02*
X75750Y-60450D01*
X75750Y-60450D02*
X75600Y-60300D01*
X74600Y-61076D02*
X75306Y-61076D01*
X75306Y-61076D02*
X75324Y-61058D01*
X73300Y-60300D02*
X75600Y-60300D01*
X72696Y-60300D02*
X73300Y-60300D01*
X72474Y-60177D02*
X72696Y-60300D01*
G54D10*
G36*
X87420Y-62425D02*
X87311Y-62534D01*
X87311Y-61513D01*
X87311Y-56340D01*
X87303Y-56046D01*
X87205Y-55810D01*
X87108Y-55742D01*
X87037Y-55813D01*
X87037Y-55671D01*
X86969Y-55574D01*
X86694Y-55469D01*
X86399Y-55477D01*
X86164Y-55574D01*
X86096Y-55671D01*
X86566Y-56142D01*
X87037Y-55671D01*
X87037Y-55813D01*
X86637Y-56213D01*
X87108Y-56684D01*
X87205Y-56615D01*
X87311Y-56340D01*
X87311Y-61513D01*
X87303Y-61219D01*
X87205Y-60984D01*
X87108Y-60915D01*
X87037Y-60986D01*
X87037Y-60845D01*
X87037Y-56754D01*
X86566Y-56284D01*
X86496Y-56354D01*
X86496Y-56213D01*
X86025Y-55742D01*
X85928Y-55810D01*
X85822Y-56086D01*
X85830Y-56380D01*
X85928Y-56615D01*
X86025Y-56684D01*
X86496Y-56213D01*
X86496Y-56354D01*
X86096Y-56754D01*
X86164Y-56852D01*
X86439Y-56957D01*
X86734Y-56949D01*
X86969Y-56852D01*
X87037Y-56754D01*
X87037Y-60845D01*
X86969Y-60747D01*
X86694Y-60642D01*
X86399Y-60650D01*
X86164Y-60747D01*
X86096Y-60845D01*
X86566Y-61315D01*
X87037Y-60845D01*
X87037Y-60986D01*
X86637Y-61386D01*
X87108Y-61857D01*
X87205Y-61789D01*
X87311Y-61513D01*
X87311Y-62534D01*
X87037Y-62808D01*
X87037Y-61928D01*
X86566Y-61457D01*
X86496Y-61528D01*
X86496Y-61386D01*
X86025Y-60915D01*
X85928Y-60984D01*
X85920Y-61002D01*
X85920Y-57471D01*
X85907Y-57306D01*
X85869Y-57215D01*
X85806Y-57186D01*
X85735Y-57257D01*
X85735Y-57115D01*
X85706Y-57052D01*
X85549Y-57001D01*
X85384Y-57014D01*
X85293Y-57052D01*
X85264Y-57115D01*
X85500Y-57351D01*
X85735Y-57115D01*
X85735Y-57257D01*
X85570Y-57422D01*
X85806Y-57657D01*
X85869Y-57629D01*
X85920Y-57471D01*
X85920Y-61002D01*
X85822Y-61259D01*
X85830Y-61553D01*
X85928Y-61789D01*
X86025Y-61857D01*
X86496Y-61386D01*
X86496Y-61528D01*
X86096Y-61928D01*
X86164Y-62025D01*
X86439Y-62130D01*
X86734Y-62122D01*
X86969Y-62025D01*
X87037Y-61928D01*
X87037Y-62808D01*
X86925Y-62920D01*
X79555Y-62920D01*
X79555Y-62688D01*
X79555Y-62687D01*
X79518Y-62650D01*
X79366Y-62650D01*
X79366Y-62830D01*
X79403Y-62868D01*
X79435Y-62868D01*
X79490Y-62845D01*
X79532Y-62803D01*
X79555Y-62747D01*
X79555Y-62688D01*
X79555Y-62920D01*
X78441Y-62920D01*
X78452Y-62910D01*
X78474Y-62854D01*
X78475Y-62800D01*
X78766Y-62800D01*
X78767Y-62802D01*
X78809Y-62845D01*
X78864Y-62867D01*
X78924Y-62868D01*
X79081Y-62868D01*
X79136Y-62845D01*
X79150Y-62831D01*
X79163Y-62845D01*
X79218Y-62868D01*
X79250Y-62868D01*
X79287Y-62830D01*
X79287Y-62650D01*
X79269Y-62650D01*
X79269Y-62550D01*
X79287Y-62550D01*
X79287Y-62542D01*
X79366Y-62542D01*
X79366Y-62550D01*
X79518Y-62550D01*
X79555Y-62512D01*
X79555Y-62511D01*
X79555Y-62452D01*
X79532Y-62396D01*
X79525Y-62389D01*
X82269Y-62389D01*
X83469Y-62389D01*
X84258Y-62389D01*
X84258Y-62389D01*
X84353Y-62370D01*
X84434Y-62317D01*
X85675Y-61075D01*
X85675Y-61075D01*
X85729Y-60995D01*
X85729Y-60995D01*
X85732Y-60979D01*
X85748Y-60900D01*
X85748Y-60900D01*
X85748Y-60517D01*
X85852Y-60413D01*
X85915Y-60261D01*
X85915Y-60095D01*
X85852Y-59942D01*
X85735Y-59825D01*
X85583Y-59762D01*
X85417Y-59762D01*
X85264Y-59825D01*
X85147Y-59942D01*
X85084Y-60094D01*
X85084Y-60260D01*
X85147Y-60413D01*
X85251Y-60517D01*
X85251Y-60797D01*
X84160Y-61888D01*
X84160Y-60684D01*
X84137Y-60569D01*
X84072Y-60472D01*
X84067Y-60468D01*
X84085Y-60460D01*
X84128Y-60418D01*
X84150Y-60363D01*
X84150Y-60004D01*
X84128Y-59949D01*
X84112Y-59934D01*
X84128Y-59918D01*
X84150Y-59863D01*
X84150Y-59504D01*
X84128Y-59449D01*
X84112Y-59434D01*
X84127Y-59418D01*
X84150Y-59363D01*
X84150Y-59304D01*
X84150Y-59004D01*
X84128Y-58949D01*
X84112Y-58934D01*
X84128Y-58918D01*
X84150Y-58863D01*
X84150Y-58504D01*
X84128Y-58449D01*
X84085Y-58407D01*
X84030Y-58384D01*
X83971Y-58384D01*
X83743Y-58384D01*
X83706Y-58422D01*
X83706Y-58634D01*
X84113Y-58634D01*
X84150Y-58596D01*
X84150Y-58504D01*
X84150Y-58863D01*
X84150Y-58771D01*
X84113Y-58734D01*
X83706Y-58734D01*
X83706Y-58742D01*
X83606Y-58742D01*
X83606Y-58734D01*
X83606Y-58634D01*
X83606Y-58422D01*
X83568Y-58384D01*
X83341Y-58384D01*
X83281Y-58384D01*
X83226Y-58407D01*
X83184Y-58449D01*
X83161Y-58504D01*
X83161Y-58596D01*
X83199Y-58634D01*
X83606Y-58634D01*
X83606Y-58734D01*
X83199Y-58734D01*
X83161Y-58771D01*
X83161Y-58863D01*
X83184Y-58918D01*
X83200Y-58934D01*
X83184Y-58949D01*
X83161Y-59004D01*
X83161Y-59064D01*
X83161Y-59363D01*
X83184Y-59418D01*
X83200Y-59434D01*
X83184Y-59449D01*
X83161Y-59504D01*
X83161Y-59596D01*
X83199Y-59634D01*
X83606Y-59634D01*
X83606Y-59626D01*
X83706Y-59626D01*
X83706Y-59634D01*
X84113Y-59634D01*
X84150Y-59596D01*
X84150Y-59504D01*
X84150Y-59863D01*
X84150Y-59771D01*
X84113Y-59734D01*
X83706Y-59734D01*
X83706Y-59922D01*
X83706Y-59946D01*
X83706Y-60134D01*
X84113Y-60134D01*
X84150Y-60096D01*
X84150Y-60004D01*
X84150Y-60363D01*
X84150Y-60271D01*
X84113Y-60234D01*
X83706Y-60234D01*
X83706Y-60242D01*
X83606Y-60242D01*
X83606Y-60234D01*
X83606Y-60134D01*
X83606Y-59946D01*
X83606Y-59922D01*
X83606Y-59734D01*
X83199Y-59734D01*
X83161Y-59771D01*
X83161Y-59863D01*
X83184Y-59918D01*
X83200Y-59934D01*
X83184Y-59949D01*
X83161Y-60004D01*
X83161Y-60096D01*
X83199Y-60134D01*
X83606Y-60134D01*
X83606Y-60234D01*
X83199Y-60234D01*
X83161Y-60271D01*
X83161Y-60363D01*
X83184Y-60418D01*
X83226Y-60460D01*
X83245Y-60468D01*
X83239Y-60472D01*
X83234Y-60480D01*
X83191Y-60438D01*
X83099Y-60400D01*
X83000Y-60399D01*
X82930Y-60428D01*
X82930Y-57859D01*
X82930Y-56540D01*
X82930Y-56481D01*
X82907Y-56425D01*
X82865Y-56383D01*
X82810Y-56360D01*
X82773Y-56361D01*
X82736Y-56398D01*
X82736Y-57150D01*
X82893Y-57150D01*
X82930Y-57112D01*
X82930Y-56540D01*
X82930Y-57859D01*
X82930Y-57287D01*
X82893Y-57250D01*
X82736Y-57250D01*
X82736Y-58001D01*
X82773Y-58038D01*
X82810Y-58039D01*
X82865Y-58016D01*
X82907Y-57974D01*
X82930Y-57918D01*
X82930Y-57859D01*
X82930Y-60428D01*
X82908Y-60437D01*
X82838Y-60508D01*
X82800Y-60600D01*
X82799Y-60699D01*
X82837Y-60791D01*
X82908Y-60861D01*
X83000Y-60899D01*
X83099Y-60900D01*
X83137Y-60884D01*
X83231Y-60884D01*
X83239Y-60896D01*
X83337Y-60961D01*
X83451Y-60983D01*
X83860Y-60983D01*
X83975Y-60961D01*
X84072Y-60896D01*
X84137Y-60798D01*
X84160Y-60684D01*
X84160Y-61888D01*
X84155Y-61892D01*
X83469Y-61892D01*
X83299Y-61892D01*
X83299Y-61568D01*
X83287Y-61372D01*
X83235Y-61245D01*
X83163Y-61207D01*
X83092Y-61277D01*
X83092Y-61136D01*
X83054Y-61064D01*
X82868Y-61000D01*
X82672Y-61012D01*
X82655Y-61019D01*
X82655Y-57859D01*
X82655Y-56540D01*
X82655Y-56481D01*
X82647Y-56463D01*
X82647Y-56398D01*
X82610Y-56361D01*
X82600Y-56361D01*
X82600Y-56050D01*
X82562Y-55958D01*
X82491Y-55888D01*
X82399Y-55850D01*
X82300Y-55849D01*
X82208Y-55887D01*
X82138Y-55958D01*
X82114Y-56014D01*
X82112Y-56008D01*
X82041Y-55938D01*
X81949Y-55900D01*
X81850Y-55899D01*
X81758Y-55937D01*
X81688Y-56008D01*
X81660Y-56075D01*
X81599Y-56050D01*
X81500Y-56049D01*
X81408Y-56087D01*
X81338Y-56158D01*
X81300Y-56250D01*
X81299Y-56349D01*
X81304Y-56361D01*
X81264Y-56361D01*
X81264Y-56392D01*
X81232Y-56361D01*
X81195Y-56360D01*
X81176Y-56369D01*
X81156Y-56360D01*
X81120Y-56361D01*
X81082Y-56398D01*
X81082Y-56463D01*
X81075Y-56481D01*
X81075Y-56540D01*
X81075Y-57112D01*
X81082Y-57119D01*
X81082Y-57150D01*
X81113Y-57150D01*
X81239Y-57150D01*
X81269Y-57150D01*
X81269Y-57142D01*
X81277Y-57142D01*
X81351Y-57142D01*
X81351Y-57257D01*
X81277Y-57257D01*
X81269Y-57257D01*
X81269Y-57250D01*
X81239Y-57250D01*
X81113Y-57250D01*
X81082Y-57250D01*
X81082Y-57280D01*
X81075Y-57287D01*
X81075Y-57859D01*
X81075Y-57918D01*
X81082Y-57936D01*
X81082Y-57998D01*
X81082Y-57999D01*
X81082Y-58180D01*
X81100Y-58180D01*
X81100Y-58280D01*
X81082Y-58280D01*
X81082Y-58460D01*
X81119Y-58498D01*
X81151Y-58498D01*
X81206Y-58475D01*
X81219Y-58461D01*
X81233Y-58475D01*
X81288Y-58497D01*
X81306Y-58497D01*
X81299Y-58499D01*
X81277Y-58513D01*
X81234Y-58542D01*
X81228Y-58548D01*
X81185Y-58613D01*
X81170Y-58690D01*
X81170Y-59091D01*
X81109Y-59116D01*
X81081Y-59088D01*
X81003Y-59055D01*
X81003Y-58460D01*
X81003Y-58280D01*
X81003Y-58180D01*
X81003Y-57999D01*
X80994Y-57990D01*
X80994Y-57936D01*
X81001Y-57918D01*
X81001Y-57859D01*
X81001Y-56540D01*
X81001Y-56481D01*
X80994Y-56463D01*
X80994Y-56398D01*
X80956Y-56361D01*
X80920Y-56360D01*
X80900Y-56369D01*
X80881Y-56360D01*
X80844Y-56361D01*
X80807Y-56398D01*
X80807Y-56463D01*
X80800Y-56481D01*
X80799Y-56540D01*
X80800Y-57112D01*
X80807Y-57119D01*
X80807Y-57150D01*
X80837Y-57150D01*
X80964Y-57150D01*
X80994Y-57150D01*
X80994Y-57119D01*
X81001Y-57112D01*
X81001Y-56540D01*
X81001Y-57859D01*
X81001Y-57287D01*
X80994Y-57280D01*
X80994Y-57250D01*
X80964Y-57250D01*
X80837Y-57250D01*
X80807Y-57250D01*
X80807Y-57280D01*
X80800Y-57287D01*
X80799Y-57859D01*
X80800Y-57918D01*
X80807Y-57936D01*
X80807Y-58001D01*
X80836Y-58030D01*
X80814Y-58082D01*
X80814Y-58141D01*
X80814Y-58142D01*
X80852Y-58180D01*
X81003Y-58180D01*
X81003Y-58280D01*
X80852Y-58280D01*
X80814Y-58317D01*
X80814Y-58318D01*
X80814Y-58377D01*
X80837Y-58433D01*
X80879Y-58475D01*
X80934Y-58498D01*
X80966Y-58498D01*
X81003Y-58460D01*
X81003Y-59055D01*
X80989Y-59050D01*
X80890Y-59049D01*
X80864Y-59060D01*
X80864Y-58523D01*
X80842Y-58467D01*
X80800Y-58425D01*
X80744Y-58402D01*
X80726Y-58402D01*
X80726Y-57859D01*
X80726Y-56540D01*
X80725Y-56481D01*
X80718Y-56463D01*
X80718Y-56398D01*
X80681Y-56361D01*
X80644Y-56360D01*
X80625Y-56369D01*
X80605Y-56360D01*
X80569Y-56361D01*
X80531Y-56398D01*
X80531Y-56463D01*
X80524Y-56481D01*
X80524Y-56540D01*
X80524Y-57112D01*
X80531Y-57119D01*
X80531Y-57150D01*
X80561Y-57150D01*
X80688Y-57150D01*
X80718Y-57150D01*
X80718Y-57119D01*
X80725Y-57112D01*
X80726Y-56540D01*
X80726Y-57859D01*
X80725Y-57287D01*
X80718Y-57280D01*
X80718Y-57250D01*
X80688Y-57250D01*
X80561Y-57250D01*
X80531Y-57250D01*
X80531Y-57280D01*
X80524Y-57287D01*
X80524Y-57859D01*
X80524Y-57918D01*
X80531Y-57936D01*
X80531Y-58001D01*
X80569Y-58038D01*
X80605Y-58039D01*
X80625Y-58030D01*
X80644Y-58039D01*
X80681Y-58038D01*
X80718Y-58001D01*
X80718Y-57936D01*
X80725Y-57918D01*
X80726Y-57859D01*
X80726Y-58402D01*
X80685Y-58402D01*
X80350Y-58402D01*
X80411Y-58341D01*
X80449Y-58249D01*
X80450Y-58150D01*
X80412Y-58058D01*
X80392Y-58038D01*
X80405Y-58038D01*
X80443Y-58001D01*
X80443Y-57936D01*
X80450Y-57918D01*
X80450Y-57859D01*
X80450Y-56540D01*
X80450Y-56481D01*
X80443Y-56463D01*
X80443Y-56398D01*
X80405Y-56361D01*
X80369Y-56360D01*
X80349Y-56369D01*
X80330Y-56360D01*
X80293Y-56361D01*
X80256Y-56398D01*
X80256Y-56463D01*
X80248Y-56481D01*
X80248Y-56540D01*
X80248Y-57112D01*
X80256Y-57119D01*
X80256Y-57150D01*
X80286Y-57150D01*
X80412Y-57150D01*
X80443Y-57150D01*
X80443Y-57119D01*
X80450Y-57112D01*
X80450Y-56540D01*
X80450Y-57859D01*
X80450Y-57287D01*
X80443Y-57280D01*
X80443Y-57250D01*
X80412Y-57250D01*
X80286Y-57250D01*
X80256Y-57250D01*
X80256Y-57257D01*
X80174Y-57257D01*
X80174Y-56540D01*
X80174Y-56481D01*
X80167Y-56463D01*
X80167Y-56398D01*
X80130Y-56361D01*
X80093Y-56360D01*
X80074Y-56369D01*
X80054Y-56360D01*
X80018Y-56361D01*
X79980Y-56398D01*
X79980Y-56463D01*
X79973Y-56481D01*
X79973Y-56540D01*
X79973Y-57112D01*
X79980Y-57119D01*
X79980Y-57150D01*
X80010Y-57150D01*
X80137Y-57150D01*
X80167Y-57150D01*
X80167Y-57119D01*
X80174Y-57112D01*
X80174Y-56540D01*
X80174Y-57257D01*
X80167Y-57257D01*
X80167Y-57250D01*
X80137Y-57250D01*
X80010Y-57250D01*
X79980Y-57250D01*
X79980Y-57257D01*
X79899Y-57257D01*
X79899Y-56481D01*
X79891Y-56463D01*
X79891Y-56398D01*
X79854Y-56361D01*
X79817Y-56360D01*
X79798Y-56369D01*
X79779Y-56361D01*
X79719Y-56360D01*
X79542Y-56360D01*
X79522Y-56369D01*
X79503Y-56361D01*
X79443Y-56360D01*
X79266Y-56360D01*
X79247Y-56369D01*
X79227Y-56360D01*
X79191Y-56361D01*
X79153Y-56398D01*
X79153Y-56463D01*
X79146Y-56481D01*
X79146Y-56540D01*
X79146Y-57918D01*
X79153Y-57936D01*
X79153Y-58001D01*
X79185Y-58032D01*
X79185Y-58150D01*
X79100Y-58149D01*
X79072Y-58161D01*
X79072Y-57859D01*
X79072Y-56540D01*
X79072Y-56481D01*
X79065Y-56463D01*
X79065Y-56398D01*
X79027Y-56361D01*
X78991Y-56360D01*
X78971Y-56369D01*
X78952Y-56360D01*
X78915Y-56361D01*
X78878Y-56398D01*
X78878Y-56463D01*
X78870Y-56481D01*
X78870Y-56540D01*
X78870Y-57112D01*
X78878Y-57119D01*
X78878Y-57150D01*
X78908Y-57150D01*
X79034Y-57150D01*
X79065Y-57150D01*
X79065Y-57119D01*
X79072Y-57112D01*
X79072Y-56540D01*
X79072Y-57859D01*
X79072Y-57287D01*
X79065Y-57280D01*
X79065Y-57250D01*
X79034Y-57250D01*
X78908Y-57250D01*
X78878Y-57250D01*
X78878Y-57280D01*
X78870Y-57287D01*
X78870Y-57859D01*
X78870Y-57918D01*
X78878Y-57936D01*
X78878Y-58001D01*
X78915Y-58038D01*
X78952Y-58039D01*
X78971Y-58030D01*
X78991Y-58039D01*
X79027Y-58038D01*
X79065Y-58001D01*
X79065Y-57936D01*
X79072Y-57918D01*
X79072Y-57859D01*
X79072Y-58161D01*
X79008Y-58187D01*
X78996Y-58200D01*
X78760Y-58200D01*
X78756Y-58200D01*
X78758Y-58191D01*
X78758Y-58191D01*
X78758Y-58032D01*
X78789Y-58001D01*
X78789Y-57936D01*
X78796Y-57918D01*
X78796Y-57859D01*
X78796Y-56481D01*
X78789Y-56463D01*
X78789Y-56398D01*
X78752Y-56361D01*
X78715Y-56360D01*
X78696Y-56369D01*
X78676Y-56361D01*
X78617Y-56360D01*
X78524Y-56360D01*
X78549Y-56299D01*
X78550Y-56200D01*
X78512Y-56108D01*
X78441Y-56038D01*
X78349Y-56000D01*
X78250Y-55999D01*
X78158Y-56037D01*
X78088Y-56108D01*
X78050Y-56200D01*
X78049Y-56299D01*
X78075Y-56361D01*
X78065Y-56360D01*
X77888Y-56360D01*
X77869Y-56369D01*
X77849Y-56360D01*
X77813Y-56361D01*
X77775Y-56398D01*
X77775Y-56463D01*
X77768Y-56481D01*
X77768Y-56540D01*
X77768Y-57257D01*
X77694Y-57257D01*
X77694Y-56540D01*
X77694Y-56481D01*
X77687Y-56463D01*
X77687Y-56398D01*
X77649Y-56361D01*
X77613Y-56360D01*
X77593Y-56369D01*
X77574Y-56360D01*
X77537Y-56361D01*
X77500Y-56398D01*
X77500Y-56463D01*
X77492Y-56481D01*
X77492Y-56540D01*
X77492Y-57112D01*
X77500Y-57119D01*
X77500Y-57150D01*
X77530Y-57150D01*
X77656Y-57150D01*
X77687Y-57150D01*
X77687Y-57119D01*
X77694Y-57112D01*
X77694Y-56540D01*
X77694Y-57257D01*
X77687Y-57257D01*
X77687Y-57250D01*
X77656Y-57250D01*
X77530Y-57250D01*
X77500Y-57250D01*
X77500Y-57280D01*
X77492Y-57287D01*
X77492Y-57859D01*
X77492Y-57918D01*
X77500Y-57936D01*
X77500Y-57996D01*
X77438Y-58058D01*
X77418Y-58104D01*
X77418Y-57859D01*
X77418Y-56540D01*
X77418Y-56481D01*
X77411Y-56463D01*
X77411Y-56398D01*
X77374Y-56361D01*
X77337Y-56360D01*
X77318Y-56369D01*
X77298Y-56360D01*
X77262Y-56361D01*
X77224Y-56398D01*
X77224Y-56463D01*
X77217Y-56481D01*
X77217Y-56540D01*
X77217Y-57112D01*
X77224Y-57119D01*
X77224Y-57150D01*
X77254Y-57150D01*
X77381Y-57150D01*
X77411Y-57150D01*
X77411Y-57119D01*
X77418Y-57112D01*
X77418Y-56540D01*
X77418Y-57859D01*
X77418Y-57287D01*
X77411Y-57280D01*
X77411Y-57250D01*
X77381Y-57250D01*
X77254Y-57250D01*
X77224Y-57250D01*
X77224Y-57280D01*
X77217Y-57287D01*
X77217Y-57859D01*
X77217Y-57918D01*
X77224Y-57936D01*
X77224Y-58001D01*
X77262Y-58038D01*
X77298Y-58039D01*
X77318Y-58030D01*
X77337Y-58039D01*
X77374Y-58038D01*
X77411Y-58001D01*
X77411Y-57936D01*
X77418Y-57918D01*
X77418Y-57859D01*
X77418Y-58104D01*
X77400Y-58150D01*
X77400Y-58167D01*
X77164Y-58402D01*
X76880Y-58402D01*
X76905Y-58385D01*
X77080Y-58210D01*
X77080Y-58210D01*
X77116Y-58157D01*
X77134Y-58130D01*
X77134Y-58130D01*
X77153Y-58035D01*
X77153Y-58035D01*
X77153Y-57200D01*
X77143Y-57150D01*
X77143Y-56481D01*
X77136Y-56463D01*
X77136Y-56398D01*
X77131Y-56394D01*
X77149Y-56349D01*
X77150Y-56250D01*
X77112Y-56158D01*
X77041Y-56088D01*
X76949Y-56050D01*
X76850Y-56049D01*
X76758Y-56087D01*
X76688Y-56158D01*
X76650Y-56250D01*
X76649Y-56349D01*
X76673Y-56406D01*
X76673Y-56463D01*
X76666Y-56481D01*
X76666Y-56540D01*
X76666Y-57150D01*
X76656Y-57200D01*
X76656Y-57257D01*
X76592Y-57257D01*
X76592Y-56481D01*
X76584Y-56463D01*
X76584Y-56398D01*
X76547Y-56361D01*
X76510Y-56360D01*
X76491Y-56369D01*
X76472Y-56361D01*
X76412Y-56360D01*
X76235Y-56360D01*
X76215Y-56369D01*
X76196Y-56361D01*
X76136Y-56360D01*
X76095Y-56360D01*
X76099Y-56349D01*
X76100Y-56250D01*
X76062Y-56158D01*
X75991Y-56088D01*
X75899Y-56050D01*
X75800Y-56049D01*
X75708Y-56087D01*
X75700Y-56096D01*
X75691Y-56088D01*
X75599Y-56050D01*
X75500Y-56049D01*
X75408Y-56087D01*
X75400Y-56096D01*
X75391Y-56088D01*
X75299Y-56050D01*
X75200Y-56049D01*
X75108Y-56087D01*
X75049Y-56146D01*
X74991Y-56088D01*
X74899Y-56050D01*
X74800Y-56049D01*
X74708Y-56087D01*
X74638Y-56158D01*
X74600Y-56250D01*
X74599Y-56349D01*
X74611Y-56378D01*
X74566Y-56395D01*
X74498Y-56462D01*
X74461Y-56549D01*
X74461Y-57150D01*
X74655Y-57150D01*
X74655Y-57142D01*
X74736Y-57142D01*
X74736Y-57918D01*
X74744Y-57936D01*
X74744Y-57996D01*
X74780Y-58025D01*
X74802Y-58016D01*
X74857Y-58038D01*
X74916Y-58039D01*
X75093Y-58039D01*
X75113Y-58030D01*
X75132Y-58038D01*
X75192Y-58039D01*
X75369Y-58039D01*
X75388Y-58030D01*
X75408Y-58038D01*
X75467Y-58039D01*
X75645Y-58039D01*
X75664Y-58030D01*
X75683Y-58038D01*
X75743Y-58039D01*
X75831Y-58039D01*
X75831Y-58156D01*
X75830Y-58160D01*
X75829Y-58259D01*
X75867Y-58351D01*
X75938Y-58421D01*
X76030Y-58459D01*
X76129Y-58460D01*
X76133Y-58458D01*
X76660Y-58458D01*
X76650Y-58467D01*
X76627Y-58522D01*
X76627Y-58582D01*
X76627Y-59133D01*
X76650Y-59188D01*
X76692Y-59231D01*
X76747Y-59253D01*
X76807Y-59253D01*
X77275Y-59253D01*
X77270Y-59280D01*
X77270Y-59376D01*
X77258Y-59388D01*
X77220Y-59480D01*
X77220Y-59518D01*
X77148Y-59547D01*
X77078Y-59618D01*
X77040Y-59710D01*
X77039Y-59809D01*
X77077Y-59901D01*
X77148Y-59971D01*
X77239Y-60009D01*
X77239Y-60039D01*
X77277Y-60131D01*
X77320Y-60174D01*
X77180Y-60174D01*
X77142Y-60211D01*
X77142Y-60550D01*
X77520Y-60550D01*
X77557Y-60512D01*
X77557Y-60354D01*
X77557Y-60294D01*
X77535Y-60240D01*
X77539Y-60240D01*
X77631Y-60202D01*
X77643Y-60190D01*
X77900Y-60190D01*
X77976Y-60174D01*
X78041Y-60131D01*
X78171Y-60001D01*
X78214Y-59936D01*
X78214Y-59936D01*
X78217Y-59923D01*
X78229Y-59860D01*
X78230Y-59860D01*
X78230Y-59632D01*
X78418Y-59444D01*
X78418Y-59897D01*
X78441Y-59952D01*
X78483Y-59994D01*
X78538Y-60017D01*
X78598Y-60017D01*
X79070Y-60017D01*
X79125Y-59994D01*
X79168Y-59952D01*
X79190Y-59897D01*
X79190Y-59838D01*
X79190Y-59513D01*
X79201Y-59502D01*
X79230Y-59433D01*
X79230Y-59357D01*
X79201Y-59288D01*
X79148Y-59234D01*
X79078Y-59205D01*
X79003Y-59205D01*
X78933Y-59234D01*
X78923Y-59245D01*
X78617Y-59245D01*
X79012Y-58850D01*
X79200Y-58850D01*
X79276Y-58834D01*
X79341Y-58791D01*
X79350Y-58782D01*
X79350Y-59900D01*
X79365Y-59976D01*
X79408Y-60041D01*
X79599Y-60232D01*
X79599Y-60249D01*
X79637Y-60341D01*
X79708Y-60411D01*
X79800Y-60449D01*
X79899Y-60450D01*
X79935Y-60435D01*
X79935Y-60512D01*
X79972Y-60550D01*
X80350Y-60550D01*
X80350Y-60211D01*
X80312Y-60174D01*
X80100Y-60174D01*
X80100Y-60150D01*
X80062Y-60058D01*
X79991Y-59988D01*
X79899Y-59950D01*
X79882Y-59950D01*
X79750Y-59817D01*
X79750Y-58732D01*
X79935Y-58547D01*
X79935Y-58582D01*
X79935Y-59133D01*
X79957Y-59188D01*
X79999Y-59231D01*
X80055Y-59253D01*
X80114Y-59253D01*
X80690Y-59253D01*
X80689Y-59349D01*
X80727Y-59441D01*
X80740Y-59453D01*
X80740Y-60174D01*
X80487Y-60174D01*
X80450Y-60211D01*
X80450Y-60550D01*
X80827Y-60550D01*
X80852Y-60525D01*
X81152Y-60825D01*
X81152Y-60825D01*
X81217Y-60869D01*
X81217Y-60869D01*
X81230Y-60871D01*
X81294Y-60884D01*
X81457Y-60884D01*
X81471Y-60918D01*
X81514Y-60960D01*
X81569Y-60983D01*
X81628Y-60983D01*
X82317Y-60983D01*
X82373Y-60961D01*
X82415Y-60918D01*
X82438Y-60863D01*
X82438Y-60804D01*
X82438Y-60504D01*
X82415Y-60449D01*
X82399Y-60434D01*
X82415Y-60418D01*
X82438Y-60363D01*
X82438Y-60304D01*
X82438Y-60004D01*
X82415Y-59949D01*
X82399Y-59934D01*
X82415Y-59918D01*
X82438Y-59863D01*
X82438Y-59804D01*
X82438Y-59504D01*
X82415Y-59449D01*
X82399Y-59434D01*
X82415Y-59418D01*
X82438Y-59363D01*
X82438Y-59304D01*
X82438Y-59004D01*
X82415Y-58949D01*
X82399Y-58934D01*
X82415Y-58918D01*
X82438Y-58863D01*
X82438Y-58804D01*
X82438Y-58504D01*
X82415Y-58449D01*
X82373Y-58407D01*
X82318Y-58384D01*
X82258Y-58384D01*
X81834Y-58384D01*
X81625Y-58175D01*
X81625Y-58082D01*
X81607Y-58039D01*
X81708Y-58039D01*
X81727Y-58030D01*
X81746Y-58038D01*
X81806Y-58039D01*
X81983Y-58039D01*
X82003Y-58030D01*
X82022Y-58038D01*
X82082Y-58039D01*
X82259Y-58039D01*
X82278Y-58030D01*
X82298Y-58039D01*
X82334Y-58038D01*
X82372Y-58001D01*
X82372Y-57936D01*
X82379Y-57918D01*
X82379Y-57859D01*
X82379Y-56481D01*
X82372Y-56463D01*
X82372Y-56398D01*
X82353Y-56379D01*
X82382Y-56350D01*
X82399Y-56350D01*
X82491Y-56312D01*
X82561Y-56241D01*
X82599Y-56149D01*
X82600Y-56050D01*
X82600Y-56361D01*
X82573Y-56360D01*
X82554Y-56369D01*
X82534Y-56360D01*
X82498Y-56361D01*
X82460Y-56398D01*
X82460Y-56463D01*
X82453Y-56481D01*
X82453Y-56540D01*
X82453Y-57112D01*
X82460Y-57119D01*
X82460Y-57150D01*
X82491Y-57150D01*
X82617Y-57150D01*
X82647Y-57150D01*
X82647Y-57119D01*
X82655Y-57112D01*
X82655Y-56540D01*
X82655Y-57859D01*
X82655Y-57287D01*
X82647Y-57280D01*
X82647Y-57250D01*
X82617Y-57250D01*
X82491Y-57250D01*
X82460Y-57250D01*
X82460Y-57280D01*
X82453Y-57287D01*
X82453Y-57859D01*
X82453Y-57918D01*
X82460Y-57936D01*
X82460Y-58001D01*
X82498Y-58038D01*
X82534Y-58039D01*
X82554Y-58030D01*
X82573Y-58039D01*
X82610Y-58038D01*
X82647Y-58001D01*
X82647Y-57936D01*
X82655Y-57918D01*
X82655Y-57859D01*
X82655Y-61019D01*
X82545Y-61064D01*
X82507Y-61136D01*
X82800Y-61429D01*
X83092Y-61136D01*
X83092Y-61277D01*
X82870Y-61500D01*
X83163Y-61792D01*
X83235Y-61754D01*
X83299Y-61568D01*
X83299Y-61892D01*
X83077Y-61892D01*
X83092Y-61863D01*
X82800Y-61570D01*
X82729Y-61641D01*
X82729Y-61500D01*
X82436Y-61207D01*
X82364Y-61245D01*
X82300Y-61431D01*
X82312Y-61627D01*
X82364Y-61754D01*
X82436Y-61792D01*
X82729Y-61500D01*
X82729Y-61641D01*
X82507Y-61863D01*
X82522Y-61892D01*
X82269Y-61892D01*
X82106Y-61892D01*
X82218Y-61780D01*
X82294Y-61598D01*
X82294Y-61402D01*
X82219Y-61220D01*
X82080Y-61081D01*
X81898Y-61005D01*
X81702Y-61005D01*
X81520Y-61080D01*
X81381Y-61219D01*
X81305Y-61401D01*
X81305Y-61597D01*
X81380Y-61779D01*
X81493Y-61892D01*
X81106Y-61892D01*
X81218Y-61780D01*
X81294Y-61598D01*
X81294Y-61402D01*
X81219Y-61220D01*
X81080Y-61081D01*
X80898Y-61005D01*
X80793Y-61005D01*
X80799Y-61002D01*
X80842Y-60960D01*
X80864Y-60905D01*
X80864Y-60845D01*
X80864Y-60687D01*
X80827Y-60650D01*
X80450Y-60650D01*
X80450Y-60988D01*
X80487Y-61025D01*
X80653Y-61025D01*
X80520Y-61080D01*
X80381Y-61219D01*
X80350Y-61294D01*
X80350Y-60988D01*
X80350Y-60650D01*
X79972Y-60650D01*
X79935Y-60687D01*
X79935Y-60845D01*
X79935Y-60905D01*
X79957Y-60960D01*
X80000Y-61002D01*
X80055Y-61025D01*
X80312Y-61025D01*
X80350Y-60988D01*
X80350Y-61294D01*
X80305Y-61401D01*
X80305Y-61597D01*
X80380Y-61779D01*
X80493Y-61892D01*
X77557Y-61892D01*
X77557Y-60845D01*
X77557Y-60687D01*
X77520Y-60650D01*
X77142Y-60650D01*
X77142Y-60988D01*
X77180Y-61025D01*
X77437Y-61025D01*
X77492Y-61002D01*
X77534Y-60960D01*
X77557Y-60905D01*
X77557Y-60845D01*
X77557Y-61892D01*
X77399Y-61892D01*
X77400Y-61800D01*
X77362Y-61708D01*
X77291Y-61638D01*
X77199Y-61600D01*
X77182Y-61600D01*
X76650Y-61067D01*
X76650Y-60958D01*
X76650Y-60960D01*
X76693Y-61002D01*
X76748Y-61025D01*
X77005Y-61025D01*
X77042Y-60988D01*
X77042Y-60650D01*
X77035Y-60650D01*
X77035Y-60550D01*
X77042Y-60550D01*
X77042Y-60211D01*
X77005Y-60174D01*
X76799Y-60174D01*
X76800Y-60100D01*
X76762Y-60008D01*
X76691Y-59938D01*
X76599Y-59900D01*
X76500Y-59899D01*
X76408Y-59937D01*
X76391Y-59954D01*
X76375Y-59916D01*
X76284Y-59824D01*
X76164Y-59775D01*
X76035Y-59774D01*
X75916Y-59824D01*
X75824Y-59915D01*
X75775Y-60035D01*
X75775Y-60073D01*
X75744Y-60103D01*
X75695Y-60070D01*
X75600Y-60051D01*
X74999Y-60051D01*
X74999Y-60049D01*
X74999Y-60032D01*
X75541Y-59491D01*
X75541Y-59491D01*
X75570Y-59448D01*
X75584Y-59426D01*
X75584Y-59426D01*
X75599Y-59350D01*
X75600Y-59350D01*
X75600Y-58753D01*
X75611Y-58741D01*
X75649Y-58649D01*
X75650Y-58550D01*
X75612Y-58458D01*
X75541Y-58388D01*
X75449Y-58350D01*
X75350Y-58349D01*
X75258Y-58387D01*
X75188Y-58458D01*
X75150Y-58550D01*
X75149Y-58649D01*
X75187Y-58741D01*
X75200Y-58753D01*
X75200Y-59267D01*
X74717Y-59749D01*
X74700Y-59749D01*
X74655Y-59768D01*
X74655Y-57996D01*
X74655Y-57250D01*
X74461Y-57250D01*
X74461Y-57850D01*
X74498Y-57937D01*
X74566Y-58004D01*
X74619Y-58025D01*
X74655Y-57996D01*
X74655Y-59768D01*
X74608Y-59787D01*
X74538Y-59858D01*
X74500Y-59950D01*
X74499Y-60049D01*
X74500Y-60051D01*
X73300Y-60051D01*
X73008Y-60051D01*
X73008Y-59947D01*
X72985Y-59892D01*
X72943Y-59850D01*
X72888Y-59827D01*
X72828Y-59827D01*
X72061Y-59827D01*
X72006Y-59849D01*
X71963Y-59892D01*
X71940Y-59947D01*
X71940Y-60006D01*
X71940Y-60408D01*
X71963Y-60463D01*
X72005Y-60505D01*
X72060Y-60528D01*
X72120Y-60528D01*
X72600Y-60528D01*
X72601Y-60529D01*
X72635Y-60536D01*
X72669Y-60546D01*
X72683Y-60545D01*
X72696Y-60548D01*
X73300Y-60548D01*
X75497Y-60548D01*
X75512Y-60564D01*
X75511Y-60564D01*
X75078Y-60564D01*
X75023Y-60586D01*
X74980Y-60629D01*
X74957Y-60684D01*
X74957Y-60743D01*
X74957Y-60827D01*
X74829Y-60827D01*
X74815Y-60794D01*
X74773Y-60752D01*
X74718Y-60729D01*
X74658Y-60729D01*
X74481Y-60729D01*
X74426Y-60752D01*
X74412Y-60765D01*
X74399Y-60752D01*
X74344Y-60729D01*
X74307Y-60729D01*
X74270Y-60767D01*
X74270Y-61026D01*
X74283Y-61026D01*
X74283Y-61126D01*
X74270Y-61126D01*
X74270Y-61134D01*
X74181Y-61134D01*
X74181Y-61126D01*
X74168Y-61126D01*
X74168Y-61026D01*
X74181Y-61026D01*
X74181Y-60767D01*
X74144Y-60729D01*
X74107Y-60729D01*
X74052Y-60752D01*
X74038Y-60765D01*
X74025Y-60752D01*
X73970Y-60729D01*
X73910Y-60729D01*
X73733Y-60729D01*
X73678Y-60752D01*
X73664Y-60765D01*
X73651Y-60752D01*
X73596Y-60729D01*
X73536Y-60729D01*
X73359Y-60729D01*
X73304Y-60752D01*
X73262Y-60794D01*
X73258Y-60804D01*
X73241Y-60788D01*
X73149Y-60750D01*
X73123Y-60750D01*
X73086Y-60725D01*
X73010Y-60710D01*
X72903Y-60710D01*
X72902Y-60707D01*
X72860Y-60664D01*
X72805Y-60642D01*
X72745Y-60641D01*
X72588Y-60641D01*
X72533Y-60664D01*
X72520Y-60678D01*
X72506Y-60664D01*
X72451Y-60641D01*
X72419Y-60642D01*
X72382Y-60679D01*
X72382Y-60860D01*
X72400Y-60860D01*
X72400Y-60960D01*
X72382Y-60960D01*
X72382Y-61140D01*
X72419Y-61178D01*
X72451Y-61178D01*
X72506Y-61155D01*
X72519Y-61141D01*
X72533Y-61155D01*
X72588Y-61177D01*
X72648Y-61178D01*
X72805Y-61178D01*
X72860Y-61155D01*
X72883Y-61131D01*
X72887Y-61141D01*
X72958Y-61211D01*
X73050Y-61249D01*
X73083Y-61249D01*
X73083Y-61249D01*
X73099Y-61261D01*
X73099Y-61261D01*
X73112Y-61263D01*
X73176Y-61276D01*
X73239Y-61276D01*
X73239Y-61302D01*
X73262Y-61358D01*
X73303Y-61400D01*
X73200Y-61400D01*
X73123Y-61415D01*
X73058Y-61458D01*
X72955Y-61561D01*
X72968Y-61531D01*
X72968Y-61314D01*
X72945Y-61259D01*
X72903Y-61217D01*
X72847Y-61194D01*
X72788Y-61194D01*
X72787Y-61194D01*
X72750Y-61232D01*
X72750Y-61383D01*
X72930Y-61383D01*
X72968Y-61346D01*
X72968Y-61314D01*
X72968Y-61531D01*
X72968Y-61499D01*
X72930Y-61462D01*
X72750Y-61462D01*
X72750Y-61480D01*
X72650Y-61480D01*
X72650Y-61462D01*
X72650Y-61383D01*
X72650Y-61232D01*
X72612Y-61194D01*
X72611Y-61194D01*
X72552Y-61194D01*
X72496Y-61217D01*
X72454Y-61259D01*
X72431Y-61314D01*
X72432Y-61346D01*
X72469Y-61383D01*
X72650Y-61383D01*
X72650Y-61462D01*
X72469Y-61462D01*
X72432Y-61499D01*
X72431Y-61531D01*
X72454Y-61586D01*
X72468Y-61599D01*
X72454Y-61613D01*
X72432Y-61668D01*
X72431Y-61728D01*
X72431Y-61885D01*
X72454Y-61940D01*
X72496Y-61982D01*
X72500Y-61983D01*
X72500Y-62016D01*
X72497Y-62017D01*
X72454Y-62059D01*
X72432Y-62114D01*
X72431Y-62174D01*
X72431Y-62331D01*
X72454Y-62386D01*
X72468Y-62399D01*
X72454Y-62413D01*
X72432Y-62468D01*
X72431Y-62528D01*
X72431Y-62685D01*
X72454Y-62740D01*
X72496Y-62782D01*
X72552Y-62805D01*
X72611Y-62805D01*
X72847Y-62805D01*
X72902Y-62782D01*
X72908Y-62777D01*
X72994Y-62777D01*
X73050Y-62799D01*
X73149Y-62800D01*
X73241Y-62762D01*
X73289Y-62713D01*
X73293Y-62731D01*
X73294Y-62733D01*
X73294Y-62847D01*
X73317Y-62902D01*
X73334Y-62920D01*
X72303Y-62920D01*
X72303Y-61140D01*
X72303Y-60960D01*
X72303Y-60860D01*
X72303Y-60679D01*
X72266Y-60642D01*
X72234Y-60641D01*
X72179Y-60664D01*
X72137Y-60706D01*
X72114Y-60762D01*
X72114Y-60821D01*
X72114Y-60822D01*
X72152Y-60860D01*
X72303Y-60860D01*
X72303Y-60960D01*
X72152Y-60960D01*
X72114Y-60997D01*
X72114Y-60998D01*
X72114Y-61057D01*
X72137Y-61113D01*
X72179Y-61155D01*
X72234Y-61178D01*
X72266Y-61178D01*
X72303Y-61140D01*
X72303Y-62920D01*
X70474Y-62920D01*
X70441Y-62887D01*
X71851Y-62887D01*
X71851Y-61612D01*
X71546Y-61612D01*
X71546Y-61108D01*
X71546Y-56699D01*
X71536Y-56443D01*
X71457Y-56252D01*
X71370Y-56195D01*
X70970Y-56595D01*
X71370Y-56994D01*
X71457Y-56938D01*
X71546Y-56699D01*
X71546Y-61108D01*
X71536Y-60853D01*
X71457Y-60661D01*
X71389Y-60617D01*
X71389Y-59751D01*
X71389Y-57980D01*
X71377Y-57787D01*
X71327Y-57665D01*
X71299Y-57651D01*
X71299Y-57065D01*
X70900Y-56665D01*
X70829Y-56736D01*
X70829Y-56595D01*
X70429Y-56195D01*
X70342Y-56252D01*
X70253Y-56491D01*
X70263Y-56746D01*
X70342Y-56938D01*
X70429Y-56994D01*
X70829Y-56595D01*
X70829Y-56736D01*
X70500Y-57065D01*
X70556Y-57152D01*
X70796Y-57241D01*
X71051Y-57232D01*
X71243Y-57152D01*
X71299Y-57065D01*
X71299Y-57651D01*
X71256Y-57628D01*
X71185Y-57699D01*
X71185Y-57557D01*
X71148Y-57487D01*
X70966Y-57424D01*
X70773Y-57436D01*
X70651Y-57487D01*
X70614Y-57557D01*
X70900Y-57843D01*
X71185Y-57557D01*
X71185Y-57699D01*
X70970Y-57914D01*
X71256Y-58199D01*
X71327Y-58162D01*
X71389Y-57980D01*
X71389Y-59751D01*
X71377Y-59559D01*
X71327Y-59437D01*
X71256Y-59400D01*
X71185Y-59470D01*
X71185Y-59329D01*
X71185Y-58270D01*
X70900Y-57984D01*
X70829Y-58055D01*
X70829Y-57914D01*
X70543Y-57628D01*
X70472Y-57665D01*
X70410Y-57848D01*
X70422Y-58040D01*
X70472Y-58162D01*
X70543Y-58199D01*
X70829Y-57914D01*
X70829Y-58055D01*
X70614Y-58270D01*
X70651Y-58341D01*
X70833Y-58403D01*
X71026Y-58391D01*
X71148Y-58341D01*
X71185Y-58270D01*
X71185Y-59329D01*
X71148Y-59258D01*
X70966Y-59196D01*
X70773Y-59208D01*
X70651Y-59258D01*
X70614Y-59329D01*
X70900Y-59615D01*
X71185Y-59329D01*
X71185Y-59470D01*
X70970Y-59685D01*
X71256Y-59971D01*
X71327Y-59934D01*
X71389Y-59751D01*
X71389Y-60617D01*
X71370Y-60605D01*
X71299Y-60675D01*
X71299Y-60534D01*
X71243Y-60447D01*
X71185Y-60425D01*
X71185Y-60042D01*
X70900Y-59756D01*
X70829Y-59827D01*
X70829Y-59685D01*
X70543Y-59400D01*
X70472Y-59437D01*
X70410Y-59619D01*
X70422Y-59812D01*
X70472Y-59934D01*
X70543Y-59971D01*
X70829Y-59685D01*
X70829Y-59827D01*
X70614Y-60042D01*
X70651Y-60112D01*
X70833Y-60175D01*
X71026Y-60163D01*
X71148Y-60112D01*
X71185Y-60042D01*
X71185Y-60425D01*
X71003Y-60358D01*
X70748Y-60367D01*
X70556Y-60447D01*
X70500Y-60534D01*
X70900Y-60934D01*
X71299Y-60534D01*
X71299Y-60675D01*
X70970Y-61004D01*
X71370Y-61404D01*
X71457Y-61347D01*
X71546Y-61108D01*
X71546Y-61612D01*
X71122Y-61612D01*
X71243Y-61562D01*
X71299Y-61475D01*
X70900Y-61075D01*
X70829Y-61146D01*
X70829Y-61004D01*
X70429Y-60605D01*
X70342Y-60661D01*
X70253Y-60900D01*
X70263Y-61156D01*
X70342Y-61347D01*
X70429Y-61404D01*
X70829Y-61004D01*
X70829Y-61146D01*
X70500Y-61475D01*
X70556Y-61562D01*
X70691Y-61612D01*
X70122Y-61612D01*
X70122Y-62568D01*
X69979Y-62425D01*
X69979Y-55174D01*
X70100Y-55053D01*
X70100Y-55990D01*
X70669Y-55990D01*
X70556Y-56037D01*
X70500Y-56124D01*
X70900Y-56524D01*
X71299Y-56124D01*
X71243Y-56037D01*
X71117Y-55990D01*
X73300Y-55990D01*
X73300Y-57298D01*
X73008Y-57589D01*
X73008Y-57250D01*
X73008Y-57191D01*
X72985Y-57136D01*
X72943Y-57094D01*
X72888Y-57071D01*
X72562Y-57071D01*
X72524Y-57108D01*
X72524Y-57372D01*
X72971Y-57372D01*
X73008Y-57334D01*
X73008Y-57250D01*
X73008Y-57589D01*
X73008Y-57589D01*
X73008Y-57509D01*
X72971Y-57472D01*
X72524Y-57472D01*
X72524Y-57735D01*
X72562Y-57772D01*
X72825Y-57772D01*
X72542Y-58055D01*
X72424Y-58055D01*
X72424Y-57735D01*
X72424Y-57472D01*
X72424Y-57372D01*
X72424Y-57108D01*
X72387Y-57071D01*
X72061Y-57071D01*
X72006Y-57094D01*
X71963Y-57136D01*
X71940Y-57191D01*
X71940Y-57250D01*
X71940Y-57334D01*
X71978Y-57372D01*
X72424Y-57372D01*
X72424Y-57472D01*
X71978Y-57472D01*
X71940Y-57509D01*
X71940Y-57593D01*
X71940Y-57652D01*
X71963Y-57707D01*
X72006Y-57750D01*
X72061Y-57772D01*
X72387Y-57772D01*
X72424Y-57735D01*
X72424Y-58055D01*
X72061Y-58055D01*
X72006Y-58078D01*
X71963Y-58120D01*
X71940Y-58175D01*
X71940Y-58235D01*
X71940Y-58636D01*
X71963Y-58691D01*
X72005Y-58734D01*
X72060Y-58757D01*
X72120Y-58757D01*
X72888Y-58757D01*
X72943Y-58734D01*
X72985Y-58692D01*
X73008Y-58637D01*
X73008Y-58577D01*
X73008Y-58175D01*
X73002Y-58161D01*
X73641Y-57522D01*
X73684Y-57457D01*
X73684Y-57457D01*
X73700Y-57381D01*
X73700Y-55982D01*
X74382Y-55300D01*
X74550Y-55300D01*
X74486Y-55312D01*
X74473Y-55315D01*
X74408Y-55358D01*
X73858Y-55908D01*
X73815Y-55973D01*
X73800Y-56050D01*
X73800Y-58217D01*
X73023Y-58993D01*
X73008Y-58993D01*
X73008Y-58963D01*
X72985Y-58908D01*
X72943Y-58865D01*
X72888Y-58842D01*
X72828Y-58842D01*
X72061Y-58842D01*
X72006Y-58865D01*
X71963Y-58907D01*
X71940Y-58962D01*
X71940Y-59022D01*
X71940Y-59424D01*
X71963Y-59479D01*
X72005Y-59521D01*
X72060Y-59544D01*
X72120Y-59544D01*
X72888Y-59544D01*
X72943Y-59521D01*
X72985Y-59479D01*
X73008Y-59424D01*
X73008Y-59393D01*
X73106Y-59393D01*
X73182Y-59378D01*
X73247Y-59335D01*
X74141Y-58441D01*
X74141Y-58441D01*
X74170Y-58398D01*
X74184Y-58376D01*
X74184Y-58376D01*
X74199Y-58300D01*
X74200Y-58300D01*
X74200Y-56132D01*
X74632Y-55700D01*
X83167Y-55700D01*
X84300Y-56832D01*
X84300Y-58193D01*
X84315Y-58270D01*
X84358Y-58335D01*
X85098Y-59075D01*
X85084Y-59110D01*
X85084Y-59276D01*
X85147Y-59428D01*
X85264Y-59545D01*
X85416Y-59609D01*
X85582Y-59609D01*
X85735Y-59546D01*
X85852Y-59429D01*
X85915Y-59276D01*
X85915Y-59111D01*
X85852Y-58958D01*
X85735Y-58841D01*
X85635Y-58799D01*
X85735Y-58758D01*
X85852Y-58642D01*
X85915Y-58489D01*
X85915Y-58323D01*
X85852Y-58171D01*
X85735Y-58054D01*
X85735Y-58053D01*
X85735Y-57728D01*
X85500Y-57492D01*
X85264Y-57728D01*
X85293Y-57791D01*
X85450Y-57843D01*
X85615Y-57829D01*
X85706Y-57791D01*
X85735Y-57728D01*
X85735Y-58053D01*
X85583Y-57990D01*
X85417Y-57990D01*
X85381Y-58005D01*
X85100Y-57723D01*
X85100Y-57556D01*
X85130Y-57629D01*
X85193Y-57657D01*
X85429Y-57422D01*
X85193Y-57186D01*
X85130Y-57215D01*
X85100Y-57307D01*
X85100Y-56550D01*
X85084Y-56473D01*
X85084Y-56473D01*
X85070Y-56451D01*
X85041Y-56408D01*
X85041Y-56408D01*
X83591Y-54958D01*
X83526Y-54915D01*
X83450Y-54900D01*
X74300Y-54900D01*
X74223Y-54915D01*
X74201Y-54929D01*
X74158Y-54958D01*
X73499Y-55617D01*
X73499Y-54722D01*
X70431Y-54722D01*
X70474Y-54679D01*
X86925Y-54679D01*
X87420Y-55174D01*
X87420Y-62425D01*
X87420Y-62425D01*
G37*
G54D32*
X87420Y-62425D02*
X87311Y-62534D01*
X87311Y-61513D01*
X87311Y-56340D01*
X87303Y-56046D01*
X87205Y-55810D01*
X87108Y-55742D01*
X87037Y-55813D01*
X87037Y-55671D01*
X86969Y-55574D01*
X86694Y-55469D01*
X86399Y-55477D01*
X86164Y-55574D01*
X86096Y-55671D01*
X86566Y-56142D01*
X87037Y-55671D01*
X87037Y-55813D01*
X86637Y-56213D01*
X87108Y-56684D01*
X87205Y-56615D01*
X87311Y-56340D01*
X87311Y-61513D01*
X87303Y-61219D01*
X87205Y-60984D01*
X87108Y-60915D01*
X87037Y-60986D01*
X87037Y-60845D01*
X87037Y-56754D01*
X86566Y-56284D01*
X86496Y-56354D01*
X86496Y-56213D01*
X86025Y-55742D01*
X85928Y-55810D01*
X85822Y-56086D01*
X85830Y-56380D01*
X85928Y-56615D01*
X86025Y-56684D01*
X86496Y-56213D01*
X86496Y-56354D01*
X86096Y-56754D01*
X86164Y-56852D01*
X86439Y-56957D01*
X86734Y-56949D01*
X86969Y-56852D01*
X87037Y-56754D01*
X87037Y-60845D01*
X86969Y-60747D01*
X86694Y-60642D01*
X86399Y-60650D01*
X86164Y-60747D01*
X86096Y-60845D01*
X86566Y-61315D01*
X87037Y-60845D01*
X87037Y-60986D01*
X86637Y-61386D01*
X87108Y-61857D01*
X87205Y-61789D01*
X87311Y-61513D01*
X87311Y-62534D01*
X87037Y-62808D01*
X87037Y-61928D01*
X86566Y-61457D01*
X86496Y-61528D01*
X86496Y-61386D01*
X86025Y-60915D01*
X85928Y-60984D01*
X85920Y-61002D01*
X85920Y-57471D01*
X85907Y-57306D01*
X85869Y-57215D01*
X85806Y-57186D01*
X85735Y-57257D01*
X85735Y-57115D01*
X85706Y-57052D01*
X85549Y-57001D01*
X85384Y-57014D01*
X85293Y-57052D01*
X85264Y-57115D01*
X85500Y-57351D01*
X85735Y-57115D01*
X85735Y-57257D01*
X85570Y-57422D01*
X85806Y-57657D01*
X85869Y-57629D01*
X85920Y-57471D01*
X85920Y-61002D01*
X85822Y-61259D01*
X85830Y-61553D01*
X85928Y-61789D01*
X86025Y-61857D01*
X86496Y-61386D01*
X86496Y-61528D01*
X86096Y-61928D01*
X86164Y-62025D01*
X86439Y-62130D01*
X86734Y-62122D01*
X86969Y-62025D01*
X87037Y-61928D01*
X87037Y-62808D01*
X86925Y-62920D01*
X79555Y-62920D01*
X79555Y-62688D01*
X79555Y-62687D01*
X79518Y-62650D01*
X79366Y-62650D01*
X79366Y-62830D01*
X79403Y-62868D01*
X79435Y-62868D01*
X79490Y-62845D01*
X79532Y-62803D01*
X79555Y-62747D01*
X79555Y-62688D01*
X79555Y-62920D01*
X78441Y-62920D01*
X78452Y-62910D01*
X78474Y-62854D01*
X78475Y-62800D01*
X78766Y-62800D01*
X78767Y-62802D01*
X78809Y-62845D01*
X78864Y-62867D01*
X78924Y-62868D01*
X79081Y-62868D01*
X79136Y-62845D01*
X79150Y-62831D01*
X79163Y-62845D01*
X79218Y-62868D01*
X79250Y-62868D01*
X79287Y-62830D01*
X79287Y-62650D01*
X79269Y-62650D01*
X79269Y-62550D01*
X79287Y-62550D01*
X79287Y-62542D01*
X79366Y-62542D01*
X79366Y-62550D01*
X79518Y-62550D01*
X79555Y-62512D01*
X79555Y-62511D01*
X79555Y-62452D01*
X79532Y-62396D01*
X79525Y-62389D01*
X82269Y-62389D01*
X83469Y-62389D01*
X84258Y-62389D01*
X84258Y-62389D01*
X84353Y-62370D01*
X84434Y-62317D01*
X85675Y-61075D01*
X85675Y-61075D01*
X85729Y-60995D01*
X85729Y-60995D01*
X85732Y-60979D01*
X85748Y-60900D01*
X85748Y-60900D01*
X85748Y-60517D01*
X85852Y-60413D01*
X85915Y-60261D01*
X85915Y-60095D01*
X85852Y-59942D01*
X85735Y-59825D01*
X85583Y-59762D01*
X85417Y-59762D01*
X85264Y-59825D01*
X85147Y-59942D01*
X85084Y-60094D01*
X85084Y-60260D01*
X85147Y-60413D01*
X85251Y-60517D01*
X85251Y-60797D01*
X84160Y-61888D01*
X84160Y-60684D01*
X84137Y-60569D01*
X84072Y-60472D01*
X84067Y-60468D01*
X84085Y-60460D01*
X84128Y-60418D01*
X84150Y-60363D01*
X84150Y-60004D01*
X84128Y-59949D01*
X84112Y-59934D01*
X84128Y-59918D01*
X84150Y-59863D01*
X84150Y-59504D01*
X84128Y-59449D01*
X84112Y-59434D01*
X84127Y-59418D01*
X84150Y-59363D01*
X84150Y-59304D01*
X84150Y-59004D01*
X84128Y-58949D01*
X84112Y-58934D01*
X84128Y-58918D01*
X84150Y-58863D01*
X84150Y-58504D01*
X84128Y-58449D01*
X84085Y-58407D01*
X84030Y-58384D01*
X83971Y-58384D01*
X83743Y-58384D01*
X83706Y-58422D01*
X83706Y-58634D01*
X84113Y-58634D01*
X84150Y-58596D01*
X84150Y-58504D01*
X84150Y-58863D01*
X84150Y-58771D01*
X84113Y-58734D01*
X83706Y-58734D01*
X83706Y-58742D01*
X83606Y-58742D01*
X83606Y-58734D01*
X83606Y-58634D01*
X83606Y-58422D01*
X83568Y-58384D01*
X83341Y-58384D01*
X83281Y-58384D01*
X83226Y-58407D01*
X83184Y-58449D01*
X83161Y-58504D01*
X83161Y-58596D01*
X83199Y-58634D01*
X83606Y-58634D01*
X83606Y-58734D01*
X83199Y-58734D01*
X83161Y-58771D01*
X83161Y-58863D01*
X83184Y-58918D01*
X83200Y-58934D01*
X83184Y-58949D01*
X83161Y-59004D01*
X83161Y-59064D01*
X83161Y-59363D01*
X83184Y-59418D01*
X83200Y-59434D01*
X83184Y-59449D01*
X83161Y-59504D01*
X83161Y-59596D01*
X83199Y-59634D01*
X83606Y-59634D01*
X83606Y-59626D01*
X83706Y-59626D01*
X83706Y-59634D01*
X84113Y-59634D01*
X84150Y-59596D01*
X84150Y-59504D01*
X84150Y-59863D01*
X84150Y-59771D01*
X84113Y-59734D01*
X83706Y-59734D01*
X83706Y-59922D01*
X83706Y-59946D01*
X83706Y-60134D01*
X84113Y-60134D01*
X84150Y-60096D01*
X84150Y-60004D01*
X84150Y-60363D01*
X84150Y-60271D01*
X84113Y-60234D01*
X83706Y-60234D01*
X83706Y-60242D01*
X83606Y-60242D01*
X83606Y-60234D01*
X83606Y-60134D01*
X83606Y-59946D01*
X83606Y-59922D01*
X83606Y-59734D01*
X83199Y-59734D01*
X83161Y-59771D01*
X83161Y-59863D01*
X83184Y-59918D01*
X83200Y-59934D01*
X83184Y-59949D01*
X83161Y-60004D01*
X83161Y-60096D01*
X83199Y-60134D01*
X83606Y-60134D01*
X83606Y-60234D01*
X83199Y-60234D01*
X83161Y-60271D01*
X83161Y-60363D01*
X83184Y-60418D01*
X83226Y-60460D01*
X83245Y-60468D01*
X83239Y-60472D01*
X83234Y-60480D01*
X83191Y-60438D01*
X83099Y-60400D01*
X83000Y-60399D01*
X82930Y-60428D01*
X82930Y-57859D01*
X82930Y-56540D01*
X82930Y-56481D01*
X82907Y-56425D01*
X82865Y-56383D01*
X82810Y-56360D01*
X82773Y-56361D01*
X82736Y-56398D01*
X82736Y-57150D01*
X82893Y-57150D01*
X82930Y-57112D01*
X82930Y-56540D01*
X82930Y-57859D01*
X82930Y-57287D01*
X82893Y-57250D01*
X82736Y-57250D01*
X82736Y-58001D01*
X82773Y-58038D01*
X82810Y-58039D01*
X82865Y-58016D01*
X82907Y-57974D01*
X82930Y-57918D01*
X82930Y-57859D01*
X82930Y-60428D01*
X82908Y-60437D01*
X82838Y-60508D01*
X82800Y-60600D01*
X82799Y-60699D01*
X82837Y-60791D01*
X82908Y-60861D01*
X83000Y-60899D01*
X83099Y-60900D01*
X83137Y-60884D01*
X83231Y-60884D01*
X83239Y-60896D01*
X83337Y-60961D01*
X83451Y-60983D01*
X83860Y-60983D01*
X83975Y-60961D01*
X84072Y-60896D01*
X84137Y-60798D01*
X84160Y-60684D01*
X84160Y-61888D01*
X84155Y-61892D01*
X83469Y-61892D01*
X83299Y-61892D01*
X83299Y-61568D01*
X83287Y-61372D01*
X83235Y-61245D01*
X83163Y-61207D01*
X83092Y-61277D01*
X83092Y-61136D01*
X83054Y-61064D01*
X82868Y-61000D01*
X82672Y-61012D01*
X82655Y-61019D01*
X82655Y-57859D01*
X82655Y-56540D01*
X82655Y-56481D01*
X82647Y-56463D01*
X82647Y-56398D01*
X82610Y-56361D01*
X82600Y-56361D01*
X82600Y-56050D01*
X82562Y-55958D01*
X82491Y-55888D01*
X82399Y-55850D01*
X82300Y-55849D01*
X82208Y-55887D01*
X82138Y-55958D01*
X82114Y-56014D01*
X82112Y-56008D01*
X82041Y-55938D01*
X81949Y-55900D01*
X81850Y-55899D01*
X81758Y-55937D01*
X81688Y-56008D01*
X81660Y-56075D01*
X81599Y-56050D01*
X81500Y-56049D01*
X81408Y-56087D01*
X81338Y-56158D01*
X81300Y-56250D01*
X81299Y-56349D01*
X81304Y-56361D01*
X81264Y-56361D01*
X81264Y-56392D01*
X81232Y-56361D01*
X81195Y-56360D01*
X81176Y-56369D01*
X81156Y-56360D01*
X81120Y-56361D01*
X81082Y-56398D01*
X81082Y-56463D01*
X81075Y-56481D01*
X81075Y-56540D01*
X81075Y-57112D01*
X81082Y-57119D01*
X81082Y-57150D01*
X81113Y-57150D01*
X81239Y-57150D01*
X81269Y-57150D01*
X81269Y-57142D01*
X81277Y-57142D01*
X81351Y-57142D01*
X81351Y-57257D01*
X81277Y-57257D01*
X81269Y-57257D01*
X81269Y-57250D01*
X81239Y-57250D01*
X81113Y-57250D01*
X81082Y-57250D01*
X81082Y-57280D01*
X81075Y-57287D01*
X81075Y-57859D01*
X81075Y-57918D01*
X81082Y-57936D01*
X81082Y-57998D01*
X81082Y-57999D01*
X81082Y-58180D01*
X81100Y-58180D01*
X81100Y-58280D01*
X81082Y-58280D01*
X81082Y-58460D01*
X81119Y-58498D01*
X81151Y-58498D01*
X81206Y-58475D01*
X81219Y-58461D01*
X81233Y-58475D01*
X81288Y-58497D01*
X81306Y-58497D01*
X81299Y-58499D01*
X81277Y-58513D01*
X81234Y-58542D01*
X81228Y-58548D01*
X81185Y-58613D01*
X81170Y-58690D01*
X81170Y-59091D01*
X81109Y-59116D01*
X81081Y-59088D01*
X81003Y-59055D01*
X81003Y-58460D01*
X81003Y-58280D01*
X81003Y-58180D01*
X81003Y-57999D01*
X80994Y-57990D01*
X80994Y-57936D01*
X81001Y-57918D01*
X81001Y-57859D01*
X81001Y-56540D01*
X81001Y-56481D01*
X80994Y-56463D01*
X80994Y-56398D01*
X80956Y-56361D01*
X80920Y-56360D01*
X80900Y-56369D01*
X80881Y-56360D01*
X80844Y-56361D01*
X80807Y-56398D01*
X80807Y-56463D01*
X80800Y-56481D01*
X80799Y-56540D01*
X80800Y-57112D01*
X80807Y-57119D01*
X80807Y-57150D01*
X80837Y-57150D01*
X80964Y-57150D01*
X80994Y-57150D01*
X80994Y-57119D01*
X81001Y-57112D01*
X81001Y-56540D01*
X81001Y-57859D01*
X81001Y-57287D01*
X80994Y-57280D01*
X80994Y-57250D01*
X80964Y-57250D01*
X80837Y-57250D01*
X80807Y-57250D01*
X80807Y-57280D01*
X80800Y-57287D01*
X80799Y-57859D01*
X80800Y-57918D01*
X80807Y-57936D01*
X80807Y-58001D01*
X80836Y-58030D01*
X80814Y-58082D01*
X80814Y-58141D01*
X80814Y-58142D01*
X80852Y-58180D01*
X81003Y-58180D01*
X81003Y-58280D01*
X80852Y-58280D01*
X80814Y-58317D01*
X80814Y-58318D01*
X80814Y-58377D01*
X80837Y-58433D01*
X80879Y-58475D01*
X80934Y-58498D01*
X80966Y-58498D01*
X81003Y-58460D01*
X81003Y-59055D01*
X80989Y-59050D01*
X80890Y-59049D01*
X80864Y-59060D01*
X80864Y-58523D01*
X80842Y-58467D01*
X80800Y-58425D01*
X80744Y-58402D01*
X80726Y-58402D01*
X80726Y-57859D01*
X80726Y-56540D01*
X80725Y-56481D01*
X80718Y-56463D01*
X80718Y-56398D01*
X80681Y-56361D01*
X80644Y-56360D01*
X80625Y-56369D01*
X80605Y-56360D01*
X80569Y-56361D01*
X80531Y-56398D01*
X80531Y-56463D01*
X80524Y-56481D01*
X80524Y-56540D01*
X80524Y-57112D01*
X80531Y-57119D01*
X80531Y-57150D01*
X80561Y-57150D01*
X80688Y-57150D01*
X80718Y-57150D01*
X80718Y-57119D01*
X80725Y-57112D01*
X80726Y-56540D01*
X80726Y-57859D01*
X80725Y-57287D01*
X80718Y-57280D01*
X80718Y-57250D01*
X80688Y-57250D01*
X80561Y-57250D01*
X80531Y-57250D01*
X80531Y-57280D01*
X80524Y-57287D01*
X80524Y-57859D01*
X80524Y-57918D01*
X80531Y-57936D01*
X80531Y-58001D01*
X80569Y-58038D01*
X80605Y-58039D01*
X80625Y-58030D01*
X80644Y-58039D01*
X80681Y-58038D01*
X80718Y-58001D01*
X80718Y-57936D01*
X80725Y-57918D01*
X80726Y-57859D01*
X80726Y-58402D01*
X80685Y-58402D01*
X80350Y-58402D01*
X80411Y-58341D01*
X80449Y-58249D01*
X80450Y-58150D01*
X80412Y-58058D01*
X80392Y-58038D01*
X80405Y-58038D01*
X80443Y-58001D01*
X80443Y-57936D01*
X80450Y-57918D01*
X80450Y-57859D01*
X80450Y-56540D01*
X80450Y-56481D01*
X80443Y-56463D01*
X80443Y-56398D01*
X80405Y-56361D01*
X80369Y-56360D01*
X80349Y-56369D01*
X80330Y-56360D01*
X80293Y-56361D01*
X80256Y-56398D01*
X80256Y-56463D01*
X80248Y-56481D01*
X80248Y-56540D01*
X80248Y-57112D01*
X80256Y-57119D01*
X80256Y-57150D01*
X80286Y-57150D01*
X80412Y-57150D01*
X80443Y-57150D01*
X80443Y-57119D01*
X80450Y-57112D01*
X80450Y-56540D01*
X80450Y-57859D01*
X80450Y-57287D01*
X80443Y-57280D01*
X80443Y-57250D01*
X80412Y-57250D01*
X80286Y-57250D01*
X80256Y-57250D01*
X80256Y-57257D01*
X80174Y-57257D01*
X80174Y-56540D01*
X80174Y-56481D01*
X80167Y-56463D01*
X80167Y-56398D01*
X80130Y-56361D01*
X80093Y-56360D01*
X80074Y-56369D01*
X80054Y-56360D01*
X80018Y-56361D01*
X79980Y-56398D01*
X79980Y-56463D01*
X79973Y-56481D01*
X79973Y-56540D01*
X79973Y-57112D01*
X79980Y-57119D01*
X79980Y-57150D01*
X80010Y-57150D01*
X80137Y-57150D01*
X80167Y-57150D01*
X80167Y-57119D01*
X80174Y-57112D01*
X80174Y-56540D01*
X80174Y-57257D01*
X80167Y-57257D01*
X80167Y-57250D01*
X80137Y-57250D01*
X80010Y-57250D01*
X79980Y-57250D01*
X79980Y-57257D01*
X79899Y-57257D01*
X79899Y-56481D01*
X79891Y-56463D01*
X79891Y-56398D01*
X79854Y-56361D01*
X79817Y-56360D01*
X79798Y-56369D01*
X79779Y-56361D01*
X79719Y-56360D01*
X79542Y-56360D01*
X79522Y-56369D01*
X79503Y-56361D01*
X79443Y-56360D01*
X79266Y-56360D01*
X79247Y-56369D01*
X79227Y-56360D01*
X79191Y-56361D01*
X79153Y-56398D01*
X79153Y-56463D01*
X79146Y-56481D01*
X79146Y-56540D01*
X79146Y-57918D01*
X79153Y-57936D01*
X79153Y-58001D01*
X79185Y-58032D01*
X79185Y-58150D01*
X79100Y-58149D01*
X79072Y-58161D01*
X79072Y-57859D01*
X79072Y-56540D01*
X79072Y-56481D01*
X79065Y-56463D01*
X79065Y-56398D01*
X79027Y-56361D01*
X78991Y-56360D01*
X78971Y-56369D01*
X78952Y-56360D01*
X78915Y-56361D01*
X78878Y-56398D01*
X78878Y-56463D01*
X78870Y-56481D01*
X78870Y-56540D01*
X78870Y-57112D01*
X78878Y-57119D01*
X78878Y-57150D01*
X78908Y-57150D01*
X79034Y-57150D01*
X79065Y-57150D01*
X79065Y-57119D01*
X79072Y-57112D01*
X79072Y-56540D01*
X79072Y-57859D01*
X79072Y-57287D01*
X79065Y-57280D01*
X79065Y-57250D01*
X79034Y-57250D01*
X78908Y-57250D01*
X78878Y-57250D01*
X78878Y-57280D01*
X78870Y-57287D01*
X78870Y-57859D01*
X78870Y-57918D01*
X78878Y-57936D01*
X78878Y-58001D01*
X78915Y-58038D01*
X78952Y-58039D01*
X78971Y-58030D01*
X78991Y-58039D01*
X79027Y-58038D01*
X79065Y-58001D01*
X79065Y-57936D01*
X79072Y-57918D01*
X79072Y-57859D01*
X79072Y-58161D01*
X79008Y-58187D01*
X78996Y-58200D01*
X78760Y-58200D01*
X78756Y-58200D01*
X78758Y-58191D01*
X78758Y-58191D01*
X78758Y-58032D01*
X78789Y-58001D01*
X78789Y-57936D01*
X78796Y-57918D01*
X78796Y-57859D01*
X78796Y-56481D01*
X78789Y-56463D01*
X78789Y-56398D01*
X78752Y-56361D01*
X78715Y-56360D01*
X78696Y-56369D01*
X78676Y-56361D01*
X78617Y-56360D01*
X78524Y-56360D01*
X78549Y-56299D01*
X78550Y-56200D01*
X78512Y-56108D01*
X78441Y-56038D01*
X78349Y-56000D01*
X78250Y-55999D01*
X78158Y-56037D01*
X78088Y-56108D01*
X78050Y-56200D01*
X78049Y-56299D01*
X78075Y-56361D01*
X78065Y-56360D01*
X77888Y-56360D01*
X77869Y-56369D01*
X77849Y-56360D01*
X77813Y-56361D01*
X77775Y-56398D01*
X77775Y-56463D01*
X77768Y-56481D01*
X77768Y-56540D01*
X77768Y-57257D01*
X77694Y-57257D01*
X77694Y-56540D01*
X77694Y-56481D01*
X77687Y-56463D01*
X77687Y-56398D01*
X77649Y-56361D01*
X77613Y-56360D01*
X77593Y-56369D01*
X77574Y-56360D01*
X77537Y-56361D01*
X77500Y-56398D01*
X77500Y-56463D01*
X77492Y-56481D01*
X77492Y-56540D01*
X77492Y-57112D01*
X77500Y-57119D01*
X77500Y-57150D01*
X77530Y-57150D01*
X77656Y-57150D01*
X77687Y-57150D01*
X77687Y-57119D01*
X77694Y-57112D01*
X77694Y-56540D01*
X77694Y-57257D01*
X77687Y-57257D01*
X77687Y-57250D01*
X77656Y-57250D01*
X77530Y-57250D01*
X77500Y-57250D01*
X77500Y-57280D01*
X77492Y-57287D01*
X77492Y-57859D01*
X77492Y-57918D01*
X77500Y-57936D01*
X77500Y-57996D01*
X77438Y-58058D01*
X77418Y-58104D01*
X77418Y-57859D01*
X77418Y-56540D01*
X77418Y-56481D01*
X77411Y-56463D01*
X77411Y-56398D01*
X77374Y-56361D01*
X77337Y-56360D01*
X77318Y-56369D01*
X77298Y-56360D01*
X77262Y-56361D01*
X77224Y-56398D01*
X77224Y-56463D01*
X77217Y-56481D01*
X77217Y-56540D01*
X77217Y-57112D01*
X77224Y-57119D01*
X77224Y-57150D01*
X77254Y-57150D01*
X77381Y-57150D01*
X77411Y-57150D01*
X77411Y-57119D01*
X77418Y-57112D01*
X77418Y-56540D01*
X77418Y-57859D01*
X77418Y-57287D01*
X77411Y-57280D01*
X77411Y-57250D01*
X77381Y-57250D01*
X77254Y-57250D01*
X77224Y-57250D01*
X77224Y-57280D01*
X77217Y-57287D01*
X77217Y-57859D01*
X77217Y-57918D01*
X77224Y-57936D01*
X77224Y-58001D01*
X77262Y-58038D01*
X77298Y-58039D01*
X77318Y-58030D01*
X77337Y-58039D01*
X77374Y-58038D01*
X77411Y-58001D01*
X77411Y-57936D01*
X77418Y-57918D01*
X77418Y-57859D01*
X77418Y-58104D01*
X77400Y-58150D01*
X77400Y-58167D01*
X77164Y-58402D01*
X76880Y-58402D01*
X76905Y-58385D01*
X77080Y-58210D01*
X77080Y-58210D01*
X77116Y-58157D01*
X77134Y-58130D01*
X77134Y-58130D01*
X77153Y-58035D01*
X77153Y-58035D01*
X77153Y-57200D01*
X77143Y-57150D01*
X77143Y-56481D01*
X77136Y-56463D01*
X77136Y-56398D01*
X77131Y-56394D01*
X77149Y-56349D01*
X77150Y-56250D01*
X77112Y-56158D01*
X77041Y-56088D01*
X76949Y-56050D01*
X76850Y-56049D01*
X76758Y-56087D01*
X76688Y-56158D01*
X76650Y-56250D01*
X76649Y-56349D01*
X76673Y-56406D01*
X76673Y-56463D01*
X76666Y-56481D01*
X76666Y-56540D01*
X76666Y-57150D01*
X76656Y-57200D01*
X76656Y-57257D01*
X76592Y-57257D01*
X76592Y-56481D01*
X76584Y-56463D01*
X76584Y-56398D01*
X76547Y-56361D01*
X76510Y-56360D01*
X76491Y-56369D01*
X76472Y-56361D01*
X76412Y-56360D01*
X76235Y-56360D01*
X76215Y-56369D01*
X76196Y-56361D01*
X76136Y-56360D01*
X76095Y-56360D01*
X76099Y-56349D01*
X76100Y-56250D01*
X76062Y-56158D01*
X75991Y-56088D01*
X75899Y-56050D01*
X75800Y-56049D01*
X75708Y-56087D01*
X75700Y-56096D01*
X75691Y-56088D01*
X75599Y-56050D01*
X75500Y-56049D01*
X75408Y-56087D01*
X75400Y-56096D01*
X75391Y-56088D01*
X75299Y-56050D01*
X75200Y-56049D01*
X75108Y-56087D01*
X75049Y-56146D01*
X74991Y-56088D01*
X74899Y-56050D01*
X74800Y-56049D01*
X74708Y-56087D01*
X74638Y-56158D01*
X74600Y-56250D01*
X74599Y-56349D01*
X74611Y-56378D01*
X74566Y-56395D01*
X74498Y-56462D01*
X74461Y-56549D01*
X74461Y-57150D01*
X74655Y-57150D01*
X74655Y-57142D01*
X74736Y-57142D01*
X74736Y-57918D01*
X74744Y-57936D01*
X74744Y-57996D01*
X74780Y-58025D01*
X74802Y-58016D01*
X74857Y-58038D01*
X74916Y-58039D01*
X75093Y-58039D01*
X75113Y-58030D01*
X75132Y-58038D01*
X75192Y-58039D01*
X75369Y-58039D01*
X75388Y-58030D01*
X75408Y-58038D01*
X75467Y-58039D01*
X75645Y-58039D01*
X75664Y-58030D01*
X75683Y-58038D01*
X75743Y-58039D01*
X75831Y-58039D01*
X75831Y-58156D01*
X75830Y-58160D01*
X75829Y-58259D01*
X75867Y-58351D01*
X75938Y-58421D01*
X76030Y-58459D01*
X76129Y-58460D01*
X76133Y-58458D01*
X76660Y-58458D01*
X76650Y-58467D01*
X76627Y-58522D01*
X76627Y-58582D01*
X76627Y-59133D01*
X76650Y-59188D01*
X76692Y-59231D01*
X76747Y-59253D01*
X76807Y-59253D01*
X77275Y-59253D01*
X77270Y-59280D01*
X77270Y-59376D01*
X77258Y-59388D01*
X77220Y-59480D01*
X77220Y-59518D01*
X77148Y-59547D01*
X77078Y-59618D01*
X77040Y-59710D01*
X77039Y-59809D01*
X77077Y-59901D01*
X77148Y-59971D01*
X77239Y-60009D01*
X77239Y-60039D01*
X77277Y-60131D01*
X77320Y-60174D01*
X77180Y-60174D01*
X77142Y-60211D01*
X77142Y-60550D01*
X77520Y-60550D01*
X77557Y-60512D01*
X77557Y-60354D01*
X77557Y-60294D01*
X77535Y-60240D01*
X77539Y-60240D01*
X77631Y-60202D01*
X77643Y-60190D01*
X77900Y-60190D01*
X77976Y-60174D01*
X78041Y-60131D01*
X78171Y-60001D01*
X78214Y-59936D01*
X78214Y-59936D01*
X78217Y-59923D01*
X78229Y-59860D01*
X78230Y-59860D01*
X78230Y-59632D01*
X78418Y-59444D01*
X78418Y-59897D01*
X78441Y-59952D01*
X78483Y-59994D01*
X78538Y-60017D01*
X78598Y-60017D01*
X79070Y-60017D01*
X79125Y-59994D01*
X79168Y-59952D01*
X79190Y-59897D01*
X79190Y-59838D01*
X79190Y-59513D01*
X79201Y-59502D01*
X79230Y-59433D01*
X79230Y-59357D01*
X79201Y-59288D01*
X79148Y-59234D01*
X79078Y-59205D01*
X79003Y-59205D01*
X78933Y-59234D01*
X78923Y-59245D01*
X78617Y-59245D01*
X79012Y-58850D01*
X79200Y-58850D01*
X79276Y-58834D01*
X79341Y-58791D01*
X79350Y-58782D01*
X79350Y-59900D01*
X79365Y-59976D01*
X79408Y-60041D01*
X79599Y-60232D01*
X79599Y-60249D01*
X79637Y-60341D01*
X79708Y-60411D01*
X79800Y-60449D01*
X79899Y-60450D01*
X79935Y-60435D01*
X79935Y-60512D01*
X79972Y-60550D01*
X80350Y-60550D01*
X80350Y-60211D01*
X80312Y-60174D01*
X80100Y-60174D01*
X80100Y-60150D01*
X80062Y-60058D01*
X79991Y-59988D01*
X79899Y-59950D01*
X79882Y-59950D01*
X79750Y-59817D01*
X79750Y-58732D01*
X79935Y-58547D01*
X79935Y-58582D01*
X79935Y-59133D01*
X79957Y-59188D01*
X79999Y-59231D01*
X80055Y-59253D01*
X80114Y-59253D01*
X80690Y-59253D01*
X80689Y-59349D01*
X80727Y-59441D01*
X80740Y-59453D01*
X80740Y-60174D01*
X80487Y-60174D01*
X80450Y-60211D01*
X80450Y-60550D01*
X80827Y-60550D01*
X80852Y-60525D01*
X81152Y-60825D01*
X81152Y-60825D01*
X81217Y-60869D01*
X81217Y-60869D01*
X81230Y-60871D01*
X81294Y-60884D01*
X81457Y-60884D01*
X81471Y-60918D01*
X81514Y-60960D01*
X81569Y-60983D01*
X81628Y-60983D01*
X82317Y-60983D01*
X82373Y-60961D01*
X82415Y-60918D01*
X82438Y-60863D01*
X82438Y-60804D01*
X82438Y-60504D01*
X82415Y-60449D01*
X82399Y-60434D01*
X82415Y-60418D01*
X82438Y-60363D01*
X82438Y-60304D01*
X82438Y-60004D01*
X82415Y-59949D01*
X82399Y-59934D01*
X82415Y-59918D01*
X82438Y-59863D01*
X82438Y-59804D01*
X82438Y-59504D01*
X82415Y-59449D01*
X82399Y-59434D01*
X82415Y-59418D01*
X82438Y-59363D01*
X82438Y-59304D01*
X82438Y-59004D01*
X82415Y-58949D01*
X82399Y-58934D01*
X82415Y-58918D01*
X82438Y-58863D01*
X82438Y-58804D01*
X82438Y-58504D01*
X82415Y-58449D01*
X82373Y-58407D01*
X82318Y-58384D01*
X82258Y-58384D01*
X81834Y-58384D01*
X81625Y-58175D01*
X81625Y-58082D01*
X81607Y-58039D01*
X81708Y-58039D01*
X81727Y-58030D01*
X81746Y-58038D01*
X81806Y-58039D01*
X81983Y-58039D01*
X82003Y-58030D01*
X82022Y-58038D01*
X82082Y-58039D01*
X82259Y-58039D01*
X82278Y-58030D01*
X82298Y-58039D01*
X82334Y-58038D01*
X82372Y-58001D01*
X82372Y-57936D01*
X82379Y-57918D01*
X82379Y-57859D01*
X82379Y-56481D01*
X82372Y-56463D01*
X82372Y-56398D01*
X82353Y-56379D01*
X82382Y-56350D01*
X82399Y-56350D01*
X82491Y-56312D01*
X82561Y-56241D01*
X82599Y-56149D01*
X82600Y-56050D01*
X82600Y-56361D01*
X82573Y-56360D01*
X82554Y-56369D01*
X82534Y-56360D01*
X82498Y-56361D01*
X82460Y-56398D01*
X82460Y-56463D01*
X82453Y-56481D01*
X82453Y-56540D01*
X82453Y-57112D01*
X82460Y-57119D01*
X82460Y-57150D01*
X82491Y-57150D01*
X82617Y-57150D01*
X82647Y-57150D01*
X82647Y-57119D01*
X82655Y-57112D01*
X82655Y-56540D01*
X82655Y-57859D01*
X82655Y-57287D01*
X82647Y-57280D01*
X82647Y-57250D01*
X82617Y-57250D01*
X82491Y-57250D01*
X82460Y-57250D01*
X82460Y-57280D01*
X82453Y-57287D01*
X82453Y-57859D01*
X82453Y-57918D01*
X82460Y-57936D01*
X82460Y-58001D01*
X82498Y-58038D01*
X82534Y-58039D01*
X82554Y-58030D01*
X82573Y-58039D01*
X82610Y-58038D01*
X82647Y-58001D01*
X82647Y-57936D01*
X82655Y-57918D01*
X82655Y-57859D01*
X82655Y-61019D01*
X82545Y-61064D01*
X82507Y-61136D01*
X82800Y-61429D01*
X83092Y-61136D01*
X83092Y-61277D01*
X82870Y-61500D01*
X83163Y-61792D01*
X83235Y-61754D01*
X83299Y-61568D01*
X83299Y-61892D01*
X83077Y-61892D01*
X83092Y-61863D01*
X82800Y-61570D01*
X82729Y-61641D01*
X82729Y-61500D01*
X82436Y-61207D01*
X82364Y-61245D01*
X82300Y-61431D01*
X82312Y-61627D01*
X82364Y-61754D01*
X82436Y-61792D01*
X82729Y-61500D01*
X82729Y-61641D01*
X82507Y-61863D01*
X82522Y-61892D01*
X82269Y-61892D01*
X82106Y-61892D01*
X82218Y-61780D01*
X82294Y-61598D01*
X82294Y-61402D01*
X82219Y-61220D01*
X82080Y-61081D01*
X81898Y-61005D01*
X81702Y-61005D01*
X81520Y-61080D01*
X81381Y-61219D01*
X81305Y-61401D01*
X81305Y-61597D01*
X81380Y-61779D01*
X81493Y-61892D01*
X81106Y-61892D01*
X81218Y-61780D01*
X81294Y-61598D01*
X81294Y-61402D01*
X81219Y-61220D01*
X81080Y-61081D01*
X80898Y-61005D01*
X80793Y-61005D01*
X80799Y-61002D01*
X80842Y-60960D01*
X80864Y-60905D01*
X80864Y-60845D01*
X80864Y-60687D01*
X80827Y-60650D01*
X80450Y-60650D01*
X80450Y-60988D01*
X80487Y-61025D01*
X80653Y-61025D01*
X80520Y-61080D01*
X80381Y-61219D01*
X80350Y-61294D01*
X80350Y-60988D01*
X80350Y-60650D01*
X79972Y-60650D01*
X79935Y-60687D01*
X79935Y-60845D01*
X79935Y-60905D01*
X79957Y-60960D01*
X80000Y-61002D01*
X80055Y-61025D01*
X80312Y-61025D01*
X80350Y-60988D01*
X80350Y-61294D01*
X80305Y-61401D01*
X80305Y-61597D01*
X80380Y-61779D01*
X80493Y-61892D01*
X77557Y-61892D01*
X77557Y-60845D01*
X77557Y-60687D01*
X77520Y-60650D01*
X77142Y-60650D01*
X77142Y-60988D01*
X77180Y-61025D01*
X77437Y-61025D01*
X77492Y-61002D01*
X77534Y-60960D01*
X77557Y-60905D01*
X77557Y-60845D01*
X77557Y-61892D01*
X77399Y-61892D01*
X77400Y-61800D01*
X77362Y-61708D01*
X77291Y-61638D01*
X77199Y-61600D01*
X77182Y-61600D01*
X76650Y-61067D01*
X76650Y-60958D01*
X76650Y-60960D01*
X76693Y-61002D01*
X76748Y-61025D01*
X77005Y-61025D01*
X77042Y-60988D01*
X77042Y-60650D01*
X77035Y-60650D01*
X77035Y-60550D01*
X77042Y-60550D01*
X77042Y-60211D01*
X77005Y-60174D01*
X76799Y-60174D01*
X76800Y-60100D01*
X76762Y-60008D01*
X76691Y-59938D01*
X76599Y-59900D01*
X76500Y-59899D01*
X76408Y-59937D01*
X76391Y-59954D01*
X76375Y-59916D01*
X76284Y-59824D01*
X76164Y-59775D01*
X76035Y-59774D01*
X75916Y-59824D01*
X75824Y-59915D01*
X75775Y-60035D01*
X75775Y-60073D01*
X75744Y-60103D01*
X75695Y-60070D01*
X75600Y-60051D01*
X74999Y-60051D01*
X74999Y-60049D01*
X74999Y-60032D01*
X75541Y-59491D01*
X75541Y-59491D01*
X75570Y-59448D01*
X75584Y-59426D01*
X75584Y-59426D01*
X75599Y-59350D01*
X75600Y-59350D01*
X75600Y-58753D01*
X75611Y-58741D01*
X75649Y-58649D01*
X75650Y-58550D01*
X75612Y-58458D01*
X75541Y-58388D01*
X75449Y-58350D01*
X75350Y-58349D01*
X75258Y-58387D01*
X75188Y-58458D01*
X75150Y-58550D01*
X75149Y-58649D01*
X75187Y-58741D01*
X75200Y-58753D01*
X75200Y-59267D01*
X74717Y-59749D01*
X74700Y-59749D01*
X74655Y-59768D01*
X74655Y-57996D01*
X74655Y-57250D01*
X74461Y-57250D01*
X74461Y-57850D01*
X74498Y-57937D01*
X74566Y-58004D01*
X74619Y-58025D01*
X74655Y-57996D01*
X74655Y-59768D01*
X74608Y-59787D01*
X74538Y-59858D01*
X74500Y-59950D01*
X74499Y-60049D01*
X74500Y-60051D01*
X73300Y-60051D01*
X73008Y-60051D01*
X73008Y-59947D01*
X72985Y-59892D01*
X72943Y-59850D01*
X72888Y-59827D01*
X72828Y-59827D01*
X72061Y-59827D01*
X72006Y-59849D01*
X71963Y-59892D01*
X71940Y-59947D01*
X71940Y-60006D01*
X71940Y-60408D01*
X71963Y-60463D01*
X72005Y-60505D01*
X72060Y-60528D01*
X72120Y-60528D01*
X72600Y-60528D01*
X72601Y-60529D01*
X72635Y-60536D01*
X72669Y-60546D01*
X72683Y-60545D01*
X72696Y-60548D01*
X73300Y-60548D01*
X75497Y-60548D01*
X75512Y-60564D01*
X75511Y-60564D01*
X75078Y-60564D01*
X75023Y-60586D01*
X74980Y-60629D01*
X74957Y-60684D01*
X74957Y-60743D01*
X74957Y-60827D01*
X74829Y-60827D01*
X74815Y-60794D01*
X74773Y-60752D01*
X74718Y-60729D01*
X74658Y-60729D01*
X74481Y-60729D01*
X74426Y-60752D01*
X74412Y-60765D01*
X74399Y-60752D01*
X74344Y-60729D01*
X74307Y-60729D01*
X74270Y-60767D01*
X74270Y-61026D01*
X74283Y-61026D01*
X74283Y-61126D01*
X74270Y-61126D01*
X74270Y-61134D01*
X74181Y-61134D01*
X74181Y-61126D01*
X74168Y-61126D01*
X74168Y-61026D01*
X74181Y-61026D01*
X74181Y-60767D01*
X74144Y-60729D01*
X74107Y-60729D01*
X74052Y-60752D01*
X74038Y-60765D01*
X74025Y-60752D01*
X73970Y-60729D01*
X73910Y-60729D01*
X73733Y-60729D01*
X73678Y-60752D01*
X73664Y-60765D01*
X73651Y-60752D01*
X73596Y-60729D01*
X73536Y-60729D01*
X73359Y-60729D01*
X73304Y-60752D01*
X73262Y-60794D01*
X73258Y-60804D01*
X73241Y-60788D01*
X73149Y-60750D01*
X73123Y-60750D01*
X73086Y-60725D01*
X73010Y-60710D01*
X72903Y-60710D01*
X72902Y-60707D01*
X72860Y-60664D01*
X72805Y-60642D01*
X72745Y-60641D01*
X72588Y-60641D01*
X72533Y-60664D01*
X72520Y-60678D01*
X72506Y-60664D01*
X72451Y-60641D01*
X72419Y-60642D01*
X72382Y-60679D01*
X72382Y-60860D01*
X72400Y-60860D01*
X72400Y-60960D01*
X72382Y-60960D01*
X72382Y-61140D01*
X72419Y-61178D01*
X72451Y-61178D01*
X72506Y-61155D01*
X72519Y-61141D01*
X72533Y-61155D01*
X72588Y-61177D01*
X72648Y-61178D01*
X72805Y-61178D01*
X72860Y-61155D01*
X72883Y-61131D01*
X72887Y-61141D01*
X72958Y-61211D01*
X73050Y-61249D01*
X73083Y-61249D01*
X73083Y-61249D01*
X73099Y-61261D01*
X73099Y-61261D01*
X73112Y-61263D01*
X73176Y-61276D01*
X73239Y-61276D01*
X73239Y-61302D01*
X73262Y-61358D01*
X73303Y-61400D01*
X73200Y-61400D01*
X73123Y-61415D01*
X73058Y-61458D01*
X72955Y-61561D01*
X72968Y-61531D01*
X72968Y-61314D01*
X72945Y-61259D01*
X72903Y-61217D01*
X72847Y-61194D01*
X72788Y-61194D01*
X72787Y-61194D01*
X72750Y-61232D01*
X72750Y-61383D01*
X72930Y-61383D01*
X72968Y-61346D01*
X72968Y-61314D01*
X72968Y-61531D01*
X72968Y-61499D01*
X72930Y-61462D01*
X72750Y-61462D01*
X72750Y-61480D01*
X72650Y-61480D01*
X72650Y-61462D01*
X72650Y-61383D01*
X72650Y-61232D01*
X72612Y-61194D01*
X72611Y-61194D01*
X72552Y-61194D01*
X72496Y-61217D01*
X72454Y-61259D01*
X72431Y-61314D01*
X72432Y-61346D01*
X72469Y-61383D01*
X72650Y-61383D01*
X72650Y-61462D01*
X72469Y-61462D01*
X72432Y-61499D01*
X72431Y-61531D01*
X72454Y-61586D01*
X72468Y-61599D01*
X72454Y-61613D01*
X72432Y-61668D01*
X72431Y-61728D01*
X72431Y-61885D01*
X72454Y-61940D01*
X72496Y-61982D01*
X72500Y-61983D01*
X72500Y-62016D01*
X72497Y-62017D01*
X72454Y-62059D01*
X72432Y-62114D01*
X72431Y-62174D01*
X72431Y-62331D01*
X72454Y-62386D01*
X72468Y-62399D01*
X72454Y-62413D01*
X72432Y-62468D01*
X72431Y-62528D01*
X72431Y-62685D01*
X72454Y-62740D01*
X72496Y-62782D01*
X72552Y-62805D01*
X72611Y-62805D01*
X72847Y-62805D01*
X72902Y-62782D01*
X72908Y-62777D01*
X72994Y-62777D01*
X73050Y-62799D01*
X73149Y-62800D01*
X73241Y-62762D01*
X73289Y-62713D01*
X73293Y-62731D01*
X73294Y-62733D01*
X73294Y-62847D01*
X73317Y-62902D01*
X73334Y-62920D01*
X72303Y-62920D01*
X72303Y-61140D01*
X72303Y-60960D01*
X72303Y-60860D01*
X72303Y-60679D01*
X72266Y-60642D01*
X72234Y-60641D01*
X72179Y-60664D01*
X72137Y-60706D01*
X72114Y-60762D01*
X72114Y-60821D01*
X72114Y-60822D01*
X72152Y-60860D01*
X72303Y-60860D01*
X72303Y-60960D01*
X72152Y-60960D01*
X72114Y-60997D01*
X72114Y-60998D01*
X72114Y-61057D01*
X72137Y-61113D01*
X72179Y-61155D01*
X72234Y-61178D01*
X72266Y-61178D01*
X72303Y-61140D01*
X72303Y-62920D01*
X70474Y-62920D01*
X70441Y-62887D01*
X71851Y-62887D01*
X71851Y-61612D01*
X71546Y-61612D01*
X71546Y-61108D01*
X71546Y-56699D01*
X71536Y-56443D01*
X71457Y-56252D01*
X71370Y-56195D01*
X70970Y-56595D01*
X71370Y-56994D01*
X71457Y-56938D01*
X71546Y-56699D01*
X71546Y-61108D01*
X71536Y-60853D01*
X71457Y-60661D01*
X71389Y-60617D01*
X71389Y-59751D01*
X71389Y-57980D01*
X71377Y-57787D01*
X71327Y-57665D01*
X71299Y-57651D01*
X71299Y-57065D01*
X70900Y-56665D01*
X70829Y-56736D01*
X70829Y-56595D01*
X70429Y-56195D01*
X70342Y-56252D01*
X70253Y-56491D01*
X70263Y-56746D01*
X70342Y-56938D01*
X70429Y-56994D01*
X70829Y-56595D01*
X70829Y-56736D01*
X70500Y-57065D01*
X70556Y-57152D01*
X70796Y-57241D01*
X71051Y-57232D01*
X71243Y-57152D01*
X71299Y-57065D01*
X71299Y-57651D01*
X71256Y-57628D01*
X71185Y-57699D01*
X71185Y-57557D01*
X71148Y-57487D01*
X70966Y-57424D01*
X70773Y-57436D01*
X70651Y-57487D01*
X70614Y-57557D01*
X70900Y-57843D01*
X71185Y-57557D01*
X71185Y-57699D01*
X70970Y-57914D01*
X71256Y-58199D01*
X71327Y-58162D01*
X71389Y-57980D01*
X71389Y-59751D01*
X71377Y-59559D01*
X71327Y-59437D01*
X71256Y-59400D01*
X71185Y-59470D01*
X71185Y-59329D01*
X71185Y-58270D01*
X70900Y-57984D01*
X70829Y-58055D01*
X70829Y-57914D01*
X70543Y-57628D01*
X70472Y-57665D01*
X70410Y-57848D01*
X70422Y-58040D01*
X70472Y-58162D01*
X70543Y-58199D01*
X70829Y-57914D01*
X70829Y-58055D01*
X70614Y-58270D01*
X70651Y-58341D01*
X70833Y-58403D01*
X71026Y-58391D01*
X71148Y-58341D01*
X71185Y-58270D01*
X71185Y-59329D01*
X71148Y-59258D01*
X70966Y-59196D01*
X70773Y-59208D01*
X70651Y-59258D01*
X70614Y-59329D01*
X70900Y-59615D01*
X71185Y-59329D01*
X71185Y-59470D01*
X70970Y-59685D01*
X71256Y-59971D01*
X71327Y-59934D01*
X71389Y-59751D01*
X71389Y-60617D01*
X71370Y-60605D01*
X71299Y-60675D01*
X71299Y-60534D01*
X71243Y-60447D01*
X71185Y-60425D01*
X71185Y-60042D01*
X70900Y-59756D01*
X70829Y-59827D01*
X70829Y-59685D01*
X70543Y-59400D01*
X70472Y-59437D01*
X70410Y-59619D01*
X70422Y-59812D01*
X70472Y-59934D01*
X70543Y-59971D01*
X70829Y-59685D01*
X70829Y-59827D01*
X70614Y-60042D01*
X70651Y-60112D01*
X70833Y-60175D01*
X71026Y-60163D01*
X71148Y-60112D01*
X71185Y-60042D01*
X71185Y-60425D01*
X71003Y-60358D01*
X70748Y-60367D01*
X70556Y-60447D01*
X70500Y-60534D01*
X70900Y-60934D01*
X71299Y-60534D01*
X71299Y-60675D01*
X70970Y-61004D01*
X71370Y-61404D01*
X71457Y-61347D01*
X71546Y-61108D01*
X71546Y-61612D01*
X71122Y-61612D01*
X71243Y-61562D01*
X71299Y-61475D01*
X70900Y-61075D01*
X70829Y-61146D01*
X70829Y-61004D01*
X70429Y-60605D01*
X70342Y-60661D01*
X70253Y-60900D01*
X70263Y-61156D01*
X70342Y-61347D01*
X70429Y-61404D01*
X70829Y-61004D01*
X70829Y-61146D01*
X70500Y-61475D01*
X70556Y-61562D01*
X70691Y-61612D01*
X70122Y-61612D01*
X70122Y-62568D01*
X69979Y-62425D01*
X69979Y-55174D01*
X70100Y-55053D01*
X70100Y-55990D01*
X70669Y-55990D01*
X70556Y-56037D01*
X70500Y-56124D01*
X70900Y-56524D01*
X71299Y-56124D01*
X71243Y-56037D01*
X71117Y-55990D01*
X73300Y-55990D01*
X73300Y-57298D01*
X73008Y-57589D01*
X73008Y-57250D01*
X73008Y-57191D01*
X72985Y-57136D01*
X72943Y-57094D01*
X72888Y-57071D01*
X72562Y-57071D01*
X72524Y-57108D01*
X72524Y-57372D01*
X72971Y-57372D01*
X73008Y-57334D01*
X73008Y-57250D01*
X73008Y-57589D01*
X73008Y-57589D01*
X73008Y-57509D01*
X72971Y-57472D01*
X72524Y-57472D01*
X72524Y-57735D01*
X72562Y-57772D01*
X72825Y-57772D01*
X72542Y-58055D01*
X72424Y-58055D01*
X72424Y-57735D01*
X72424Y-57472D01*
X72424Y-57372D01*
X72424Y-57108D01*
X72387Y-57071D01*
X72061Y-57071D01*
X72006Y-57094D01*
X71963Y-57136D01*
X71940Y-57191D01*
X71940Y-57250D01*
X71940Y-57334D01*
X71978Y-57372D01*
X72424Y-57372D01*
X72424Y-57472D01*
X71978Y-57472D01*
X71940Y-57509D01*
X71940Y-57593D01*
X71940Y-57652D01*
X71963Y-57707D01*
X72006Y-57750D01*
X72061Y-57772D01*
X72387Y-57772D01*
X72424Y-57735D01*
X72424Y-58055D01*
X72061Y-58055D01*
X72006Y-58078D01*
X71963Y-58120D01*
X71940Y-58175D01*
X71940Y-58235D01*
X71940Y-58636D01*
X71963Y-58691D01*
X72005Y-58734D01*
X72060Y-58757D01*
X72120Y-58757D01*
X72888Y-58757D01*
X72943Y-58734D01*
X72985Y-58692D01*
X73008Y-58637D01*
X73008Y-58577D01*
X73008Y-58175D01*
X73002Y-58161D01*
X73641Y-57522D01*
X73684Y-57457D01*
X73684Y-57457D01*
X73700Y-57381D01*
X73700Y-55982D01*
X74382Y-55300D01*
X74550Y-55300D01*
X74486Y-55312D01*
X74473Y-55315D01*
X74408Y-55358D01*
X73858Y-55908D01*
X73815Y-55973D01*
X73800Y-56050D01*
X73800Y-58217D01*
X73023Y-58993D01*
X73008Y-58993D01*
X73008Y-58963D01*
X72985Y-58908D01*
X72943Y-58865D01*
X72888Y-58842D01*
X72828Y-58842D01*
X72061Y-58842D01*
X72006Y-58865D01*
X71963Y-58907D01*
X71940Y-58962D01*
X71940Y-59022D01*
X71940Y-59424D01*
X71963Y-59479D01*
X72005Y-59521D01*
X72060Y-59544D01*
X72120Y-59544D01*
X72888Y-59544D01*
X72943Y-59521D01*
X72985Y-59479D01*
X73008Y-59424D01*
X73008Y-59393D01*
X73106Y-59393D01*
X73182Y-59378D01*
X73247Y-59335D01*
X74141Y-58441D01*
X74141Y-58441D01*
X74170Y-58398D01*
X74184Y-58376D01*
X74184Y-58376D01*
X74199Y-58300D01*
X74200Y-58300D01*
X74200Y-56132D01*
X74632Y-55700D01*
X83167Y-55700D01*
X84300Y-56832D01*
X84300Y-58193D01*
X84315Y-58270D01*
X84358Y-58335D01*
X85098Y-59075D01*
X85084Y-59110D01*
X85084Y-59276D01*
X85147Y-59428D01*
X85264Y-59545D01*
X85416Y-59609D01*
X85582Y-59609D01*
X85735Y-59546D01*
X85852Y-59429D01*
X85915Y-59276D01*
X85915Y-59111D01*
X85852Y-58958D01*
X85735Y-58841D01*
X85635Y-58799D01*
X85735Y-58758D01*
X85852Y-58642D01*
X85915Y-58489D01*
X85915Y-58323D01*
X85852Y-58171D01*
X85735Y-58054D01*
X85735Y-58053D01*
X85735Y-57728D01*
X85500Y-57492D01*
X85264Y-57728D01*
X85293Y-57791D01*
X85450Y-57843D01*
X85615Y-57829D01*
X85706Y-57791D01*
X85735Y-57728D01*
X85735Y-58053D01*
X85583Y-57990D01*
X85417Y-57990D01*
X85381Y-58005D01*
X85100Y-57723D01*
X85100Y-57556D01*
X85130Y-57629D01*
X85193Y-57657D01*
X85429Y-57422D01*
X85193Y-57186D01*
X85130Y-57215D01*
X85100Y-57307D01*
X85100Y-56550D01*
X85084Y-56473D01*
X85084Y-56473D01*
X85070Y-56451D01*
X85041Y-56408D01*
X85041Y-56408D01*
X83591Y-54958D01*
X83526Y-54915D01*
X83450Y-54900D01*
X74300Y-54900D01*
X74223Y-54915D01*
X74201Y-54929D01*
X74158Y-54958D01*
X73499Y-55617D01*
X73499Y-54722D01*
X70431Y-54722D01*
X70474Y-54679D01*
X86925Y-54679D01*
X87420Y-55174D01*
X87420Y-62425D01*
M02*
