G04 (created by PCBNEW (2013-03-31 BZR 4008)-stable) date 8/4/2013 12:46:54 PM*
%MOIN*%
G04 Gerber Fmt 3.4, Leading zero omitted, Abs format*
%FSLAX34Y34*%
G01*
G70*
G90*
G04 APERTURE LIST*
%ADD10C,0.006*%
%ADD11C,0.0688976*%
%ADD12R,0.0394X0.0276*%
%ADD13R,0.025X0.045*%
%ADD14R,0.0688976X0.0433071*%
%ADD15C,0.035*%
%ADD16C,0.019685*%
G04 APERTURE END LIST*
G54D10*
G54D11*
X88050Y-39450D03*
X88050Y-43950D03*
X86050Y-43950D03*
X87050Y-39450D03*
X87050Y-43950D03*
G54D12*
X86050Y-42175D03*
X86050Y-41800D03*
X86050Y-41425D03*
X87050Y-41425D03*
X87050Y-41800D03*
X87050Y-42175D03*
G54D13*
X87850Y-42200D03*
X88450Y-42200D03*
X84450Y-40950D03*
X85050Y-40950D03*
X84850Y-43000D03*
X85450Y-43000D03*
X88450Y-43000D03*
X87850Y-43000D03*
X85050Y-41800D03*
X84450Y-41800D03*
G54D14*
X87058Y-40324D03*
X87058Y-40875D03*
X88141Y-40324D03*
X88141Y-40875D03*
G54D15*
X85450Y-41350D03*
X85450Y-42350D03*
X86050Y-42700D03*
X85300Y-43700D03*
G54D16*
X87850Y-43000D02*
X87850Y-43750D01*
X87850Y-43750D02*
X88050Y-43950D01*
X87850Y-42200D02*
X87850Y-43000D01*
X85450Y-43000D02*
X85550Y-43100D01*
X87050Y-43100D02*
X87050Y-42175D01*
X85550Y-43100D02*
X87050Y-43100D01*
X87850Y-42200D02*
X87825Y-42175D01*
X87825Y-42175D02*
X87050Y-42175D01*
X84450Y-40950D02*
X84450Y-41800D01*
X86050Y-41800D02*
X85050Y-41800D01*
X84850Y-43000D02*
X85450Y-42350D01*
X86050Y-41425D02*
X85525Y-41425D01*
X85525Y-41425D02*
X85450Y-41350D01*
X85450Y-41350D02*
X85050Y-40950D01*
X86050Y-43950D02*
X85800Y-43700D01*
X86050Y-42700D02*
X86050Y-42175D01*
X85800Y-43700D02*
X85300Y-43700D01*
X87058Y-40324D02*
X87058Y-39458D01*
X87058Y-39458D02*
X87050Y-39450D01*
X88141Y-40324D02*
X88141Y-39541D01*
X88141Y-39541D02*
X88050Y-39450D01*
X87058Y-40875D02*
X87058Y-41416D01*
X87058Y-41416D02*
X87050Y-41425D01*
M02*
