G04 (created by PCBNEW (2013-03-31 BZR 4008)-stable) date 8/4/2013 12:46:54 PM*
%MOIN*%
G04 Gerber Fmt 3.4, Leading zero omitted, Abs format*
%FSLAX34Y34*%
G01*
G70*
G90*
G04 APERTURE LIST*
%ADD10C,0.006*%
%ADD11C,0.00492126*%
%ADD12C,0.005*%
%ADD13C,0.00590551*%
%ADD14C,0.00393701*%
%ADD15C,0.003*%
%ADD16C,0.0045*%
G04 APERTURE END LIST*
G54D10*
G54D11*
X83837Y-39220D02*
X83856Y-39229D01*
X83893Y-39229D01*
X83912Y-39220D01*
X83921Y-39201D01*
X83921Y-39192D01*
X83912Y-39173D01*
X83893Y-39164D01*
X83865Y-39164D01*
X83846Y-39154D01*
X83837Y-39135D01*
X83837Y-39126D01*
X83846Y-39107D01*
X83865Y-39098D01*
X83893Y-39098D01*
X83912Y-39107D01*
X84006Y-39229D02*
X84006Y-39032D01*
X84090Y-39229D02*
X84090Y-39126D01*
X84081Y-39107D01*
X84062Y-39098D01*
X84034Y-39098D01*
X84015Y-39107D01*
X84006Y-39117D01*
X84268Y-39098D02*
X84268Y-39229D01*
X84184Y-39098D02*
X84184Y-39201D01*
X84193Y-39220D01*
X84212Y-39229D01*
X84240Y-39229D01*
X84259Y-39220D01*
X84268Y-39210D01*
X84362Y-39098D02*
X84362Y-39229D01*
X84362Y-39117D02*
X84371Y-39107D01*
X84390Y-39098D01*
X84418Y-39098D01*
X84437Y-39107D01*
X84446Y-39126D01*
X84446Y-39229D01*
X84512Y-39098D02*
X84587Y-39098D01*
X84540Y-39032D02*
X84540Y-39201D01*
X84549Y-39220D01*
X84568Y-39229D01*
X84587Y-39229D01*
X84774Y-39098D02*
X84849Y-39098D01*
X84802Y-39032D02*
X84802Y-39201D01*
X84812Y-39220D01*
X84831Y-39229D01*
X84849Y-39229D01*
X84906Y-39220D02*
X84924Y-39229D01*
X84962Y-39229D01*
X84981Y-39220D01*
X84990Y-39201D01*
X84990Y-39192D01*
X84981Y-39173D01*
X84962Y-39164D01*
X84934Y-39164D01*
X84915Y-39154D01*
X84906Y-39135D01*
X84906Y-39126D01*
X84915Y-39107D01*
X84934Y-39098D01*
X84962Y-39098D01*
X84981Y-39107D01*
X85046Y-39098D02*
X85121Y-39098D01*
X85074Y-39032D02*
X85074Y-39201D01*
X85084Y-39220D01*
X85102Y-39229D01*
X85121Y-39229D01*
X85337Y-39229D02*
X85337Y-39032D01*
X85337Y-39107D02*
X85356Y-39098D01*
X85393Y-39098D01*
X85412Y-39107D01*
X85421Y-39117D01*
X85431Y-39135D01*
X85431Y-39192D01*
X85421Y-39210D01*
X85412Y-39220D01*
X85393Y-39229D01*
X85356Y-39229D01*
X85337Y-39220D01*
X85515Y-39229D02*
X85515Y-39098D01*
X85515Y-39135D02*
X85524Y-39117D01*
X85534Y-39107D01*
X85552Y-39098D01*
X85571Y-39098D01*
X85721Y-39229D02*
X85721Y-39032D01*
X85721Y-39220D02*
X85702Y-39229D01*
X85665Y-39229D01*
X85646Y-39220D01*
X85637Y-39210D01*
X85627Y-39192D01*
X85627Y-39135D01*
X85637Y-39117D01*
X85646Y-39107D01*
X85665Y-39098D01*
X85702Y-39098D01*
X85721Y-39107D01*
X83931Y-39423D02*
X83931Y-39582D01*
X83921Y-39601D01*
X83912Y-39610D01*
X83893Y-39620D01*
X83865Y-39620D01*
X83846Y-39610D01*
X83931Y-39545D02*
X83912Y-39554D01*
X83874Y-39554D01*
X83856Y-39545D01*
X83846Y-39535D01*
X83837Y-39516D01*
X83837Y-39460D01*
X83846Y-39441D01*
X83856Y-39432D01*
X83874Y-39423D01*
X83912Y-39423D01*
X83931Y-39432D01*
X84024Y-39554D02*
X84024Y-39423D01*
X84024Y-39357D02*
X84015Y-39367D01*
X84024Y-39376D01*
X84034Y-39367D01*
X84024Y-39357D01*
X84024Y-39376D01*
X84090Y-39423D02*
X84165Y-39423D01*
X84118Y-39357D02*
X84118Y-39526D01*
X84128Y-39545D01*
X84146Y-39554D01*
X84165Y-39554D01*
X84231Y-39535D02*
X84240Y-39545D01*
X84231Y-39554D01*
X84221Y-39545D01*
X84231Y-39535D01*
X84231Y-39554D01*
X84324Y-39554D02*
X84324Y-39423D01*
X84324Y-39357D02*
X84315Y-39367D01*
X84324Y-39376D01*
X84334Y-39367D01*
X84324Y-39357D01*
X84324Y-39376D01*
X84446Y-39554D02*
X84428Y-39545D01*
X84418Y-39535D01*
X84409Y-39516D01*
X84409Y-39460D01*
X84418Y-39441D01*
X84428Y-39432D01*
X84446Y-39423D01*
X84474Y-39423D01*
X84493Y-39432D01*
X84503Y-39441D01*
X84512Y-39460D01*
X84512Y-39516D01*
X84503Y-39535D01*
X84493Y-39545D01*
X84474Y-39554D01*
X84446Y-39554D01*
X84737Y-39348D02*
X84568Y-39601D01*
X84831Y-39554D02*
X84812Y-39545D01*
X84802Y-39535D01*
X84793Y-39516D01*
X84793Y-39460D01*
X84802Y-39441D01*
X84812Y-39432D01*
X84831Y-39423D01*
X84859Y-39423D01*
X84877Y-39432D01*
X84887Y-39441D01*
X84896Y-39460D01*
X84896Y-39516D01*
X84887Y-39535D01*
X84877Y-39545D01*
X84859Y-39554D01*
X84831Y-39554D01*
X85046Y-39451D02*
X85074Y-39460D01*
X85084Y-39470D01*
X85093Y-39488D01*
X85093Y-39516D01*
X85084Y-39535D01*
X85074Y-39545D01*
X85056Y-39554D01*
X84981Y-39554D01*
X84981Y-39357D01*
X85046Y-39357D01*
X85065Y-39367D01*
X85074Y-39376D01*
X85084Y-39395D01*
X85084Y-39413D01*
X85074Y-39432D01*
X85065Y-39441D01*
X85046Y-39451D01*
X84981Y-39451D01*
X85262Y-39423D02*
X85262Y-39554D01*
X85215Y-39348D02*
X85168Y-39488D01*
X85290Y-39488D01*
X85402Y-39357D02*
X85421Y-39357D01*
X85440Y-39367D01*
X85449Y-39376D01*
X85459Y-39395D01*
X85468Y-39432D01*
X85468Y-39479D01*
X85459Y-39516D01*
X85449Y-39535D01*
X85440Y-39545D01*
X85421Y-39554D01*
X85402Y-39554D01*
X85384Y-39545D01*
X85374Y-39535D01*
X85365Y-39516D01*
X85356Y-39479D01*
X85356Y-39432D01*
X85365Y-39395D01*
X85374Y-39376D01*
X85384Y-39367D01*
X85402Y-39357D01*
X85552Y-39451D02*
X85618Y-39451D01*
X85646Y-39554D02*
X85552Y-39554D01*
X85552Y-39357D01*
X85646Y-39357D01*
X85862Y-39573D02*
X85843Y-39563D01*
X85824Y-39545D01*
X85796Y-39516D01*
X85777Y-39507D01*
X85759Y-39507D01*
X85768Y-39554D02*
X85749Y-39545D01*
X85731Y-39526D01*
X85721Y-39488D01*
X85721Y-39423D01*
X85731Y-39385D01*
X85749Y-39367D01*
X85768Y-39357D01*
X85805Y-39357D01*
X85824Y-39367D01*
X85843Y-39385D01*
X85852Y-39423D01*
X85852Y-39488D01*
X85843Y-39526D01*
X85824Y-39545D01*
X85805Y-39554D01*
X85768Y-39554D01*
X83828Y-39748D02*
X83874Y-39879D01*
X83921Y-39748D01*
X84034Y-39682D02*
X84053Y-39682D01*
X84071Y-39691D01*
X84081Y-39701D01*
X84090Y-39719D01*
X84099Y-39757D01*
X84099Y-39804D01*
X84090Y-39841D01*
X84081Y-39860D01*
X84071Y-39869D01*
X84053Y-39879D01*
X84034Y-39879D01*
X84015Y-39869D01*
X84006Y-39860D01*
X83996Y-39841D01*
X83987Y-39804D01*
X83987Y-39757D01*
X83996Y-39719D01*
X84006Y-39701D01*
X84015Y-39691D01*
X84034Y-39682D01*
X84184Y-39860D02*
X84193Y-39869D01*
X84184Y-39879D01*
X84174Y-39869D01*
X84184Y-39860D01*
X84184Y-39879D01*
X84381Y-39879D02*
X84268Y-39879D01*
X84324Y-39879D02*
X84324Y-39682D01*
X84306Y-39710D01*
X84287Y-39729D01*
X84268Y-39738D01*
X83931Y-40204D02*
X83931Y-40100D01*
X83921Y-40082D01*
X83903Y-40072D01*
X83865Y-40072D01*
X83846Y-40082D01*
X83931Y-40194D02*
X83912Y-40204D01*
X83865Y-40204D01*
X83846Y-40194D01*
X83837Y-40175D01*
X83837Y-40157D01*
X83846Y-40138D01*
X83865Y-40129D01*
X83912Y-40129D01*
X83931Y-40119D01*
X84109Y-40072D02*
X84109Y-40204D01*
X84024Y-40072D02*
X84024Y-40175D01*
X84034Y-40194D01*
X84053Y-40204D01*
X84081Y-40204D01*
X84099Y-40194D01*
X84109Y-40185D01*
X84287Y-40072D02*
X84287Y-40232D01*
X84278Y-40250D01*
X84268Y-40260D01*
X84249Y-40269D01*
X84221Y-40269D01*
X84203Y-40260D01*
X84287Y-40194D02*
X84268Y-40204D01*
X84231Y-40204D01*
X84212Y-40194D01*
X84203Y-40185D01*
X84193Y-40166D01*
X84193Y-40110D01*
X84203Y-40091D01*
X84212Y-40082D01*
X84231Y-40072D01*
X84268Y-40072D01*
X84287Y-40082D01*
X84381Y-40129D02*
X84531Y-40129D01*
X84615Y-40025D02*
X84624Y-40016D01*
X84643Y-40007D01*
X84690Y-40007D01*
X84709Y-40016D01*
X84718Y-40025D01*
X84728Y-40044D01*
X84728Y-40063D01*
X84718Y-40091D01*
X84606Y-40204D01*
X84728Y-40204D01*
X84849Y-40007D02*
X84868Y-40007D01*
X84887Y-40016D01*
X84896Y-40025D01*
X84906Y-40044D01*
X84915Y-40082D01*
X84915Y-40129D01*
X84906Y-40166D01*
X84896Y-40185D01*
X84887Y-40194D01*
X84868Y-40204D01*
X84849Y-40204D01*
X84831Y-40194D01*
X84821Y-40185D01*
X84812Y-40166D01*
X84802Y-40129D01*
X84802Y-40082D01*
X84812Y-40044D01*
X84821Y-40025D01*
X84831Y-40016D01*
X84849Y-40007D01*
X85102Y-40204D02*
X84990Y-40204D01*
X85046Y-40204D02*
X85046Y-40007D01*
X85027Y-40035D01*
X85009Y-40054D01*
X84990Y-40063D01*
X85168Y-40007D02*
X85290Y-40007D01*
X85224Y-40082D01*
X85252Y-40082D01*
X85271Y-40091D01*
X85281Y-40100D01*
X85290Y-40119D01*
X85290Y-40166D01*
X85281Y-40185D01*
X85271Y-40194D01*
X85252Y-40204D01*
X85196Y-40204D01*
X85177Y-40194D01*
X85168Y-40185D01*
G54D12*
X86850Y-42000D02*
X86650Y-42300D01*
X86850Y-41300D02*
X86850Y-42325D01*
X86850Y-42325D02*
X86250Y-42325D01*
X86250Y-42325D02*
X86250Y-41300D01*
X86250Y-41300D02*
X86850Y-41300D01*
X87700Y-41950D02*
X88600Y-41950D01*
X88600Y-41950D02*
X88600Y-42450D01*
X88600Y-42450D02*
X87700Y-42450D01*
X87700Y-42450D02*
X87700Y-41950D01*
X84300Y-40700D02*
X85200Y-40700D01*
X85200Y-40700D02*
X85200Y-41200D01*
X85200Y-41200D02*
X84300Y-41200D01*
X84300Y-41200D02*
X84300Y-40700D01*
X84700Y-42750D02*
X85600Y-42750D01*
X85600Y-42750D02*
X85600Y-43250D01*
X85600Y-43250D02*
X84700Y-43250D01*
X84700Y-43250D02*
X84700Y-42750D01*
X88600Y-43250D02*
X87700Y-43250D01*
X87700Y-43250D02*
X87700Y-42750D01*
X87700Y-42750D02*
X88600Y-42750D01*
X88600Y-42750D02*
X88600Y-43250D01*
X85200Y-42050D02*
X84300Y-42050D01*
X84300Y-42050D02*
X84300Y-41550D01*
X84300Y-41550D02*
X85200Y-41550D01*
X85200Y-41550D02*
X85200Y-42050D01*
G54D13*
X88585Y-39911D02*
X88861Y-39819D01*
X88585Y-39728D01*
X88861Y-39504D02*
X88861Y-39636D01*
X88585Y-39636D01*
X88861Y-39413D02*
X88585Y-39413D01*
X88585Y-39347D01*
X88599Y-39308D01*
X88625Y-39281D01*
X88651Y-39268D01*
X88704Y-39255D01*
X88743Y-39255D01*
X88795Y-39268D01*
X88822Y-39281D01*
X88848Y-39308D01*
X88861Y-39347D01*
X88861Y-39413D01*
X88756Y-39137D02*
X88756Y-38927D01*
G54D11*
X87703Y-44432D02*
X87768Y-44629D01*
X87834Y-44432D01*
X87937Y-44432D02*
X87975Y-44432D01*
X87993Y-44442D01*
X88012Y-44460D01*
X88021Y-44498D01*
X88021Y-44564D01*
X88012Y-44601D01*
X87993Y-44620D01*
X87975Y-44629D01*
X87937Y-44629D01*
X87918Y-44620D01*
X87900Y-44601D01*
X87890Y-44564D01*
X87890Y-44498D01*
X87900Y-44460D01*
X87918Y-44442D01*
X87937Y-44432D01*
X88106Y-44432D02*
X88106Y-44592D01*
X88115Y-44610D01*
X88124Y-44620D01*
X88143Y-44629D01*
X88181Y-44629D01*
X88199Y-44620D01*
X88209Y-44610D01*
X88218Y-44592D01*
X88218Y-44432D01*
X88284Y-44432D02*
X88396Y-44432D01*
X88340Y-44629D02*
X88340Y-44432D01*
X85689Y-44432D02*
X85754Y-44629D01*
X85820Y-44432D01*
X85951Y-44526D02*
X85979Y-44535D01*
X85989Y-44545D01*
X85998Y-44564D01*
X85998Y-44592D01*
X85989Y-44610D01*
X85979Y-44620D01*
X85960Y-44629D01*
X85885Y-44629D01*
X85885Y-44432D01*
X85951Y-44432D01*
X85970Y-44442D01*
X85979Y-44451D01*
X85989Y-44470D01*
X85989Y-44489D01*
X85979Y-44507D01*
X85970Y-44517D01*
X85951Y-44526D01*
X85885Y-44526D01*
X86082Y-44432D02*
X86082Y-44592D01*
X86092Y-44610D01*
X86101Y-44620D01*
X86120Y-44629D01*
X86157Y-44629D01*
X86176Y-44620D01*
X86185Y-44610D01*
X86195Y-44592D01*
X86195Y-44432D01*
X86279Y-44620D02*
X86307Y-44629D01*
X86354Y-44629D01*
X86373Y-44620D01*
X86382Y-44610D01*
X86392Y-44592D01*
X86392Y-44573D01*
X86382Y-44554D01*
X86373Y-44545D01*
X86354Y-44535D01*
X86317Y-44526D01*
X86298Y-44517D01*
X86289Y-44507D01*
X86279Y-44489D01*
X86279Y-44470D01*
X86289Y-44451D01*
X86298Y-44442D01*
X86317Y-44432D01*
X86364Y-44432D01*
X86392Y-44442D01*
G54D13*
X86235Y-39961D02*
X86511Y-39869D01*
X86235Y-39778D01*
X86511Y-39554D02*
X86511Y-39686D01*
X86235Y-39686D01*
X86511Y-39463D02*
X86235Y-39463D01*
X86235Y-39397D01*
X86249Y-39358D01*
X86275Y-39331D01*
X86301Y-39318D01*
X86354Y-39305D01*
X86393Y-39305D01*
X86445Y-39318D01*
X86472Y-39331D01*
X86498Y-39358D01*
X86511Y-39397D01*
X86511Y-39463D01*
X86406Y-39187D02*
X86406Y-38977D01*
X86511Y-39082D02*
X86301Y-39082D01*
G54D11*
X86900Y-44442D02*
X86881Y-44432D01*
X86853Y-44432D01*
X86825Y-44442D01*
X86806Y-44460D01*
X86796Y-44479D01*
X86787Y-44517D01*
X86787Y-44545D01*
X86796Y-44582D01*
X86806Y-44601D01*
X86825Y-44620D01*
X86853Y-44629D01*
X86871Y-44629D01*
X86900Y-44620D01*
X86909Y-44610D01*
X86909Y-44545D01*
X86871Y-44545D01*
X86993Y-44629D02*
X86993Y-44432D01*
X87106Y-44629D01*
X87106Y-44432D01*
X87199Y-44629D02*
X87199Y-44432D01*
X87246Y-44432D01*
X87274Y-44442D01*
X87293Y-44460D01*
X87303Y-44479D01*
X87312Y-44517D01*
X87312Y-44545D01*
X87303Y-44582D01*
X87293Y-44601D01*
X87274Y-44620D01*
X87246Y-44629D01*
X87199Y-44629D01*
G54D14*
X86371Y-42471D02*
X86371Y-42714D01*
X86385Y-42742D01*
X86400Y-42757D01*
X86428Y-42771D01*
X86485Y-42771D01*
X86514Y-42757D01*
X86528Y-42742D01*
X86542Y-42714D01*
X86542Y-42471D01*
X86842Y-42771D02*
X86671Y-42771D01*
X86757Y-42771D02*
X86757Y-42471D01*
X86728Y-42514D01*
X86700Y-42542D01*
X86671Y-42557D01*
G54D15*
X86573Y-42295D02*
X86573Y-42201D01*
X86629Y-42314D02*
X86432Y-42248D01*
X86629Y-42183D01*
X86629Y-42117D02*
X86432Y-42117D01*
X86432Y-42070D01*
X86442Y-42042D01*
X86460Y-42023D01*
X86479Y-42014D01*
X86517Y-42004D01*
X86545Y-42004D01*
X86582Y-42014D01*
X86601Y-42023D01*
X86620Y-42042D01*
X86629Y-42070D01*
X86629Y-42117D01*
X86517Y-41892D02*
X86507Y-41911D01*
X86498Y-41920D01*
X86479Y-41929D01*
X86470Y-41929D01*
X86451Y-41920D01*
X86442Y-41911D01*
X86432Y-41892D01*
X86432Y-41854D01*
X86442Y-41835D01*
X86451Y-41826D01*
X86470Y-41817D01*
X86479Y-41817D01*
X86498Y-41826D01*
X86507Y-41835D01*
X86517Y-41854D01*
X86517Y-41892D01*
X86526Y-41911D01*
X86535Y-41920D01*
X86554Y-41929D01*
X86592Y-41929D01*
X86610Y-41920D01*
X86620Y-41911D01*
X86629Y-41892D01*
X86629Y-41854D01*
X86620Y-41835D01*
X86610Y-41826D01*
X86592Y-41817D01*
X86554Y-41817D01*
X86535Y-41826D01*
X86526Y-41835D01*
X86517Y-41854D01*
X86432Y-41638D02*
X86432Y-41732D01*
X86526Y-41742D01*
X86517Y-41732D01*
X86507Y-41714D01*
X86507Y-41667D01*
X86517Y-41648D01*
X86526Y-41638D01*
X86545Y-41629D01*
X86592Y-41629D01*
X86610Y-41638D01*
X86620Y-41648D01*
X86629Y-41667D01*
X86629Y-41714D01*
X86620Y-41732D01*
X86610Y-41742D01*
X86629Y-41535D02*
X86629Y-41498D01*
X86620Y-41479D01*
X86610Y-41470D01*
X86582Y-41451D01*
X86545Y-41441D01*
X86470Y-41441D01*
X86451Y-41451D01*
X86442Y-41460D01*
X86432Y-41479D01*
X86432Y-41517D01*
X86442Y-41535D01*
X86451Y-41545D01*
X86470Y-41554D01*
X86517Y-41554D01*
X86535Y-41545D01*
X86545Y-41535D01*
X86554Y-41517D01*
X86554Y-41479D01*
X86545Y-41460D01*
X86535Y-41451D01*
X86517Y-41441D01*
X86629Y-41254D02*
X86629Y-41366D01*
X86629Y-41310D02*
X86432Y-41310D01*
X86460Y-41329D01*
X86479Y-41348D01*
X86489Y-41366D01*
G54D16*
X88420Y-41811D02*
X88411Y-41821D01*
X88385Y-41830D01*
X88368Y-41830D01*
X88342Y-41821D01*
X88325Y-41802D01*
X88317Y-41783D01*
X88308Y-41745D01*
X88308Y-41716D01*
X88317Y-41678D01*
X88325Y-41659D01*
X88342Y-41640D01*
X88368Y-41630D01*
X88385Y-41630D01*
X88411Y-41640D01*
X88420Y-41650D01*
X88591Y-41830D02*
X88488Y-41830D01*
X88540Y-41830D02*
X88540Y-41630D01*
X88522Y-41659D01*
X88505Y-41678D01*
X88488Y-41688D01*
G54D14*
X83920Y-41030D02*
X83860Y-40935D01*
X83817Y-41030D02*
X83817Y-40830D01*
X83885Y-40830D01*
X83902Y-40840D01*
X83911Y-40850D01*
X83920Y-40869D01*
X83920Y-40897D01*
X83911Y-40916D01*
X83902Y-40926D01*
X83885Y-40935D01*
X83817Y-40935D01*
X83988Y-40850D02*
X83997Y-40840D01*
X84014Y-40830D01*
X84057Y-40830D01*
X84074Y-40840D01*
X84082Y-40850D01*
X84091Y-40869D01*
X84091Y-40888D01*
X84082Y-40916D01*
X83980Y-41030D01*
X84091Y-41030D01*
X84320Y-43080D02*
X84260Y-42985D01*
X84217Y-43080D02*
X84217Y-42880D01*
X84285Y-42880D01*
X84302Y-42890D01*
X84311Y-42900D01*
X84320Y-42919D01*
X84320Y-42947D01*
X84311Y-42966D01*
X84302Y-42976D01*
X84285Y-42985D01*
X84217Y-42985D01*
X84380Y-42880D02*
X84491Y-42880D01*
X84431Y-42957D01*
X84457Y-42957D01*
X84474Y-42966D01*
X84482Y-42976D01*
X84491Y-42995D01*
X84491Y-43042D01*
X84482Y-43061D01*
X84474Y-43071D01*
X84457Y-43080D01*
X84405Y-43080D01*
X84388Y-43071D01*
X84380Y-43061D01*
G54D16*
X88420Y-43580D02*
X88360Y-43485D01*
X88317Y-43580D02*
X88317Y-43380D01*
X88385Y-43380D01*
X88402Y-43390D01*
X88411Y-43400D01*
X88420Y-43419D01*
X88420Y-43447D01*
X88411Y-43466D01*
X88402Y-43476D01*
X88385Y-43485D01*
X88317Y-43485D01*
X88574Y-43447D02*
X88574Y-43580D01*
X88531Y-43371D02*
X88488Y-43514D01*
X88600Y-43514D01*
G54D14*
X83920Y-41880D02*
X83860Y-41785D01*
X83817Y-41880D02*
X83817Y-41680D01*
X83885Y-41680D01*
X83902Y-41690D01*
X83911Y-41700D01*
X83920Y-41719D01*
X83920Y-41747D01*
X83911Y-41766D01*
X83902Y-41776D01*
X83885Y-41785D01*
X83817Y-41785D01*
X84082Y-41680D02*
X83997Y-41680D01*
X83988Y-41776D01*
X83997Y-41766D01*
X84014Y-41757D01*
X84057Y-41757D01*
X84074Y-41766D01*
X84082Y-41776D01*
X84091Y-41795D01*
X84091Y-41842D01*
X84082Y-41861D01*
X84074Y-41871D01*
X84057Y-41880D01*
X84014Y-41880D01*
X83997Y-41871D01*
X83988Y-41861D01*
X87547Y-41577D02*
X87442Y-41427D01*
X87367Y-41577D02*
X87367Y-41262D01*
X87487Y-41262D01*
X87517Y-41277D01*
X87532Y-41292D01*
X87547Y-41322D01*
X87547Y-41367D01*
X87532Y-41397D01*
X87517Y-41412D01*
X87487Y-41427D01*
X87367Y-41427D01*
X87847Y-41577D02*
X87667Y-41577D01*
X87757Y-41577D02*
X87757Y-41262D01*
X87727Y-41307D01*
X87697Y-41337D01*
X87667Y-41352D01*
M02*
