G04 (created by PCBNEW (2013-03-04 BZR 3984)-stable) date 10/11/2013 5:02:54 PM*
%MOIN*%
G04 Gerber Fmt 3.4, Leading zero omitted, Abs format*
%FSLAX34Y34*%
G01*
G70*
G90*
G04 APERTURE LIST*
%ADD10C,0.006*%
%ADD11C,0.0688976*%
%ADD12R,0.025X0.045*%
%ADD13R,0.0688976X0.0433071*%
%ADD14R,0.0138X0.0453*%
%ADD15C,0.035*%
%ADD16C,0.01*%
%ADD17C,0.019685*%
%ADD18C,0.00590551*%
G04 APERTURE END LIST*
G54D10*
G54D11*
X88050Y-39450D03*
X88050Y-43950D03*
X86925Y-43950D03*
X87050Y-39450D03*
X84675Y-43950D03*
G54D12*
X87850Y-42200D03*
X88450Y-42200D03*
X84550Y-41500D03*
X85150Y-41500D03*
X84550Y-43000D03*
X85150Y-43000D03*
X88450Y-43000D03*
X87850Y-43000D03*
G54D13*
X87058Y-40324D03*
X87058Y-40875D03*
X88141Y-40324D03*
X88141Y-40875D03*
G54D14*
X86656Y-42000D03*
X86400Y-42000D03*
X86144Y-42000D03*
X86144Y-42748D03*
X86400Y-42748D03*
X86656Y-42748D03*
G54D11*
X85800Y-43950D03*
G54D15*
X85700Y-43000D03*
X87150Y-42750D03*
G54D16*
X87850Y-43000D02*
X87600Y-42750D01*
X87600Y-42750D02*
X87150Y-42750D01*
X85150Y-43000D02*
X85700Y-43000D01*
X85700Y-43000D02*
X85892Y-43000D01*
X85892Y-43000D02*
X86144Y-42748D01*
G54D17*
X87850Y-43000D02*
X87850Y-43750D01*
X87850Y-43750D02*
X88050Y-43950D01*
X87850Y-42200D02*
X87850Y-43000D01*
G54D16*
X86400Y-42000D02*
X86400Y-41525D01*
X88450Y-43000D02*
X88450Y-42200D01*
X88141Y-40875D02*
X88450Y-41184D01*
X88450Y-41184D02*
X88450Y-42200D01*
X85150Y-42400D02*
X85150Y-41500D01*
X84550Y-43000D02*
X85150Y-42400D01*
X85150Y-41500D02*
X85644Y-41500D01*
X85644Y-41500D02*
X86144Y-42000D01*
X86656Y-42000D02*
X87058Y-41597D01*
X87058Y-41597D02*
X87058Y-40875D01*
X86400Y-42748D02*
X86400Y-43350D01*
X86400Y-43350D02*
X85800Y-43950D01*
X86656Y-42748D02*
X86656Y-43681D01*
X86656Y-43681D02*
X86925Y-43950D01*
G54D17*
X87058Y-40324D02*
X87058Y-39458D01*
X87058Y-39458D02*
X87050Y-39450D01*
X88141Y-40324D02*
X88141Y-39541D01*
X88141Y-39541D02*
X88050Y-39450D01*
G54D10*
G36*
X88844Y-44544D02*
X88804Y-44544D01*
X88804Y-43179D01*
X88804Y-42820D01*
X88804Y-42729D01*
X88769Y-42644D01*
X88724Y-42600D01*
X88769Y-42555D01*
X88804Y-42470D01*
X88804Y-42379D01*
X88804Y-42020D01*
X88804Y-41929D01*
X88769Y-41844D01*
X88715Y-41790D01*
X88715Y-41046D01*
X88715Y-41003D01*
X88657Y-40946D01*
X88211Y-40946D01*
X88211Y-41264D01*
X88269Y-41321D01*
X88531Y-41321D01*
X88615Y-41286D01*
X88680Y-41222D01*
X88715Y-41137D01*
X88715Y-41046D01*
X88715Y-41790D01*
X88704Y-41780D01*
X88620Y-41745D01*
X88569Y-41745D01*
X88512Y-41802D01*
X88512Y-42129D01*
X88747Y-42129D01*
X88804Y-42072D01*
X88804Y-42020D01*
X88804Y-42379D01*
X88804Y-42327D01*
X88747Y-42270D01*
X88512Y-42270D01*
X88512Y-42597D01*
X88515Y-42600D01*
X88512Y-42602D01*
X88512Y-42929D01*
X88747Y-42929D01*
X88804Y-42872D01*
X88804Y-42820D01*
X88804Y-43179D01*
X88804Y-43127D01*
X88747Y-43070D01*
X88512Y-43070D01*
X88512Y-43397D01*
X88569Y-43454D01*
X88620Y-43454D01*
X88704Y-43419D01*
X88769Y-43355D01*
X88804Y-43270D01*
X88804Y-43179D01*
X88804Y-44544D01*
X84995Y-44544D01*
X84995Y-44369D01*
X84675Y-44049D01*
X84575Y-44149D01*
X84575Y-43950D01*
X84255Y-43629D01*
X84163Y-43665D01*
X84093Y-43882D01*
X84112Y-44110D01*
X84163Y-44234D01*
X84255Y-44270D01*
X84575Y-43950D01*
X84575Y-44149D01*
X84354Y-44369D01*
X84390Y-44461D01*
X84607Y-44531D01*
X84835Y-44512D01*
X84959Y-44461D01*
X84995Y-44369D01*
X84995Y-44544D01*
X83855Y-44544D01*
X83855Y-39055D01*
X86636Y-39055D01*
X86566Y-39126D01*
X86479Y-39335D01*
X86479Y-39563D01*
X86565Y-39772D01*
X86674Y-39881D01*
X86669Y-39881D01*
X86586Y-39915D01*
X86522Y-39979D01*
X86487Y-40062D01*
X86487Y-40152D01*
X86487Y-40585D01*
X86493Y-40599D01*
X86487Y-40613D01*
X86487Y-40703D01*
X86487Y-41136D01*
X86522Y-41220D01*
X86585Y-41283D01*
X86668Y-41318D01*
X86759Y-41318D01*
X86782Y-41318D01*
X86782Y-41482D01*
X86718Y-41547D01*
X86680Y-41547D01*
X86542Y-41547D01*
X86532Y-41551D01*
X86514Y-41544D01*
X86491Y-41543D01*
X86434Y-41601D01*
X86434Y-41605D01*
X86399Y-41640D01*
X86365Y-41605D01*
X86365Y-41601D01*
X86308Y-41543D01*
X86285Y-41544D01*
X86267Y-41551D01*
X86258Y-41547D01*
X86168Y-41547D01*
X86081Y-41547D01*
X85839Y-41304D01*
X85749Y-41244D01*
X85644Y-41223D01*
X85498Y-41223D01*
X85467Y-41146D01*
X85403Y-41083D01*
X85320Y-41048D01*
X85230Y-41048D01*
X84980Y-41048D01*
X84896Y-41082D01*
X84852Y-41127D01*
X84804Y-41080D01*
X84720Y-41045D01*
X84669Y-41045D01*
X84612Y-41102D01*
X84612Y-41429D01*
X84628Y-41429D01*
X84628Y-41570D01*
X84612Y-41570D01*
X84612Y-41897D01*
X84669Y-41954D01*
X84720Y-41954D01*
X84804Y-41919D01*
X84852Y-41872D01*
X84873Y-41893D01*
X84873Y-42285D01*
X84610Y-42548D01*
X84487Y-42548D01*
X84487Y-41897D01*
X84487Y-41570D01*
X84487Y-41429D01*
X84487Y-41102D01*
X84430Y-41045D01*
X84379Y-41045D01*
X84295Y-41080D01*
X84230Y-41144D01*
X84195Y-41229D01*
X84195Y-41320D01*
X84195Y-41372D01*
X84252Y-41429D01*
X84487Y-41429D01*
X84487Y-41570D01*
X84252Y-41570D01*
X84195Y-41627D01*
X84195Y-41679D01*
X84195Y-41770D01*
X84230Y-41855D01*
X84295Y-41919D01*
X84379Y-41954D01*
X84430Y-41954D01*
X84487Y-41897D01*
X84487Y-42548D01*
X84380Y-42548D01*
X84296Y-42582D01*
X84233Y-42646D01*
X84198Y-42729D01*
X84198Y-42819D01*
X84198Y-43269D01*
X84232Y-43353D01*
X84296Y-43416D01*
X84379Y-43451D01*
X84385Y-43451D01*
X84354Y-43530D01*
X84675Y-43850D01*
X84995Y-43530D01*
X84961Y-43443D01*
X84979Y-43451D01*
X85069Y-43451D01*
X85319Y-43451D01*
X85403Y-43417D01*
X85466Y-43353D01*
X85472Y-43340D01*
X85472Y-43340D01*
X85619Y-43401D01*
X85633Y-43401D01*
X85477Y-43465D01*
X85316Y-43626D01*
X85239Y-43811D01*
X85237Y-43789D01*
X85186Y-43665D01*
X85094Y-43629D01*
X84774Y-43950D01*
X85094Y-44270D01*
X85186Y-44234D01*
X85236Y-44080D01*
X85315Y-44272D01*
X85476Y-44433D01*
X85685Y-44520D01*
X85913Y-44520D01*
X86122Y-44434D01*
X86283Y-44273D01*
X86362Y-44083D01*
X86440Y-44272D01*
X86601Y-44433D01*
X86810Y-44520D01*
X87038Y-44520D01*
X87247Y-44434D01*
X87408Y-44273D01*
X87487Y-44083D01*
X87565Y-44272D01*
X87726Y-44433D01*
X87935Y-44520D01*
X88163Y-44520D01*
X88372Y-44434D01*
X88533Y-44273D01*
X88620Y-44064D01*
X88620Y-43836D01*
X88534Y-43627D01*
X88373Y-43466D01*
X88334Y-43450D01*
X88387Y-43397D01*
X88387Y-43070D01*
X88371Y-43070D01*
X88371Y-42929D01*
X88387Y-42929D01*
X88387Y-42602D01*
X88384Y-42600D01*
X88387Y-42597D01*
X88387Y-42270D01*
X88371Y-42270D01*
X88371Y-42129D01*
X88387Y-42129D01*
X88387Y-41802D01*
X88330Y-41745D01*
X88279Y-41745D01*
X88195Y-41780D01*
X88147Y-41827D01*
X88103Y-41783D01*
X88020Y-41748D01*
X87930Y-41748D01*
X87680Y-41748D01*
X87596Y-41782D01*
X87533Y-41846D01*
X87498Y-41929D01*
X87498Y-42019D01*
X87498Y-42469D01*
X87500Y-42473D01*
X87441Y-42473D01*
X87377Y-42409D01*
X87230Y-42348D01*
X87070Y-42348D01*
X86923Y-42409D01*
X86917Y-42393D01*
X86897Y-42374D01*
X86916Y-42354D01*
X86951Y-42271D01*
X86951Y-42181D01*
X86951Y-42095D01*
X87254Y-41792D01*
X87314Y-41703D01*
X87314Y-41703D01*
X87335Y-41597D01*
X87335Y-41318D01*
X87447Y-41318D01*
X87531Y-41284D01*
X87594Y-41220D01*
X87598Y-41212D01*
X87602Y-41222D01*
X87667Y-41286D01*
X87751Y-41321D01*
X88013Y-41321D01*
X88070Y-41264D01*
X88070Y-40946D01*
X88062Y-40946D01*
X88062Y-40805D01*
X88070Y-40805D01*
X88070Y-40797D01*
X88211Y-40797D01*
X88211Y-40805D01*
X88657Y-40805D01*
X88715Y-40747D01*
X88715Y-40704D01*
X88715Y-40613D01*
X88708Y-40595D01*
X88712Y-40586D01*
X88712Y-40496D01*
X88712Y-40063D01*
X88677Y-39979D01*
X88614Y-39916D01*
X88531Y-39881D01*
X88466Y-39881D01*
X88466Y-39841D01*
X88533Y-39773D01*
X88620Y-39564D01*
X88620Y-39336D01*
X88534Y-39127D01*
X88463Y-39055D01*
X88844Y-39055D01*
X88844Y-44544D01*
X88844Y-44544D01*
G37*
G54D18*
X88844Y-44544D02*
X88804Y-44544D01*
X88804Y-43179D01*
X88804Y-42820D01*
X88804Y-42729D01*
X88769Y-42644D01*
X88724Y-42600D01*
X88769Y-42555D01*
X88804Y-42470D01*
X88804Y-42379D01*
X88804Y-42020D01*
X88804Y-41929D01*
X88769Y-41844D01*
X88715Y-41790D01*
X88715Y-41046D01*
X88715Y-41003D01*
X88657Y-40946D01*
X88211Y-40946D01*
X88211Y-41264D01*
X88269Y-41321D01*
X88531Y-41321D01*
X88615Y-41286D01*
X88680Y-41222D01*
X88715Y-41137D01*
X88715Y-41046D01*
X88715Y-41790D01*
X88704Y-41780D01*
X88620Y-41745D01*
X88569Y-41745D01*
X88512Y-41802D01*
X88512Y-42129D01*
X88747Y-42129D01*
X88804Y-42072D01*
X88804Y-42020D01*
X88804Y-42379D01*
X88804Y-42327D01*
X88747Y-42270D01*
X88512Y-42270D01*
X88512Y-42597D01*
X88515Y-42600D01*
X88512Y-42602D01*
X88512Y-42929D01*
X88747Y-42929D01*
X88804Y-42872D01*
X88804Y-42820D01*
X88804Y-43179D01*
X88804Y-43127D01*
X88747Y-43070D01*
X88512Y-43070D01*
X88512Y-43397D01*
X88569Y-43454D01*
X88620Y-43454D01*
X88704Y-43419D01*
X88769Y-43355D01*
X88804Y-43270D01*
X88804Y-43179D01*
X88804Y-44544D01*
X84995Y-44544D01*
X84995Y-44369D01*
X84675Y-44049D01*
X84575Y-44149D01*
X84575Y-43950D01*
X84255Y-43629D01*
X84163Y-43665D01*
X84093Y-43882D01*
X84112Y-44110D01*
X84163Y-44234D01*
X84255Y-44270D01*
X84575Y-43950D01*
X84575Y-44149D01*
X84354Y-44369D01*
X84390Y-44461D01*
X84607Y-44531D01*
X84835Y-44512D01*
X84959Y-44461D01*
X84995Y-44369D01*
X84995Y-44544D01*
X83855Y-44544D01*
X83855Y-39055D01*
X86636Y-39055D01*
X86566Y-39126D01*
X86479Y-39335D01*
X86479Y-39563D01*
X86565Y-39772D01*
X86674Y-39881D01*
X86669Y-39881D01*
X86586Y-39915D01*
X86522Y-39979D01*
X86487Y-40062D01*
X86487Y-40152D01*
X86487Y-40585D01*
X86493Y-40599D01*
X86487Y-40613D01*
X86487Y-40703D01*
X86487Y-41136D01*
X86522Y-41220D01*
X86585Y-41283D01*
X86668Y-41318D01*
X86759Y-41318D01*
X86782Y-41318D01*
X86782Y-41482D01*
X86718Y-41547D01*
X86680Y-41547D01*
X86542Y-41547D01*
X86532Y-41551D01*
X86514Y-41544D01*
X86491Y-41543D01*
X86434Y-41601D01*
X86434Y-41605D01*
X86399Y-41640D01*
X86365Y-41605D01*
X86365Y-41601D01*
X86308Y-41543D01*
X86285Y-41544D01*
X86267Y-41551D01*
X86258Y-41547D01*
X86168Y-41547D01*
X86081Y-41547D01*
X85839Y-41304D01*
X85749Y-41244D01*
X85644Y-41223D01*
X85498Y-41223D01*
X85467Y-41146D01*
X85403Y-41083D01*
X85320Y-41048D01*
X85230Y-41048D01*
X84980Y-41048D01*
X84896Y-41082D01*
X84852Y-41127D01*
X84804Y-41080D01*
X84720Y-41045D01*
X84669Y-41045D01*
X84612Y-41102D01*
X84612Y-41429D01*
X84628Y-41429D01*
X84628Y-41570D01*
X84612Y-41570D01*
X84612Y-41897D01*
X84669Y-41954D01*
X84720Y-41954D01*
X84804Y-41919D01*
X84852Y-41872D01*
X84873Y-41893D01*
X84873Y-42285D01*
X84610Y-42548D01*
X84487Y-42548D01*
X84487Y-41897D01*
X84487Y-41570D01*
X84487Y-41429D01*
X84487Y-41102D01*
X84430Y-41045D01*
X84379Y-41045D01*
X84295Y-41080D01*
X84230Y-41144D01*
X84195Y-41229D01*
X84195Y-41320D01*
X84195Y-41372D01*
X84252Y-41429D01*
X84487Y-41429D01*
X84487Y-41570D01*
X84252Y-41570D01*
X84195Y-41627D01*
X84195Y-41679D01*
X84195Y-41770D01*
X84230Y-41855D01*
X84295Y-41919D01*
X84379Y-41954D01*
X84430Y-41954D01*
X84487Y-41897D01*
X84487Y-42548D01*
X84380Y-42548D01*
X84296Y-42582D01*
X84233Y-42646D01*
X84198Y-42729D01*
X84198Y-42819D01*
X84198Y-43269D01*
X84232Y-43353D01*
X84296Y-43416D01*
X84379Y-43451D01*
X84385Y-43451D01*
X84354Y-43530D01*
X84675Y-43850D01*
X84995Y-43530D01*
X84961Y-43443D01*
X84979Y-43451D01*
X85069Y-43451D01*
X85319Y-43451D01*
X85403Y-43417D01*
X85466Y-43353D01*
X85472Y-43340D01*
X85472Y-43340D01*
X85619Y-43401D01*
X85633Y-43401D01*
X85477Y-43465D01*
X85316Y-43626D01*
X85239Y-43811D01*
X85237Y-43789D01*
X85186Y-43665D01*
X85094Y-43629D01*
X84774Y-43950D01*
X85094Y-44270D01*
X85186Y-44234D01*
X85236Y-44080D01*
X85315Y-44272D01*
X85476Y-44433D01*
X85685Y-44520D01*
X85913Y-44520D01*
X86122Y-44434D01*
X86283Y-44273D01*
X86362Y-44083D01*
X86440Y-44272D01*
X86601Y-44433D01*
X86810Y-44520D01*
X87038Y-44520D01*
X87247Y-44434D01*
X87408Y-44273D01*
X87487Y-44083D01*
X87565Y-44272D01*
X87726Y-44433D01*
X87935Y-44520D01*
X88163Y-44520D01*
X88372Y-44434D01*
X88533Y-44273D01*
X88620Y-44064D01*
X88620Y-43836D01*
X88534Y-43627D01*
X88373Y-43466D01*
X88334Y-43450D01*
X88387Y-43397D01*
X88387Y-43070D01*
X88371Y-43070D01*
X88371Y-42929D01*
X88387Y-42929D01*
X88387Y-42602D01*
X88384Y-42600D01*
X88387Y-42597D01*
X88387Y-42270D01*
X88371Y-42270D01*
X88371Y-42129D01*
X88387Y-42129D01*
X88387Y-41802D01*
X88330Y-41745D01*
X88279Y-41745D01*
X88195Y-41780D01*
X88147Y-41827D01*
X88103Y-41783D01*
X88020Y-41748D01*
X87930Y-41748D01*
X87680Y-41748D01*
X87596Y-41782D01*
X87533Y-41846D01*
X87498Y-41929D01*
X87498Y-42019D01*
X87498Y-42469D01*
X87500Y-42473D01*
X87441Y-42473D01*
X87377Y-42409D01*
X87230Y-42348D01*
X87070Y-42348D01*
X86923Y-42409D01*
X86917Y-42393D01*
X86897Y-42374D01*
X86916Y-42354D01*
X86951Y-42271D01*
X86951Y-42181D01*
X86951Y-42095D01*
X87254Y-41792D01*
X87314Y-41703D01*
X87314Y-41703D01*
X87335Y-41597D01*
X87335Y-41318D01*
X87447Y-41318D01*
X87531Y-41284D01*
X87594Y-41220D01*
X87598Y-41212D01*
X87602Y-41222D01*
X87667Y-41286D01*
X87751Y-41321D01*
X88013Y-41321D01*
X88070Y-41264D01*
X88070Y-40946D01*
X88062Y-40946D01*
X88062Y-40805D01*
X88070Y-40805D01*
X88070Y-40797D01*
X88211Y-40797D01*
X88211Y-40805D01*
X88657Y-40805D01*
X88715Y-40747D01*
X88715Y-40704D01*
X88715Y-40613D01*
X88708Y-40595D01*
X88712Y-40586D01*
X88712Y-40496D01*
X88712Y-40063D01*
X88677Y-39979D01*
X88614Y-39916D01*
X88531Y-39881D01*
X88466Y-39881D01*
X88466Y-39841D01*
X88533Y-39773D01*
X88620Y-39564D01*
X88620Y-39336D01*
X88534Y-39127D01*
X88463Y-39055D01*
X88844Y-39055D01*
X88844Y-44544D01*
M02*
