G04 (created by PCBNEW (2013-03-04 BZR 3984)-stable) date 10/11/2013 5:02:54 PM*
%MOIN*%
G04 Gerber Fmt 3.4, Leading zero omitted, Abs format*
%FSLAX34Y34*%
G01*
G70*
G90*
G04 APERTURE LIST*
%ADD10C,0.006*%
%ADD11C,0.0688976*%
%ADD12C,0.035*%
%ADD13C,0.01*%
%ADD14C,0.00590551*%
G04 APERTURE END LIST*
G54D10*
G54D11*
X88050Y-39450D03*
X88050Y-43950D03*
X86925Y-43950D03*
X87050Y-39450D03*
X84675Y-43950D03*
X85800Y-43950D03*
G54D12*
X85700Y-43000D03*
X87150Y-42750D03*
G54D13*
X86900Y-43000D02*
X85700Y-43000D01*
X87150Y-42750D02*
X86900Y-43000D01*
G54D10*
G36*
X88844Y-44544D02*
X88620Y-44544D01*
X88620Y-43836D01*
X88534Y-43627D01*
X88373Y-43466D01*
X88164Y-43379D01*
X87936Y-43379D01*
X87727Y-43465D01*
X87566Y-43626D01*
X87487Y-43816D01*
X87409Y-43627D01*
X87248Y-43466D01*
X87039Y-43379D01*
X86811Y-43379D01*
X86602Y-43465D01*
X86441Y-43626D01*
X86362Y-43816D01*
X86284Y-43627D01*
X86123Y-43466D01*
X85914Y-43379D01*
X85833Y-43379D01*
X85927Y-43340D01*
X85991Y-43276D01*
X86900Y-43276D01*
X87005Y-43255D01*
X87005Y-43255D01*
X87095Y-43195D01*
X87139Y-43151D01*
X87229Y-43151D01*
X87377Y-43090D01*
X87490Y-42977D01*
X87551Y-42830D01*
X87551Y-42670D01*
X87490Y-42522D01*
X87377Y-42409D01*
X87230Y-42348D01*
X87070Y-42348D01*
X86922Y-42409D01*
X86809Y-42522D01*
X86748Y-42669D01*
X86748Y-42723D01*
X85991Y-42723D01*
X85927Y-42659D01*
X85780Y-42598D01*
X85620Y-42598D01*
X85472Y-42659D01*
X85359Y-42772D01*
X85298Y-42919D01*
X85298Y-43079D01*
X85359Y-43227D01*
X85472Y-43340D01*
X85619Y-43401D01*
X85633Y-43401D01*
X85477Y-43465D01*
X85316Y-43626D01*
X85239Y-43811D01*
X85237Y-43789D01*
X85186Y-43665D01*
X85094Y-43629D01*
X84995Y-43729D01*
X84995Y-43530D01*
X84959Y-43438D01*
X84742Y-43368D01*
X84514Y-43387D01*
X84390Y-43438D01*
X84354Y-43530D01*
X84675Y-43850D01*
X84995Y-43530D01*
X84995Y-43729D01*
X84774Y-43950D01*
X85094Y-44270D01*
X85186Y-44234D01*
X85236Y-44080D01*
X85315Y-44272D01*
X85476Y-44433D01*
X85685Y-44520D01*
X85913Y-44520D01*
X86122Y-44434D01*
X86283Y-44273D01*
X86362Y-44083D01*
X86440Y-44272D01*
X86601Y-44433D01*
X86810Y-44520D01*
X87038Y-44520D01*
X87247Y-44434D01*
X87408Y-44273D01*
X87487Y-44083D01*
X87565Y-44272D01*
X87726Y-44433D01*
X87935Y-44520D01*
X88163Y-44520D01*
X88372Y-44434D01*
X88533Y-44273D01*
X88620Y-44064D01*
X88620Y-43836D01*
X88620Y-44544D01*
X84995Y-44544D01*
X84995Y-44369D01*
X84675Y-44049D01*
X84575Y-44149D01*
X84575Y-43950D01*
X84255Y-43629D01*
X84163Y-43665D01*
X84093Y-43882D01*
X84112Y-44110D01*
X84163Y-44234D01*
X84255Y-44270D01*
X84575Y-43950D01*
X84575Y-44149D01*
X84354Y-44369D01*
X84390Y-44461D01*
X84607Y-44531D01*
X84835Y-44512D01*
X84959Y-44461D01*
X84995Y-44369D01*
X84995Y-44544D01*
X83855Y-44544D01*
X83855Y-39055D01*
X86636Y-39055D01*
X86566Y-39126D01*
X86479Y-39335D01*
X86479Y-39563D01*
X86565Y-39772D01*
X86726Y-39933D01*
X86935Y-40020D01*
X87163Y-40020D01*
X87372Y-39934D01*
X87533Y-39773D01*
X87549Y-39734D01*
X87565Y-39772D01*
X87726Y-39933D01*
X87935Y-40020D01*
X88163Y-40020D01*
X88372Y-39934D01*
X88533Y-39773D01*
X88620Y-39564D01*
X88620Y-39336D01*
X88534Y-39127D01*
X88463Y-39055D01*
X88844Y-39055D01*
X88844Y-44544D01*
X88844Y-44544D01*
G37*
G54D14*
X88844Y-44544D02*
X88620Y-44544D01*
X88620Y-43836D01*
X88534Y-43627D01*
X88373Y-43466D01*
X88164Y-43379D01*
X87936Y-43379D01*
X87727Y-43465D01*
X87566Y-43626D01*
X87487Y-43816D01*
X87409Y-43627D01*
X87248Y-43466D01*
X87039Y-43379D01*
X86811Y-43379D01*
X86602Y-43465D01*
X86441Y-43626D01*
X86362Y-43816D01*
X86284Y-43627D01*
X86123Y-43466D01*
X85914Y-43379D01*
X85833Y-43379D01*
X85927Y-43340D01*
X85991Y-43276D01*
X86900Y-43276D01*
X87005Y-43255D01*
X87005Y-43255D01*
X87095Y-43195D01*
X87139Y-43151D01*
X87229Y-43151D01*
X87377Y-43090D01*
X87490Y-42977D01*
X87551Y-42830D01*
X87551Y-42670D01*
X87490Y-42522D01*
X87377Y-42409D01*
X87230Y-42348D01*
X87070Y-42348D01*
X86922Y-42409D01*
X86809Y-42522D01*
X86748Y-42669D01*
X86748Y-42723D01*
X85991Y-42723D01*
X85927Y-42659D01*
X85780Y-42598D01*
X85620Y-42598D01*
X85472Y-42659D01*
X85359Y-42772D01*
X85298Y-42919D01*
X85298Y-43079D01*
X85359Y-43227D01*
X85472Y-43340D01*
X85619Y-43401D01*
X85633Y-43401D01*
X85477Y-43465D01*
X85316Y-43626D01*
X85239Y-43811D01*
X85237Y-43789D01*
X85186Y-43665D01*
X85094Y-43629D01*
X84995Y-43729D01*
X84995Y-43530D01*
X84959Y-43438D01*
X84742Y-43368D01*
X84514Y-43387D01*
X84390Y-43438D01*
X84354Y-43530D01*
X84675Y-43850D01*
X84995Y-43530D01*
X84995Y-43729D01*
X84774Y-43950D01*
X85094Y-44270D01*
X85186Y-44234D01*
X85236Y-44080D01*
X85315Y-44272D01*
X85476Y-44433D01*
X85685Y-44520D01*
X85913Y-44520D01*
X86122Y-44434D01*
X86283Y-44273D01*
X86362Y-44083D01*
X86440Y-44272D01*
X86601Y-44433D01*
X86810Y-44520D01*
X87038Y-44520D01*
X87247Y-44434D01*
X87408Y-44273D01*
X87487Y-44083D01*
X87565Y-44272D01*
X87726Y-44433D01*
X87935Y-44520D01*
X88163Y-44520D01*
X88372Y-44434D01*
X88533Y-44273D01*
X88620Y-44064D01*
X88620Y-43836D01*
X88620Y-44544D01*
X84995Y-44544D01*
X84995Y-44369D01*
X84675Y-44049D01*
X84575Y-44149D01*
X84575Y-43950D01*
X84255Y-43629D01*
X84163Y-43665D01*
X84093Y-43882D01*
X84112Y-44110D01*
X84163Y-44234D01*
X84255Y-44270D01*
X84575Y-43950D01*
X84575Y-44149D01*
X84354Y-44369D01*
X84390Y-44461D01*
X84607Y-44531D01*
X84835Y-44512D01*
X84959Y-44461D01*
X84995Y-44369D01*
X84995Y-44544D01*
X83855Y-44544D01*
X83855Y-39055D01*
X86636Y-39055D01*
X86566Y-39126D01*
X86479Y-39335D01*
X86479Y-39563D01*
X86565Y-39772D01*
X86726Y-39933D01*
X86935Y-40020D01*
X87163Y-40020D01*
X87372Y-39934D01*
X87533Y-39773D01*
X87549Y-39734D01*
X87565Y-39772D01*
X87726Y-39933D01*
X87935Y-40020D01*
X88163Y-40020D01*
X88372Y-39934D01*
X88533Y-39773D01*
X88620Y-39564D01*
X88620Y-39336D01*
X88534Y-39127D01*
X88463Y-39055D01*
X88844Y-39055D01*
X88844Y-44544D01*
M02*
